<svg version="1.1" id="Layer_1" xmlns="http://www.w3.org/2000/svg" xmlns:xlink="http://www.w3.org/1999/xlink" x="0px" y="0px"
	 viewBox="0 0 1024 1024" style="enable-background:new 0 0 1024 1024;" xml:space="preserve">
<path d="M972.3,477c-1.5-9.4-8.6-19.4-15.7-20.2c-7.2-0.8-9.3-5.6-19.8-10.4c-11.1-5.2-15.6-14.7-26.9-21.2
	c-11.2-6.5-30.6-53-44.8-62.9c-14.3-9.9-73.6-56.1-94.7-62.5c-19.1-5.9-79.3-13.2-107-10.9c-27.7,2.2-50,2.4-62.7,2.4
	s-16-19-16-36.1c-0.1-18.2-18.3-61.6-14-78.7c4.4-17.3,5.3-32.7,19-39.2c13.7-6.5,50.7-23.5,68.3-33.2c17.7-9.7,16.1-13.9,23-15
	s21.5-1.4,39.8-1.6c18.4-0.2,30.5-4.6,41.7-7c11.1-2.3,25.3-9.6,17.5-15.4c-7.9-5.8-22.5-5.5-33.1-4c-10.6,1.6-33.6,5.7-48,3.4
	c-14.3-2.3-35.5-3-48.4-12.4c-13-9.6-23.4-23.9-32.7-26.4c-9.3-2.4-17.6-6.9-19.2-0.3c-1.6,6.5,1.4,8.6,5.7,16.3
	c4.3,7.6,23.9,27.6,31.2,29.1c7.3,1.5,20.6,1.4,17.6,7c-3,5.5-18.3,13.6-25.2,19.1c-6.9,5.5-49.5,29.2-62.1,34.3
	c-12.6,5.2-50.3,8.9-56,5.2c-5.7-3.6-25.2,1.8-34.3,1.4c-9-0.5-52.2,1.1-74.4-7.6c-22.3-8.7-33.5-20.6-37.6-22.5
	c-4.1-1.9-18.4-12.5-15.2-16.2s3.4-6.9,17.7-17.9c14.3-11.1,14.3-10.4,23.1-20.7c8.6-10.2,14.7-21.3,7-21.4
	c-7.7-0.1-13.6-1.2-20,6.2c-6.5,7.4-24.8,26-31.7,30.4c-7.1,4.2-18.6,16.8-21.4,18.6c-2.8,1.7-26.2,3.3-32.9,5.6
	c-6.6,2.3-15.6,8.4-23.5,10.9c-7.9,2.5-22.3,1.3-28.5,7.8c-6,6.6-6.9,4.8-2.6,11.9s6.6,10.4,16.2,6.4c9.6-4,18.6-4,29-10.8
	c10.4-6.6,18.4-13,27.5-11.8c9.1,1.2,21-0.5,25.7,5.7c4.7,6.3,27.8,25.7,55.6,31.7c27.7,6,21.5,2.4,25.1,5.1s5.3,5.6,2.4,11.8
	c-2.8,6.2-10,52.5-9.8,70.4c0.1,17.8,8.5,51.8,6,64.8c-2.5,13.2-14.3,18.8-23.9,22.8c-9.6,4-25,7.6-34.8,6.4
	c-9.8-1.1-21.1-4.4-32.2-6c-11.1-1.6-48.8,1.5-60.3,4.4c-11.7,3-43.4,20.2-70.5,36.8c-27.9,17-60.2,54.1-65.6,64.5
	c-5.4,10.4-17.2,38.4-20.9,43.3c-3.7,5.1-5.8,14.2-5.1,21.5c0.4,3.8-4.8,7-6.1,11c-1.4,4-7.3,7.7-12.9,13.1
	c-6,5.8-16.7,16.4-18.9,18.8c-2.2,2.2-11.9,6.4-8.9,9.8c3.1,3.4,5.1,8.6,14.5,1.5c9.6-7.2,13.9-13.2,21.2-16.7
	c8.9-4.4,12-7.9,15.8-7.8c3.9,0.1,7.8,6.2,2.1,10.1c-5.8,4-16,16.9-19,22.5c-3,5.5-15.9,21.1-12,21.7c3.9,0.6,8.7,3.7,17.3-3.9
	c7.8-7,13.4-23.2,19.9-29c5.8-5.2,7.9-11.9,13.1-11.4c5.2,0.5,6.6,1.6,5.9,9.3c-0.7,7.7-4.3,11.2-5.6,15.9c-0.5,1.9-5,8.6-5.9,13.8
	c-1.9,9.8-6,12,1.2,13c7.2,0.9,7.3,1.5,12.3-7c5.2-8.4,5-9.7,8.3-21.1s-0.1-22.2,9.5-23.4c3.5-0.4,2.1,2.7,4.2,12.6
	c2.1,9.8,0.5,15.7,3.1,25c1.5,5.2-1.1,11.7,4,14c12,5.7,14.3,4,13.2-3.6c-1.2-7.6-1.3-9.7-1.3-15.5s-1.7-7.4-2.8-15.5
	c-1.3-8.1-3.2-9.7-3.9-13.5c-0.6-3.9,0.8-3-3.4-9.9c-4.2-7.1-0.4-19.2,0.6-25.1c1.1-5.9,11.4-34.3,19.4-44.4c8-10.1,16.1-23,23.1-29
	c7.2-6.2,17.1-14.5,33.7-22.5c13.5-6.3,23.5-8,28.9-3.1c6.1,5.5,4.5,21.6,13.2,45.7c8.7,24.2,17.1,45.9,17,70.7
	c-0.1,24.9-4.2,153.6-6,167.2c-1.7,13.7-6.3,46.2-7.5,79.8c-0.6,17.5-1.2,49.8-8.4,65.5c-7.3,15.7-10.9,50.7-20.9,64.9
	c-9.9,14.3-34.2,56.8-37.7,66.9c-3.6,10.1-3.5,31.7,1.7,36.7s34.9,9,49-5.7c14-14.5,54.9-102.5,92-118.5
	c37.1-16.1,202.5-31.8,240.9-21.8c38.4,10,97.3,88.9,118.1,104.1c20.8,15.4,24.8,24.8,51,23.5c26.1-1.3,21.2-16.4,10.4-35.8
	c-10.9-19.4-35.8-82-44.8-107c-9-25-26.6-106.6-22.6-167.7s18.3-139.4-0.4-236.2c-4.8-25.2,14.9-54.6,36.2-52.5
	c21.3,2,36.6,12.8,46.7,24.6c14.4,16.8,29,37.9,37.3,47.9c7.5,8.9,5.2,17.6-1.4,37.4c-2.6,7.9-5.2,15.6-6.9,17.8
	c-1.6,2.1-2.6,12.4,2.7,13.6c5.3,1.2,17.1-11.2,17.8-14.4s5.6-6.3,6.1-15.4c0.5-9,8.6-25.8,13.2-25.3c4.5,0.5,2.4,21,3.1,25.3
	s5.4,19,8.6,27.4c3.2,8.5,6.2,15.6,10.3,13.7c4.1-1.9,10.2-16.8,8.2-26c-2-9.3-10-30.4-5.4-29.2c4.6,1.2,24.2,26.4,30.6,30.5
	c6.3,4.1,9.1,12,18.1,8.6c9.1-3.3,9.2-17.5,3.7-21.2c-6.9-4.7-14.4-5.3-19.6-14.3c-3.3-5.9-4.3-9.1-8.3-13.2
	c-5.7-5.9-8.2-10.1,0.9-9.8c5.1,0.2,6.3,3,12,5.7c5.8,2.8,5.8,2.6,11.3,6.1c5,3.2,8.6,7.2,16.6,13.4
	C967.6,491,973.6,486.3,972.3,477z M570.3,640.8c0.5,5.2-0.9,9.9-3.3,15c-3.6,8-10.1,14-17.2,19c-0.3,0.2-0.6,0.4-0.9,0.5
	c-1.7,2.7-3.7,5.3-6.1,7.5c-12.2,11.3-32.5,14.8-46.8,5.1c-1.2-0.7-2.2-1.7-3.3-2.6c-0.1,0-0.2,0-0.3,0c-5.7-0.5-9.3-0.8-14.3-3.9
	c-3.9-2.2-8-6-10.1-10c-2.7-5.2-3.9-10.1-3.8-15.5c-1.2-2.8-1.9-6-2.4-9.2c-0.9-1.2-1.8-2.4-2.8-3.7c-1.1-1.5-1.9-3-2.5-4.6
	c-3-7.1-5.8-13.3-5-21.2c0.7-6.6,3.1-12.4,6.6-17.2c2.2-5.9,6.1-10.3,11.3-13.6c1.9-2.7,4.2-5,7-6.9c3.8-5.2,9.4-9,15.8-10
	c3.1-1.7,6.3-3.1,9.7-4c14.9-3.8,27.2-0.4,40.8,5.9c4.1,1.8,7.9,5.5,11,9.8c5.9,4.1,10.9,9.5,14.5,16.3
	C575,610,574.7,626.4,570.3,640.8z"/>
</svg>
