<svg version="1.1" id="Layer_1" xmlns="http://www.w3.org/2000/svg" xmlns:xlink="http://www.w3.org/1999/xlink" x="0px" y="0px"
	 viewBox="0 0 1024 1024" style="enable-background:new 0 0 1024 1024;" xml:space="preserve">
<style type="text/css">
	.st0{fill:none;}
	.st1{fill-rule:evenodd;clip-rule:evenodd;}
</style>
<g id="Y5FaEA.tif">
	<g>
		<g>
			<path class="st0" d="M846.3,393.8c-32.4,0.3-58.8,27.1-58.6,59.5c0.2,32.3,27.3,59.1,59.4,58.7c32.2-0.3,59.2-27.7,58.8-59.6
				C905.6,420.1,878.6,393.5,846.3,393.8z"/>
			<path class="st0" d="M315.9,865.3c91.8,0,182.8,0,274.1,0c0-25.9,0-51.1,0-76.8c-91.6,0-182.6,0-274.1,0
				C315.9,814.5,315.9,839.8,315.9,865.3z"/>
			<path class="st0" d="M315.7,747.4c131,0,261.5,0,392.4,0c0-25.9,0-51.3,0-76.9c-131.2,0-261.6,0-392.4,0
				C315.7,696.5,315.7,721.6,315.7,747.4z"/>
			<path class="st0" d="M236.2,314c183.5,0,366.3,0,550.1,0c0.2-3.6,0.5-6.3,0.5-8.9c0-60.3,0.1-120.6,0-180.9
				c-0.1-30.3-14.9-45.5-45.5-45.5c-153.3-0.2-306.5-0.2-459.8,0c-31,0-45.8,15.5-45.8,46.4c-0.1,59.6,0,119.3,0,178.9
				C235.6,307.2,236,310.4,236.2,314z"/>
		</g>
		<g>
			<path class="st0" d="M236.2,314c183.5,0,366.3,0,550.1,0c0.2-3.6,0.5-6.3,0.5-8.9c0-60.3,0.1-120.6,0-180.9
				c-0.1-30.3-14.9-45.5-45.5-45.5c-153.3-0.2-306.5-0.2-459.8,0c-31,0-45.8,15.5-45.8,46.4c-0.1,59.6,0,119.3,0,178.9
				C235.6,307.2,236,310.4,236.2,314z"/>
			<path class="st0" d="M786.7,602c0-3.2-0.4-6.5-0.6-10.2c-183.5,0-366.3,0-550.1,0c-0.2,3.2-0.4,5.5-0.4,7.8
				c0,100.6,0,201.3,0,301.9c0,4.3,0.2,8.7,1.2,12.9c4.8,20.1,20.2,30.8,45.3,30.9c49,0.2,98,0.1,147,0.1
				c103.3,0,206.6,0.2,309.9-0.3c10.5-0.1,22.1-2.8,31.2-7.9c14.2-7.9,16.7-22.7,16.7-38.2C786.7,800,786.8,701,786.7,602z"/>
			<path d="M1020.9,406.7c-13.7-55.7-59.4-90.9-119.1-91.6c-11.6-0.1-23.2,0-36,0c0-4.9,0-8.8,0-12.6c0-60.3,0.1-120.6,0-180.8
				c-0.1-29.9-8.7-56.9-28.6-79.9c-19-22-42.7-35.5-71.5-39.9c-1.9-0.3-3.7-1.2-5.6-1.8C594,0,428,0,262,0
				c-6.1,1.5-12.2,2.7-18.2,4.5c-45,13.5-73,43.5-84.2,88.9c-2.4,9.9-2.9,20.5-2.9,30.7c-0.3,59.3-0.1,118.7-0.1,178
				c0,3.9,0,7.9,0,13.7c-16.3,0-31.6-0.8-46.8,0.1C48.8,319.8,0.8,370,0.4,431.1c-0.5,80-0.5,160,0,240
				c0.4,63.4,51.3,114.6,114.8,116.5c13.3,0.4,26.6,0.1,41,0.1c0.2,4.2,0.5,7.7,0.5,11.2c0,34.3-0.2,68.7,0.1,103
				c0.3,40,15,73.2,47.1,98c20.7,16,44.5,23.9,70.5,24c158,0.2,316,0.3,474,0c55.8-0.1,102.3-38.4,114.7-93.2
				c2.1-9.3,2.5-19.2,2.6-28.8c0.3-34,0.1-68,0.1-102c0-3.6,0-7.2,0-12c11.8,0,22.7-0.3,33.6,0c71.2,1.9,116.9-50.4,123.1-100.2
				c0.2-1.2,1.1-2.4,1.7-3.6c0-88.7,0-177.3,0-266C1022.9,414.2,1021.8,410.5,1020.9,406.7z M235.6,125c0-30.9,14.9-46.3,45.8-46.4
				c153.3-0.2,306.5-0.2,459.8,0c30.6,0,45.4,15.3,45.5,45.5c0.1,60.3,0,120.6,0,180.9c0,2.6-0.3,5.2-0.5,8.9
				c-183.8,0-366.6,0-550.1,0c-0.2-3.6-0.5-6.8-0.5-10.1C235.6,244.3,235.6,184.7,235.6,125z M770.1,937.1
				c-9.1,5.1-20.7,7.8-31.2,7.9c-103.3,0.6-206.6,0.3-309.9,0.3c-49,0-98,0.1-147-0.1c-25-0.1-40.5-10.8-45.3-30.9
				c-1-4.2-1.2-8.6-1.2-12.9c-0.1-100.6-0.1-201.3,0-301.9c0-2.3,0.2-4.6,0.4-7.8c183.8,0,366.6,0,550.1,0c0.2,3.7,0.6,6.9,0.6,10.2
				c0,99-0.1,197.9,0.1,296.9C786.9,914.4,784.3,929.3,770.1,937.1z M847.2,512.1c-32.1,0.3-59.2-26.4-59.4-58.7
				c-0.2-32.4,26.2-59.2,58.6-59.5c32.2-0.3,59.2,26.2,59.7,58.6C906.4,484.3,879.4,511.7,847.2,512.1z"/>
		</g>
		<path class="st1" d="M315.7,747.4c0-25.8,0-50.9,0-76.9c130.7,0,261.1,0,392.4,0c0,25.6,0,50.9,0,76.9
			C577.2,747.4,446.8,747.4,315.7,747.4z"/>
		<path class="st1" d="M590,788.5c0,25.7,0,50.9,0,76.8c-91.2,0-182.2,0-274.1,0c0-25.5,0-50.9,0-76.8
			C407.4,788.5,498.4,788.5,590,788.5z"/>
	</g>
</g>
</svg>
