<?xml version="1.0" encoding="utf-8"?>
<!-- Generator: Adobe Illustrator 23.1.1, SVG Export Plug-In . SVG Version: 6.00 Build 0)  -->
<svg version="1.1" id="Layer_1" xmlns="http://www.w3.org/2000/svg" xmlns:xlink="http://www.w3.org/1999/xlink" x="0px" y="0px"
	 viewBox="0 0 1024 1024" style="enable-background:new 0 0 1024 1024;" xml:space="preserve">
<path d="M689.8,319.2C660.7,139.9,592,14,512.1,14S363.5,139.9,334.4,319.2H689.8z M319.3,512c0,44.6,2.4,87.4,6.6,128.5H698
	c4.2-41.2,6.6-83.9,6.6-128.5s-2.4-87.4-6.6-128.5H326C321.7,424.6,319.3,467.4,319.3,512z M971.3,319.2
	C913.9,182.9,797.6,77.5,654.1,34.9c49,67.9,82.7,170.1,100.4,284.3H971.3z M369.9,34.9c-143.4,42.6-259.8,148-317.1,284.3h216.9
	C287.2,205,320.9,102.8,369.9,34.9L369.9,34.9z M992.8,383.5H762.5c4.2,42.2,6.6,85.3,6.6,128.5s-2.4,86.3-6.6,128.5h230.1
	c11-41.2,17.3-83.9,17.3-128.5S1003.7,424.6,992.8,383.5L992.8,383.5z M255.1,512c0-43.2,2.4-86.3,6.6-128.5H31.4
	C20.5,424.6,14.1,467.4,14.1,512s6.4,87.4,17.3,128.5h230.1C257.5,598.3,255.1,555.2,255.1,512z M334.4,704.8
	c29.1,179.3,97.8,305.2,177.7,305.2c79.9,0,148.6-125.9,177.7-305.2H334.4z M654.3,989.1c143.4-42.6,259.8-148,317.3-284.3H754.7
	C737,819,703.3,921.2,654.3,989.1z M52.9,704.8c57.4,136.3,173.7,241.8,317.3,284.3c-49-67.9-82.7-170.1-100.4-284.3
	C269.7,704.8,52.9,704.8,52.9,704.8z"/>
</svg>
