<?xml version="1.0" encoding="utf-8"?>
<!-- Generator: Adobe Illustrator 23.1.1, SVG Export Plug-In . SVG Version: 6.00 Build 0)  -->
<svg version="1.1" id="Layer_1" focusable="false" xmlns="http://www.w3.org/2000/svg" xmlns:xlink="http://www.w3.org/1999/xlink"
	 x="0px" y="0px" viewBox="0 0 512 512" style="enable-background:new 0 0 512 512;" xml:space="preserve">
<style type="text/css">
	.st0{fill:#FFFFFF;}
</style>
<path d="M491.5,0h-228v512h228c10.8,0,19.5-17.1,19.5-38.4V38.4C511,17.1,502.3,0,491.5,0z"/>
<path d="M22.5,512h245.1V0H22.5c-11.6,0-21,17.1-21,38.4v435.2C1.5,494.9,10.9,512,22.5,512z"/>
<path class="st0" d="M420.6,193.7c0,10.5-8.6,19.1-19.1,19.1h-18.1c-11,37.6-34.5,75.4-68,111.2c13.4,10.2,27.2,19.9,41.5,28.6
	c8.8,5.4,11.6,16.7,6.5,25.8l-12.6,22.1c-5.4,9.4-17.3,12.4-26.6,6.8c-20.1-12.4-39-25.6-56.3-39.6c-17.3,13.8-36.1,27.2-56.3,39.6
	c-9.2,5.6-21.2,2.5-26.6-6.8l-12.6-22.1c-5.1-8.9-2.2-20.4,6.7-25.8c14.8-9.1,28.6-18.6,41.5-28.6c-12.6-13.4-23.7-27.1-33.4-40.9
	c-6.4-9.1-3.5-21.6,5.9-27.2l10.3-6.2l11.6-6.8c8.6-5.1,19.7-2.7,25.5,5.4c8,11.1,17.2,22.3,27.7,33.3c21.5-22.6,37.9-46,47.7-68.7
	H134.1c-10.5,0-19.1-8.6-19.1-19.1v-25.5c0-10.5,8.6-19.1,19.1-19.1H236v-25.5c0-10.5,8.6-19.1,19.1-19.1h25.5
	c10.5,0,19.1,8.6,19.1,19.1v25.5h101.8c10.5,0,19.1,8.6,19.1,19.1V193.7z"/>
</svg>
