<svg version="1.1" id="Layer_1" xmlns="http://www.w3.org/2000/svg" xmlns:xlink="http://www.w3.org/1999/xlink" x="0px" y="0px"
	 viewBox="0 0 1024 1024" style="enable-background:new 0 0 1024 1024;" xml:space="preserve">
<path d="M893.8,192h-469L328,74.9c-7-5.6-16-8.7-25.3-8.7H4.4v777c0,63.2,56.3,114.5,125.8,114.5h288.9c-0.3-1.9-0.5-3.8-0.5-5.8
	V695.7c0-4-4-7.2-9-7.2H291.9c-45.8,0-74.4-39.5-51.5-71.2l203.7-281.5c22.9-31.6,80.1-31.6,103,0l203.7,281.5
	c22.9,31.6-5.7,71.2-51.5,71.2H581.4c-5,0-9,3.2-9,7.2v256.3c0,2-0.2,3.9-0.5,5.8h321.9c69.5,0,125.8-51.2,125.8-114.5V306.5
	C1019.6,243.3,963.3,192,893.8,192z"/>
</svg>
