<svg version="1.1" id="Layer_1" xmlns="http://www.w3.org/2000/svg" xmlns:xlink="http://www.w3.org/1999/xlink" x="0px" y="0px"
	 viewBox="0 0 1024 1024" style="enable-background:new 0 0 1024 1024;" xml:space="preserve">
<path d="M30,695.9h20h205.3h20v-20V533.3h205.3v348v20h20h248.1v102.7v20h20H974h20v-20V758.6v-20h-20H768.7h-20v20v102.7H523.4
	v-328h225.3V636v20h20H974h20v-20V390.7v-20h-20H768.7h-20v20v102.7H523.4V162.6h225.3v102.7v20h20H974h20v-20V20V0h-20H768.7h-20
	v20v102.7H503.4h-20v20v348H278.1V348v-20h-20H52.8H30v20v328V695.9z M72.8,656V367.9h162.6v139.8c0,2.9,0,2.9,0,5.7c0,0,0,0,0,2.9
	V656H72.8z M788.6,984v-99.8v-8.6v-97h165.4V984H788.6z M788.6,613.2V410.7h165.4V616H788.6V613.2z M788.6,245.3v-99.8v-8.6v-97
	h165.4v205.3H788.6z"/>
</svg>
