<?xml version="1.0" encoding="utf-8"?>
<!-- Generator: Adobe Illustrator 23.1.1, SVG Export Plug-In . SVG Version: 6.00 Build 0)  -->
<svg version="1.1" id="Layer_1" xmlns="http://www.w3.org/2000/svg" xmlns:xlink="http://www.w3.org/1999/xlink" x="0px" y="0px"
	 viewBox="0 0 1024 1024" style="enable-background:new 0 0 1024 1024;" xml:space="preserve">
<path d="M223.8,935.5L327,832.3L191.7,697L88.5,800.2V850h85.4v85.4L223.8,935.5L223.8,935.5z M615.2,294.9
	c-9.5-9.5-19.3-9.2-29.4,0.9L274.5,607.2c-10.1,10.1-10.4,19.9-0.9,29.4c9.5,9.5,19.3,9.2,29.4-0.9l311.4-311.4
	C624.4,314.2,624.7,304.4,615.2,294.9z M601,166.8L857.2,423l-597.8,597.8H3.1V764.6L601,166.8z M995.9,284.3l-81.8,81.8
	L657.9,109.9l81.8-81.8c16.6-16.6,36.8-24.9,60.5-24.9s43.9,8.3,60.5,24.9l135.2,135.2c16.6,16.6,24.9,36.8,24.9,60.5
	S1012.5,267.7,995.9,284.3z"/>
</svg>
