<svg version="1.1" xmlns="http://www.w3.org/2000/svg" x="0px" y="0px" viewBox="0 0 1024 1024" xml:space="preserve">
<path d="M768,288V64c0-35.3-28.7-64-64-64H320c-35.3,0-64,28.7-64,64v224H768z M832,352H192c-53,0-96,43-96,96v224
	c0,35.3,28.7,64,64,64h96v160c0,35.3,28.7,64,64,64h384c35.3,0,64-28.7,64-64V736h96c35.3,0,64-28.7,64-64V448
	C928,395,885,352,832,352z M704,896H320V672h384V896z M816,480c-17.7,0-32-14.3-32-32s14.3-32,32-32s32,14.3,32,32
	S833.7,480,816,480z M384,736h256c8.8,0,16,7.2,16,16s-7.2,16-16,16H384c-8.8,0-16-7.2-16-16S375.2,736,384,736z M384,800h256
	c8.8,0,16,7.2,16,16s-7.2,16-16,16H384c-8.8,0-16-7.2-16-16S375.2,800,384,800z"/>
</svg>
