<?xml version="1.0" encoding="utf-8"?>
<!-- Generator: Adobe Illustrator 28.4.1, SVG Export Plug-In . SVG Version: 6.00 Build 0)  -->
<svg version="1.1" id="Layer_1" xmlns="http://www.w3.org/2000/svg" xmlns:xlink="http://www.w3.org/1999/xlink" x="0px" y="0px"
	 viewBox="0 0 1024 1024" style="enable-background:new 0 0 1024 1024;" xml:space="preserve">
<style type="text/css">
	.st0{fill:none;stroke:#000000;stroke-width:70;stroke-linecap:round;stroke-linejoin:round;stroke-miterlimit:10;}
</style>
<g>
	<path class="st0" d="M227.3,360.5V87.4c0-22.6,18.3-40.9,40.9-40.9h490.3c22.6,0,40.9,18.3,40.9,40.9v273.1"/>
	<path class="st0" d="M43.5,421.8c0-33.8,27.5-61.3,61.3-61.3h817.2c33.8,0,61.3,27.5,61.3,61.3v204.3c0,33.8-27.5,61.3-61.3,61.3
		H104.7c-33.8,0-61.3-27.5-61.3-61.3V421.8z"/>
	<path class="st0" d="M227.3,687.4v251.3c0,22.6,18.3,40.9,40.9,40.9h490.3c22.6,0,40.9-18.3,40.9-40.9V687.4"/>
	<line class="st0" x1="349.9" y1="789.6" x2="676.8" y2="789.6"/>
	<line class="st0" x1="349.9" y1="885.3" x2="554.2" y2="885.3"/>
	<line class="st0" x1="819.8" y1="462.7" x2="881.1" y2="462.7"/>
</g>
</svg>
