<?xml version="1.0" encoding="utf-8"?>
<!-- Generator: Adobe Illustrator 23.1.1, SVG Export Plug-In . SVG Version: 6.00 Build 0)  -->
<svg version="1.1" id="Layer_1" xmlns="http://www.w3.org/2000/svg" xmlns:xlink="http://www.w3.org/1999/xlink" x="0px" y="0px"
	 viewBox="0 0 1024 1024" style="enable-background:new 0 0 1024 1024;" xml:space="preserve">
<path d="M512,9.7c91.1,0,175.2,22.5,252.1,67.4S902,182.9,946.9,259.9s67.4,161,67.4,252.1s-22.5,175.2-67.4,252.1
	S841.1,902,764.1,946.9s-161,67.4-252.1,67.4s-175.2-22.5-252.1-67.4S122,841.1,77.1,764.1S9.7,603.1,9.7,512s22.5-175.2,67.4-252.1
	S182.9,122,259.9,77.1S420.9,9.7,512,9.7z M691.2,350.5c-0.9,0.4-2.9,2.5-6.2,6.2c-3.3,3.7-6.2,5.8-8.8,6.2c0.9,0,1.9-1.1,2.9-3.3
	s2.2-4.6,3.3-7.2c1.1-2.6,1.9-4.1,2.3-4.6c2.6-3.1,7.4-6.3,14.4-9.8c6.1-2.6,17.4-5.2,34-7.8c14.8-3.5,25.9-1.1,33.4,7.2
	c-0.9-0.9,1.2-3.7,6.2-8.5c5-4.8,8.2-7.4,9.5-7.8c1.3-0.9,4.6-1.9,9.8-2.9s8.5-2.7,9.8-4.9l1.3-14.4c-5.2,0.4-9-1.1-11.4-4.6
	c-2.4-3.5-3.8-8.1-4.3-13.7c0,0.9-1.3,2.6-3.9,5.2c0-3.1-1-4.8-2.9-5.2c-2-0.4-4.5-0.2-7.5,0.7c-3.1,0.9-5,1.1-5.9,0.7
	c-4.4-1.3-7.6-2.9-9.8-4.9c-2.2-2-3.9-5.6-5.2-10.8c-1.3-5.2-2.2-8.5-2.6-9.8c-0.9-2.2-2.9-4.6-6.2-7.2c-3.3-2.6-5.3-4.8-6.2-6.5
	c-0.4-0.9-1-2.1-1.6-3.6c-0.7-1.5-1.3-2.9-2-4.3c-0.7-1.3-1.5-2.5-2.6-3.6c-1.1-1.1-2.3-1.6-3.6-1.6s-2.8,1.1-4.6,3.3
	c-1.7,2.2-3.4,4.4-4.9,6.5c-1.5,2.2-2.5,3.3-2.9,3.3c-1.3-0.9-2.6-1.2-3.9-1c-1.3,0.2-2.3,0.4-2.9,0.7c-0.7,0.2-1.6,0.9-2.9,2
	c-1.3,1.1-2.4,1.9-3.3,2.3c-1.3,0.9-3.2,1.5-5.6,2c-2.4,0.4-4.3,0.9-5.6,1.3c6.5-2.2,6.3-4.6-0.7-7.2c-4.4-1.7-7.8-2.4-10.5-2
	c3.9-1.7,5.6-4.4,4.9-7.8c-0.7-3.5-2.5-6.5-5.6-9.2h3.3c-0.4-1.7-2.3-3.6-5.6-5.6c-3.3-2-7.1-3.8-11.4-5.6c-4.4-1.7-7.2-3.1-8.5-3.9
	c-3.5-2.2-10.9-4.3-22.2-6.2c-11.3-2-18.5-2.1-21.6-0.3c-2.2,2.6-3.2,4.9-2.9,6.9c0.2,2,1.1,5,2.6,9.2s2.3,6.9,2.3,8.2
	c0.4,2.6-0.8,5.5-3.6,8.5s-4.3,5.7-4.3,7.8c0,3.1,3.1,6.4,9.2,10.1c6.1,3.7,8.3,8.4,6.5,14.1c-1.3,3.5-4.8,7-10.5,10.5
	s-9.2,6.1-10.5,7.8c-2.2,3.5-2.5,7.5-1,12.1c1.5,4.6,3.8,8.2,6.9,10.8c0.9,0.9,1.2,1.7,1,2.6s-1,1.9-2.3,2.9c-1.3,1.1-2.5,2-3.6,2.6
	s-2.5,1.4-4.3,2.3l-2,1.3c-4.8,2.2-9.3,0.9-13.4-3.9c-4.1-4.8-7.1-10.5-8.8-17c-3.1-10.9-6.5-17.4-10.5-19.6
	c-10-3.5-16.4-3.3-19,0.7c-2.2-5.7-11.1-11.3-26.8-17c-10.9-3.9-23.5-4.8-37.9-2.6c2.6-0.4,2.6-3.7,0-9.8c-3.1-6.5-7.2-9.2-12.4-7.8
	c1.3-2.6,2.2-6.4,2.6-11.4c0.4-5,0.7-8,0.7-8.8c1.3-5.7,3.9-10.7,7.8-15c0.4-0.4,2-2.3,4.6-5.6c2.6-3.3,4.7-6.2,6.2-8.8
	c1.5-2.6,1.6-3.9,0.3-3.9c15.3,1.7,26.2-0.7,32.7-7.2c2.2-2.2,4.7-5.9,7.5-11.1c2.8-5.2,5.1-8.9,6.9-11.1c3.9-2.6,7-3.8,9.2-3.6
	c2.2,0.2,5.3,1.4,9.5,3.6c4.1,2.2,7.3,3.3,9.5,3.3c6.1,0.4,9.5-2,10.1-7.2c0.7-5.2-1-9.6-4.9-13.1c5.2,0.4,5.9-3.3,2-11.1
	c-1.7-3.1-3.5-5-5.2-5.9c-5.2-1.7-11.1-0.7-17.7,3.3c-3.5,1.7-3.1,3.5,1.3,5.2c-0.4-0.4-2.5,1.9-6.2,6.9s-7.3,8.8-10.8,11.4
	c-3.5,2.6-7,1.5-10.5-3.3c-0.4-0.4-1.6-3.4-3.6-8.8s-4-8.4-6.2-8.8c-3.5,0-7,3.3-10.5,9.8c1.3-3.5-1.1-6.8-7.2-9.8
	c-6.1-3.1-11.3-4.8-15.7-5.2c8.3-5.2,6.5-11.1-5.2-17.7c-3.1-1.7-7.5-2.8-13.4-3.3c-5.9-0.4-10.1,0.4-12.8,2.6
	c-2.2,3.1-3.4,5.6-3.6,7.5c-0.2,2,0.9,3.7,3.3,5.2c2.4,1.5,4.7,2.7,6.9,3.6s4.7,1.7,7.5,2.6s4.7,1.5,5.6,2c6.1,4.4,7.8,7.4,5.2,9.2
	c-0.9,0.4-2.7,1.2-5.6,2.3s-5.3,2.1-7.5,2.9c-2.2,0.9-3.5,1.7-3.9,2.6c-1.3,1.7-1.3,4.8,0,9.2c1.3,4.4,0.9,7.4-1.3,9.2
	c-2.2-2.2-4.1-6-5.9-11.4c-1.7-5.5-3.3-9-4.6-10.8c3.1,3.9-2.4,5.2-16.4,3.9l-6.5-0.7c-1.7,0-5.2,0.4-10.5,1.3
	c-5.2,0.9-9.7,1.1-13.4,0.7c-3.7-0.4-6.6-2.2-8.8-5.2c-1.7-3.5-1.7-7.8,0-13.1c0.4-1.7,1.3-2.2,2.6-1.3c-1.7-1.3-4.1-3.4-7.2-6.2
	c-3.1-2.8-5.2-4.7-6.5-5.6c-20.1,6.5-40.5,15.5-61.5,26.8c2.6,0.4,5.2,0.2,7.8-0.7c2.2-0.9,5-2.3,8.5-4.3c3.5-2,5.7-3.2,6.5-3.6
	c14.8-6.1,24-7.6,27.5-4.6l3.3-3.3c6.1,7,10.5,12.4,13.1,16.4c-3.1-1.7-9.6-2-19.6-0.7c-8.7,2.6-13.5,5.2-14.4,7.8
	c3.1,5.2,4.1,9.2,3.3,11.8c-1.7-1.3-4.3-3.5-7.5-6.5c-3.3-3.1-6.4-5.5-9.5-7.2s-6.3-2.8-9.8-3.3c-7,0-11.8,0.2-14.4,0.7
	c-63.7,34.9-114.9,83.3-153.7,145.2c3.1,3.1,5.7,4.8,7.8,5.2c1.7,0.4,2.8,2.4,3.3,5.9s1,5.9,1.6,7.2s3.2,0.7,7.5-2
	c3.9,3.5,4.6,7.6,2,12.4c0.4-0.4,10,5.5,28.8,17.7c8.3,7.4,12.9,12,13.7,13.7c1.3,4.8-0.9,8.7-6.5,11.8c-0.4-0.9-2.4-2.8-5.9-5.9
	c-3.5-3.1-5.5-3.9-5.9-2.6c-1.3,2.2-1.2,6.2,0.3,12.1c1.5,5.9,3.8,8.6,6.9,8.2c-3.1,0-5.1,3.5-6.2,10.5s-1.6,14.7-1.6,23.2
	c0,8.5-0.2,13.6-0.7,15.4l1.3,0.7c-1.3,5.2-0.1,12.8,3.6,22.6c3.7,9.8,8.4,14.1,14.1,12.8c-5.7,1.3-1.3,10.7,13.1,28.1
	c2.6,3.5,4.4,5.5,5.2,5.9c1.3,0.9,3.9,2.5,7.8,4.9c3.9,2.4,7.2,4.6,9.8,6.5c2.6,2,4.8,4.3,6.5,6.9c1.7,2.2,3.9,7.1,6.5,14.7
	c2.6,7.6,5.7,12.8,9.2,15.4c-0.9,2.6,1.2,7,6.2,13.1c5,6.1,7.3,11.1,6.9,15c-0.4,0-1,0.2-1.6,0.7s-1.2,0.7-1.6,0.7
	c1.3,3.1,4.7,6.1,10.1,9.2c5.5,3.1,8.8,5.9,10.1,8.5c0.4,1.3,0.9,3.5,1.3,6.5c0.4,3.1,1.1,5.5,2,7.2s2.6,2.2,5.2,1.3
	c0.9-8.7-4.4-22.2-15.7-40.5c-6.5-10.9-10.2-17.2-11.1-19c-1.3-2.2-2.5-5.6-3.6-10.1c-1.1-4.6-2.1-7.7-2.9-9.5c0.9,0,2.2,0.3,3.9,1
	c1.7,0.7,3.6,1.4,5.6,2.3s3.6,1.7,4.9,2.6s1.7,1.5,1.3,2c-1.3,3.1-0.9,6.9,1.3,11.4c2.2,4.6,4.8,8.6,7.8,12.1
	c3.1,3.5,6.8,7.6,11.1,12.4c4.4,4.8,7,7.6,7.8,8.5c2.6,2.6,5.7,6.9,9.2,12.8c3.5,5.9,3.5,8.8,0,8.8c3.9,0,8.3,2.3,13.1,6.9
	c4.8,4.6,8.5,8.8,11.1,12.8c2.2,3.5,3.9,9.2,5.2,17c1.3,7.8,2.4,13.1,3.3,15.7c0.9,3.1,2.7,6,5.6,8.8s5.6,4.9,8.2,6.2l10.5,5.2
	l8.5,4.6c2.2,0.9,6.2,3.2,12.1,6.9c5.9,3.7,10.6,6.2,14.1,7.5c4.4,1.7,7.8,2.6,10.5,2.6s5.8-0.5,9.5-1.6c3.7-1.1,6.6-1.9,8.8-2.3
	c6.5-0.9,12.9,2.4,19,9.8c6.1,7.4,10.7,12,13.7,13.7c15.7,8.3,27.7,10.7,36,7.2c-0.9,0.4-0.8,2.1,0.3,4.9c1.1,2.8,2.8,6.2,5.2,10.1
	c2.4,3.9,4.4,7.1,5.9,9.5c1.5,2.4,2.7,4.3,3.6,5.6c2.2,2.6,6.1,5.9,11.8,9.8c5.7,3.9,9.6,7.2,11.8,9.8c2.6-1.7,4.1-3.7,4.6-5.9
	c-1.3,3.5,0.2,7.8,4.6,13.1c4.4,5.2,8.3,7.4,11.8,6.5c6.1-1.3,9.2-8.3,9.2-20.9c-13.5,6.5-24.2,2.6-32-11.8c0-0.4-0.5-1.6-1.6-3.6
	c-1.1-2-2-3.8-2.6-5.6c-0.7-1.7-1.2-3.6-1.6-5.6c-0.4-2-0.4-3.6,0-4.9s1.5-2,3.3-2c3.9,0,6.1-0.8,6.5-2.3s0-4.3-1.3-8.2
	s-2.2-6.8-2.6-8.5c-0.4-3.5-2.8-7.8-7.2-13.1s-7-8.5-7.8-9.8c-2.2,3.9-5.7,5.7-10.5,5.2s-8.3-2.4-10.5-5.9c0,0.4-0.3,1.6-1,3.6
	c-0.7,2-1,3.4-1,4.3c-5.7,0-8.9-0.2-9.8-0.7c0.4-1.3,1-5.1,1.6-11.4c0.7-6.3,1.4-11.2,2.3-14.7c0.4-1.7,1.6-4.4,3.6-7.8
	c2-3.5,3.6-6.6,4.9-9.5s2.2-5.6,2.6-8.2c0.4-2.6-0.5-4.7-2.9-6.2c-2.4-1.5-6.2-2.1-11.4-1.6c-8.3,0.4-14,4.8-17,13.1
	c-0.4,1.3-1.1,3.6-2,6.9c-0.9,3.3-2,5.8-3.3,7.5c-1.3,1.7-3.3,3.3-5.9,4.6c-3.1,1.3-8.3,1.7-15.7,1.3c-7.4-0.4-12.6-1.5-15.7-3.3
	c-5.7-3.5-10.6-9.8-14.7-19c-4.1-9.2-6.2-17.2-6.2-24.2c0-4.4,0.5-10.1,1.6-17.3c1.1-7.2,1.7-12.6,2-16.4c0.2-3.7-1-9-3.6-16
	c1.3-0.9,3.3-2.9,5.9-6.2c2.6-3.3,4.8-5.6,6.5-6.9c0.9-0.4,1.9-0.8,2.9-1c1.1-0.2,2.1-0.2,2.9,0c0.9,0.2,1.7-0.1,2.6-1
	s1.5-2.2,2-3.9c-0.4-0.4-1.3-1.1-2.6-2c-1.3-1.3-2.2-2-2.6-2c3.1,1.3,9.3,1,18.6-1c9.4-2,15.4-1.6,18,1c6.5,4.8,11.3,4.4,14.4-1.3
	c0-0.4-0.5-2.5-1.6-6.2c-1.1-3.7-1.2-6.6-0.3-8.8c2.2,11.8,8.5,13.7,19,5.9c1.3,1.3,4.7,2.4,10.1,3.3s9.3,2,11.4,3.3
	c1.3,0.9,2.8,2.1,4.6,3.6c1.7,1.5,2.9,2.5,3.6,2.9c0.7,0.4,1.7,0.3,3.3-0.3c1.5-0.7,3.4-2.1,5.6-4.3c4.4,6.1,7,11.3,7.8,15.7
	c4.8,17.4,8.9,27,12.4,28.8c3.1,1.3,5.5,1.7,7.2,1.3c1.7-0.4,2.7-2.5,2.9-6.2c0.2-3.7,0.2-6.8,0-9.2c-0.2-2.4-0.5-5.1-1-8.2
	l-0.7-5.2v-11.8l-0.7-5.2c-6.5-1.3-10.6-3.9-12.1-7.8s-1.2-8,1-12.1c2.2-4.1,5.5-8.2,9.8-12.1c0.4-0.4,2.2-1.2,5.2-2.3
	s6.4-2.5,10.1-4.3c3.7-1.7,6.4-3.5,8.2-5.2c9.2-8.3,12.4-15.9,9.8-22.9c3.1,0,5.5-2,7.2-5.9c-0.4,0-1.5-0.7-3.3-2
	c-1.7-1.3-3.4-2.4-4.9-3.3s-2.5-1.3-2.9-1.3c3.9-2.2,4.4-5.7,1.3-10.5c2.2-1.3,3.8-3.7,4.9-7.2c1.1-3.5,2.7-5.7,4.9-6.5
	c3.9,5.2,8.5,5.7,13.7,1.3c3.5-3.5,3.7-7,0.7-10.5c2.2-3.1,6.6-5.3,13.4-6.9s10.8-3.6,12.1-6.2c3.1,0.9,4.8,0.4,5.2-1.3
	s0.7-4.4,0.7-7.8c0-3.5,0.7-6.1,2-7.8c1.7-2.2,5-4.1,9.8-5.9c4.8-1.7,7.6-2.8,8.5-3.3l11.1-7.2c1.3-1.7,1.3-2.6,0-2.6
	c7.8,0.9,14.6-1.5,20.3-7.2c4.4-4.8,3.1-9.2-3.9-13.1c1.3-2.6,0.7-4.7-2-6.2c-2.6-1.5-5.9-2.7-9.8-3.6c1.3-0.4,3.8-0.5,7.5-0.3
	c3.7,0.2,6-0.1,6.9-1c6.5-4.4,5-7.8-4.6-10.5C711.9,340.4,702.5,343,691.2,350.5z M584.6,924c89.8-15.7,166.3-56.9,229.6-123.6
	c-1.3-1.3-4-2.3-8.2-2.9c-4.1-0.7-6.9-1.4-8.2-2.3c-7.8-3.1-13.1-4.8-15.7-5.2c0.4-3.1-0.1-5.9-1.6-8.5c-1.5-2.6-3.3-4.6-5.2-5.9
	c-2-1.3-4.7-3.1-8.2-5.2c-3.5-2.2-5.9-3.7-7.2-4.6c-0.9-0.9-2.4-2.2-4.6-3.9c-2.2-1.7-3.7-2.9-4.6-3.6c-0.9-0.7-2.5-1.6-4.9-2.9
	c-2.4-1.3-4.3-1.7-5.6-1.3s-3.5,0.7-6.5,0.7l-2,0.7c-1.3,0.4-2.5,1-3.6,1.6c-1.1,0.7-2.3,1.3-3.6,2c-1.3,0.7-2.2,1.3-2.6,2
	c-0.4,0.7-0.4,1.2,0,1.6c-9.2-7.4-17-12.2-23.5-14.4c-2.2-0.4-4.6-1.6-7.2-3.6c-2.6-2-4.9-3.5-6.9-4.6s-4.1-1.4-6.5-1
	c-2.4,0.4-4.9,2-7.5,4.6c-2.2,2.2-3.5,5.5-3.9,9.8c-0.4,4.4-0.9,7.2-1.3,8.5c-3.1-2.2-3.1-6,0-11.4c3.1-5.5,3.5-9.5,1.3-12.1
	c-1.3-2.6-3.6-3.6-6.9-2.9c-3.3,0.7-5.9,1.6-7.8,2.9c-2,1.3-4.5,3.2-7.5,5.6s-5,3.8-5.9,4.3c-0.9,0.4-2.7,1.6-5.6,3.6
	c-2.8,2-4.7,3.6-5.6,4.9c-1.3,1.7-2.6,4.4-3.9,7.8c-1.3,3.5-2.4,5.9-3.3,7.2c-0.9-1.7-3.4-3.2-7.5-4.3s-6.2-2.3-6.2-3.6
	c0.9,4.4,1.7,12,2.6,22.9c0.9,10.9,2,19.2,3.3,24.9c3.1,13.5,0.4,24-7.8,31.4c-11.8,10.9-18.1,19.6-19,26.2
	c-1.7,9.6,0.9,15.3,7.8,17c0,3.1-1.7,7.5-5.2,13.4c-3.5,5.9-5,10.6-4.6,14.1C583.3,916.2,583.7,919.7,584.6,924z"/>
</svg>
