<svg version="1.1" id="Layer_1" xmlns="http://www.w3.org/2000/svg" xmlns:xlink="http://www.w3.org/1999/xlink" x="0px" y="0px"
	 viewBox="0 0 1024 1024" style="enable-background:new 0 0 1024 1024;" xml:space="preserve">
<path d="M885.9,251.5v11.8H636.6V14h11.8c12.4,0,24.3,4.9,33,13.7l190.7,190.7C881,227.2,885.9,239.1,885.9,251.5z M574.3,278.8V14
	H184.9c-25.8,0-46.7,20.9-46.7,46.7v903.5c0,25.8,20.9,46.7,46.7,46.7h654.3c25.8,0,46.7-20.9,46.7-46.7V325.6H621
	C595.3,325.6,574.3,304.5,574.3,278.8z M761.2,559.3v218c0,41.8-50.5,62.3-79.8,33L574.3,703.2v74.1c0,25.8-20.9,46.7-46.7,46.7
	H309.5c-25.8,0-46.7-20.9-46.7-46.7V559.2c0-25.8,20.9-46.7,46.7-46.7h218.1c25.8,0,46.7,20.9,46.7,46.7v74.1l107.2-107.1
	C710.7,497,761.2,517.5,761.2,559.3z"/>
</svg>
