<svg version="1.1" id="Layer_1" xmlns="http://www.w3.org/2000/svg" xmlns:xlink="http://www.w3.org/1999/xlink" x="0px" y="0px"
	 viewBox="0 0 1024 1024" style="enable-background:new 0 0 1024 1024;" xml:space="preserve">
<path d="M564.4,794.2c0,14.2-11.5,25.7-25.7,25.7H282.2c-14.2,0-25.7-11.5-25.7-25.7V306.7H77c-42.5,0-77,34.5-77,77v461.8
	c0,42.5,34.5,77,77,77H744c42.5,0,77-34.5,77-77l0-128.3H564.4V794.2z M166.8,805.4c0,8-6.5,14.4-14.4,14.4h-48.1
	c-8,0-14.4-6.5-14.4-14.4v-48.1c0-8,6.5-14.4,14.4-14.4h48.1c8,0,14.4,6.5,14.4,14.4V805.4z M166.8,638.7c0,8-6.5,14.4-14.4,14.4
	h-48.1c-8,0-14.4-6.5-14.4-14.4v-48.1c0-8,6.5-14.4,14.4-14.4h48.1c8,0,14.4,6.5,14.4,14.4V638.7z M166.8,471.9
	c0,8-6.5,14.4-14.4,14.4h-48.1c-8,0-14.4-6.5-14.4-14.4v-48.1c0-8,6.5-14.4,14.4-14.4h48.1c8,0,14.4,6.5,14.4,14.4V471.9z
	 M654.2,757.3c0-8,6.5-14.4,14.4-14.4h48.1c8,0,14.4,6.5,14.4,14.4v48.1c0,8-6.5,14.4-14.4,14.4h-48.1c-8,0-14.4-6.5-14.4-14.4
	V757.3z M947.9,101.5H383.4c-41.1,0-77,34.5-77,77V589c0,42.5,34.5,77,77,77h564.4c42.5,0,77-34.5,77-77V178.5
	C1026.3,136,991.8,101.5,947.9,101.5z M486,204.1c28.4,0,51.3,23,51.3,51.3s-23,51.3-51.3,51.3c-26.9,0-51.3-22.9-51.3-51.3
	S459.1,204.1,486,204.1z M920.6,549.8c-4.5,8.3-13.1,13.5-22.6,13.5H434.7c-9.6,0-17-5.5-21.5-14c-4.3-8.7-3.5-19.1,2.2-26.8
	l112.2-153.9c4.8-6.7,12.5-10.6,19.2-10.6c8.2,0,15.9,3.9,20.7,10.5l35.8,49.2l100.6-150.9c4.8-7.1,12.8-11.4,22.7-11.4
	c8.6,0,16.6,4.3,21.3,11.4l171.1,256.6C924.6,531.2,925.1,541.3,920.6,549.8z"/>
</svg>
