<?xml version="1.0" encoding="utf-8"?>
<!-- Generator: Adobe Illustrator 23.1.1, SVG Export Plug-In . SVG Version: 6.00 Build 0)  -->
<svg version="1.1" id="Layer_1" xmlns="http://www.w3.org/2000/svg" xmlns:xlink="http://www.w3.org/1999/xlink" x="0px" y="0px"
	 viewBox="0 0 600 600" style="enable-background:new 0 0 600 600;" xml:space="preserve">
<path d="M204.1,213.4c0,16.1-5.8,29.4-16.7,40.9c-10.9,10.9-24.8,16.7-40.9,16.7s-29.4-5.8-40.9-16.7C94.7,243.3,89,229.5,89,213.4
	s5.8-29.4,16.7-40.9c10.9-11.5,24.8-16.7,40.9-16.7s29.4,5.8,40.9,16.7C198.3,184,204.1,197.2,204.1,213.4z M510.9,327.9V462H89
	v-57.6l96.1-95.5l47.8,47.8l153.7-153.1L510.9,327.9z M539.6,117.8H60.2c-2.9,0-4.6,1.2-6.9,2.9c-2.3,1.7-2.9,4-2.9,6.3v363.2
	c0,2.3,1.2,4.6,2.9,6.9c1.7,1.7,4,2.9,6.9,2.9h479.5c2.9,0,4.6-1.2,6.9-2.9c1.7-1.7,2.9-4,2.9-6.9V127c0-2.3-1.2-4.6-2.9-6.9
	C544.8,117.8,542.5,117.8,539.6,117.8z M588,127v363.2c0,13.2-4.6,24.2-13.8,34c-9.2,9.2-20.7,13.8-34,13.8H60.2
	c-13.2,0-24.8-4.6-34-13.8s-13.8-20.7-13.8-34V127c0-13.2,4.6-24.2,13.8-34s20.7-13.8,34-13.8h479.5c13.2,0,24.8,4.6,34,13.8
	C583.4,102.8,588,114.4,588,127z"/>
</svg>
