<?xml version="1.0" encoding="utf-8"?>
<!-- Generator: Adobe Illustrator 18.0.0, SVG Export Plug-In . SVG Version: 6.00 Build 0)  -->
<!DOCTYPE svg PUBLIC "-//W3C//DTD SVG 1.1//EN" "http://www.w3.org/Graphics/SVG/1.1/DTD/svg11.dtd">
<svg version="1.1" id="Layer_1" xmlns="http://www.w3.org/2000/svg" xmlns:xlink="http://www.w3.org/1999/xlink" x="0px" y="0px"
	 viewBox="0 560 560 560" enable-background="new 0 560 560 560" xml:space="preserve">
<path d="M501,634H58.3c-13.1,0-24.1,4.7-33.5,14.1c-9.4,9.4-14.1,20.4-14.1,33.5v235.8c0,13.1,4.7,24.1,14.1,33.5
	c9.4,9.4,20.4,14.1,33.5,14.1H308l145.4,143.3V965H501c13.1,0,24.1-4.7,33.5-14.1c9.4-9.4,14.1-20.4,14.1-33.5V681.5
	c0-13.1-4.7-24.1-14.1-33.5C525.6,638.7,514.1,634,501,634z"/>
</svg>
