<?xml version="1.0" encoding="utf-8"?>
<!-- Generator: Adobe Illustrator 23.1.1, SVG Export Plug-In . SVG Version: 6.00 Build 0)  -->
<svg version="1.1" id="Layer_1" xmlns="http://www.w3.org/2000/svg" xmlns:xlink="http://www.w3.org/1999/xlink" x="0px" y="0px"
	 viewBox="0 0 1024 1024" style="enable-background:new 0 0 1024 1024;" xml:space="preserve">
<path d="M596.3,280.3v294.9c0,6.1-2,11.2-5.9,15.1c-4,4-9,5.9-15.1,5.9H364.5c-6.1,0-11.2-2-15.1-5.9c-4-4-5.9-9-5.9-15.1v-42.1
	c0-6.1,2-11.2,5.9-15.1c4-4,9-5.9,15.1-5.9H512V280.3c0-6.1,2-11.2,5.9-15.1c4-4,9-5.9,15.1-5.9h42.1c6.1,0,11.2,2,15.1,5.9
	C594.3,269.1,596.3,274.1,596.3,280.3z M870.1,512c0-65-16-124.9-48.1-179.7c-32-54.9-75.5-98.3-130.4-130.4S577,153.9,512,153.9
	s-124.9,16-179.7,48.1S234,277.4,201.9,332.3S153.9,447,153.9,512s16,124.9,48.1,179.7s75.5,98.3,130.4,130.4
	c54.9,32,114.8,48.1,179.7,48.1s124.9-16,179.7-48.1c54.9-32,98.3-75.5,130.4-130.4C854.1,636.9,870.1,577,870.1,512z M1017.6,512
	c0,91.7-22.6,176.3-67.8,253.8c-45.2,77.5-106.5,138.8-184,184c-77.5,45.2-162.1,67.8-253.8,67.8S335.7,995,258.2,949.8
	c-77.5-45.2-138.8-106.5-184-184S6.4,603.7,6.4,512S29,335.7,74.2,258.2s106.5-138.8,184-184S420.3,6.4,512,6.4S688.3,29,765.8,74.2
	s138.8,106.5,184,184C995,335.7,1017.6,420.3,1017.6,512z"/>
</svg>
