<?xml version="1.0" encoding="utf-8"?>
<!-- Generator: Adobe Illustrator 18.0.0, SVG Export Plug-In . SVG Version: 6.00 Build 0)  -->
<!DOCTYPE svg PUBLIC "-//W3C//DTD SVG 1.1//EN" "http://www.w3.org/Graphics/SVG/1.1/DTD/svg11.dtd" [
	<!ENTITY ns_flows "http://ns.adobe.com/Flows/1.0/">
	<!ENTITY ns_extend "http://ns.adobe.com/Extensibility/1.0/">
	<!ENTITY ns_ai "http://ns.adobe.com/AdobeIllustrator/10.0/">
	<!ENTITY ns_graphs "http://ns.adobe.com/Graphs/1.0/">
]>
<svg version="1.1" id="Layer_1" xmlns:x="&ns_extend;" xmlns:i="&ns_ai;" xmlns:graph="&ns_graphs;"
	 xmlns="http://www.w3.org/2000/svg" xmlns:xlink="http://www.w3.org/1999/xlink" xmlns:a="http://ns.adobe.com/AdobeSVGViewerExtensions/3.0/"
	 x="0px" y="0px" viewBox="0 0 35.5 47.1" enable-background="new 0 0 35.5 47.1" xml:space="preserve">
<path fill="#FCFCFC" d="M3.3,6.8C2,6.8,1,7.8,1,9.1v15.3c0,1.3,1,2.3,2.3,2.3h0.3l1.2-1.5H3.3c-0.5,0-0.8-0.3-0.8-0.8V9.1
	c0-0.5,0.3-0.8,0.8-0.8h15.3c0.5,0,0.8,0.3,0.8,0.8v11.4H17c-1.3,0-2.3,1-2.3,2.3v2.3h-3.8l1.2,1.5h2.6v2.6l1.5,1.3v-7.7
	c0-0.5,0.3-0.8,0.8-0.8h15.3c0.5,0,0.8,0.3,0.8,0.8V38c0,0.5-0.3,0.8-0.8,0.8H17c-0.5,0-0.8-0.3-0.8-0.8v-1.5l-1.5,1.3V38
	c0,1.3,1,2.3,2.3,2.3h15.3c1.3,0,2.3-1,2.3-2.3V22.8c0-1.3-1-2.3-2.3-2.3H20.8V9.1c0-1.3-1-2.3-2.3-2.3H3.3z M10.9,10.6v1.5H4.8v1.5
	h9.1c-0.2,1.7-1.2,3.1-2.5,4.2c-1.9-1.7-2.9-3.4-2.9-3.4l-1.3,0.7c0,0,1,1.8,3,3.7c-0.1,0-0.1,0.1-0.1,0.1C8,20.3,6,21,6,21l0.5,1.5
	c0,0,2.2-0.7,4.4-2.3c0.2-0.1,0.3-0.2,0.5-0.4c0.9,0.6,1.9,1.2,3,1.7l0.6-1.4c-0.9-0.3-1.7-0.8-2.4-1.3c1.4-1.3,2.6-3,2.8-5.2h2.3
	v-1.5h-5.3v-1.5H10.9z M7.8,23.5L4,28.1h2.3v3.1h3.1v-3.1h2.3L7.8,23.5z M23.8,24.6l-4,10.5h1.9l0.8-2.4h4l0.9,2.4h1.9l-4-10.5H23.8
	z M24.6,26.9l1.5,4.3h-3.1L24.6,26.9z M13.2,29.6v2.3H6.3L9.4,35h3.8v2.3l4.6-3.8L13.2,29.6z"/>
</svg>
