<?xml version="1.0" encoding="utf-8"?>
<!-- Generator: Adobe Illustrator 18.0.0, SVG Export Plug-In . SVG Version: 6.00 Build 0)  -->
<!DOCTYPE svg PUBLIC "-//W3C//DTD SVG 1.1//EN" "http://www.w3.org/Graphics/SVG/1.1/DTD/svg11.dtd" [
	<!ENTITY ns_flows "http://ns.adobe.com/Flows/1.0/">
	<!ENTITY ns_extend "http://ns.adobe.com/Extensibility/1.0/">
	<!ENTITY ns_ai "http://ns.adobe.com/AdobeIllustrator/10.0/">
	<!ENTITY ns_graphs "http://ns.adobe.com/Graphs/1.0/">
]>
<svg version="1.1" id="Layer_1" xmlns:x="&ns_extend;" xmlns:i="&ns_ai;" xmlns:graph="&ns_graphs;"
	 xmlns="http://www.w3.org/2000/svg" xmlns:xlink="http://www.w3.org/1999/xlink" xmlns:a="http://ns.adobe.com/AdobeSVGViewerExtensions/3.0/"
	 x="0px" y="0px" viewBox="0 0 35.5 47.1" enable-background="new 0 0 35.5 47.1" xml:space="preserve">
<path fill="#1A1A1A" d="M15.6,10.2L14.4,11L0.9,21.3l-0.8,0.6l0.8,0.6l13.6,10.3l1.1,0.9v-1.4v-5.9c8.8,0.2,13.4,3.3,15.8,6.4
	c2.5,3.2,2.7,6.4,2.7,6.4l1.4,0c0,0,0-0.1,0-0.1c0,0,0,0,0,0c0-0.1,0.2-5.3-2.3-10.6c-2.4-5.2-7.6-10.5-17.7-10.7v-6V10.2z M14.1,13
	v5.3V19h0.7C25,19,29.6,24,32,29c0.7,1.5,1.1,2.8,1.4,4.2c-0.3-0.5-0.5-0.9-0.8-1.4c-2.7-3.6-8-7.1-17.7-7.1h-0.7v0.7v5.3L2.5,21.9
	L14.1,13z"/>
</svg>
