<?xml version="1.0" encoding="utf-8"?>
<svg version="1.1" id="Layer_1" xmlns="http://www.w3.org/2000/svg" xmlns:xlink="http://www.w3.org/1999/xlink" x="0px" y="0px" width="512" height="512" viewBox="0 0 512 512">
	<path d="m171 149c-6 0-11 5-11 11l0 267c0 6 5 10 11 10c6 0 10-4 10-10l0-267c0-6-4-11-10-11z m85 0c-6 0-11 5-11 11l0 267c0 6 5 10 11 10c6 0 11-4 11-10l0-267c0-6-5-11-11-11z m85 0c-6 0-10 5-10 11l0 267c0 6 4 10 10 10c6 0 11-4 11-10l0-267c0-6-5-11-11-11z m171-74l-139 0l0-64l-234 0l0 64l-139 0l0 21l75 0l0 416l362 0l0-416l75 0z m-352-43l192 0l0 43l-192 0z m256 459l-320 0l0-395l320 0z"></path>
</svg>