<?xml version="1.0" encoding="utf-8"?>
<!-- Generator: Adobe Illustrator 27.0.0, SVG Export Plug-In . SVG Version: 6.00 Build 0)  -->
<svg version="1.1" id="Layer_1" xmlns="http://www.w3.org/2000/svg" xmlns:xlink="http://www.w3.org/1999/xlink" x="0px" y="0px"
	 viewBox="0 0 144.8 154.2" style="enable-background:new 0 0 144.8 154.2;" xml:space="preserve">
<style type="text/css">
	.st0{fill:#F8F9FA;}
</style>
<path class="st0" d="M128.4,72.9c-0.2-1.1-1-2.4-1.9-2.5c-0.9-0.1-1.1-0.7-2.4-1.2c-1.4-0.6-1.9-1.8-3.3-2.6
	c-1.4-0.8-3.7-6.5-5.5-7.7c-1.7-1.2-9-6.8-11.5-7.6c-2.3-0.7-9.6-1.6-13-1.3c-3.4,0.3-6.1,0.3-7.7,0.3c-1.6,0-1.9-2.3-1.9-4.4
	c0-2.2-2.2-7.5-1.7-9.6c0.5-2.1,0.6-4,2.3-4.8c1.7-0.8,6.2-2.8,8.3-4c2.2-1.1,1.9-1.7,2.8-1.9c0.9-0.2,2.7-0.2,4.9-0.2
	c2.2,0,3.7-0.5,5.1-0.9s3.1-1.1,2.1-1.9c-0.9-0.7-2.7-0.7-4-0.4c-1.4,0.3-4.1,0.7-5.8,0.3c-1.8-0.3-4.3-0.3-5.9-1.6
	c-1.6-1.1-2.8-2.9-4-3.2c-1.1-0.3-2.2-0.9-2.3,0c-0.2,0.8,0.2,1.1,0.7,2c0.5,0.9,2.9,3.4,3.8,3.5c0.9,0.2,2.5,0.2,2.2,0.9
	c-0.3,0.7-2.2,1.6-3.1,2.3c-0.9,0.7-6,3.5-7.6,4.2c-1.6,0.6-6.1,1.1-6.8,0.6c-0.7-0.4-3.1,0.3-4.2,0.2c-1.1-0.1-6.4,0.2-9-0.9
	c-2.7-1.1-4.1-2.5-4.6-2.7s-2.2-1.6-1.9-2s0.3-0.9,2.2-2.2c1.7-1.3,1.8-1.2,2.8-2.6c1.1-1.2,1.8-2.7,0.9-2.7c-0.9,0-1.6-0.2-2.5,0.8
	c-0.8,0.9-3,3.2-3.9,3.7s-2.2,2-2.7,2.2c-0.3,0.3-3.2,0.3-4,0.7c-0.8,0.3-1.9,1-2.8,1.3c-0.9,0.3-2.7,0.2-3.4,0.9
	c-0.7,0.8-0.9,0.6-0.3,1.5c0.5,0.9,0.8,1.2,2,0.8c1.1-0.4,2.2-0.4,3.5-1.3c1.2-0.8,2.2-1.6,3.4-1.5c1.1,0.2,2.6-0.1,3.1,0.7
	c0.6,0.8,3.4,3.1,6.7,3.9c3.4,0.7,2.7,0.3,3.1,0.6c0.4,0.3,0.6,0.7,0.3,1.5c-0.3,0.8-1.2,6.5-1.2,8.6c0,2.2,1,6.3,0.7,7.9
	c-0.3,1.6-1.8,2.2-2.9,2.8c-1.1,0.4-3,0.9-4.2,0.8c-1.1-0.2-2.6-0.5-4-0.7c-1.3-0.2-5.9,0.2-7.3,0.5s-5.3,2.5-8.6,4.5
	c-3.4,2.1-7.3,6.5-8,7.8c-0.7,1.2-2.1,4.7-2.6,5.3c-0.4,0.6-0.7,1.7-0.6,2.7c0.1,0.4-0.6,0.9-0.8,1.3c-0.2,0.4-0.9,0.9-1.6,1.6
	c-0.7,0.7-2,2-2.3,2.2c-0.3,0.3-1.5,0.8-1.1,1.1c0.7,0.5,0.9,1.2,2.1,0.3c1.1-0.9,1.7-1.6,2.6-2c1.1-0.5,1.5-0.9,1.9-0.9
	c0.4,0,0.9,0.8,0.3,1.2c-0.7,0.4-1.9,2.1-2.3,2.7c-0.3,0.7-1.9,2.6-1.5,2.7c0.4,0.1,1.1,0.4,2.1-0.4s1.6-2.8,2.4-3.5
	c0.7-0.6,0.9-1.5,1.6-1.4c0.6,0.1,0.8,0.2,0.7,1.1c-0.1,0.9-0.5,1.4-0.7,1.9c-0.1,0.3-0.6,1.1-0.7,1.7c-0.3,1.1-0.7,1.5,0.2,1.6
	c0.9,0.1,0.9,0.2,1.5-0.9c0.6-1,0.6-1.1,1-2.6s0-2.7,1.1-2.8c0.4-0.1,0.3,0.3,0.5,1.6c0.3,1.2,0.1,1.9,0.3,3
	c0.2,0.6-0.2,1.4,0.4,1.7c1.5,0.7,1.8,0.4,1.6-0.4c-0.2-0.9-0.2-1.1-0.2-1.9c0-0.8-0.3-0.9-0.3-1.9c-0.2-1-0.3-1.1-0.4-1.6
	c-0.1-0.4,0.1-0.3-0.3-1.2c-0.5-0.9-0.1-2.3,0.1-3c0.2-0.7,1.4-4.2,2.4-5.4c1-1.2,1.9-2.8,2.8-3.5c0.9-0.8,2.1-1.8,4.1-2.7
	c1.6-0.8,2.8-1,3.4-0.3c0.8,0.7,0.5,2.7,1.6,5.6c1.1,2.9,2.1,5.6,2.1,8.6s-0.5,18.7-0.7,20.3c-0.3,1.6-0.8,5.7-0.9,9.7
	c-0.1,2.2-0.2,6-1,8c-0.9,1.9-1.3,6.2-2.6,7.9c-1.3,1.7-4.2,6.9-4.6,8.1c-0.4,1.2-0.4,3.9,0.3,4.5c0.6,0.6,4.2,1.1,5.9-0.7
	c1.7-1.8,6.7-12.5,11.2-14.5c4.5-1.9,24.7-3.9,29.3-2.7c4.6,1.2,11.8,10.9,14.4,12.7c2.6,1.9,3,3,6.2,2.8c3.2-0.2,2.6-2,1.2-4.3
	c-1.3-2.4-4.3-10-5.5-13c-1.1-3-3.3-13-2.8-20.4c0.5-7.4,2.2-17-0.1-28.8c-0.6-3.1,1.8-6.6,4.4-6.5c2.7,0.3,4.5,1.6,5.7,3
	c1.8,2.1,3.5,4.7,4.6,5.8c0.9,1.1,0.6,2.2-0.2,4.6c-0.3,0.9-0.6,1.9-0.9,2.2c-0.2,0.3-0.3,1.6,0.3,1.6c0.6,0.2,2.1-1.4,2.2-1.8
	c0.1-0.3,0.7-0.8,0.8-1.9c0.1-1.1,1.1-3.2,1.6-3.1s0.3,2.6,0.3,3.1c0.1,0.5,0.7,2.3,1.1,3.4c0.3,1,0.8,1.9,1.2,1.7
	c0.5-0.3,1.2-2.1,1-3.2c-0.3-1.1-1.2-3.7-0.7-3.5c0.5,0.2,2.9,3.3,3.7,3.7c0.8,0.5,1.1,1.5,2.2,1.1c1-0.3,1.1-2.1,0.4-2.6
	c-0.9-0.5-1.8-0.6-2.4-1.8c-0.3-0.7-0.5-1.1-1-1.6c-0.7-0.7-1-1.2,0.2-1.1c0.6,0,0.8,0.3,1.5,0.7c0.7,0.3,0.7,0.3,1.4,0.8
	c0.6,0.3,1.1,0.9,2,1.6C127.8,74.5,128.5,74,128.4,72.9z M79.4,92.8c0.1,0.6-0.2,1.2-0.3,1.9c-0.4,1-1.2,1.7-2.1,2.3
	c-0.1,0-0.1,0.1-0.2,0.1c-0.3,0.3-0.4,0.6-0.8,0.9c-1.5,1.4-4,1.8-5.7,0.6c-0.2-0.1-0.3-0.3-0.3-0.3l0,0c-0.7-0.1-1.1-0.1-1.7-0.4
	c-0.4-0.3-1-0.8-1.2-1.2c-0.3-0.6-0.4-1.2-0.4-1.9c-0.2-0.3-0.3-0.7-0.3-1.1c-0.1-0.2-0.3-0.3-0.3-0.4c-0.2-0.2-0.3-0.3-0.3-0.5
	c-0.3-0.9-0.7-1.6-0.6-2.6c0.1-0.8,0.3-1.6,0.8-2.1c0.3-0.7,0.8-1.2,1.4-1.6c0.3-0.3,0.5-0.6,0.9-0.9c0.4-0.6,1.1-1.1,1.9-1.2
	c0.3-0.3,0.8-0.3,1.1-0.4c1.8-0.4,3.4-0.1,4.9,0.7c0.4,0.3,0.9,0.7,1.3,1.1c0.7,0.5,1.3,1.1,1.8,2C79.9,89,79.9,91.1,79.4,92.8z"/>
</svg>
