<svg version="1.1" id="Layer_1" xmlns="http://www.w3.org/2000/svg" xmlns:xlink="http://www.w3.org/1999/xlink" x="0px" y="0px"
	 viewBox="0 0 152 114" style="enable-background:new 0 0 152 114;" xml:space="preserve">
<style type="text/css">
	.st0{fill:#F8F9FA;}
</style>
<path class="st0" d="M117.9,53.9c-0.1-0.8-0.7-1.8-1.4-1.9c-0.7-0.1-0.8-0.5-1.8-0.9c-1-0.4-1.4-1.3-2.5-1.9c-1-0.6-2.8-4.9-4.1-5.8
	c-1.3-0.9-6.7-5.1-8.6-5.7c-1.7-0.5-7.2-1.2-9.7-1S85.2,37,84,37c-1.2,0-1.4-1.7-1.4-3.3c0-1.6-1.6-5.6-1.3-7.2
	c0.4-1.6,0.4-3,1.7-3.6s4.6-2.1,6.2-3c1.6-0.8,1.4-1.3,2.1-1.4c0.7-0.1,2-0.1,3.7-0.1c1.6,0,2.8-0.4,3.8-0.7c1-0.3,2.3-0.8,1.6-1.4
	c-0.7-0.5-2-0.5-3-0.3c-1,0.2-3.1,0.5-4.3,0.2c-1.3-0.2-3.2-0.2-4.4-1.2c-1.2-0.8-2.1-2.2-3-2.4c-0.8-0.2-1.6-0.7-1.7,0
	c-0.1,0.6,0.1,0.8,0.5,1.5c0.4,0.7,2.2,2.5,2.8,2.6c0.7,0.1,1.9,0.1,1.6,0.7c-0.2,0.5-1.6,1.2-2.3,1.7c-0.7,0.5-4.5,2.6-5.7,3.1
	c-1.2,0.4-4.6,0.8-5.1,0.4c-0.5-0.3-2.3,0.2-3.1,0.1c-0.8-0.1-4.8,0.1-6.7-0.7c-2-0.8-3.1-1.9-3.4-2c-0.4-0.1-1.6-1.2-1.4-1.5
	c0.2-0.3,0.2-0.7,1.6-1.6c1.3-1,1.3-0.9,2.1-1.9c0.8-0.9,1.3-2,0.7-2s-1.2-0.1-1.9,0.6c-0.6,0.7-2.2,2.4-2.9,2.8
	c-0.7,0.4-1.6,1.5-2,1.6c-0.2,0.2-2.4,0.2-3,0.5c-0.6,0.2-1.4,0.7-2.1,1c-0.7,0.2-2,0.1-2.5,0.7c-0.5,0.6-0.7,0.4-0.2,1.1
	c0.4,0.7,0.6,0.9,1.5,0.6c0.8-0.3,1.6-0.3,2.6-1c0.9-0.6,1.6-1.2,2.5-1.1c0.8,0.1,1.9-0.1,2.3,0.5c0.4,0.6,2.5,2.3,5,2.9
	c2.5,0.5,2,0.2,2.3,0.4c0.3,0.2,0.4,0.5,0.2,1.1c-0.2,0.6-0.9,4.9-0.9,6.4c0,1.6,0.7,4.7,0.5,5.9c-0.2,1.2-1.3,1.6-2.2,2.1
	c-0.8,0.3-2.2,0.7-3.1,0.6c-0.8-0.1-1.9-0.4-3-0.5c-1-0.1-4.4,0.1-5.5,0.4c-1,0.2-4,1.9-6.4,3.4c-2.5,1.6-5.5,4.9-6,5.8
	c-0.5,0.9-1.6,3.5-1.9,4c-0.3,0.4-0.5,1.3-0.4,2c0.1,0.3-0.4,0.7-0.6,1c-0.1,0.3-0.7,0.7-1.2,1.2c-0.5,0.5-1.5,1.5-1.7,1.6
	c-0.2,0.2-1.1,0.6-0.8,0.8c0.5,0.4,0.7,0.9,1.6,0.2c0.8-0.7,1.3-1.2,1.9-1.5c0.8-0.4,1.1-0.7,1.4-0.7c0.3,0,0.7,0.6,0.2,0.9
	c-0.5,0.3-1.4,1.6-1.7,2c-0.2,0.5-1.4,1.9-1.1,2s0.8,0.3,1.6-0.3s1.2-2.1,1.8-2.6c0.5-0.4,0.7-1.1,1.2-1c0.4,0.1,0.6,0.1,0.5,0.8
	c-0.1,0.7-0.4,1-0.5,1.4c-0.1,0.2-0.4,0.8-0.5,1.3c-0.2,0.8-0.5,1.1,0.1,1.2c0.7,0.1,0.7,0.1,1.1-0.7c0.4-0.7,0.4-0.8,0.7-1.9
	c0.3-1.1,0-2,0.8-2.1c0.3-0.1,0.2,0.2,0.4,1.2c0.2,0.9,0.1,1.4,0.2,2.2c0.1,0.4-0.1,1,0.3,1.3c1.1,0.5,1.3,0.3,1.2-0.3
	c-0.1-0.7-0.1-0.8-0.1-1.4c0-0.6-0.2-0.7-0.2-1.4c-0.1-0.7-0.2-0.8-0.3-1.2c-0.1-0.3,0.1-0.2-0.2-0.9c-0.4-0.7-0.1-1.7,0.1-2.2
	c0.1-0.5,1-3.1,1.8-4c0.7-0.9,1.4-2.1,2.1-2.6c0.7-0.6,1.6-1.3,3.1-2c1.2-0.6,2.1-0.7,2.5-0.2c0.6,0.5,0.4,2,1.2,4.2
	c0.8,2.2,1.6,4.2,1.6,6.4s-0.4,14-0.5,15.2c-0.2,1.2-0.6,4.3-0.7,7.2c-0.1,1.6-0.1,4.5-0.7,6c-0.7,1.4-1,4.6-1.9,5.9
	c-1,1.3-3.1,5.2-3.4,6.1c-0.3,0.9-0.3,2.9,0.2,3.4c0.4,0.4,3.1,0.8,4.4-0.5c1.3-1.3,5-9.3,8.4-10.8c3.4-1.4,18.5-2.9,21.9-2
	c3.4,0.9,8.8,8.1,10.8,9.5c1.9,1.4,2.2,2.2,4.6,2.1s1.9-1.5,0.9-3.2c-1-1.8-3.2-7.5-4.1-9.7c-0.8-2.2-2.5-9.7-2.1-15.2
	c0.4-5.5,1.6-12.7-0.1-21.5c-0.4-2.3,1.3-4.9,3.3-4.9c2,0.2,3.4,1.2,4.3,2.2c1.3,1.6,2.6,3.5,3.4,4.3c0.7,0.8,0.4,1.6-0.1,3.4
	c-0.2,0.7-0.4,1.4-0.7,1.6c-0.1,0.2-0.2,1.2,0.2,1.2c0.4,0.1,1.6-1,1.6-1.3c0.1-0.2,0.5-0.6,0.6-1.4c0.1-0.8,0.8-2.4,1.2-2.3
	c0.4,0.1,0.2,1.9,0.2,2.3c0.1,0.4,0.5,1.7,0.8,2.5c0.2,0.7,0.6,1.4,0.9,1.3c0.4-0.2,0.9-1.6,0.7-2.4c-0.2-0.8-0.9-2.8-0.5-2.6
	s2.2,2.5,2.8,2.8c0.6,0.4,0.8,1.1,1.6,0.8c0.7-0.2,0.8-1.6,0.3-1.9c-0.7-0.4-1.3-0.4-1.8-1.3c-0.2-0.5-0.4-0.8-0.7-1.2
	c-0.5-0.5-0.7-0.9,0.1-0.8c0.4,0,0.6,0.2,1.1,0.5c0.5,0.2,0.5,0.2,1,0.6c0.4,0.2,0.8,0.7,1.5,1.2C117.4,55.1,117.9,54.7,117.9,53.9z
	 M81.3,68.8c0.1,0.4-0.1,0.9-0.2,1.4c-0.3,0.7-0.9,1.3-1.6,1.7c-0.1,0-0.1,0.1-0.1,0.1c-0.2,0.2-0.3,0.4-0.6,0.7
	c-1.1,1-3,1.3-4.3,0.4c-0.1-0.1-0.2-0.2-0.2-0.2l0,0c-0.5-0.1-0.8-0.1-1.3-0.3c-0.3-0.2-0.7-0.6-0.9-0.9c-0.2-0.4-0.3-0.9-0.3-1.4
	c-0.1-0.2-0.2-0.5-0.2-0.8c-0.1-0.1-0.2-0.2-0.2-0.3c-0.1-0.1-0.2-0.2-0.2-0.4c-0.2-0.7-0.5-1.2-0.4-1.9c0.1-0.6,0.2-1.2,0.6-1.6
	c0.2-0.5,0.6-0.9,1-1.2c0.2-0.2,0.4-0.4,0.7-0.7c0.3-0.4,0.8-0.8,1.4-0.9c0.2-0.2,0.6-0.2,0.8-0.3c1.3-0.3,2.5-0.1,3.7,0.5
	c0.3,0.2,0.7,0.5,1,0.8c0.5,0.4,1,0.8,1.3,1.5C81.6,65.9,81.6,67.5,81.3,68.8z"/>
</svg>
