<svg version="1.1" id="Layer_1" xmlns="http://www.w3.org/2000/svg" xmlns:xlink="http://www.w3.org/1999/xlink" x="0px" y="0px"
	 viewBox="0 0 1127 1024" style="enable-background:new 0 0 1127 1024;" xml:space="preserve">
<path d="M1056.6,104h-17v42.6c0,14-11.5,25.5-25.5,25.5h-85.1c-14,0-25.5-11.5-25.5-25.5V104H222.6v42.6c0,14-11.5,25.5-25.5,25.5
	h-85.1c-14,0-25.5-11.5-25.5-25.5V104h-17c-28.3,0-51.1,22.8-51.1,51.1v714.9c0,28.3,22.8,51.1,51.1,51.1h17v-42.6
	c0-14,11.5-25.5,25.5-25.5h85.1c14,0,25.5,11.5,25.5,25.5V921h680.8v-42.6c0-14,11.5-25.5,25.5-25.5h85.1c14,0,25.5,11.5,25.5,25.5
	V921h17c28.3,0,51.1-22.8,51.1-51.1V155.1C1107.7,126.8,1084.9,104,1056.6,104z M222.6,759.3c0,14-11.5,25.5-25.5,25.5h-85.1
	c-14,0-25.5-11.5-25.5-25.5v-85.1c0-14,11.5-25.5,25.5-25.5h85.1c14,0,25.5,11.5,25.5,25.5V759.3z M222.6,555.1
	c0,14-11.5,25.5-25.5,25.5h-85.1c-14,0-25.5-11.5-25.5-25.5v-85.1c0-14,11.5-25.5,25.5-25.5h85.1c14,0,25.5,11.5,25.5,25.5V555.1z
	 M222.6,350.8c0,14-11.5,25.5-25.5,25.5h-85.1c-14,0-25.5-11.5-25.5-25.5v-85.1c0-14,11.5-25.5,25.5-25.5h85.1
	c14,0,25.5,11.5,25.5,25.5V350.8z M801.3,793.3c0,14-11.5,25.5-25.5,25.5H350.2c-14,0-25.5-11.5-25.5-25.5V589.1
	c0-14,11.5-25.5,25.5-25.5h425.5c14,0,25.5,11.5,25.5,25.5V793.3z M801.3,435.9c0,14-11.5,25.5-25.5,25.5H350.2
	c-14,0-25.5-11.5-25.5-25.5V231.7c0-14,11.5-25.5,25.5-25.5h425.5c14,0,25.5,11.5,25.5,25.5V435.9z M1039.6,759.3
	c0,14-11.5,25.5-25.5,25.5h-85.1c-14,0-25.5-11.5-25.5-25.5v-85.1c0-14,11.5-25.5,25.5-25.5h85.1c14,0,25.5,11.5,25.5,25.5V759.3z
	 M1039.6,555.1c0,14-11.5,25.5-25.5,25.5h-85.1c-14,0-25.5-11.5-25.5-25.5v-85.1c0-14,11.5-25.5,25.5-25.5h85.1
	c14,0,25.5,11.5,25.5,25.5V555.1z M1039.6,350.8c0,14-11.5,25.5-25.5,25.5h-85.1c-14,0-25.5-11.5-25.5-25.5v-85.1
	c0-14,11.5-25.5,25.5-25.5h85.1c14,0,25.5,11.5,25.5,25.5V350.8z"/>
</svg>
