<?xml version="1.0" encoding="utf-8"?>
<!-- Generator: Adobe Illustrator 28.4.1, SVG Export Plug-In . SVG Version: 6.00 Build 0)  -->
<svg version="1.1" id="Layer_1" xmlns="http://www.w3.org/2000/svg" xmlns:xlink="http://www.w3.org/1999/xlink" x="0px" y="0px"
	 viewBox="0 0 1024 1024" style="enable-background:new 0 0 1024 1024;" xml:space="preserve">
<path d="M512.2,0.4c282.6,0,511.8,229.1,511.8,511.8S794.9,1024,512.2,1024c-108.5,0-209.5-33.9-292.5-91.8
	c-29-21.9-36.1-60.2-15.8-89.2c20.2-29,60-36,89-15.8c62.1,43.3,137.7,68.7,219.3,68.7c212,0,383.8-172,383.8-383.8
	c0-213.7-172-383.8-383.8-383.8c-107.8,0-201.9,42.9-271.5,112.3l61.6,61.6c30.2,30.2,8.8,81.9-33.8,81.9H48.4
	c-26.5,0-48-21.4-48-48v-220c0-42.7,51.7-64.2,81.9-33.9l68,68C243,57.8,370.8,0.4,510.5,0.4H512.2z M512.2,256.3
	c26.6,0,48,21.4,48,48v188.1L688.4,622c20.4,18.8,20.4,49.2,0,66.1c-17,20.4-47.3,20.4-66.1,0l-144-143.8
	c-9-7.2-13.9-19.3-13.9-32.2v-208C464.2,277.7,485.6,256.3,512.2,256.3L512.2,256.3z"/>
</svg>
