<svg version="1.1" id="Layer_1" xmlns="http://www.w3.org/2000/svg" xmlns:xlink="http://www.w3.org/1999/xlink" x="0px" y="0px"
	 viewBox="0 0 1024 1024" style="enable-background:new 0 0 1024 1024;" xml:space="preserve">
<style type="text/css">
	.st0{fill:#141414;}
</style>
<g id="BUTB9D_00000168118342293429742210000018062280109179514762_">
	<g>
		<path class="st0" d="M827.8,619.6c4.9,4,8,6,10.6,8.5c12.4,12.1,24.6,24.4,36.9,36.5c2.5,2.5,4.2,4.7,1.7,8.5
			c-26.6,40-46.9,84.2-80.3,119.8c-43.5,46.5-93.9,82.2-153.9,104c-28.8,10.4-58.6,17.2-88.8,21.2c-18.5,2.5-37.4,2.8-56.1,2.9
			c-88,0.2-176,0-264.1,0.1c-13.1,0-24.5-3.5-34.9-11.4c-15.9-12-32-23.6-48-35.4c-2.2-1.6-4.2-3.7-8.1-7.3
			c11.6-0.5,21-1.3,30.4-1.3c70-0.2,139.9-0.1,209.9-0.3c50.4-0.1,100.9,0,151.3-0.7c28.9-0.4,56.7-8,83.7-17.8
			c84.9-30.8,146.9-87.8,188.6-167.2c6.1-11.6,9.3-24.7,13.7-37.2C822.9,635.5,825,628.2,827.8,619.6z"/>
		<path class="st0" d="M883.3,152.3c-5.5,0.4-9.8,1-14,1c-23.9,0-47.9-0.4-71.8-0.3c-34.9,0.2-69.9,0.8-104.8,0.9
			c-63,0.2-126-0.5-188.9,0.8c-20.3,0.4-40.8,5-60.7,9.7c-73.3,17.6-133.6,56.5-181.3,114.7c-24.9,30.4-45.3,63.5-55.1,102.2
			c-1.3,5.3-3.4,10.5-5.2,15.7c-0.2,0.6-1.1,0.9-2.4,1.8c-2.6-2-5.6-4-8.1-6.5c-12.6-12.3-25.1-24.8-37.8-37.2c-3-3-3.9-5.3-1.3-9.4
			c16.1-25.5,30.9-51.8,47.8-76.8c35.2-52.2,81.2-92.7,136.5-122.7c34.9-19,72.1-31.5,110.9-38.6c21.9-4,44.5-6.2,66.8-6.4
			c85.8-0.9,171.6-0.7,257.4-0.8c12.1,0,24.3,0.1,36.4,0.7c4.2,0.2,9,1.2,12.4,3.6c20.5,14.3,40.7,29.1,60.9,43.8
			C881.6,148.8,881.8,149.6,883.3,152.3z"/>
		<path class="st0" d="M280.3,964.3c9.5,0,18.9,0,28.4,0c74.4,0,148.8,1.2,223.2-0.3c48.1-1,94.6-12.3,139.2-30.8
			c46-19.1,87.6-45,124.5-78.4C853.9,802.3,896,739,920.4,664.2c3.4-10.5,6.8-20.9,10.3-31.4c1.1-3.4,2.5-6.6,3.9-10.1
			c2.2,0.6,3.4,0.6,4.1,1.2c15.2,15,30.2,30.2,45.4,45.2c3.9,3.9,4.5,7.2,0.2,11.1c-14.8,13.6-22,31.8-29.9,49.6
			C914.8,819.5,852.9,890.3,771,943.7c-48.3,31.5-101.3,52-157.2,64.9c-18.9,4.4-38.5,5.7-57.9,7.2c-18.3,1.5-36.8,2.5-55.1,1.8
			c-48.6-1.6-96.8-6.4-143-23.2c-22.1-8.1-44.6-15-66.9-22.5c-3.7-1.2-7.3-2.8-10.9-4.2C280,966.6,280.2,965.5,280.3,964.3z"/>
		<path class="st0" d="M92.4,397.5c-6-5.8-11.9-11.2-17.6-16.9c-9.9-9.9-19.5-20.1-29.4-29.9c-3.8-3.7-4.9-7.2-0.7-11.1
			c16-14.8,22.5-34.9,31.3-53.9c25.5-55.4,60.2-104.2,103.9-146.9c48.2-46.9,103.5-82.3,166.3-105.8C388.5,17.1,431.9,5.8,477,3.4
			c66.1-3.6,131.5,0.1,194.6,23.3c20,7.4,40.4,13.5,60.6,20.2c4.1,1.4,8,3,14.1,5.2c-5.6,3.2-9.5,2.3-13.2,2.3
			c-67.8,0.2-135.5-0.5-203.3,0.7c-27.8,0.5-55.9,2.9-83.4,7.4C359,77,283.8,116.5,220.1,177.8C167,229.1,128.6,289.6,107,360.5
			c-3.5,11.6-7.7,23-11.6,34.5C95.2,395.6,94.4,395.9,92.4,397.5z"/>
		<path class="st0" d="M728.1,621c11.8,8.8,20.7,19.2,30.1,28.8c4.1,4.1,10.1,8.9,10.3,13.5c0.2,4.7-5.6,9.8-8.8,14.7
			c-12.6,19.5-26.7,37.9-42.8,54.7c-43.9,46-97.5,73.5-159.9,84.6c-17.5,3.1-34.9,4.3-52.6,4.3c-119.3-0.1-238.5,0-357.8,0.1
			c-3.7,0-7.4-0.4-11-0.1c-13.5,1.1-23.4-4.9-31.1-15.4c-7.2-9.8-14.4-19.5-21.5-29.4c-1.6-2.3-2.7-5-4.9-9.2c6,0,10.3,0,14.6,0
			c105.7,0,211.3,0.1,317-0.2c40.5-0.1,80.9-0.4,121.3-2.2c30.1-1.3,58.2-11.4,84.8-25.4c34.2-17.9,62.1-43.1,84.4-74.5
			c7-9.8,12.9-20.5,19.3-30.8C722.2,630.4,724.9,626.1,728.1,621z"/>
		<path class="st0" d="M954,250.9c-6.7,0.8-11.3,1.8-16,1.8c-11.8,0.2-23.6-0.1-35.3,0c-128.1,0.2-256.2-0.5-384.4,1.1
			c-61.4,0.8-115.5,23.4-159.9,66.9c-21.4,21-39.9,44.2-54,70.7c-1.1,2.2-2.9,4-4.8,6.6c-16-12.3-28.7-26.9-42.5-41.8
			c4.7-6.2,9.2-12.3,13.8-18.4c15.1-20,29.9-40.1,48.1-57.4c42.1-40.2,91.4-66.4,149.1-75.6c20.2-3.2,41-4.7,61.5-4.8
			c119.7-0.4,239.3-0.2,359-0.2c2.6,0,5.2,0.1,7.7,0c14.6-0.6,25.3,5.9,33.5,17.6C937.3,228.2,945.1,238.7,954,250.9z"/>
		<path class="st0" d="M614.9,617.3c11.2,11.7,22.3,23.4,33.5,35c3.2,3.3,3.5,6.1,0,9.3c-26.5,24.3-54.5,46.3-90.7,54
			c-14.7,3.1-29.7,6.1-44.6,6.1c-144.3,0.5-288.7,0.3-433,0.7c-11.6,0-19.3-3.7-24.1-13.5c-5-10.2-9.6-20.6-13.6-31.2
			c-2.6-6.8-1-8.6,6.2-9.3c3.7-0.3,7.4-0.3,11-0.3c143.6,0,287.2,0.1,430.8-0.3c19.7-0.1,39.8-0.1,58.7-7.5
			c21.7-8.4,42.9-17.6,57.6-37c1.1-1.4,2.6-2.6,3.9-3.9c0.5-0.5,1.3-0.7,1.9-1C613.3,618.1,614.1,617.7,614.9,617.3z"/>
		<path class="st0" d="M378.7,361.3c24.2-24,49.8-43,81.4-53.2c22.3-7.2,45.2-9.3,68.5-9.3c142.9,0.1,285.7,0,428.6-0.2
			c6.6,0,11.3,2.2,15.3,7.1c9.3,11.3,14.1,24.9,18.6,38.5c1.9,5.6-0.4,7.8-6.8,8c-8.8,0.3-17.6,0.5-26.3,0.5
			c-136.2,0-272.5,0-408.7,0.1c-15,0-30.2,0.4-45.1,2.3c-30.8,3.9-57.8,16.2-79.2,39.4c-5.5,6-6.1,6.2-12.3,0.3
			C401.1,384,390.1,372.7,378.7,361.3z"/>
		<path class="st0" d="M142.8,541c3-5.3,5.3-9,7.3-12.9c16.1-29.8,32.1-59.6,48.1-89.4c4.5-8.4,12.2-11.7,20.7-8.4
			c2.1,0.8,4.1,4.2,4.5,6.6c1.3,7.2,1.9,14.6,2.7,21.9c3.2,28.9,6.2,57.7,9.5,86.6c1.2,10.9,3.1,21.8,4.2,32.8
			c0.8,8.3,0.3,8.6-8.2,8.7c-6.3,0.1-12.5-0.1-18.8,0.1c-4.6,0.2-6.6-1.6-7-6.3c-2.1-24.5-4.4-49.1-6.6-73.6
			c-0.8-8.8-1.8-17.5-2.9-27.7c-2,3.3-3.7,5.5-5,8c-15.6,30.4-31.2,60.9-46.7,91.3c-1.8,3.6-2.9,7.5-8.1,8
			c-6.8,0.8-9.3-0.3-12.9-7.4c-12.4-24.6-24.7-49.3-37.1-73.9c-2.8-5.5-5.8-10.9-9.8-18.4c-2.6,19.6-5,36.9-7.1,54.2
			c-1.6,13.1-2.9,26.3-4,39.5c-0.4,4.7-2.4,6.6-6.9,6.3c-2.2-0.1-4.4,0-6.6,0c-10.3-0.2-11.1-0.8-9.4-10.6
			c7.7-45.6,15.5-91.2,23.3-136.8c0.7-4.1-0.2-9.8,6.5-9.4c6.5,0.3,13.9-2.9,18.1,6.2c8.9,19.4,18.5,38.4,27.9,57.5
			C126.3,509.2,134.3,524.4,142.8,541z"/>
		<path class="st0" d="M419.4,434.4c3-0.4,4.7-0.8,6.5-0.8c23.5,0.1,47.1,0.1,70.6,0.3c8.9,0.1,17.5,1.9,25.3,6.5
			c10.3,6,15.9,15,16.7,26.9c1.5,22.5-5.6,34-26.6,42.9c-2,0.9-4,1.7-7.1,3.1c16.2,24.1,32.3,48,49.6,73.7
			c-14.1,0-26.4,0.2-38.7-0.2c-1.9-0.1-4.1-2.6-5.3-4.5c-12.2-19.2-24.4-38.4-36.3-57.8c-4-6.6-9-9-16.4-6.6
			c0,16.1-0.9,31.8,0.2,47.5c1.9,27.1,2.5,21.2-19.1,21.6c-19.3,0.4-18.8,0.1-18.2-19.1c0.9-32.7,1.4-65.4,1.6-98.1
			C422.1,458.4,420.4,447,419.4,434.4z M456.8,502.4c6.6,0,11.7,0,16.8,0c2.6,0,5.1,0.1,7.7-0.1c12.5-1.2,17.7-6.2,18.6-18.7
			c0.5-7.3,0.4-14.6-0.1-21.9c-0.5-7.1-4-13.4-11.3-14.4c-7.8-1-15.9-0.2-23.8,0.7c-5.5,0.6-7.8,4.9-7.8,10.3
			C456.8,472.5,456.8,486.7,456.8,502.4z"/>
		<path class="st0" d="M401,587c-12.9,0-25,0-37,0c-4.4,0-4.9-3.3-6-6.6c-4.1-12.6-8.3-25.1-12.6-37.6c-2.8-8.1-3-8-11.7-8
			c-11.8,0-23.5,0.3-35.3-0.2c-6.1-0.3-9.5,1.7-11.4,7.5c-4.2,12.5-9.3,24.7-13.2,37.3c-1.7,5.6-4.3,8-10.1,7.6
			c-5.1-0.3-10.2-0.1-16.3-0.1c0.8-3.2,1.1-5.7,2-7.8c20.7-46.6,41.7-93.2,62.2-139.9c2.6-5.9,6-8.8,12.4-7.9c1.8,0.2,3.7,0.3,5.5,0
			c6.2-0.9,9.2,2.1,11.4,7.7c7.3,18.8,15,37.5,22.7,56.1c11.7,28.1,23.5,56.2,35.2,84.3C399.6,581.5,400,583.6,401,587z
			 M336.9,519.8c-6.5-16.1-12.6-31.2-19.6-48.6c-7.7,17.3-14.1,32.5-20.6,48.6C310.9,519.8,323.2,519.8,336.9,519.8z"/>
		<path class="st0" d="M695.4,552.7c2.3,3.1,4.1,5.6,6.2,8.4c-16.8,19.1-37.6,28-61.9,27.8c-20.7-0.2-40.1-5.8-55.7-20.5
			c-23.1-21.8-29.1-48.9-21.5-78.8c7.6-29.7,27.5-48.1,57.2-55.3c24.2-5.8,48.2-3.6,71.6,4.7c5.3,1.9,7.8,4.4,6.3,10.5
			c-1.5,6.4-1.7,13.1-2.9,19.6c-0.3,1.9-2,4.7-3.3,4.9c-2.2,0.3-5.1-0.6-6.7-2.1c-2.4-2.2-3.9-5.3-5.6-8.1
			c-12.7-20.8-52.2-28.6-70.6,4.3c-12.9,23.2-12.4,63.3,7.7,88.7c16.6,20.9,42,19.4,61.8,8.4C683.7,562.1,688.7,557.6,695.4,552.7z"
			/>
		<path class="st0" d="M806,560.4c20.6-0.8,39.3-1.5,58.1-2.3c6.9-0.3,7.8,0.6,7.4,7.2c-0.3,4.7-0.6,9.5-0.3,14.2
			c0.4,7,0.3,7.6-7,7.6c-22.5,0.2-44.9,0.1-67.4,0.1c-8.1,0-16.2,0.2-24.3-0.1c-6.5-0.2-7.7-1.3-5.9-7.2c2.1-6.9,4.4-14.5,8.9-19.8
			c12.8-15.1,26.7-29.4,40.5-43.7c13.8-14.3,17.3-31.4,13.4-49.9c-3.7-17.5-20.2-22.2-33.6-10.2c-3,2.7-5.7,5.9-7.7,9.3
			c-2.8,4.8-6.9,4.8-11.5,4.5c-5.3-0.3-4.9-4.8-5.9-8c-4.3-13.9-3.8-15,9.5-20.3c19.7-7.9,39.7-10.1,60.4-3.9
			c35.4,10.5,37.8,45.7,16.9,65.5c-12,11.4-23.7,23.1-35.6,34.7C815.8,544.1,810.4,550.4,806,560.4z"/>
		<path class="st0" d="M969.1,435.2c0,5.8,0.3,10.9,0,15.9c-2.8,41.5-2.2,83,0.4,124.5c0.1,1.8,0.2,3.7,0.4,5.5
			c0.5,3.7-0.9,5.8-4.7,5.8c-9.9,0.1-19.9,0-29.8,0c-3.7,0-5.1-2.3-4.9-5.8c0.3-5.9,0.7-11.8,0.8-17.6c0.5-28.3,0.9-56.6,1.3-84.9
			c0-1.5,0-3-0.1-4.4c-1-9.7-1.7-10.5-11.5-10.2c-4.8,0.1-9.5,1.2-14.3,1.1c-2-0.1-4.8-1.9-5.6-3.6c-1.4-3-1.3-6.6,2.4-8.6
			c0.9-0.5,2.1-0.7,3.1-1c18.7-5.2,37.5-10.5,56.2-15.6C964.8,435.5,966.9,435.5,969.1,435.2z"/>
	</g>
</g>
</svg>
