<svg id="Layer_1" data-name="Layer 1" xmlns="http://www.w3.org/2000/svg" viewBox="0 0 1013.2 1013.2"><title>tr</title><path d="M687.85,357.4h-61V497.87h61c59.15,0,91.36-24.55,91.36-73.66C779.21,374.57,747,357.4,687.85,357.4Z" transform="translate(-5.4 -5.4)"/><path d="M512,5.4C232.21,5.4,5.4,232.21,5.4,512S232.21,1018.6,512,1018.6,1018.6,791.79,1018.6,512,791.79,5.4,512,5.4ZM478.21,360.57H353.58V727.86H277V360.57H152.38V296.14H478.21ZM785.55,727.86l-92.9-168.73H626.86V727.86H550.28V296.14H695.77c89.78,0,159,31.69,159,128.07,0,65.51-34.48,105.76-86.34,123.77L871.62,727.86Z" transform="translate(-5.4 -5.4)"/></svg>