<svg id="Layer_1" data-name="Layer 1" xmlns="http://www.w3.org/2000/svg" viewBox="0 0 932.03 932.03">
  <title>recycle</title>
  <path d="M381.94,528.14c5.88,25.48-22.07,44.84-43.81,31.25L264,513.05,171.38,661.24c-24.18,38.69,3.77,89.16,49.37,89.16h94.64a21.84,21.84,0,0,1,21.84,21.84v72.82a21.84,21.84,0,0,1-21.84,21.84H220.94C83.8,866.9.12,715.73,72.74,599.53l92.52-148.16L91.12,405.05C69.13,391.31,74.8,357.79,100,352l200.67-46.33a29.13,29.13,0,0,1,34.93,21.83l46.33,200.67Zm179.42-333,75.16,120.28-74.16,46.34c-21.94,13.7-16.39,47.24,8.88,53.08L771.91,461.2a29.12,29.12,0,0,0,34.93-21.83L853.17,238.7c5.82-25.2-21.83-45-43.81-31.25l-74.07,46.28-75.11-120.3c-68.3-109.28-227.93-109.53-296.39,0l-32.7,52.37a21.85,21.85,0,0,0,7,30.1l61.74,38.58a21.85,21.85,0,0,0,30.1-6.95l32.7-52.32c23.14-37,76.41-35.82,98.77,0ZM951.22,599.53l-50.09-80.22a21.84,21.84,0,0,0-30.1-6.95l-61.64,38.52a21.84,21.84,0,0,0-6.95,30.1l50.17,80.3c24.14,38.61-3.74,89.12-49.39,89.12H628.49V663.06c0-25.87-31.39-38.93-49.72-20.59L433.14,788.06a29.12,29.12,0,0,0,0,41.19L578.77,974.86c18.21,18.21,49.72,5.45,49.72-20.6V866.9H803C940.05,866.9,1023.9,715.82,951.22,599.53Z" transform="translate(-45.97 -51.38)"/>
</svg>
