<?xml version="1.0" encoding="utf-8"?>
<!-- Generator: Adobe Illustrator 18.0.0, SVG Export Plug-In . SVG Version: 6.00 Build 0)  -->
<!DOCTYPE svg PUBLIC "-//W3C//DTD SVG 1.1//EN" "http://www.w3.org/Graphics/SVG/1.1/DTD/svg11.dtd">
<svg version="1.1" id="Layer_1" xmlns="http://www.w3.org/2000/svg" xmlns:xlink="http://www.w3.org/1999/xlink" x="0px" y="0px"
	 viewBox="0 0 595.3 841.9" enable-background="new 0 0 595.3 841.9" xml:space="preserve">
<path fill="#FF0000" d="M595.3,398.3c-0.8-6.2-5.3-12.7-10.3-13.2c-4.5-0.4-6.2-3.7-12.7-6.6c-7.4-3.3-10.3-9.5-17.3-13.6
	c-7.4-4.1-19.7-34.1-29.2-40.7c-9-6.6-47.7-36.2-61.3-40.3c-12.3-3.7-51.4-8.6-69.1-7c-18.1,1.6-32.5,1.6-40.7,1.6
	s-10.3-12.3-10.3-23.4c0-11.9-11.9-39.9-9-51c2.9-11.1,3.3-21,12.3-25.5c9-4.1,32.9-15.2,44-21.4c11.5-6.2,10.3-9,14.8-9.9
	c4.5-0.8,14-0.8,25.9-0.8c11.9,0,19.7-2.9,27.1-4.5c7.4-1.6,16.4-6.2,11.1-9.9c-4.9-3.7-14.4-3.7-21.4-2.5c-7,1.2-21.8,3.7-30.8,2.1
	c-9.5-1.6-23-2.1-31.2-8.2s-15.2-15.6-21-16.9c-6.2-1.6-11.5-4.5-12.3,0c-0.8,4.1,0.8,5.8,3.7,10.7c2.9,4.9,15.6,17.7,20.1,18.9
	c4.5,0.8,13.2,0.8,11.5,4.5c-2.1,3.7-11.9,8.6-16.4,12.3c-4.5,3.7-32.1,18.9-40.3,22.2c-8.2,3.3-32.5,5.8-36.2,3.3
	c-3.7-2.5-16.4,1.2-22.2,0.8s-33.7,0.8-48.1-4.9s-21.8-13.2-24.3-14.4c-2.5-1.2-11.9-8.2-9.9-10.7s2.1-4.5,11.5-11.5
	c9-7,9.5-6.6,14.8-13.6c5.8-6.6,9.5-14,4.5-14s-8.6-0.8-13.2,4.1c-4.1,4.9-16,16.9-20.6,19.7c-4.5,2.9-11.9,10.7-14,11.9
	c-2.1,1.2-16.9,2.1-21.4,3.7c-4.1,1.6-10.3,5.3-15.2,7s-14.4,0.8-18.5,4.9c-3.7,4.1-4.5,3.3-1.6,7.8s4.1,6.6,10.7,4.1
	c6.2-2.5,11.9-2.5,18.9-7c6.6-4.1,11.9-8.2,17.7-7.8c5.8,0.8,13.6-0.4,16.4,3.7c3.3,4.1,18.1,16.4,35.8,20.6
	c18.1,3.7,14,1.6,16.4,3.3c2.5,1.6,3.3,3.7,1.6,7.8c-2.1,4.1-6.6,34.1-6.6,45.6c0,11.5,5.3,33.3,3.7,41.9
	c-1.6,8.6-9.5,11.9-15.6,14.8c-6.2,2.5-16,4.9-22.6,4.1c-6.2-0.8-13.6-2.9-21-3.7c-7-0.8-31.7,0.8-39.1,2.9
	c-7.4,2.1-28,13.2-45.6,23.8c-18.1,11.1-39.1,34.9-42.3,41.5c-3.7,6.6-11.1,24.7-13.6,28s-3.7,9-3.3,14c0.4,2.5-3.3,4.5-4.1,7
	s-4.5,4.9-8.2,8.6S7,433.7,5.3,434.9c-1.2,1.6-7.8,4.1-5.8,6.2c2.1,2.1,3.3,5.8,9.5,0.8c6.2-4.5,9-8.6,13.6-10.7
	c5.8-2.9,7.8-4.9,10.3-4.9s4.9,4.1,1.2,6.6S23.8,444,21.8,447.3c-2.1,3.7-10.3,13.6-7.8,14s5.8,2.5,11.1-2.5
	c4.9-4.5,8.6-14.8,12.7-18.9c3.7-3.3,4.9-7.8,8.6-7.4c3.3,0.4,4.1,0.8,3.7,6.2c-0.4,4.9-2.9,7.4-3.7,10.3c-0.4,1.2-3.3,5.8-3.7,9
	c-1.2,6.2-3.7,7.8,0.8,8.2s4.5,0.8,7.8-4.5c3.3-5.3,3.3-6.2,5.3-13.6c2.1-7.4,0-14.4,6.2-15.2c2.5-0.4,1.2,1.6,2.9,8.2
	c1.2,6.6,0.4,10.3,2.1,16c0.8,3.3-0.8,7.4,2.5,9c7.8,3.7,9.5,2.5,8.6-2.5c-0.8-4.9-0.8-6.2-0.8-9.9s-1.2-4.9-2.1-9.9
	c-0.8-5.3-2.1-6.2-2.5-8.6c-0.4-2.5,0.4-2.1-2.1-6.6c-2.9-4.5-0.4-12.3,0.4-16s7.4-22.2,12.7-28.8C90,377.4,95,369.1,99.5,365
	c4.5-4.1,11.1-9.5,21.8-14.4c8.6-4.1,15.2-5.3,18.5-2.1c4.1,3.7,2.9,14,8.6,29.6c5.8,15.6,11.1,29.6,11.1,45.6
	c0,16-2.9,99.5-3.7,108.1c-1.2,8.6-4.1,30-4.9,51.8c-0.4,11.5-0.8,32.1-5.3,42.3c-4.5,10.3-7,32.9-13.6,41.9
	c-6.6,9-22.2,36.6-24.3,43.2c-2.5,6.6-2.5,20.6,1.2,23.8c3.3,3.3,22.6,5.8,31.7-3.7c9-9.5,35.8-66.2,59.6-76.9
	c23.8-10.3,131.1-20.6,155.8-14c24.7,6.6,62.9,57.6,76.5,67.4c13.6,9.9,16,16,32.9,15.2c16.9-0.8,13.6-10.7,6.6-23
	c-7-12.7-23-53-29.2-69.1C437,615,425.5,562,428,522.5s11.9-90-0.4-152.9c-3.3-16.4,9.5-35.4,23.4-34.1s23.8,8.2,30.4,16
	c9.5,11.1,18.9,24.7,24.3,30.8c4.9,5.8,3.3,11.5-0.8,24.3c-1.6,4.9-3.3,10.3-4.5,11.5c-0.8,1.2-1.6,8.2,1.6,8.6
	c3.3,0.8,11.1-7.4,11.5-9.5c0.4-2.1,3.7-4.1,4.1-9.9c0.4-5.8,5.8-16.9,8.6-16.4c2.9,0.4,1.6,13.6,2.1,16.4s3.7,12.3,5.8,17.7
	c2.1,5.3,4.1,10.3,6.6,9c2.9-1.2,6.6-11.1,5.3-16.9c-1.2-6.2-6.6-19.7-3.7-18.9c2.9,0.8,15.6,17.3,19.7,19.7
	c4.1,2.9,5.8,7.8,11.5,5.8c5.8-2.1,5.8-11.1,2.5-13.6c-4.5-2.9-9.5-3.3-12.7-9.5c-2.1-3.7-2.9-5.8-5.3-8.6c-3.7-3.7-5.3-6.6,0.8-6.2
	c3.3,0,4.1,2.1,7.8,3.7c3.7,1.6,3.7,1.6,7.4,4.1c3.3,2.1,5.8,4.5,10.7,8.6C592,407.4,596.1,404.5,595.3,398.3z M335.1,504.4
	c0.4,3.3-0.8,6.6-2.1,9.9c-2.5,5.3-6.6,9-11.1,12.3c-0.4,0-0.4,0.4-0.8,0.4c-1.2,1.6-2.5,3.3-4.1,4.9c-7.8,7.4-21,9.5-30.4,3.3
	c-0.8-0.4-1.2-1.2-2.1-1.6l0,0c-3.7-0.4-6.2-0.4-9-2.5c-2.5-1.6-5.3-4.1-6.6-6.6c-1.6-3.3-2.5-6.6-2.5-9.9c-0.8-2.1-1.2-3.7-1.6-5.8
	c-0.4-0.8-1.2-1.6-1.6-2.5c-0.8-0.8-1.2-2.1-1.6-2.9c-2.1-4.5-3.7-8.6-3.3-13.6c0.4-4.1,2.1-8.2,4.1-11.1c1.2-3.7,4.1-6.6,7.4-8.6
	c1.2-1.6,2.9-3.3,4.5-4.5c2.5-3.3,6.2-5.8,10.3-6.6c2.1-1.2,4.1-2.1,6.2-2.5c9.5-2.5,17.7-0.4,26.3,3.7c2.5,1.2,4.9,3.7,7,6.2
	c3.7,2.9,7,6.2,9.5,10.7C337.9,484.3,337.9,494.9,335.1,504.4z"/>
</svg>
