<svg xmlns="http://www.w3.org/2000/svg" viewBox="0 0 32 32" preserveAspectRatio="xMidYMid" class="uil-default"><rect x="4" y="4" width="4" height="4"></rect><rect x="4" y="12" width="4" height="4"></rect><rect x="4" y="20" width="4" height="4"></rect><rect x="4" y="28" width="4" height="4"></rect><rect x="12" y="4" width="4" height="4"></rect><rect x="12" y="12" width="4" height="4"></rect><rect x="12" y="20" width="4" height="4"></rect><rect x="12" y="28" width="4" height="4"></rect><rect x="20" y="4" width="4" height="4"></rect><rect x="20" y="12" width="4" height="4"></rect><rect x="20" y="20" width="4" height="4"></rect><rect x="20" y="28" width="4" height="4"></rect><rect x="28" y="4" width="4" height="4"></rect><rect x="28" y="12" width="4" height="4"></rect><rect x="28" y="20" width="4" height="4"></rect><rect x="28" y="28" width="4" height="4"></rect></svg>