<?xml version="1.0" encoding="utf-8"?>
<!-- Generator: Adobe Illustrator 18.0.0, SVG Export Plug-In . SVG Version: 6.00 Build 0)  -->
<!DOCTYPE svg PUBLIC "-//W3C//DTD SVG 1.1//EN" "http://www.w3.org/Graphics/SVG/1.1/DTD/svg11.dtd">
<svg version="1.1" id="Layer_1" xmlns="http://www.w3.org/2000/svg" xmlns:xlink="http://www.w3.org/1999/xlink" x="0px" y="0px"
	 viewBox="0 208 612 371" enable-background="new 0 208 612 371" xml:space="preserve">
<g>
	<path fill="none" stroke="#000000" stroke-width="17.8577" stroke-miterlimit="10" d="M583.9,567.5H30.4c-6.5,0-11.9-5.4-11.9-11.9
		V234.1c0-6.5,5.4-11.9,11.9-11.9h553.6c6.5,0,11.9,5.4,11.9,11.9v321.4C595.9,562.1,590.5,567.5,583.9,567.5z"/>
	<path fill="none" stroke="#000000" stroke-width="10.417" stroke-miterlimit="10" d="M581.6,220.3c5.4,5.4,5.4,14,0,19.3
		L388.1,433.1c-45.5,45.5-120.1,45.5-165.6,0L29,239.6c-5.4-5.4-5.4-14,0-19.3"/>
	<path fill="none" stroke="#000000" stroke-width="10.417" stroke-miterlimit="10" d="M416.1,404.9l165.5,165.5"/>
	<path fill="none" stroke="#000000" stroke-width="10.417" stroke-miterlimit="10" d="M29.2,570.4l164.7-164.7"/>
</g>
</svg>
