<?xml version="1.0" encoding="utf-8"?>
<!-- Generator: Adobe Illustrator 18.0.0, SVG Export Plug-In . SVG Version: 6.00 Build 0)  -->
<!DOCTYPE svg PUBLIC "-//W3C//DTD SVG 1.1//EN" "http://www.w3.org/Graphics/SVG/1.1/DTD/svg11.dtd">
<svg version="1.1" id="Layer_1" xmlns="http://www.w3.org/2000/svg" xmlns:xlink="http://www.w3.org/1999/xlink" x="0px" y="0px"
	 viewBox="0 208 612 371" enable-background="new 0 208 612 371" xml:space="preserve">
<g>
	<path fill="none" stroke="#000000" stroke-width="18" stroke-miterlimit="10" d="M583.9,567.5H30.4c-6.5,0-11.9-4.3-11.9-9.5V302.7
		c0-5.2,5.4-9.5,11.9-9.5h553.6c6.5,0,11.9,4.3,11.9,9.5V558C595.9,563.2,590.5,567.5,583.9,567.5z"/>
</g>
<line fill="none" stroke="#000000" stroke-width="17.0381" stroke-linecap="round" stroke-miterlimit="10" x1="104" y1="413" x2="371" y2="413"/>
<line fill="none" stroke="#000000" stroke-width="17.0381" stroke-linecap="round" stroke-miterlimit="10" x1="104" y1="476" x2="250" y2="476"/>
<path d="M530.4,435.8h-51.9c-7.8,0-14.2-6.4-14.2-14.2v-61.1c0-7.8,6.4-14.2,14.2-14.2h51.9c7.8,0,14.2,6.4,14.2,14.2v61.1
	C544.7,429.4,538.3,435.8,530.4,435.8z"/>
<line fill="none" stroke="#000000" stroke-width="18" stroke-linecap="round" stroke-miterlimit="10" x1="40" y1="258" x2="577" y2="258"/>
<line fill="none" stroke="#000000" stroke-width="18" stroke-linecap="round" stroke-miterlimit="10" x1="102" y1="220" x2="515" y2="220"/>
</svg>
