<?xml version="1.0" encoding="utf-8"?>
<!DOCTYPE svg PUBLIC "-//W3C//DTD SVG 1.1//EN" "http://www.w3.org/Graphics/SVG/1.1/DTD/svg11.dtd">
<svg version="1.1" id="icon_edit" xmlns="http://www.w3.org/2000/svg" xmlns:xlink="http://www.w3.org/1999/xlink" x="0px" y="0px"
	 viewBox="273.7 80.8 408.7 407.8" enable-background="new 273.7 80.8 408.7 407.8" xml:space="preserve">
<g id="_x38_lVeWt.tif">
	<g>
		<path fill="#1A1A1A" d="M560.3,233c3.6-3.6,5.9-5.9,8.3-8.3c4.8-4.8,10.7-8.3,13.1-14.3c2.4-5.9,1.2-13.1,1.2-20.2
			c0-1.2,0-3.6,0-4.8c0-8.3-2.4-15.5-8.3-21.4c-22.6-23.8-44-48.7-66.6-72.5c-7.1-7.1-15.5-10.7-26.2-10.7c-57.1,0-114.1,0-171.2,0
			c-20.2,0-34.5,15.5-34.5,34.5c0,111.8,0,223.5,0,335.3c0,22.6,14.3,36.9,36.9,36.9c36.9,0,74.9,0,111.8,0c40.4,0,80.8,0,122.5,0
			c20.2,0,34.5-14.3,35.7-33.3c0-32.1,0-64.2,0-96.3c0-1.2,0-1.2-1.2-3.6c-7.1,7.1-13.1,13.1-19,19c-1.2,1.2-2.4,4.8-2.4,7.1
			c0,23.8,0,46.4,0,70.1c0,10.7-3.6,14.3-14.3,14.3c-76.1,0-152.2,0-227.1,0c-15.5,0-17.8-2.4-17.8-19c0-109.4,0-220,0-329.3
			c0-10.7,3.6-14.3,14.3-14.3c54.7,0,109.4,0,164.1,0c1.2,0,3.6,0,4.8,0c0,2.4,0,3.6,0,5.9c0,20.2,0,39.2,0,59.4
			c0,9.5,4.8,15.5,15.5,15.5c19,0,38,0,57.1,0c5.9,0,5.9,0,5.9,5.9C560.3,204.5,560.3,217.6,560.3,233z M481.8,341.2
			c14.3,14.3,28.5,28.5,42.8,42.8c45.2-45.2,90.4-90.4,134.4-134.4c-14.3-14.3-28.5-28.5-42.8-42.8
			C572.1,250.9,527,296.1,481.8,341.2z M468.7,351.9c-2.4,3.6-4.8,5.9-5.9,9.5c-2.4,4.8-3.6,10.7-5.9,15.5
			c-4.8,14.3-10.7,27.3-15.5,41.6c0,1.2,0,3.6,0,4.8c1.2,1.2,3.6,0,4.8,0h1.2c19-7.1,38-14.3,57.1-21.4c2.4-1.2,5.9-3.6,8.3-4.8
			C498.4,381.7,484.2,367.4,468.7,351.9z M629.2,193.8c14.3,14.3,28.5,28.5,42.8,44c13.1-13.1,14.3-33.3,1.2-45.2
			C661.3,179.5,641.1,180.7,629.2,193.8z"/>
		<path fill="#1A1A1A" d="M560.3,233c0-15.5,0-29.7,0-42.8c0-5.9,0-5.9-5.9-5.9c-19,0-38,0-57.1,0c-9.5,0-15.5-4.8-15.5-15.5
			c0-20.2,0-39.2,0-59.4c0-1.2,0-3.6,0-5.9c-1.2,0-3.6,0-4.8,0c-54.7,0-109.4,0-164.1,0c-10.7,0-14.3,3.6-14.3,14.3
			c0,109.4,0,220,0,329.3c0,15.5,2.4,19,17.8,19c76.1,0,152.2,0,227.1,0c10.7,0,14.3-3.6,14.3-14.3c0-23.8,0-46.4,0-70.1
			c0-2.4,1.2-4.8,2.4-7.1c5.9-5.9,11.9-13.1,19-19c0,1.2,1.2,2.4,1.2,3.6c0,32.1,0,64.2,0,96.3c0,20.2-14.3,33.3-35.7,33.3
			c-40.4,0-80.8,0-122.5,0c-36.9,0-74.9,0-111.8,0c-22.6,0-36.9-14.3-36.9-36.9c0-111.8,0-223.5,0-335.3c0-20.2,14.3-34.5,34.5-34.5
			c57.1,0,114.1,0,171.2,0c9.5,0,19,3.6,26.2,10.7c22.6,23.8,44,48.7,66.6,72.5c5.9,5.9,8.3,13.1,8.3,21.4c0,1.2,0,3.6,0,4.8
			c0,7.1,1.2,14.3-1.2,20.2s-8.3,9.5-13.1,14.3C566.2,227.1,563.8,229.5,560.3,233z"/>
		<path fill="#1A1A1A" d="M481.8,341.2c45.2-45.2,90.4-89.2,134.4-134.4c14.3,14.3,28.5,28.5,42.8,42.8
			c-44,44-89.2,89.2-134.4,134.4C510.3,369.8,496.1,355.5,481.8,341.2z"/>
		<path fill="#1A1A1A" d="M468.7,351.9c15.5,15.5,29.7,29.7,45.2,44c-2.4,2.4-4.8,3.6-8.3,4.8c-19,7.1-38,14.3-57.1,21.4h-1.2
			c-1.2,0-4.8,0-4.8,0c-1.2-1.2-1.2-3.6,0-4.8c4.8-14.3,10.7-27.3,15.5-41.6c2.4-4.8,3.6-10.7,5.9-15.5
			C465.1,357.9,467.5,355.5,468.7,351.9z"/>
		<path fill="#1A1A1A" d="M629.2,193.8c11.9-13.1,32.1-13.1,44-2.4c13.1,13.1,11.9,32.1-1.2,45.2
			C657.7,222.3,643.5,208.1,629.2,193.8z"/>
	</g>
</g>
</svg>
