<?xml version="1.0" encoding="utf-8"?>
<!-- Svg Vector Icons : http://www.onlinewebfonts.com/icon -->
<!DOCTYPE svg PUBLIC "-//W3C//DTD SVG 1.1//EN" "http://www.w3.org/Graphics/SVG/1.1/DTD/svg11.dtd">
<svg version="1.1" xmlns="http://www.w3.org/2000/svg" xmlns:xlink="http://www.w3.org/1999/xlink" x="0px" y="0px" viewBox="0 0 1000 1000" enable-background="new 0 0 1000 1000" xml:space="preserve">
<metadata> Svg Vector Icons : http://www.onlinewebfonts.com/icon </metadata>
<g><path fill="#FFFFFF" d="M500,990c-66.1,0-130.3-13-190.7-38.5c-58.3-24.7-110.8-60-155.7-105c-45-45-80.3-97.4-105-155.7C23,630.3,10,566.1,10,500c0-66.1,13-130.3,38.5-190.7c24.7-58.4,60-110.8,105-155.7c45-45,97.4-80.3,155.7-105C369.7,23,433.9,10,500,10c66.1,0,130.3,13,190.7,38.5c58.3,24.7,110.8,60,155.7,105c45,45,80.3,97.4,105,155.7C977,369.7,990,433.9,990,500c0,66.1-13,130.3-38.5,190.7c-24.7,58.4-60,110.8-105,155.7c-45,45-97.4,80.3-155.7,105C630.3,977,566.1,990,500,990z M500,47.2C250.3,47.2,47.2,250.3,47.2,500c0,249.7,203.1,452.8,452.8,452.8c249.7,0,452.8-203.1,452.8-452.8C952.8,250.3,749.7,47.2,500,47.2z"/>
<path fill="#FFFFFF" d="M221.5,296.8h557.1v42.4H221.5V296.8L221.5,296.8z"/>
<path fill="#FFFFFF" d="M221.5,482.5h557.1v42.4H221.5V482.5L221.5,482.5z"/>
<path fill="#FFFFFF" d="M221.5,657.3h557.1v42.4H221.5V657.3L221.5,657.3z"/></g>
</svg>