<?xml version="1.0" encoding="utf-8"?>
<!-- Generator: Adobe Illustrator 18.0.0, SVG Export Plug-In . SVG Version: 6.00 Build 0)  -->
<!DOCTYPE svg PUBLIC "-//W3C//DTD SVG 1.1//EN" "http://www.w3.org/Graphics/SVG/1.1/DTD/svg11.dtd" [
	<!ENTITY ns_flows "http://ns.adobe.com/Flows/1.0/">
	<!ENTITY ns_extend "http://ns.adobe.com/Extensibility/1.0/">
	<!ENTITY ns_ai "http://ns.adobe.com/AdobeIllustrator/10.0/">
	<!ENTITY ns_graphs "http://ns.adobe.com/Graphs/1.0/">
]>
<svg version="1.1" id="Layer_1" xmlns:x="&ns_extend;" xmlns:i="&ns_ai;" xmlns:graph="&ns_graphs;"
	 xmlns="http://www.w3.org/2000/svg" xmlns:xlink="http://www.w3.org/1999/xlink" xmlns:a="http://ns.adobe.com/AdobeSVGViewerExtensions/3.0/"
	 x="0px" y="0px" viewBox="0 0 35.5 47.1" enable-background="new 0 0 35.5 47.1" xml:space="preserve">
<path fill="#1A1A1A" d="M0.8,30h0.7h7.2h0.7v-0.7v-5h7.2v12.2v0.7h0.7H26v3.6v0.7h0.7h7.2h0.7v-0.7v-8.6v-0.7h-0.7h-7.2H26v0.7v3.6
	h-7.9V24.3H26v3.6v0.7h0.7h7.2h0.7v-0.7v-8.6v-0.7h-0.7h-7.2H26v0.7v3.6h-7.9V11.3H26v3.6v0.7h0.7h7.2h0.7v-0.7V6.3V5.6h-0.7h-7.2
	H26v0.7v3.6h-8.6h-0.7v0.7v12.2H9.5v-5v-0.7H8.8H1.6H0.8v0.7v11.5V30z M2.3,28.6V18.5H8v4.9c0,0.1,0,0.1,0,0.2c0,0,0,0,0,0.1v4.9
	H2.3z M27.4,40.1v-3.5v-0.3v-3.4h5.8v7.2H27.4z M27.4,27.1V20h5.8v7.2H27.4z M27.4,14.2v-3.5v-0.3V7h5.8v7.2H27.4z"/>
</svg>
