<?xml version="1.0" encoding="UTF-8" standalone="no"?>
<svg
   xmlns:dc="http://purl.org/dc/elements/1.1/"
   xmlns:cc="http://creativecommons.org/ns#"
   xmlns:rdf="http://www.w3.org/1999/02/22-rdf-syntax-ns#"
   xmlns:svg="http://www.w3.org/2000/svg"
   xmlns="http://www.w3.org/2000/svg"
   xmlns:sodipodi="http://sodipodi.sourceforge.net/DTD/sodipodi-0.dtd"
   xmlns:inkscape="http://www.inkscape.org/namespaces/inkscape"
   version="1.1"
   width="48"
   height="48"
   viewBox="0 0 48 48"
   id="svg4"
   sodipodi:docname="move_hover.svg"
   inkscape:version="0.92.2 5c3e80d, 2017-08-06">
  <metadata
     id="metadata10">
    <rdf:RDF>
      <cc:Work
         rdf:about="">
        <dc:format>image/svg+xml</dc:format>
        <dc:type
           rdf:resource="http://purl.org/dc/dcmitype/StillImage" />
      </cc:Work>
    </rdf:RDF>
  </metadata>
  <defs
     id="defs8" />
  <sodipodi:namedview
     pagecolor="#ffffff"
     bordercolor="#666666"
     borderopacity="1"
     objecttolerance="10"
     gridtolerance="10"
     guidetolerance="10"
     inkscape:pageopacity="0"
     inkscape:pageshadow="2"
     inkscape:window-width="640"
     inkscape:window-height="480"
     id="namedview6"
     showgrid="false"
     inkscape:zoom="4.9166667"
     inkscape:cx="24"
     inkscape:cy="24"
     inkscape:window-x="0"
     inkscape:window-y="0"
     inkscape:window-maximized="0"
     inkscape:current-layer="svg4" />
  <path
     d="M24 0q0.844 0 1.422 0.578l7.063 7.078q0.594 0.594 0.594 1.422t-0.586 1.414-1.414 0.586-1.422-0.594l-3.656-3.656v15.172h15.172l-3.656-3.656q-0.594-0.594-0.594-1.422t0.586-1.414 1.414-0.586 1.422 0.594l7.078 7.063q0.578 0.578 0.578 1.422t-0.578 1.406l-7.078 7.078q-0.594 0.594-1.422 0.594t-1.414-0.586-0.586-1.414 0.594-1.422l3.656-3.656h-15.172v15.172l3.656-3.656q0.594-0.594 1.422-0.594t1.414 0.586 0.586 1.414-0.594 1.422l-7.063 7.078q-0.578 0.578-1.422 0.578-0.828 0-1.406-0.578l-7.078-7.078q-0.594-0.594-0.594-1.422t0.586-1.414 1.414-0.586 1.422 0.594l3.656 3.656v-15.172h-15.172l3.656 3.656q0.594 0.594 0.594 1.422t-0.586 1.414-1.414 0.586-1.422-0.594l-7.078-7.063q-0.578-0.578-0.578-1.422t0.578-1.422l7.078-7.063q0.594-0.594 1.422-0.594t1.414 0.586 0.586 1.414-0.594 1.422l-3.656 3.656h15.172v-15.172l-3.656 3.656q-0.594 0.594-1.422 0.594t-1.414-0.586-0.586-1.414 0.594-1.422l7.063-7.078q0.578-0.578 1.422-0.578z"
     id="path2"
     style="fill:#f9f9f9" />
</svg>
