<?xml version="1.0" encoding="utf-8"?>
<svg version="1.1" xmlns="http://www.w3.org/2000/svg" xmlns:xlink="http://www.w3.org/1999/xlink" width="48" height="48" viewBox="0 0 48 48">
<path d="M24 0q0.844 0 1.422 0.578l7.063 7.078q0.594 0.594 0.594 1.422t-0.586 1.414-1.414 0.586-1.422-0.594l-3.656-3.656v15.172h15.172l-3.656-3.656q-0.594-0.594-0.594-1.422t0.586-1.414 1.414-0.586 1.422 0.594l7.078 7.063q0.578 0.578 0.578 1.422t-0.578 1.406l-7.078 7.078q-0.594 0.594-1.422 0.594t-1.414-0.586-0.586-1.414 0.594-1.422l3.656-3.656h-15.172v15.172l3.656-3.656q0.594-0.594 1.422-0.594t1.414 0.586 0.586 1.414-0.594 1.422l-7.063 7.078q-0.578 0.578-1.422 0.578-0.828 0-1.406-0.578l-7.078-7.078q-0.594-0.594-0.594-1.422t0.586-1.414 1.414-0.586 1.422 0.594l3.656 3.656v-15.172h-15.172l3.656 3.656q0.594 0.594 0.594 1.422t-0.586 1.414-1.414 0.586-1.422-0.594l-7.078-7.063q-0.578-0.578-0.578-1.422t0.578-1.422l7.078-7.063q0.594-0.594 1.422-0.594t1.414 0.586 0.586 1.414-0.594 1.422l-3.656 3.656h15.172v-15.172l-3.656 3.656q-0.594 0.594-1.422 0.594t-1.414-0.586-0.586-1.414 0.594-1.422l7.063-7.078q0.578-0.578 1.422-0.578z"></path>
</svg>
