<?xml version="1.0" encoding="utf-8"?>
<!-- Generator: Adobe Illustrator 18.0.0, SVG Export Plug-In . SVG Version: 6.00 Build 0)  -->
<!DOCTYPE svg PUBLIC "-//W3C//DTD SVG 1.1//EN" "http://www.w3.org/Graphics/SVG/1.1/DTD/svg11.dtd">
<svg version="1.1" id="Layer_1" xmlns="http://www.w3.org/2000/svg" xmlns:xlink="http://www.w3.org/1999/xlink" x="0px" y="0px"
	 viewBox="0 0 48 48" enable-background="new 0 0 48 48" xml:space="preserve">
<path fill="#C02033" d="M24,0c0.6,0,1,0.2,1.4,0.6l7.1,7.1c0.4,0.4,0.6,0.9,0.6,1.4s-0.2,1-0.6,1.4s-0.9,0.6-1.4,0.6
	c-0.6,0-1-0.2-1.4-0.6L26,6.8V22h15.2l-3.7-3.7c-0.4-0.4-0.6-0.9-0.6-1.4c0-0.6,0.2-1,0.6-1.4s0.9-0.6,1.4-0.6c0.6,0,1,0.2,1.4,0.6
	l7.1,7.1C47.8,23,48,23.4,48,24s-0.2,1-0.6,1.4l-7.1,7.1c-0.4,0.4-0.9,0.6-1.4,0.6s-1-0.2-1.4-0.6s-0.6-0.9-0.6-1.4
	c0-0.6,0.2-1,0.6-1.4l3.7-3.7H26v15.2l3.7-3.7c0.4-0.4,0.9-0.6,1.4-0.6c0.6,0,1,0.2,1.4,0.6s0.6,0.9,0.6,1.4s-0.2,1-0.6,1.4
	l-7.1,7.1C25,47.8,24.6,48,24,48c-0.6,0-1-0.2-1.4-0.6l-7.1-7.1c-0.4-0.4-0.6-0.9-0.6-1.4s0.2-1,0.6-1.4s0.9-0.6,1.4-0.6
	s1,0.2,1.4,0.6l3.7,3.7V26H6.8l3.7,3.7c0.4,0.4,0.6,0.9,0.6,1.4c0,0.6-0.2,1-0.6,1.4s-0.9,0.6-1.4,0.6s-1-0.2-1.4-0.6l-7.1-7.1
	C0.2,25,0,24.6,0,24s0.2-1,0.6-1.4l7.1-7.1c0.4-0.4,0.9-0.6,1.4-0.6c0.6,0,1,0.2,1.4,0.6c0.4,0.4,0.6,0.9,0.6,1.4
	c0,0.6-0.2,1-0.6,1.4L6.8,22H22V6.8l-3.7,3.7c-0.4,0.4-0.9,0.6-1.4,0.6c-0.6,0-1-0.2-1.4-0.6s-0.6-0.9-0.6-1.4c0-0.6,0.2-1,0.6-1.4
	l7.1-7.1C23,0.2,23.4,0,24,0L24,0z"/>
</svg>
