<?xml version="1.0" encoding="UTF-8" standalone="no"?>
<svg
   xmlns:dc="http://purl.org/dc/elements/1.1/"
   xmlns:cc="http://creativecommons.org/ns#"
   xmlns:rdf="http://www.w3.org/1999/02/22-rdf-syntax-ns#"
   xmlns:svg="http://www.w3.org/2000/svg"
   xmlns="http://www.w3.org/2000/svg"
   id="svg8"
   version="1.1"
   viewBox="0 0 26.458333 26.458334"
   height="100"
   width="100">
  <defs
     id="defs2" />
  <metadata
     id="metadata5">
  </metadata>
  <g
     transform="translate(0,-270.54165)"
     id="layer1">
    <path
       id="circle5295"
       d="m 3.9499045,274.49145 a 13.12288,13.12288 0 0 0 -1.072e-4,18.55862 13.12288,13.12288 0 0 0 18.5587387,0 13.12288,13.12288 0 0 0 -1.08e-4,-18.55862 13.12288,13.12288 0 0 0 -18.5585235,0 z m 1.190147,3.47605 13.8866175,13.88661 A 9.9590077,9.9590077 0 0 1 6.1869919,290.81289 9.9590077,9.9590077 0 0 1 5.1400515,277.9675 Z m 2.2916098,-2.27997 a 9.9590077,9.9590077 0 0 1 12.8395717,1.04112 9.9590077,9.9590077 0 0 1 1.04705,12.84549 z"
       style="fill:#aa0000;stroke-width:0.10280938" />
  </g>
</svg>
