<?xml version="1.0" encoding="utf-8"?>
<!-- Generator: Adobe Illustrator 23.1.1, SVG Export Plug-In . SVG Version: 6.00 Build 0)  -->
<svg version="1.1" id="Layer_1" xmlns="http://www.w3.org/2000/svg" xmlns:xlink="http://www.w3.org/1999/xlink" x="0px" y="0px"
	 viewBox="0 0 1024 1024" style="enable-background:new 0 0 1024 1024;" xml:space="preserve">
<path d="M1012.3,95.1v291.8c0,11.3-4.1,21.1-12.4,29.3c-8.3,8.3-18,12.4-29.3,12.4H678.8c-18.2,0-31.1-8.7-38.4-26.1
	c-7.4-16.9-4.3-31.9,9.1-44.9l89.9-89.9c-64.3-59.5-140.1-89.2-227.3-89.2c-45.2,0-88.3,8.8-129.3,26.4s-76.5,41.4-106.5,71.3
	c-30,30-53.7,65.5-71.3,106.5s-26.4,84.1-26.4,129.3s8.8,88.3,26.4,129.3s41.4,76.5,71.3,106.5c30,30,65.5,53.7,106.5,71.3
	c41,17.6,84.1,26.4,129.3,26.4c51.7,0,100.5-11.3,146.6-33.9c46-22.6,84.9-54.5,116.6-95.8c3-4.3,8-6.9,15-7.8
	c6.5,0,11.9,2,16.3,5.9l89.2,89.9c3.9,3.5,6,7.9,6.2,13.4s-1.4,10.3-4.9,14.7c-47.3,57.3-104.7,101.7-172,133.2
	c-67.3,31.5-138.3,47.2-213,47.2c-67.7,0-132.5-13.2-194.1-39.7S203,910.5,158.3,865.7C113.5,821,77.9,767.8,51.4,706.1
	S11.7,579.7,11.7,512S25,379.5,51.4,317.9S113.5,203,158.3,158.3s97.9-80.3,159.6-106.8S444.3,11.7,512,11.7
	c63.8,0,125.6,12.1,185.3,36.2s112.8,58.1,159.3,101.9l84.7-84c12.6-13.5,27.8-16.5,45.6-9.1C1003.8,64,1012.3,76.8,1012.3,95.1z"/>
</svg>
