<?xml version="1.0" encoding="utf-8"?>
<!-- Generator: Adobe Illustrator 18.0.0, SVG Export Plug-In . SVG Version: 6.00 Build 0)  -->
<!DOCTYPE svg PUBLIC "-//W3C//DTD SVG 1.1//EN" "http://www.w3.org/Graphics/SVG/1.1/DTD/svg11.dtd">
<svg version="1.1" id="Layer_1" xmlns="http://www.w3.org/2000/svg" xmlns:xlink="http://www.w3.org/1999/xlink" x="0px" y="0px"
	 viewBox="0 119 612 543" enable-background="new 0 119 612 543" xml:space="preserve">
<g id="nZPBRg.tif">
	<g>
		<path fill="#231F20" d="M423.2,156.1c2.8,0.4,5.7,0.7,8.7,1.1c13.7,1.7,26.8,5.4,39.1,11.5c39.4,18.9,66.3,49.2,80.9,90.5
			c3.3,9.4,5.4,19.1,6.1,28.9c0.4,8.7-0.4,17.2-2.2,25.7c-5,26.3-17,49.2-34.4,68.9c-10.9,12.4-22.6,23.9-34.4,35.4
			c-20.2,20.4-40.9,40.7-61.1,61.3c-7.4,7.6-15,15-23.9,20.9c-15.7,10.4-32.8,17-51.3,20c-22.4,3.7-44.4,2.2-65.9-5.4
			c-14.6-5.2-27.6-13.3-39.1-23.3c-17.2-15-30-33.1-40.7-53.1c-0.4-0.2-0.4-0.2-0.4-0.2c14.1-14.1,28.1-28.1,42.2-42.2
			c0.4,0.9,0.9,1.7,1.3,2.8c6.1,12.6,12.8,24.8,22.4,35.4c12,13.5,26.8,22,44.4,25c13.5,2.4,27,1.5,40-2.6c10-3,19.8-7.2,28.1-13.7
			c5.2-4.1,10-9.1,15-13.9c25-24.8,49.8-49.8,74.8-74.8c12.4-12.4,20.7-27,23.5-44.1c4.8-28.1-3-52.4-22.6-72.9
			c-5.7-3.7-10.9-7.6-16.7-10.9c-9.4-5.4-19.4-8.9-30-10.9c-15.7-2.8-30.4-0.2-44.8,6.3c-12.8,6.1-23.9,14.8-34.1,24.4
			c-7.6,7.2-15,14.8-22.4,22.2c-0.9,0.9-1.5,1.1-2.8,0.7c-15.7-6.1-32-9.6-48.7-8.9c-6.1,0.2-12,1.5-18.1,2.4
			c-2,0.2-3.7,0.4-6.1,0.7c0.7-0.7,0.7-0.9,0.9-1.1c14.8-14.4,29.4-28.9,44.4-43.1c15.9-15.2,32.4-29.8,51.3-41.5
			c13.9-8.7,28.5-15.4,44.4-18.7c5-1.1,10-1.5,15.2-2.4c0.7,0,1.3-0.2,2-0.4C413,156.1,418,156.1,423.2,156.1z"/>
		<path fill="#231F20" d="M52.8,512.4c0.2-2.6,0.4-5.2,0.7-7.6c2.4-26.3,11.7-49.8,27.6-70.9c6.1-8,13.3-15.2,20.2-22.2
			c25.2-25.4,50.7-50.7,75.9-76.1c7.4-7.6,14.8-15,23.7-20.9c15.9-10.7,33.1-17.4,52-20.4c12.8-2.2,25.9-2.6,38.7-1.1
			c23.5,2.8,44.4,11.7,62.6,26.5c19.1,15.7,33.3,35.2,44.6,56.5c-14.1,14.1-28.1,28.1-42.2,42.2c-2-3.5-3.7-7.2-5.7-10.7
			c-7-12.4-14.8-23.9-25.4-33.7c-12.6-11.5-27.2-18.3-44.1-19.8c-24.8-2-47,5-66.1,21.3c-8.7,7.6-16.5,16.3-24.8,24.6
			c-20.9,20.9-42,41.8-62.9,62.9c-11.5,11.5-18.5,25.4-20.9,41.3c-3.7,22.8,1.3,43.7,14.4,62.9c5.7,8.3,13.3,14.4,21.7,19.1
			c9.6,5.4,19.6,9.6,30.2,12c12.4,2.8,24.8,2,37-1.5c12.8-3.7,25-8.9,34.8-18.1c6.5-5.9,12.4-12.2,18.5-18.3
			c3.7-3.7,7.4-7.4,11.1-11.1c0.9-0.9,1.3-1.1,2.4-0.4c7.6,3.7,15.7,5.2,23.9,5.4c10,0.2,20,0.2,30.2,0c5.2-0.2,10.4-1.3,15.4-2.2
			c-0.2,0.2-0.7,0.7-1.1,1.1C326,572.6,306.4,592,287,611.5c-6.1,6.3-12.2,12.6-19.4,17.8c-14.8,10.9-31.3,17.8-49.2,21.3
			c-15.4,3-30.9,3.3-46.3,0.9c-21.5-3-41.3-10.7-58.9-23.1c-27.2-18.9-46.5-43.7-55.5-76.1c-2.6-9.4-4.1-18.7-4.6-28.3
			c0-0.9-0.2-1.7-0.4-2.6C52.8,518.7,52.8,515.6,52.8,512.4z"/>
	</g>
</g>
</svg>
