<?xml version="1.0" encoding="utf-8"?>
<!-- Generator: Adobe Illustrator 23.1.1, SVG Export Plug-In . SVG Version: 6.00 Build 0)  -->
<svg version="1.1" id="Layer_1" xmlns="http://www.w3.org/2000/svg" xmlns:xlink="http://www.w3.org/1999/xlink" x="0px" y="0px"
	 viewBox="0 0 35.5 47.1" style="enable-background:new 0 0 35.5 47.1;" xml:space="preserve">
<style type="text/css">
	.st0{fill:#1A1A1A;}
</style>
<path class="st0" d="M13.9,1.6c-1.6,0-2.9,1.4-2.9,3v1.9H3.7c-0.1,0-0.3,0-0.4,0H1.6H1.5C1,6.5,0.6,7,0.6,7.5s0.5,0.9,1,0.9h1v34.3
	c0,1.6,1.3,2.9,2.9,2.9h24.8c1.6,0,2.9-1.3,2.9-2.9V8.3h1c0.5,0,1-0.4,1-0.9s-0.4-1-0.9-1l0,0h-1.7h-0.4h-7.4V4.5
	c0-1.6-1.3-2.9-2.9-2.9H13.9L13.9,1.6z M13.9,3.6h7.6c0.5,0,1,0.4,1,1v1.9H13v-2C13,4,13.4,3.6,13.9,3.6z M4.4,8.3h26.7v34.3
	c0,0.5-0.4,1-1,1H5.4c-0.5,0-1-0.4-1-1V8.3z M12,13h-0.1c-0.4,0.1-0.8,0.5-0.7,1v23.8c0,0.5,0.4,1,0.9,1s1-0.4,1-0.9l0,0V14
	c0-0.5-0.4-1-0.9-1C12,13,12,13,12,13z M17.7,13h-0.1c-0.4,0.1-0.8,0.5-0.7,1v23.8c0,0.5,0.4,1,0.9,1s1-0.4,1-0.9l0,0V14
	c0-0.5-0.4-1-0.9-1C17.8,13,17.7,13,17.7,13z M23.4,13h-0.1c-0.4,0.1-0.8,0.5-0.7,1v23.8c0,0.5,0.4,1,0.9,1s1-0.4,1-0.9l0,0V14
	c0-0.5-0.4-1-0.9-1C23.5,13,23.4,13,23.4,13z"/>
</svg>
