<?xml version="1.0" encoding="utf-8"?>
<!-- Generator: Adobe Illustrator 23.1.1, SVG Export Plug-In . SVG Version: 6.00 Build 0)  -->
<svg version="1.1" id="Layer_1" xmlns="http://www.w3.org/2000/svg" xmlns:xlink="http://www.w3.org/1999/xlink" x="0px" y="0px"
	 viewBox="0 0 20 20" style="enable-background:new 0 0 20 20;" xml:space="preserve">
<path d="M13.1,2.7c0.1,0,0.2,0,0.3,0c0.4,0.1,0.8,0.2,1.2,0.3c1.2,0.6,2,1.5,2.4,2.7C17,6,17.1,6.3,17.1,6.6c0,0.3,0,0.5-0.1,0.8
	c-0.1,0.8-0.5,1.5-1,2c-0.3,0.4-0.7,0.7-1,1c-0.6,0.6-1.2,1.2-1.8,1.8c-0.2,0.2-0.4,0.4-0.7,0.6c-0.5,0.3-1,0.5-1.5,0.6
	c-0.7,0.1-1.3,0.1-1.9-0.2c-0.4-0.2-0.8-0.4-1.2-0.7c-0.5-0.4-0.9-1-1.2-1.6l0,0l1.2-1.2c0,0,0,0.1,0,0.1c0.2,0.4,0.4,0.7,0.7,1
	c0.4,0.4,0.8,0.7,1.3,0.7c0.4,0.1,0.8,0,1.2-0.1c0.3-0.1,0.6-0.2,0.8-0.4c0.2-0.1,0.3-0.3,0.4-0.4c0.7-0.7,1.5-1.5,2.2-2.2
	c0.4-0.4,0.6-0.8,0.7-1.3c0.1-0.8-0.1-1.6-0.7-2.2c-0.2-0.1-0.3-0.2-0.5-0.3c-0.3-0.2-0.6-0.3-0.9-0.3c-0.5-0.1-0.9,0-1.3,0.2
	c-0.4,0.2-0.7,0.4-1,0.7c-0.2,0.2-0.4,0.4-0.7,0.7c0,0,0,0-0.1,0C9.7,5.8,9.2,5.7,8.7,5.7c-0.2,0-0.4,0-0.5,0.1c-0.1,0-0.1,0-0.2,0
	c0,0,0,0,0,0c0.4-0.4,0.9-0.9,1.3-1.3c0.5-0.4,1-0.9,1.5-1.2c0.4-0.3,0.8-0.5,1.3-0.6c0.1,0,0.3,0,0.4-0.1c0,0,0,0,0.1,0
	C12.8,2.7,12.9,2.7,13.1,2.7L13.1,2.7z"/>
<path d="M2.1,13.2c0-0.1,0-0.2,0-0.2c0.1-0.8,0.3-1.5,0.8-2.1c0.2-0.2,0.4-0.4,0.6-0.7C4.3,9.5,5.1,8.7,5.8,8C6,7.7,6.3,7.5,6.5,7.4
	C7,7,7.5,6.8,8.1,6.8c0.4-0.1,0.8-0.1,1.1,0c0.7,0.1,1.3,0.3,1.9,0.8c0.6,0.5,1,1,1.3,1.7l-1.2,1.2c-0.1-0.1-0.1-0.2-0.2-0.3
	c-0.2-0.4-0.4-0.7-0.8-1C9.8,8.8,9.4,8.6,8.9,8.5c-0.7-0.1-1.4,0.1-2,0.6C6.7,9.4,6.5,9.6,6.2,9.9c-0.6,0.6-1.2,1.2-1.9,1.9
	C4,12.1,3.8,12.5,3.7,13c-0.1,0.7,0,1.3,0.4,1.9c0.2,0.2,0.4,0.4,0.6,0.6c0.3,0.2,0.6,0.3,0.9,0.4c0.4,0.1,0.7,0.1,1.1,0
	c0.4-0.1,0.7-0.3,1-0.5C8,15,8.2,14.8,8.4,14.6l0.3-0.3c0,0,0,0,0.1,0c0.2,0.1,0.5,0.2,0.7,0.2c0.3,0,0.6,0,0.9,0
	c0.2,0,0.3,0,0.5-0.1l0,0c-0.6,0.6-1.1,1.1-1.7,1.7c-0.2,0.2-0.4,0.4-0.6,0.5C8.1,17,7.6,17.2,7,17.3c-0.5,0.1-0.9,0.1-1.4,0
	C5,17.2,4.4,17,3.9,16.6c-0.8-0.6-1.4-1.3-1.6-2.3c-0.1-0.3-0.1-0.6-0.1-0.8c0,0,0-0.1,0-0.1C2.1,13.4,2.1,13.3,2.1,13.2L2.1,13.2z"
	/>
</svg>
