<svg viewBox="0 0 20 20" xmlns="http://www.w3.org/2000/svg">
<path d="M14.5,3c1.3,0.8,2,1.5,2.4,2.7C17,6,17.1,6.3,17.1,6.6c0,0.3,0,0.5-0.1,0.8c-0.1,0.8-0.5,1.5-1,2c-0.3,0.4-3.3,3.3-3.5,3.5c-0.5,0.3-1,0.6-1.5,0.6c-3,0.2-4-1.8-4.3-2.4l0,0l1.2-1.2c0,0,0.5,1.7,2,2c0.7,0.1,1.3,0,2-0.6c0.2-0.1,1.9-1.9,2.7-2.6c0.4-0.4,0.6-0.8,0.7-1.3c0.1-0.8-0.1-1.6-0.7-2.2c-0.5-0.4-1.5-1-2.7-0.5c-0.4,0.2-0.7,0.4-1,0.7c-0.2,0.2-0.4,0.4-0.7,0.7c0,0,0,0-0.1,0C9.7,5.8,9.2,5.7,8.7,5.7C8.5,5.7,8,5.8,8,5.8c0,0,0,0,0,0c0.4-0.4,0.9-0.9,1.3-1.3c0.5-0.4,0.7-0.7,1.5-1.2S13.2,2.3,14.5,3z"/>
<path d="M2.1,13c0.1-0.8,0.4-1.4,0.9-2.1c0.2-0.2,3.3-3.4,3.5-3.5C8,6.1,10,6.7,11.1,7.5c0.6,0.5,1,1,1.3,1.7l-1.2,1.2c-0.1-0.1-0.1-0.2-0.2-0.3c-0.2-0.4-0.4-0.7-0.8-1C9.8,8.8,9.4,8.6,8.9,8.5c-0.7-0.1-1.4,0.1-2,0.6c-0.3,0.2-2,2-2.6,2.6c-1.2,1.3-0.7,2.9,0.4,3.6c0.4,0.3,0.8,0.6,2,0.3c1.2-0.3,1.9-1.4,1.9-1.4c0,0,0,0,0.1,0c0.8,0.4,1.9,0.1,2.1,0.1c0,0-2,2.5-3.8,2.9c-1.9,0.4-2.6-0.1-3.6-0.9C2.6,15.6,1.9,14.8,2.1,13z"/>
<path d="M-7.1,2.8"/>
</svg>
