<?xml version="1.0" encoding="utf-8"?>
<!-- Generator: Adobe Illustrator 23.1.1, SVG Export Plug-In . SVG Version: 6.00 Build 0)  -->
<svg version="1.1" id="Layer_1" xmlns="http://www.w3.org/2000/svg" xmlns:xlink="http://www.w3.org/1999/xlink" x="0px" y="0px"
	 viewBox="0 0 1024 1024" style="enable-background:new 0 0 1024 1024;" xml:space="preserve">
<path d="M512,17C238.6,17,17,238.6,17,512s221.6,495,495,495s495-221.6,495-495S785.4,17,512,17z M799.4,567.9c0,13.2-10.8,24-24,24
	H591.8v183.6c0,13.2-10.8,24-24,24H456.1c-13.2,0-24-10.8-24-24V591.8H248.5c-13.2,0-24-10.8-24-24V456.1c0-13.2,10.8-24,24-24
	h183.6V248.5c0-13.2,10.8-24,24-24h111.8c13.2,0,24,10.8,24,24v183.6h183.6c13.2,0,24,10.8,24,24V567.9z"/>
</svg>
