<svg version="1.1" id="Layer_1" xmlns="http://www.w3.org/2000/svg" xmlns:xlink="http://www.w3.org/1999/xlink" x="0px" y="0px"
	 viewBox="0 0 1024 1024" style="enable-background:new 0 0 1024 1024;" xml:space="preserve">
<path d="M957.5,798.6L577.8,150.7c-29.1-49.8-102.4-49.8-131.7,0L66.6,798.6c-29.2,49.7,7.2,112.1,65.7,112.1h759.3
	C950,910.7,986.5,848.4,957.5,798.6z M469.2,355.4c0-23.6,19.1-42.7,42.7-42.7c23.6,0,42.7,19.2,42.7,42.7v227.8
	c0,23.6-19.1,42.7-41.1,42.7c-22,0-44.3-19-44.3-42.7V355.4z M512,796.8c-30.9,0-56-25.1-56-56c0-30.9,25-56,56-56s56,25.1,56,56
	C567.8,771.7,542.9,796.8,512,796.8z"/>
</svg>
