<?xml version="1.0" encoding="utf-8"?>
<!-- Generator: Adobe Illustrator 23.1.1, SVG Export Plug-In . SVG Version: 6.00 Build 0)  -->
<svg version="1.1" id="Layer_1" xmlns="http://www.w3.org/2000/svg" xmlns:xlink="http://www.w3.org/1999/xlink" x="0px" y="0px"
	 viewBox="0 0 1024 1024" style="enable-background:new 0 0 1024 1024;" xml:space="preserve">
<path d="M853.3,512c0-11.9-4-21.8-11.9-29.7l-60.1-60.1l-239-239c-7.9-7.9-17.8-11.9-29.7-11.9s-21.8,4-29.7,11.9l-60.1,60.1
	C415,251.2,411,261.1,411,273c0,11.9,4,21.8,11.9,29.7l124.8,124.8H216.2c-11.4,0-21.3,4.2-29.7,12.5c-8.4,8.4-12.5,18.3-12.5,29.7
	v84.5c0,11.4,4.2,21.3,12.5,29.7c8.4,8.4,18.3,12.5,29.7,12.5h331.4L422.9,721.3c-8.4,8.4-12.5,18.3-12.5,29.7
	c0,11.4,4.2,21.3,12.5,29.7l60.1,60.1c7.9,7.9,17.8,11.9,29.7,11.9s21.8-4,29.7-11.9l239-239l60.1-60.1
	C849.3,533.8,853.3,523.9,853.3,512z M1019,512c0,92-22.7,176.8-68,254.5C905.7,844.2,844.2,905.7,766.5,951
	c-77.7,45.3-162.5,68-254.5,68s-176.8-22.7-254.5-68C179.8,905.7,118.3,844.2,73,766.5S5,604,5,512s22.7-176.8,68-254.5
	S179.8,118.3,257.5,73S420,5,512,5s176.8,22.7,254.5,68S905.7,179.8,951,257.5C996.3,335.2,1019,420,1019,512z"/>
</svg>
