<?xml version="1.0" encoding="utf-8"?>
<!-- Generator: Adobe Illustrator 23.1.1, SVG Export Plug-In . SVG Version: 6.00 Build 0)  -->
<svg version="1.1" id="Layer_1" xmlns="http://www.w3.org/2000/svg" xmlns:xlink="http://www.w3.org/1999/xlink" x="0px" y="0px"
	 viewBox="0 0 1024 1024" style="enable-background:new 0 0 1024 1024;" xml:space="preserve">
<path d="M537.4,108c-8.3,0-8.3,8.3-8.3,24.9v224.2c-74.7,0-132.9,16.6-191,33.2c-58.1,16.6-99.7,41.5-141.2,74.7
	s-66.4,66.4-99.7,116.3C72.5,622.6,56,672.1,39.5,721.6c-0.2,0.6-0.4,1.3-0.5,1.9c-8.3,49.6-16.5,107.4-24.8,165.1
	c16.6-41.5,49.8-83,83-116.3s74.7-58.1,124.6-74.7c49.8-16.6,91.3-33.2,141.2-41.5s99.7-16.6,157.8-16.6v249.1
	c0,8.3,0,16.6,8.3,24.9c8.3,8.3,30.6-11.6,38.9-19.9l426.2-353.8c8.3-8.3,16.6-16.6,16.6-24.9c0-8.3-8.3-16.6-16.6-24.9"/>
</svg>
