<?xml version="1.0" encoding="utf-8"?>
<!-- Generator: Adobe Illustrator 23.1.1, SVG Export Plug-In . SVG Version: 6.00 Build 0)  -->
<svg version="1.1" id="Layer_1" xmlns="http://www.w3.org/2000/svg" xmlns:xlink="http://www.w3.org/1999/xlink" x="0px" y="0px"
	 viewBox="0 0 1024 1024" style="enable-background:new 0 0 1024 1024;" xml:space="preserve">
<path d="M980.1,25.3c8.2-8.2,15-10.9,20.6-8.4c5.6,2.5,8.4,9.5,8.4,20.6v948.9c0,11.2-2.8,18.1-8.4,20.6c-5.6,2.5-12.4-0.2-20.6-8.4
	L522.4,541c-3.9-3.9-6.6-8-8.4-12.2v457.7c0,11.2-2.8,18.1-8.4,20.6c-5.6,2.5-12.4-0.2-20.6-8.4L27.3,541
	c-8.2-8.2-12.2-17.8-12.2-29s4.1-20.8,12.2-29L485.1,25.3c8.2-8.2,15-10.9,20.6-8.4c5.6,2.5,8.4,9.5,8.4,20.6v457.7
	c1.7-4.3,4.5-8.4,8.4-12.2L980.1,25.3z"/>
</svg>
