<?xml version="1.0" encoding="utf-8"?>
<!-- Generator: Adobe Illustrator 23.1.1, SVG Export Plug-In . SVG Version: 6.00 Build 0)  -->
<svg version="1.1" id="Layer_1" xmlns="http://www.w3.org/2000/svg" xmlns:xlink="http://www.w3.org/1999/xlink" x="0px" y="0px"
	 viewBox="0 0 1024 1024" style="enable-background:new 0 0 1024 1024;" xml:space="preserve">
<g>
	<path d="M93.4,5.2h492.7c248.5,0,312,155.3,312,259.8c0,145.4-81.9,186.4-124.2,207.5c124.2,46.6,156.7,145.4,156.7,245.7
		c0,80.5-33.9,156.7-87.5,208.9c-57.9,56.5-112.9,91.8-320.5,91.8H93.4V5.2z M296.7,401.9h248.5c83.3,0,149.7-32.5,149.7-112.9
		c0-83.3-59.3-108.7-155.3-108.7H296.7V401.9z M296.7,843.8h259.8c103.1,0,162.4-45.2,162.4-148.2c0-88.9-76.2-122.8-152.5-122.8
		H296.7V843.8z"/>
</g>
</svg>
