<?xml version="1.0" encoding="utf-8"?>
<!-- Generator: Adobe Illustrator 23.1.1, SVG Export Plug-In . SVG Version: 6.00 Build 0)  -->
<svg version="1.1" id="Layer_1" xmlns="http://www.w3.org/2000/svg" xmlns:xlink="http://www.w3.org/1999/xlink" x="0px" y="0px"
	 viewBox="0 0 1024 1024" style="enable-background:new 0 0 1024 1024;" xml:space="preserve">
<path d="M414.1,922.5c32.4,14,63.1,21,92,21c164.6,0,247-73.3,247-220c0-49.9-9-89.3-26.9-118.2c-11.8-19.3-25.3-35.5-40.4-48.6
	s-29.9-23.3-44.3-30.5s-32.1-12.7-52.9-16.4s-39.2-6-55.2-6.9c-16-0.9-36.7-1.3-62.1-1.3c-32,0-54.1,2.2-66.3,6.6
	c0,23.2-0.1,58-0.3,104.4c-0.2,46.4-0.3,81-0.3,103.8c0,3.5-0.2,18.3-0.7,44.3s-0.5,47.2-0.3,63.4c0.2,16.2,1.2,34.5,3,54.8
	S410.6,913.7,414.1,922.5z M404.9,432.5c18.4,3.1,42.3,4.6,71.6,4.6c35.9,0,67.2-2.8,93.9-8.5c26.7-5.7,50.8-15.4,72.2-29.2
	s37.8-33.4,48.9-58.8c11.2-25.4,16.7-56.5,16.7-93.3c0-30.7-6.3-57.5-19-80.5c-12.7-23-30-40.9-51.9-53.9
	c-21.9-12.9-45.5-22.4-70.9-28.6c-25.4-6.1-52.5-9.2-81.4-9.2c-21.9,0-50.4,2.8-85.4,8.5c0,21.9,0.9,55,2.6,99.2s2.6,77.5,2.6,99.8
	c0,11.8-0.1,29.3-0.3,52.5c-0.2,23.2-0.3,40.5-0.3,51.9C404.3,407.4,404.5,422.5,404.9,432.5z M49.6,1016.4l1.3-61.7
	c6.6-1.8,25.2-5.3,55.8-10.5c30.7-5.3,53.9-11.2,69.6-17.7c3.1-5.3,5.8-11.2,8.2-17.7c2.4-6.6,4.3-13.9,5.6-22s2.5-15.2,3.6-21.3
	c1.1-6.1,1.8-14.3,2-24.6s0.3-17.7,0.3-22.3v-43c0-430-4.8-654.4-14.4-673.2c-1.8-3.5-6.6-6.7-14.4-9.5c-7.9-2.8-17.6-5.3-29.2-7.2
	c-11.6-2-22.4-3.5-32.5-4.6c-10.1-1.1-20.7-2.1-31.9-3c-11.2-0.9-17.8-1.5-20-2l-2.6-54.5c42.9-0.9,117.3-3.4,223.3-7.6
	s187.6-6.2,245-6.2c10.1,0,25,0.1,44.7,0.3s34.6,0.3,44.7,0.3c30.7,0,60.5,2.8,89.7,8.5c29.1,5.7,57.3,14.9,84.4,27.6
	c27.1,12.7,50.8,28.2,70.9,46.6s36.3,41.3,48.6,68.6s18.4,57.5,18.4,90.3c0,22.8-3.6,43.7-10.8,62.7s-15.8,34.8-25.6,47.3
	c-9.9,12.5-24,25.1-42.4,37.8c-18.4,12.7-34.4,22.5-47.9,29.6c-13.6,7-32,15.8-55.2,26.3c67.4,15.3,123.6,44.7,168.5,88
	s67.3,97.6,67.3,162.9c0,43.8-7.7,83.1-23,117.9c-15.3,34.8-35.8,63.4-61.4,85.7c-25.6,22.3-55.8,41-90.6,56.2
	s-70.6,25.7-107.4,31.9c-36.8,6.1-75.3,9.2-115.6,9.2c-19.3,0-48.2-0.7-86.7-2c-38.5-1.3-67.4-2-86.7-2c-46.4,0-113.6,2.4-201.6,7.2
	C113.3,1013.4,62.8,1016,49.6,1016.4z"/>
</svg>
