<svg version="1.1" id="Layer_1" xmlns="http://www.w3.org/2000/svg" xmlns:xlink="http://www.w3.org/1999/xlink" x="0px" y="0px"
	 viewBox="0 0 1024 1024" style="enable-background:new 0 0 1024 1024;" xml:space="preserve">
<path d="M1017.2,582.7c0,10.9-4,20.4-12,28.4c-8,8-17.5,12-28.4,12H835.3c0,72-14.1,133-42.3,183.1l131.3,132c8,8,12,17.5,12,28.4
	s-4,20.4-12,28.4c-7.6,8-17,12-28.4,12s-20.8-4-28.4-12l-125-124.4c-2.1,2.1-5.3,4.8-9.5,8.2c-4.2,3.4-13.1,9.4-26.5,18
	c-13.5,8.6-27.2,16.3-41,23s-31.2,12.8-51.8,18.3c-20.6,5.5-41,8.2-61.3,8.2V380.7h-80.8v565.8c-21.5,0-42.8-2.8-64.1-8.5
	s-39.6-12.6-54.9-20.8c-15.4-8.2-29.3-16.4-41.7-24.6c-12.4-8.2-21.6-15.1-27.5-20.5l-9.5-8.8L158.4,993.8
	c-8.4,8.8-18.5,13.3-30.3,13.3c-10.1,0-19.2-3.4-27.2-10.1c-8-7.6-12.3-16.9-12.9-28.1c-0.6-11.2,2.6-20.9,9.8-29.4l127.6-143.3
	c-24.4-48-36.6-105.7-36.6-173H47.2c-10.9,0-20.4-4-28.4-12c-8-8-12-17.5-12-28.4c0-10.9,4-20.4,12-28.4s17.5-12,28.4-12h141.5
	V356.7L79.4,247.4c-8-8-12-17.5-12-28.4c0-10.9,4-20.4,12-28.4s17.5-12,28.4-12s20.4,4,28.4,12l109.2,109.2h533l109.2-109.2
	c8-8,17.5-12,28.4-12s20.4,4,28.4,12s12,17.5,12,28.4c0,10.9-4,20.4-12,28.4L835.3,356.7v185.7h141.5c10.9,0,20.4,4,28.4,12
	S1017.2,571.8,1017.2,582.7z M714.1,219H309.9c0-56,19.7-103.7,59-143s87-59,143-59s103.7,19.7,143,59S714.1,163,714.1,219z"/>
</svg>
