<?xml version="1.0" encoding="utf-8"?>
<!-- Generator: Adobe Illustrator 23.1.1, SVG Export Plug-In . SVG Version: 6.00 Build 0)  -->
<svg version="1.1" id="Layer_1" focusable="false" xmlns="http://www.w3.org/2000/svg" xmlns:xlink="http://www.w3.org/1999/xlink"
	 x="0px" y="0px" viewBox="0 0 1024 1024" style="enable-background:new 0 0 1024 1024;" xml:space="preserve">
<path d="M853,140h-93V39.2c0-12.8-10.5-23.2-23.2-23.2h-77.5C646.5,16,636,26.5,636,39.2V140H388V39.2c0-12.8-10.5-23.2-23.2-23.2
	h-77.5C274.5,16,264,26.5,264,39.2V140h-93c-51.3,0-93,41.7-93,93v682c0,51.3,41.7,93,93,93h682c51.3,0,93-41.7,93-93V233
	C946,181.7,904.3,140,853,140z M841.4,915H182.6c-6.4,0-11.6-5.2-11.6-11.6V326h682v577.4C853,909.8,847.8,915,841.4,915z"/>
</svg>
