<?xml version="1.0" encoding="utf-8"?>
<!-- Generator: Adobe Illustrator 23.1.1, SVG Export Plug-In . SVG Version: 6.00 Build 0)  -->
<svg version="1.1" id="Layer_1" focusable="false" xmlns="http://www.w3.org/2000/svg" xmlns:xlink="http://www.w3.org/1999/xlink"
	 x="0px" y="0px" viewBox="0 0 1024 1024" style="enable-background:new 0 0 1024 1024;" xml:space="preserve">
<path d="M512.3,12.8c-275.9,0-499.5,223.6-499.5,499.5s223.6,499.5,499.5,499.5s499.5-223.6,499.5-499.5S788.2,12.8,512.3,12.8z
	 M512.3,915.1c-222.6,0-402.8-180.3-402.8-402.8s180.3-402.8,402.8-402.8s402.8,180.3,402.8,402.8S734.8,915.1,512.3,915.1z
	 M717.3,387L592,512.3l125.3,125.3c9.5,9.5,9.5,24.8,0,34.2l-45.5,45.5c-9.5,9.5-24.8,9.5-34.2,0L512.3,592L387,717.3
	c-9.5,9.5-24.8,9.5-34.2,0l-45.5-45.5c-9.5-9.5-9.5-24.8,0-34.2l125.3-125.3L307.2,387c-9.5-9.5-9.5-24.8,0-34.2l45.5-45.5
	c9.5-9.5,24.8-9.5,34.2,0l125.3,125.3l125.3-125.3c9.5-9.5,24.8-9.5,34.2,0l45.5,45.5C726.8,362.2,726.8,377.5,717.3,387L717.3,387z
	"/>
</svg>
