<?xml version="1.0" encoding="utf-8"?>
<!-- Generator: Adobe Illustrator 23.1.1, SVG Export Plug-In . SVG Version: 6.00 Build 0)  -->
<svg version="1.1" id="Layer_1" focusable="false" xmlns="http://www.w3.org/2000/svg" xmlns:xlink="http://www.w3.org/1999/xlink"
	 x="0px" y="0px" viewBox="0 0 512 512" style="enable-background:new 0 0 512 512;" xml:space="preserve">
<path d="M431.4,80.6c-96.9-96.9-253.9-96.9-350.7,0s-96.9,253.9,0,350.7s253.9,96.9,350.7,0S528.2,177.5,431.4,80.6z M338,377.6
	c-4.7,4.7-12.3,4.7-17,0L256,312.6l-65.1,65.1c-4.7,4.7-12.3,4.7-17,0L134.4,338c-4.7-4.7-4.7-12.3,0-17l65.1-65.1l-65.1-65.1
	c-4.7-4.7-4.7-12.3,0-17l39.6-39.6c4.7-4.7,12.3-4.7,17,0l65.1,65.1l65.1-65.1c4.7-4.7,12.3-4.7,17,0l39.6,39.6
	c4.7,4.7,4.7,12.3,0,17L312.6,256l65.1,65.1c4.7,4.7,4.7,12.3,0,17L338,377.6z"/>
</svg>
