<?xml version="1.0" encoding="utf-8"?>
<!-- Generator: Adobe Illustrator 23.1.1, SVG Export Plug-In . SVG Version: 6.00 Build 0)  -->
<svg version="1.1" id="Layer_1" xmlns="http://www.w3.org/2000/svg" xmlns:xlink="http://www.w3.org/1999/xlink" x="0px" y="0px"
	 viewBox="0 0 1024 1024" style="enable-background:new 0 0 1024 1024;" xml:space="preserve">
<path d="M16.1,899.4l224.6-224.6l-74.4-70.2c-34.2-34.2-10-92.6,38.4-92.6h253.3c30,0,54.2,24.3,54.2,54.3v253.2
	c0,48.3-58.3,72.6-92.5,38.4l-70.3-74.6l-224.6,224.6c-14.1,14.1-37,14.1-51.2,0l-57.4-57.4C2,936.4,2,913.5,16.1,899.4z
	 M1007.9,124.6L783.3,349.2l74.4,70.2c34.2,34.2,10,92.6-38.4,92.6H566.2c-30,0-54.2-24.3-54.2-54.3V204.5
	c0-48.3,58.3-72.6,92.5-38.4l70.3,74.6L899.4,16.1c14.1-14.1,37-14.1,51.2,0l57.4,57.4C1022,87.6,1022,110.5,1007.9,124.6z"/>
</svg>
