<?xml version="1.0" encoding="utf-8"?>
<!-- Generator: Adobe Illustrator 23.1.1, SVG Export Plug-In . SVG Version: 6.00 Build 0)  -->
<svg version="1.1" id="Layer_1" focusable="false" xmlns="http://www.w3.org/2000/svg" xmlns:xlink="http://www.w3.org/1999/xlink"
	 x="0px" y="0px" viewBox="0 0 1024 1024" style="enable-background:new 0 0 1024 1024;" xml:space="preserve">
<style type="text/css">
	.st0{fill:#E68214;}
</style>
<path class="st0" d="M988.9,476.2c-1.5-9.7-8.9-20.1-16.3-21c-7.4-0.9-9.6-5.8-20.5-10.8c-11.5-5.3-16.2-15.2-27.8-22
	c-11.6-6.8-31.7-54.9-46.4-65.2c-14.8-10.3-76.2-58.1-98-64.7c-19.8-6.1-82.1-13.6-110.8-11.2c-28.7,2.3-51.8,2.5-65,2.5
	c-13.2,0-16.6-19.7-16.6-37.3c-0.1-18.9-19-63.8-14.5-81.6c4.6-17.9,5.5-33.8,19.6-40.6c14.2-6.8,52.5-24.4,70.7-34.4
	c18.3-10,16.7-14.4,23.8-15.5c7.1-1.1,22.3-1.4,41.3-1.6c19.1-0.2,31.6-4.8,43.2-7.2c11.5-2.4,26.2-9.9,18.1-15.9
	c-8.2-6-23.3-5.7-34.3-4.1c-11,1.6-34.8,5.9-49.7,3.5c-14.9-2.4-36.8-3.1-50.1-12.9c-13.4-9.9-24.2-24.8-33.8-27.3
	c-9.6-2.5-18.2-7.1-19.9-0.3c-1.6,6.8,1.4,9,5.9,16.9c4.5,7.9,24.8,28.6,32.3,30.1c7.5,1.5,21.3,1.4,18.2,7.2
	c-3.1,5.7-19,14.1-26.1,19.8c-7.1,5.7-51.3,30.2-64.3,35.5c-13.1,5.3-52.1,9.2-58,5.4c-5.9-3.7-26.1,1.9-35.5,1.4
	c-9.3-0.6-54,1.1-77.1-7.9c-23.2-9.1-34.7-21.3-39-23.3c-4.3-2-19.1-13-15.7-16.8c3.4-3.8,3.5-7.1,18.3-18.6
	c14.8-11.5,14.9-10.8,23.9-21.4c9-10.6,15.2-22.1,7.2-22.2c-8-0.1-14.1-1.2-20.8,6.4c-6.8,7.6-25.7,27-32.9,31.4
	c-7.3,4.4-19.2,17.4-22.2,19.2c-3,1.8-27.2,3.4-34.1,5.8c-6.9,2.4-16.2,8.7-24.4,11.2c-8.2,2.6-23.2,1.3-29.5,8.1
	c-6.2,6.9-7.1,5-2.7,12.3c4.4,7.3,6.9,10.8,16.8,6.7c9.9-4.1,19.2-4.2,30-11.1c10.8-6.9,19.1-13.4,28.5-12.2
	c9.4,1.2,21.7-0.6,26.6,5.9c4.9,6.5,28.8,26.6,57.5,32.9c28.7,6.2,22.3,2.5,26,5.2c3.7,2.7,5.5,5.8,2.5,12.2
	c-3,6.4-10.4,54.4-10.2,72.9c0.1,18.5,8.8,53.6,6.2,67.1c-2.6,13.6-14.9,19.4-24.8,23.6c-9.9,4.1-25.9,7.9-36,6.7
	c-10.1-1.1-21.8-4.6-33.3-6.2c-11.5-1.6-50.5,1.5-62.5,4.6c-12.1,3.1-45,21-73,38.1c-28.9,17.6-62.3,56-67.9,66.8
	c-5.6,10.8-17.8,39.7-21.6,44.9c-3.8,5.2-6,14.7-5.2,22.3c0.4,3.9-5,7.2-6.3,11.4c-1.4,4.2-7.5,8-13.3,13.5
	c-6.2,6-17.2,17-19.5,19.4c-2.3,2.3-12.3,6.7-9.2,10.2c3.2,3.5,5.2,9,15.1,1.5c9.9-7.4,14.4-13.6,21.9-17.3
	c9.2-4.6,12.5-8.2,16.4-8.1c4,0.1,8.1,6.4,2.2,10.5c-6,4.2-16.6,17.5-19.7,23.3c-3.1,5.7-16.5,21.8-12.4,22.5
	c4.1,0.7,9.1,3.8,17.9-4c8.1-7.2,13.9-24,20.6-30c6-5.4,8.2-12.3,13.5-11.8c5.4,0.5,6.9,1.6,6.1,9.6c-0.8,8-4.5,11.6-5.8,16.5
	c-0.5,2-5.1,9-6.1,14.3c-2,10.1-6.2,12.5,1.2,13.4c7.4,0.9,7.5,1.5,12.8-7.2c5.3-8.7,5.1-10,8.6-21.8c3.5-11.8-0.1-23,9.8-24.2
	c3.6-0.4,2.2,2.8,4.4,13.1c2.2,10.2,0.5,16.3,3.2,25.9c1.5,5.3-1.1,12.1,4.1,14.5c12.4,5.9,14.9,4.1,13.7-3.7
	c-1.2-7.8-1.3-10-1.3-16c0-6-1.7-7.6-3-16c-1.3-8.4-3.3-10-4-14c-0.7-4,0.9-3.1-3.5-10.3c-4.4-7.3-0.4-19.9,0.7-26
	c1.1-6.1,11.8-35.5,20.1-46c8.3-10.5,16.7-23.8,23.9-30c7.4-6.4,17.7-15.1,34.9-23.3c14-6.6,24.3-8.3,29.9-3.2
	c6.3,5.7,4.7,22.4,13.7,47.4c9.1,25.1,17.7,47.5,17.6,73.3c-0.1,25.8-4.4,159.1-6.2,173.2c-1.8,14.2-6.5,47.8-7.7,82.7
	c-0.7,18.1-1.2,51.5-8.7,67.8c-7.5,16.3-11.2,52.5-21.6,67.3c-10.3,14.8-35.4,58.8-39.1,69.3c-3.7,10.5-3.6,32.9,1.8,38
	c5.4,5.1,36.1,9.3,50.8-5.9c14.7-15.2,57.1-106.2,95.5-122.8c38.4-16.7,209.7-33,249.5-22.6c39.7,10.4,100.8,92.1,122.3,107.9
	c21.5,15.9,25.7,25.7,52.8,24.4c27.1-1.3,22-17,10.8-37.1c-11.2-20.1-37.1-84.9-46.4-110.8c-9.3-25.9-27.5-110.4-23.4-173.7
	c4.1-63.3,19-144.3-0.4-244.7c-5-26.1,15.4-56.6,37.5-54.4c22.1,2.1,37.9,13.2,48.4,25.4c15,17.4,30,39.3,38.7,49.6
	c7.8,9.2,5.4,18.2-1.4,38.8c-2.7,8.2-5.4,16.2-7.1,18.4c-1.6,2.2-2.7,12.9,2.8,14.1c5.5,1.2,17.7-11.6,18.5-15
	c0.8-3.4,5.8-6.5,6.3-15.9c0.6-9.3,9-26.8,13.7-26.2c4.7,0.6,2.5,21.7,3.2,26.2c0.7,4.5,5.6,19.6,8.9,28.4
	c3.3,8.8,6.4,16.2,10.7,14.2c4.3-2,10.6-17.4,8.5-27c-2.1-9.6-10.4-31.5-5.6-30.2c4.8,1.2,25.1,27.3,31.7,31.6
	c6.6,4.3,9.4,12.4,18.8,9c9.4-3.4,9.5-18.1,3.8-22c-7.1-4.9-15-5.5-20.3-14.8c-3.4-6.1-4.5-9.4-8.6-13.7c-5.9-6.1-8.5-10.5,1-10.1
	c5.2,0.2,6.6,3.1,12.4,5.9c6,2.9,6,2.7,11.7,6.3c5.1,3.3,9,7.4,17.1,13.9C984.1,490.8,990.3,485.9,988.9,476.2z M572.5,645.9
	c0.5,5.4-1,10.3-3.4,15.5c-3.7,8.3-10.5,14.5-17.8,19.6c-0.3,0.2-0.7,0.4-1,0.6c-1.7,2.8-3.8,5.5-6.3,7.8
	c-12.7,11.7-33.6,15.3-48.5,5.2c-1.2-0.8-2.3-1.8-3.4-2.7c-0.1,0-0.2,0-0.3,0c-5.9-0.6-9.6-0.9-14.8-4c-4-2.3-8.3-6.2-10.5-10.4
	c-2.8-5.3-4-10.5-3.9-16c-1.2-3-2-6.2-2.5-9.5c-1-1.2-1.9-2.5-2.9-3.8c-1.1-1.5-2-3.1-2.6-4.8c-3.1-7.3-6-13.8-5.1-22
	c0.8-6.9,3.2-12.9,6.9-17.8c2.3-6.1,6.3-10.7,11.7-14.1c2-2.8,4.4-5.1,7.2-7.1c3.9-5.4,9.7-9.3,16.4-10.4c3.2-1.8,6.6-3.2,10-4.1
	c15.4-3.9,28.2-0.4,42.3,6.1c4.3,1.9,8.2,5.7,11.4,10.1c6.1,4.3,11.3,9.8,15.1,16.9C577.4,614.1,577.1,631,572.5,645.9z"/>
</svg>
