<svg version="1.1" id="Layer_1" focusable="false" xmlns="http://www.w3.org/2000/svg" xmlns:xlink="http://www.w3.org/1999/xlink"
	 x="0px" y="0px" viewBox="0 0 1024 1024" style="enable-background:new 0 0 1024 1024;" xml:space="preserve">
<style type="text/css">
	.st0{fill:#B1B1B1;}
</style>
<path class="st0" d="M948.8,479.3c-1.4-8.9-8.2-18.4-14.9-19.2c-6.8-0.8-8.8-5.3-18.8-9.9c-10.5-4.9-14.8-13.9-25.5-20.1
	c-10.6-6.2-29-50.3-42.5-59.7c-13.6-9.4-69.8-53.2-89.8-59.3c-18.1-5.6-75.2-12.5-101.5-10.3c-26.3,2.1-47.4,2.3-59.5,2.3
	c-12.1,0-15.2-18-15.2-34.2c-0.1-17.3-17.4-58.4-13.3-74.7c4.2-16.4,5-31,18-37.2c13-6.2,48.1-22.3,64.8-31.5
	c16.8-9.2,15.3-13.2,21.8-14.2c6.5-1,20.4-1.3,37.8-1.5c17.5-0.2,28.9-4.4,39.6-6.6c10.5-2.2,24-9.1,16.6-14.6
	c-7.5-5.5-21.3-5.2-31.4-3.8c-10.1,1.5-31.9,5.4-45.5,3.2c-13.6-2.2-33.7-2.8-45.9-11.8c-12.3-9.1-22.2-22.7-31-25
	c-8.8-2.3-16.7-6.5-18.2-0.3c-1.5,6.2,1.3,8.2,5.4,15.5c4.1,7.2,22.7,26.2,29.6,27.6c6.9,1.4,19.5,1.3,16.7,6.6
	c-2.8,5.2-17.4,12.9-23.9,18.1c-6.5,5.2-47,27.7-58.9,32.5c-12,4.9-47.7,8.4-53.1,4.9c-5.4-3.4-23.9,1.7-32.5,1.3
	c-8.5-0.5-49.5,1-70.6-7.2c-21.2-8.3-31.8-19.5-35.7-21.3c-3.9-1.8-17.5-11.9-14.4-15.4c3.1-3.5,3.2-6.5,16.8-17
	c13.6-10.5,13.6-9.9,21.9-19.6c8.2-9.7,13.9-20.2,6.6-20.3c-7.3-0.1-12.9-1.1-19,5.9c-6.2,7-23.5,24.7-30.1,28.8
	c-6.7,4-17.6,15.9-20.3,17.6c-2.7,1.6-24.9,3.1-31.2,5.3s-14.8,8-22.3,10.3c-7.5,2.4-21.2,1.2-27,7.4c-5.7,6.3-6.5,4.6-2.5,11.3
	c4,6.7,6.3,9.9,15.4,6.1s17.6-3.8,27.5-10.2c9.9-6.3,17.5-12.3,26.1-11.2c8.6,1.1,19.9-0.5,24.4,5.4c4.5,6,26.4,24.4,52.7,30.1
	c26.3,5.7,20.4,2.3,23.8,4.8c3.4,2.5,5,5.3,2.3,11.2s-9.5,49.8-9.3,66.8c0.1,16.9,8.1,49.1,5.7,61.5c-2.4,12.5-13.6,17.8-22.7,21.6
	c-9.1,3.8-23.7,7.2-33,6.1c-9.3-1-20-4.2-30.5-5.7s-46.3,1.4-57.2,4.2c-11.1,2.8-41.2,19.2-66.9,34.9
	c-26.5,16.1-57.1,51.3-62.2,61.2c-5.1,9.9-16.3,36.4-19.8,41.1c-3.5,4.8-5.5,13.5-4.8,20.4c0.4,3.6-4.6,6.6-5.8,10.4
	c-1.3,3.8-6.9,7.3-12.2,12.4c-5.7,5.5-15.8,15.6-17.9,17.8c-2.1,2.1-11.3,6.1-8.4,9.3c2.9,3.2,4.8,8.2,13.8,1.4
	c9.1-6.8,13.2-12.5,20.1-15.8c8.4-4.2,11.4-7.5,15-7.4c3.7,0.1,7.4,5.9,2,9.6c-5.5,3.8-15.2,16-18,21.3c-2.8,5.2-15.1,20-11.4,20.6
	s8.3,3.5,16.4-3.7c7.4-6.6,12.7-22,18.9-27.5c5.5-4.9,7.5-11.3,12.4-10.8c4.9,0.5,6.3,1.5,5.6,8.8c-0.7,7.3-4.1,10.6-5.3,15.1
	c-0.5,1.8-4.7,8.2-5.6,13.1c-1.8,9.3-5.7,11.4,1.1,12.3s6.9,1.4,11.7-6.6c4.9-8,4.7-9.2,7.9-20c3.2-10.8-0.1-21.1,9-22.2
	c3.3-0.4,2,2.6,4,12c2,9.3,0.5,14.9,2.9,23.7c1.4,4.9-1,11.1,3.8,13.3c11.4,5.4,13.6,3.8,12.5-3.4s-1.2-9.2-1.2-14.7
	s-1.6-7-2.7-14.7c-1.2-7.7-3-9.2-3.7-12.8c-0.6-3.7,0.8-2.8-3.2-9.4c-4-6.7-0.4-18.2,0.6-23.8c1-5.6,10.8-32.5,18.4-42.1
	c7.6-9.6,15.3-21.8,21.9-27.5c6.8-5.9,16.2-13.8,32-21.3c12.8-6,22.3-7.6,27.4-2.9c5.8,5.2,4.3,20.5,12.5,43.4
	c8.3,23,16.2,43.5,16.1,67.1c-0.1,23.6-4,145.7-5.7,158.6c-1.6,13-6,43.8-7.1,75.7c-0.6,16.6-1.1,47.2-8,62.1
	c-6.9,14.9-10.3,48.1-19.8,61.6c-9.4,13.6-32.4,53.9-35.8,63.5c-3.4,9.6-3.3,30.1,1.6,34.8s33.1,8.5,46.5-5.4
	C297,953.6,335.8,870.2,371,855c35.2-15.3,192.1-30.2,228.5-20.7c36.4,9.5,92.3,84.3,112,98.8c19.7,14.6,23.5,23.5,48.4,22.3
	c24.8-1.2,20.1-15.6,9.9-34c-10.3-18.4-34-77.8-42.5-101.5c-8.5-23.7-25.2-101.1-21.4-159.1c3.8-58,17.4-132.2-0.4-224.1
	c-4.6-23.9,14.1-51.8,34.3-49.8c20.2,1.9,34.7,12.1,44.3,23.3c13.7,15.9,27.5,36,35.4,45.4c7.1,8.4,4.9,16.7-1.3,35.5
	c-2.5,7.5-4.9,14.8-6.5,16.9c-1.5,2-2.5,11.8,2.6,12.9c5,1.1,16.2-10.6,16.9-13.7s5.3-6,5.8-14.6c0.5-8.5,8.2-24.5,12.5-24
	s2.3,19.9,2.9,24s5.1,18,8.2,26c3,8.1,5.9,14.8,9.8,13c3.9-1.8,9.7-15.9,7.8-24.7c-1.9-8.8-9.5-28.8-5.1-27.7c4.4,1.1,23,25,29,28.9
	c6,3.9,8.6,11.4,17.2,8.2c8.6-3.1,8.7-16.6,3.5-20.1c-6.5-4.5-13.7-5-18.6-13.6c-3.1-5.6-4.1-8.6-7.9-12.5c-5.4-5.6-7.8-9.6,0.9-9.3
	c4.8,0.2,6,2.8,11.4,5.4c5.5,2.7,5.5,2.5,10.7,5.8c4.7,3,8.2,6.8,15.7,12.7C944.4,492.6,950.1,488.1,948.8,479.3z M567.5,634.7
	c0.5,4.9-0.9,9.4-3.1,14.2c-3.4,7.6-9.6,13.3-16.3,18c-0.3,0.2-0.6,0.4-0.9,0.5c-1.6,2.6-3.5,5-5.8,7.1c-11.6,10.7-30.8,14-44.4,4.8
	c-1.1-0.7-2.1-1.6-3.1-2.5c-0.1,0-0.2,0-0.3,0c-5.4-0.5-8.8-0.8-13.6-3.7c-3.7-2.1-7.6-5.7-9.6-9.5c-2.6-4.9-3.7-9.6-3.6-14.7
	c-1.1-2.7-1.8-5.7-2.3-8.7c-0.9-1.1-1.7-2.3-2.7-3.5c-1-1.4-1.8-2.8-2.4-4.4c-2.8-6.7-5.5-12.6-4.7-20.1c0.7-6.3,2.9-11.8,6.3-16.3
	c2.1-5.6,5.8-9.8,10.7-12.9c1.8-2.6,4-4.7,6.6-6.5c3.6-4.9,8.9-8.5,15-9.5c2.9-1.6,6-2.9,9.2-3.8c14.1-3.6,25.8-0.4,38.7,5.6
	c3.9,1.7,7.5,5.2,10.4,9.3c5.6,3.9,10.3,9,13.8,15.5C571.9,605.5,571.7,621,567.5,634.7z"/>
</svg>
