<svg version="1.1" id="Layer_1" xmlns="http://www.w3.org/2000/svg" xmlns:xlink="http://www.w3.org/1999/xlink" x="0px" y="0px"
	 viewBox="0 0 1024 1024" style="enable-background:new 0 0 1024 1024;" xml:space="preserve">
<style type="text/css">
	.st0{fill:#1A1A1A;}
</style>
<path class="st0" d="M420.9,10.4c-36.5,0-66.1,31.9-66.1,68.4v43.3H188.4c-2.3,0-6.8,0-9.1,0h-38.8h-2.3
	c-11.4,0-20.5,11.4-20.5,22.8c0,11.4,11.4,20.5,22.8,20.5h22.8v782.1c0,36.5,29.6,66.1,66.1,66.1h565.5c36.5,0,66.1-29.6,66.1-66.1
	V163.2h22.8c11.4,0,22.8-9.1,22.8-20.5c0-11.4-9.1-22.8-20.5-22.8l0,0h-38.8h-9.1H669.5V76.5c0-36.5-29.6-66.1-66.1-66.1L420.9,10.4
	L420.9,10.4z M420.9,56h173.3c11.4,0,22.8,9.1,22.8,22.8v43.3H400.4V76.5C400.4,65.1,409.5,56,420.9,56z M204.3,163.2h608.8v782.1
	c0,11.4-9.1,22.8-22.8,22.8H227.1c-11.4,0-22.8-9.1-22.8-22.8V163.2z M377.6,270.4h-2.3c-9.1,2.3-18.2,11.4-16,22.8v542.7
	c0,11.4,9.1,22.8,20.5,22.8c11.4,0,22.8-9.1,22.8-20.5l0,0v-545c0-11.4-9.1-22.8-20.5-22.8C377.6,270.4,377.6,270.4,377.6,270.4z
	 M507.6,270.4h-2.3c-9.1,2.3-18.2,11.4-16,22.8v542.7c0,11.4,9.1,22.8,20.5,22.8c11.4,0,22.8-9.1,22.8-20.5l0,0v-545
	c0-11.4-9.1-22.8-20.5-22.8C509.9,270.4,507.6,270.4,507.6,270.4z M637.6,270.4h-2.3c-9.1,2.3-18.2,11.4-16,22.8v542.7
	c0,11.4,9.1,22.8,20.5,22.8c11.4,0,22.8-9.1,22.8-20.5l0,0v-545c0-11.4-9.1-22.8-20.5-22.8C639.8,270.4,637.6,270.4,637.6,270.4z"/>
</svg>
