<?xml version="1.0" encoding="utf-8"?>
<!-- Generator: Adobe Illustrator 23.1.1, SVG Export Plug-In . SVG Version: 6.00 Build 0)  -->
<svg version="1.1" id="Layer_1" xmlns="http://www.w3.org/2000/svg" xmlns:xlink="http://www.w3.org/1999/xlink" x="0px" y="0px"
	 viewBox="0 0 1024 1024" style="enable-background:new 0 0 1024 1024;" xml:space="preserve">
<path d="M940.2,367.9c35.5,16.8,61.1,62,61.1,115.3s-25.6,98.5-61.1,115.3v281.8c0,24.6-14.9,47-37.8,56.5
	c-22.7,9.4-49.1,4.2-66.4-13.4l-83.4-85C660.8,746.9,536.6,697,406.9,697h-16.6v244.4c0,33.8-27.3,61.1-61.1,61.1H207
	c-33.7,0-61.1-27.3-61.1-61.1V697c-67.5,0-122.2-54.8-122.2-122.2V391.6c0-67.4,54.7-122.2,122.2-122.2h261
	c129.6,0,253.9-51.5,345.6-143.2l83.4-83.3c17.4-17.5,43.7-22.7,66.4-13.2c22.9,9.5,37.8,31.7,37.8,56.4V367.9z M406.9,391.6h-16.6
	v183.3h16.6c152.4,0,298.8,56.9,411.1,159V232.5C705.7,334.7,559.3,391.6,406.9,391.6L406.9,391.6z"/>
</svg>
