<svg version="1.1" id="Layer_1" xmlns="http://www.w3.org/2000/svg" xmlns:xlink="http://www.w3.org/1999/xlink" x="0px" y="0px"
	 viewBox="0 0 1024 1024" style="enable-background:new 0 0 1024 1024;" xml:space="preserve">
<path d="M956.9,360.3c36.9,17.5,63.6,64.5,63.6,119.9s-26.6,102.4-63.6,119.9v293.1c0,25.6-15.5,48.9-39.3,58.8
	c-23.6,9.8-51.1,4.4-69.1-13.9l-86.7-88.4c-95.5-95.2-274.2-147.1-409.1-147.1h-17.3v254.2c0,35.2-28.4,63.6-63.6,63.6h-77.5
	c-35.1,0-63.6-28.4-63.6-63.6V702.6c-70.2,0-127.1-57-127.1-127.1V384.9c0-70.1,56.9-127.1,127.1-127.1h271.5
	c134.8,0,264.1-53.6,359.5-148.9l86.7-86.6c18.1-18.2,45.5-23.6,69.1-13.7c23.8,9.9,39.3,33,39.3,58.7v293.1H956.9z M352.6,384.9
	h-17.3v190.7h17.3C452,573,712.9,634.8,829.8,741V219.5C712.9,325.8,529,381,352.6,384.9L352.6,384.9z"/>
</svg>
