<svg version="1.1" id="Layer_1" xmlns="http://www.w3.org/2000/svg" xmlns:xlink="http://www.w3.org/1999/xlink" x="0px" y="0px"
	 viewBox="0 0 1024 1024" style="enable-background:new 0 0 1024 1024;" xml:space="preserve">
<style type="text/css">
	.st0{fill-rule:evenodd;clip-rule:evenodd;fill:#1A1A1A;}
</style>
<g id="OQd9CO.tif">
	<g>
		<path class="st0" d="M66,135.5C66,47,140.2,10.7,197.9,10.7c50.1,0,363.3,0,471,0c32.6,0,60.1,11.1,82.7,33.2
			c57.7,55.3,112.8,110.6,170.3,165.9c20.1,19.9,30.1,39.8,30.1,66.4c0,123.9,0,555.5,0,648.4c0,55.3-37.6,88.5-100.3,88.5
			c-215.5,0-433.5,0-649,0c-71.5,0-137-14-137-100.5 M162.8,166.3c0-24.4,0-56.1,57.1-56.1c152.8,0,288.7,0,441.5,0c2.5,0,5,0,10,0
			c0,53.2,0,64.2,0,117.4c0,24.4,15.1,35.4,42.6,35.4c52.6,0,79.4,0,132.1,0c12.5,0,15.1,2.3,15.1,13.3c0,64.2,0,554.9,0,612.5
			c0,19.9-12.5,30.9-35,30.9c-100.3,0-593.1,0-623.1,0s-40-8.8-40-35.4"/>
	</g>
</g>
<path class="st0" d="M731.8,512H292c-23.5,0-42.5-19-42.5-42.5v-16.3c0-23.5,19-42.5,42.5-42.5h439.9c23.5,0,42.5,19,42.5,42.5v16.2
	C774.4,493,755.3,512,731.8,512z"/>
<path class="st0" d="M731.8,680H292c-23.5,0-42.5-19-42.5-42.5v-16.2c0-23.5,19-42.5,42.5-42.5h439.9c23.5,0,42.5,19,42.5,42.5v16.2
	C774.4,660.9,755.3,680,731.8,680z"/>
<path class="st0" d="M731.8,847.9H292c-23.5,0-42.5-19-42.5-42.5v-16.2c0-23.5,19-42.5,42.5-42.5h439.9c23.5,0,42.5,19,42.5,42.5
	v16.2C774.4,828.9,755.3,847.9,731.8,847.9z"/>
<path class="st0" d="M493.9,344H292c-23.5,0-42.5-19-42.5-42.5v-16.2c0-23.5,19-42.5,42.5-42.5h201.9c23.5,0,42.5,19,42.5,42.5v16.2
	C536.4,325,517.4,344,493.9,344z"/>
<path class="st0" d="M701.3,955.7"/>
</svg>
