<?xml version="1.0" encoding="utf-8"?>
<!-- Generator: Adobe Illustrator 23.1.1, SVG Export Plug-In . SVG Version: 6.00 Build 0)  -->
<svg version="1.1" id="Layer_1" xmlns="http://www.w3.org/2000/svg" xmlns:xlink="http://www.w3.org/1999/xlink" x="0px" y="0px"
	 viewBox="0 0 1024.1 1024" style="enable-background:new 0 0 1024.1 1024;" xml:space="preserve">
<path d="M432,0h160.1c26.6,0,48,21.4,48,48V384h175.4c35.6,0,53.4,43,28.2,68.2L539.5,756.7c-15,15-39.6,15-54.6,0L180.2,452.3
	c-25.2-25.2-7.4-68.2,28.2-68.2H384V48C384,21.4,405.4,0,432,0z M1024.1,752v224c0,26.6-21.4,48-48,48H48c-26.6,0.1-48-21.3-48-47.9
	V752c0-26.6,21.4-48,48-48h293.4l98,98c40.2,40.2,105,40.2,145.2,0l98-98H976C1002.7,704.1,1024.1,725.4,1024.1,752z M776,928.1
	c0-22-18-40-40-40c-22,0-40,18-40,40c0,22,18,40,40,40C758,968.2,776,950.1,776,928.1z M904.1,928.1c0-22-18-40-40-40
	c-22,0-40,18-40,40c0,22,18,40,40,40C886,968.2,904.1,950.1,904.1,928.1z"/>
</svg>
