<?xml version="1.0" encoding="utf-8"?>
<!-- Generator: Adobe Illustrator 23.1.1, SVG Export Plug-In . SVG Version: 6.00 Build 0)  -->
<svg version="1.1" id="Layer_1" xmlns="http://www.w3.org/2000/svg" xmlns:xlink="http://www.w3.org/1999/xlink" x="0px" y="0px"
	 viewBox="0 0 1024 1024" style="enable-background:new 0 0 1024 1024;" xml:space="preserve">
<path d="M432.6,4h158.8C617.8,4,639,25.2,639,51.6V385h174c35.3,0,53,42.7,28,67.7l-301.8,302c-14.9,14.9-39.3,14.9-54.2,0
	l-302.2-302c-25-25-7.3-67.7,28-67.7H385V51.6C385,25.2,406.2,4,432.6,4z M1020,750.1v222.2c0,26.4-21.2,47.6-47.6,47.6H51.6
	C25.2,1020,4,998.8,4,972.4V750.1c0-26.4,21.2-47.6,47.6-47.6h291.1l97.2,97.2c39.9,39.9,104.2,39.9,144.1,0l97.2-97.2h291.1
	C998.8,702.5,1020,723.7,1020,750.1z M773.9,924.8c0-21.8-17.9-39.7-39.7-39.7s-39.7,17.9-39.7,39.7s17.9,39.7,39.7,39.7
	S773.9,946.6,773.9,924.8z M900.9,924.8c0-21.8-17.9-39.7-39.7-39.7s-39.7,17.9-39.7,39.7s17.9,39.7,39.7,39.7
	S900.9,946.6,900.9,924.8z"/>
</svg>
