<svg version="1.1" id="Layer_1" xmlns="http://www.w3.org/2000/svg" xmlns:xlink="http://www.w3.org/1999/xlink" x="0px" y="0px"
	 viewBox="0 0 1024 1024" style="enable-background:new 0 0 1024 1024;" xml:space="preserve">
<path d="M568.3,737.2v112.6c0,31.1,25.2,56.3,56.3,56.3h112.6c31.1,0,56.3-25.2,56.3-56.3V737.2c0-31.1-25.2-56.3-56.3-56.3H624.6
	C593.5,680.9,568.3,706.1,568.3,737.2z M568.3,455.7v112.6c0,31.1,25.2,56.3,56.3,56.3h112.6c31.1,0,56.3-25.2,56.3-56.3V455.7
	c0-31.1-25.2-56.3-56.3-56.3H624.6C593.5,399.4,568.3,424.6,568.3,455.7z M568.3,174.2v112.6c0,31.1,25.2,56.3,56.3,56.3h112.6
	c31.1,0,56.3-25.2,56.3-56.3V174.2c0-31.1-25.2-56.3-56.3-56.3H624.6C593.5,117.9,568.3,143.1,568.3,174.2z M230.5,737.2v112.6
	c0,31.1,25.2,56.3,56.3,56.3h112.6c31.1,0,56.3-25.2,56.3-56.3V737.2c0-31.1-25.2-56.3-56.3-56.3H286.8
	C255.7,680.9,230.5,706.1,230.5,737.2z M230.5,455.7v112.6c0,31.1,25.2,56.3,56.3,56.3h112.6c31.1,0,56.3-25.2,56.3-56.3V455.7
	c0-31.1-25.2-56.3-56.3-56.3H286.8C255.7,399.4,230.5,424.6,230.5,455.7z M230.5,174.2v112.6c0,31.1,25.2,56.3,56.3,56.3h112.6
	c31.1,0,56.3-25.2,56.3-56.3V174.2c0-31.1-25.2-56.3-56.3-56.3H286.8C255.7,117.9,230.5,143.1,230.5,174.2z"/>
</svg>
