<svg version="1.1" id="Layer_1" xmlns="http://www.w3.org/2000/svg" xmlns:xlink="http://www.w3.org/1999/xlink" x="0px" y="0px"
	 viewBox="0 0 1024 1024" style="enable-background:new 0 0 1024 1024;" xml:space="preserve">
<path d="M903.9,718.8H380.7c-51,0-92.3-41.3-92.3-92.3V103.3c0-51,41.3-92.3,92.3-92.3h523.1c51,0,92.3,41.3,92.3,92.3v523.1
	C996.2,677.4,954.9,718.8,903.9,718.8z"/>
<g>
	<path d="M212.2,682.8V309.5H107.5c-51,0-92.3,41.3-92.3,92.3V925c0,51,41.3,92.3,92.3,92.3h523.1c51,0,92.3-41.3,92.3-92.3V795
		H324.4C262.4,795,212.2,744.7,212.2,682.8z"/>
</g>
</svg>
