<svg version="1.1" id="Layer_1" xmlns="http://www.w3.org/2000/svg" xmlns:xlink="http://www.w3.org/1999/xlink" x="0px" y="0px"
	 viewBox="0 0 1024 1024" style="enable-background:new 0 0 1024 1024;" xml:space="preserve">
<style type="text/css">
	.st0{fill:none;stroke:#000000;stroke-width:70;stroke-miterlimit:10;}
</style>
<g>
	<path class="st0" d="M893.4,759.3H370.2c-51,0-92.3-41.3-92.3-92.3V143.8c0-51,41.3-92.3,92.3-92.3h523.1c51,0,92.3,41.3,92.3,92.3
		v523.1C985.7,717.9,944.4,759.3,893.4,759.3z"/>
	<g>
		<path class="st0" d="M277.7,652.6V295.5H150.5c-62,0-112.2,39.5-112.2,88.3v500.4c0,48.8,50.2,88.3,112.2,88.3h635.9
			c62,0,112.2-39.5,112.2-88.3V759.9H414.1C338.8,759.9,277.7,711.8,277.7,652.6z"/>
	</g>
</g>
</svg>
