<svg version="1.1" id="icon_edit" xmlns="http://www.w3.org/2000/svg" xmlns:xlink="http://www.w3.org/1999/xlink" x="0px" y="0px"
	 viewBox="0 0 1024 1024" style="enable-background:new 0 0 1024 1024;" xml:space="preserve">
<style type="text/css">
	.st0{fill:#1A1A1A;}
</style>
<g id="_x38_lVeWt.tif">
	<g>
		<path class="st0" d="M698.2,387.5c8.6-8.6,21.3-15.1,27-20.8c11.5-11.5,25.5-19.9,31.2-34.1c5.7-14.1,2.9-31.2,2.9-48.2
			c0-2.9,0-8.6,0-11.5c0-19.9-5.7-37-19.9-51.1C685.7,165,634.6,105.6,580.6,48.7c-16.9-16.8-36.9-25.5-62.4-25.5
			c-136.3,0-272.4,0-408.6,0c-48.4,0-82.5,37-82.5,82.4c0,266.8,0,533.6,0,800.4c0,53.9,34.1,94.8,88.1,94.8c88.1,0,178.8,0,266.8,0
			c96.4,0,192.9,0,292.3,0c48.2,0,82.3-40.9,85.3-86.2c0-76.6,0-153.3,0-229.9c0-2.9,0-2.9-2.9-8.6c-17,17-39,31.2-53,45.3
			c-2.9,2.9-5.7,11.5-5.7,17c0,56.8,0,110.7,0,167.4c0,25.5-8.6,34.1-34.1,34.1c-181.7,0-354.7,0-533.5,0c-37,0-42.5-5.7-42.5-45.3
			c0-261.1,0-515.6,0-776.5C87.9,92.6,96.5,84,122,84c130.6,0,260.2,0,390.8,0c2.9,0,8.6,0,11.5,0c0,5.7,0,8.6,0,14.1
			c0,48.2,0,84,0,132.2c0,22.7,11.5,37,37,37c45.3,0,77.2,0,122.9,0c14.1,0,14.1,0,14.1,14.1C696.7,317.6,698.2,350.7,698.2,387.5z
			 M518.1,644.8c34.1,34.1,68.1,68.1,102.2,102.2c107.9-107.9,215.7-215.8,320.8-320.9C907,392,873,358,838.9,323.9
			C733.6,429.2,625.9,537.1,518.1,644.8z M486.7,670.4c-5.7,8.6-11.5,14.1-14.1,22.7c-5.7,11.5-8.6,25.5-14.1,37
			c-11.5,34.1-25.5,65.2-37,99.3c0,2.9,0,8.6,0,11.5c2.9,2.9,8.6,0,11.5,0h2.9c45.3-17,90.7-34.1,136.3-51.1
			c5.7-2.9,14.1-8.6,19.9-11.5C557.6,741.5,523.8,707.3,486.7,670.4z M869.9,293c34.1,34.1,68.1,68.1,102.2,105
			c31.2-31.2,34.1-79.4,2.9-108C946.5,258.8,898.3,261.7,869.9,293z M698.2,281.3c-0.1,45.9,0,69.4,0,106.2
			c8.6-8.6,21.3-15.1,27-20.8 M698.2,281.3c-0.1,45.9-1.4,53,0,106.2c8.6-8.6,21.3-15.1,27-20.8"/>
	</g>
</g>
</svg>
