<?xml version="1.0" encoding="utf-8"?>
<svg version="1.1" id="Layer_1" xmlns="http://www.w3.org/2000/svg" xmlns:xlink="http://www.w3.org/1999/xlink" x="0px" y="0px"
	 viewBox="0 0 1024 1024" style="enable-background:new 0 0 1024 1024;" xml:space="preserve">
<path d="M509.7,727.82l66.58-66.58l-87.25-87.25l-66.58,66.58v32.14h55.1v55.1H509.7z M762.26,314.55
	c-6.12-6.12-12.44-5.93-18.94,0.57l-200.9,200.9c-6.51,6.51-6.7,12.82-0.57,18.94c6.12,6.12,12.44,5.93,18.94-0.57l200.9-200.9
	C768.19,326.98,768.38,320.67,762.26,314.55z M808.18,655.5v109.06c0,45.54-16.17,84.47-48.5,116.81s-71.27,48.5-116.81,48.5H165.31
	c-45.54,0-84.47-16.17-116.81-48.5S0,810.09,0,764.56V287c0-45.54,16.17-84.47,48.5-116.81s71.27-48.5,116.81-48.5h477.56
	c24.11,0,46.49,4.78,67.16,14.35c5.74,2.68,9.18,7.08,10.33,13.2c1.15,6.51-0.57,12.05-5.17,16.65l-28.13,28.13
	c-5.36,5.36-11.48,6.89-18.37,4.59c-8.8-2.3-17.41-3.44-25.83-3.44H165.31c-25.26,0-46.88,8.99-64.86,26.98S73.47,261.74,73.47,287
	v477.56c0,25.26,8.99,46.88,26.98,64.86c17.99,17.99,39.61,26.98,64.86,26.98h477.56c25.26,0,46.88-8.99,64.86-26.98
	c17.99-17.99,26.98-39.61,26.98-64.86v-72.32c0-4.97,1.72-9.18,5.17-12.63l36.74-36.74c5.74-5.74,12.44-7.08,20.09-4.02
	C804.35,641.91,808.18,647.46,808.18,655.5z M753.08,231.89L918.39,397.2L532.66,782.92H367.35V617.61L753.08,231.89z
	 M1007.93,307.66l-52.81,52.81L789.81,195.16l52.81-52.81c10.71-10.71,23.72-16.07,39.03-16.07s28.32,5.36,39.03,16.07l87.25,87.25
	c10.71,10.71,16.07,23.72,16.07,39.03S1018.64,296.94,1007.93,307.66z"/>
</svg>
