<?xml version="1.0" encoding="utf-8"?>
<!-- Generator: Adobe Illustrator 23.1.1, SVG Export Plug-In . SVG Version: 6.00 Build 0)  -->
<svg version="1.1" id="Layer_1" xmlns="http://www.w3.org/2000/svg" xmlns:xlink="http://www.w3.org/1999/xlink" x="0px" y="0px"
	 viewBox="0 0 1059.2 1024" style="enable-background:new 0 0 1059.2 1024;" xml:space="preserve">
<path d="M527.2,721l68.9-68.9l-90.3-90.3L437,630.7V664h57v57L527.2,721L527.2,721z M788.5,293.5c-6.3-6.3-12.9-6.1-19.6,0.6
	L561.1,501.9c-6.7,6.7-6.9,13.3-0.6,19.6c6.3,6.3,12.9,6.1,19.6-0.6l207.8-207.8C794.6,306.4,794.8,299.8,788.5,293.5z M836,646.2
	V759c0,47.1-16.7,87.4-50.2,120.8C752.4,913.3,712.1,930,665,930H171c-47.1,0-87.4-16.7-120.8-50.2C16.7,846.4,0,806.1,0,759V265
	c0-47.1,16.7-87.4,50.2-120.8S123.9,94,171,94h494c24.9,0,48.1,4.9,69.5,14.8c5.9,2.8,9.5,7.3,10.7,13.7c1.2,6.7-0.6,12.5-5.3,17.2
	l-29.1,29.1c-5.5,5.5-11.9,7.1-19,4.7c-9.1-2.4-18-3.6-26.7-3.6H171c-26.1,0-48.5,9.3-67.1,27.9S76,238.9,76,265v494
	c0,26.1,9.3,48.5,27.9,67.1c18.6,18.6,41,27.9,67.1,27.9h494c26.1,0,48.5-9.3,67.1-27.9c18.6-18.6,27.9-41,27.9-67.1v-74.8
	c0-5.1,1.8-9.5,5.3-13.1l38-38c5.9-5.9,12.9-7.3,20.8-4.2C832,632.1,836,637.9,836,646.2z M779,208l171,171L551,778H380V607L779,208
	z M1042.6,286.4L988,341L817,170l54.6-54.6c11.1-11.1,24.5-16.6,40.4-16.6s29.3,5.5,40.4,16.6l90.3,90.3
	c11.1,11.1,16.6,24.5,16.6,40.4S1053.7,275.3,1042.6,286.4z"/>
</svg>
