<svg version="1.1" id="Layer_1" xmlns="http://www.w3.org/2000/svg" xmlns:xlink="http://www.w3.org/1999/xlink" x="0px" y="0px"
	 viewBox="0 0 1024 1024" style="enable-background:new 0 0 1024 1024;" xml:space="preserve">
<style type="text/css">
	.st0{fill:none;stroke:#000000;stroke-width:56.6929;stroke-linecap:round;stroke-miterlimit:10;}
</style>
<line class="st0" x1="57.5" y1="246" x2="969.9" y2="246"/>
<line class="st0" x1="162.9" y1="130.9" x2="864.6" y2="130.9"/>
<path d="M1000.4,340.6H23.6c-10.7,0-19.6,7.3-19.6,16.1v587.1c0,8.8,8.9,16.1,19.6,16.1h976.7c10.9,0,19.7-7.3,19.7-16.1V356.7
	C1020,347.9,1011.1,340.6,1000.4,340.6z M405.3,841.5H157.3c-15.7,0-28.3-12.7-28.3-28.3s12.7-28.3,28.3-28.3h248.1
	c15.7,0,28.3,12.7,28.3,28.3S421,841.5,405.3,841.5z M610.9,734.4H157.3c-15.7,0-28.3-12.7-28.3-28.3s12.7-28.3,28.3-28.3h453.6
	c15.7,0,28.3,12.7,28.3,28.3S626.6,734.4,610.9,734.4z M914.8,611.8c0.2,18.7-15.1,34.1-34.1,34.1H756c-18.7,0-34.1-15.4-34.1-34.1
	V464.9c0-18.7,15.4-34.1,34.1-34.1h124.7c18.7,0,34.1,15.4,34.1,34.1V611.8z"/>
</svg>
