<svg version="1.1" id="Layer_1" xmlns="http://www.w3.org/2000/svg" xmlns:xlink="http://www.w3.org/1999/xlink" x="0px" y="0px"
	 viewBox="0 0 1098 1024" style="enable-background:new 0 0 1098 1024;" xml:space="preserve">
<path d="M962,205H130c-53,0-96,43-96,96v576c0,53,43,96,96,96h832c53,0,96-43,96-96V301C1058,248,1015,205,962,205z M962,301v81.6
	c-44.8,36.5-116.3,93.3-269.2,213C659.1,622.1,592.4,685.7,546,685c-46.4,0.8-113.2-62.9-146.8-89.4
	C246.4,475.9,174.9,419.1,130,382.6V301H962z M130,877V505.8c45.8,36.5,110.8,87.7,209.9,165.3C383.6,705.5,460.1,781.5,546,781
	c85.4,0.5,161-74.4,206.1-109.9c99.1-77.6,164.1-128.8,209.9-165.3V877H130z"/>
</svg>
