<?xml version="1.0" encoding="utf-8"?>
<!-- Generator: Adobe Illustrator 23.1.1, SVG Export Plug-In . SVG Version: 6.00 Build 0)  -->
<svg version="1.1" id="Layer_1" xmlns="http://www.w3.org/2000/svg" xmlns:xlink="http://www.w3.org/1999/xlink" x="0px" y="0px"
	 viewBox="0 0 1024 1024" style="enable-background:new 0 0 1024 1024;" xml:space="preserve">
<path d="M928,115H96c-53,0-96,43-96,96v576c0,53,43,96,96,96h832c53,0,96-43,96-96V211C1024,158,981,115,928,115z M928,211v81.6
	c-44.8,36.5-116.3,93.3-269.2,213C625.1,532.1,558.4,595.7,512,595c-46.4,0.8-113.2-62.9-146.8-89.4
	C212.4,385.9,140.9,329.1,96,292.6V211H928z M96,787V415.8c45.8,36.5,110.8,87.7,209.9,165.3C349.6,615.5,426.1,691.5,512,691
	c85.4,0.5,161-74.4,206.1-109.9c99.1-77.6,164.1-128.8,209.9-165.3V787H96z"/>
</svg>
