<svg version="1.1" id="Layer_1" xmlns="http://www.w3.org/2000/svg" xmlns:xlink="http://www.w3.org/1999/xlink" x="0px" y="0px"
	 viewBox="0 0 1024 1024" style="enable-background:new 0 0 1024 1024;" xml:space="preserve">
<path d="M994.1,550.1c37.4-37.4,37.4-97.9,0-135.3L675.3,96c-37.4-37.4-97.9-37.4-135.3,0L29.9,606.1c-37.4,37.4-37.4,97.9,0,135.3
	l191.3,191.3c17.9,17.9,42.3,28,67.6,28h709.4c13.2,0,23.9-10.7,23.9-23.9v-79.7c0-13.2-10.7-23.9-23.9-23.9H711L994.1,550.1
	L994.1,550.1z M391.1,425.3L664.8,699L530.7,833.2H302L142.6,673.8L391.1,425.3L391.1,425.3z"/>
</svg>
