<?xml version="1.0" encoding="utf-8"?>
<!-- Generator: Adobe Illustrator 23.1.1, SVG Export Plug-In . SVG Version: 6.00 Build 0)  -->
<svg version="1.1" id="Layer_1" xmlns="http://www.w3.org/2000/svg" xmlns:xlink="http://www.w3.org/1999/xlink" x="0px" y="0px"
	 viewBox="0 0 1024 1024" style="enable-background:new 0 0 1024 1024;" xml:space="preserve">
<path d="M477.9,785.1l179.2-204.8H247.5L68.3,785.1H477.9z M1018.1,210.7c5.3,12.1,7,24.8,5.1,38.1c-2,13.3-7.4,25-16.3,34.9
	L529.1,829.9c-13.5,15.6-30.6,23.5-51.2,23.5H68.3c-13.5,0-25.9-3.6-37.1-10.9s-19.6-17-25.3-29.1c-5.3-12.1-7-24.8-5.1-38.1
	c2-13.3,7.4-25,16.3-34.9l477.9-546.1c13.5-15.6,30.6-23.5,51.2-23.5h409.6c13.5,0,25.9,3.6,37.1,10.9
	C1004,188.9,1012.5,198.6,1018.1,210.7z"/>
</svg>
