<?xml version="1.0" encoding="utf-8"?>
<!-- Generator: Adobe Illustrator 23.1.1, SVG Export Plug-In . SVG Version: 6.00 Build 0)  -->
<svg version="1.1" id="Layer_1" xmlns="http://www.w3.org/2000/svg" xmlns:xlink="http://www.w3.org/1999/xlink" x="0px" y="0px"
	 viewBox="0 0 1024 1024" style="enable-background:new 0 0 1024 1024;" xml:space="preserve">
<path d="M1014,637.5v107.6c0,4.9-1.8,9.1-5.3,12.6c-3.5,3.5-7.8,5.3-12.6,5.3H225.1v107.6c0,4.9-1.8,9.1-5.3,12.6
	c-3.5,3.5-7.8,5.3-12.6,5.3c-4.5,0-9-1.9-13.4-5.6L15,703.6c-3.4-3.4-5-7.5-5-12.3c0-5.2,1.7-9.5,5-12.9l179.3-179.3
	c3.4-3.4,7.7-5,12.9-5c4.9,0,9.1,1.8,12.6,5.3c3.5,3.5,5.3,7.8,5.3,12.6v107.6h770.9c4.9,0,9.1,1.8,12.6,5.3
	C1012.2,628.4,1014,632.6,1014,637.5z M1014,332.7c0,5.2-1.7,9.5-5,12.9L829.7,524.9c-3.4,3.4-7.7,5-12.9,5c-4.9,0-9.1-1.8-12.6-5.3
	s-5.3-7.8-5.3-12.6V404.4H27.9c-4.9,0-9.1-1.8-12.6-5.3c-3.5-3.5-5.3-7.8-5.3-12.6V278.9c0-4.9,1.8-9.1,5.3-12.6
	c3.5-3.5,7.8-5.3,12.6-5.3h770.9V153.4c0-5.2,1.7-9.5,5-12.9c3.4-3.4,7.7-5,12.9-5c4.5,0,9,1.9,13.4,5.6L1009,319.8
	C1012.3,323.2,1014,327.5,1014,332.7z"/>
</svg>
