<?xml version="1.0" encoding="utf-8"?>
<!-- Generator: Adobe Illustrator 23.1.1, SVG Export Plug-In . SVG Version: 6.00 Build 0)  -->
<svg version="1.1" id="Layer_1" xmlns="http://www.w3.org/2000/svg" xmlns:xlink="http://www.w3.org/1999/xlink" x="0px" y="0px"
	 viewBox="0 0 1024 1024" style="enable-background:new 0 0 1024 1024;" xml:space="preserve">
<path d="M945.5,512c-57.3-88.9-129.1-155.4-215.4-199.5c23,39.2,34.5,81.6,34.5,127.2c0,69.7-24.8,129.4-74.3,178.9
	c-49.6,49.6-109.2,74.3-178.9,74.3S382,668.1,332.5,618.6c-49.6-49.6-74.3-109.2-74.3-178.9c0-45.6,11.5-88,34.5-127.2
	C206.3,356.6,134.6,423.1,77.3,512c50.1,77.3,113,138.8,188.5,184.6c75.6,45.8,157.4,68.7,245.6,68.7s170-22.9,245.6-68.7
	C832.6,650.8,895.4,589.3,945.5,512z M538.5,294.9c0-7.5-2.6-13.9-7.9-19.2c-5.3-5.3-11.7-7.9-19.2-7.9
	c-47.1,0-87.5,16.9-121.2,50.6s-50.6,74.1-50.6,121.2c0,7.5,2.6,13.9,7.9,19.2c5.3,5.3,11.7,7.9,19.2,7.9s13.9-2.6,19.2-7.9
	s7.9-11.7,7.9-19.2c0-32.4,11.5-60.1,34.5-83.1s50.7-34.5,83.1-34.5c7.5,0,13.9-2.6,19.2-7.9C535.9,308.9,538.5,302.5,538.5,294.9z
	 M1017.9,512c0,12.8-3.8,25.8-11.3,39c-52.8,86.7-123.7,156.1-212.8,208.3s-183.2,78.3-282.3,78.3S318.2,811.4,229.1,759
	C139.9,706.6,69,637.3,16.2,551c-7.5-13.2-11.3-26.2-11.3-39s3.8-25.8,11.3-39C69,386.7,139.9,317.4,229.1,265
	s183.2-78.6,282.3-78.6s193.2,26.2,282.3,78.6s160.1,121.7,212.8,208C1014.1,486.2,1017.9,499.2,1017.9,512z"/>
</svg>
