<svg version="1.1" id="Layer_1" xmlns="http://www.w3.org/2000/svg" xmlns:xlink="http://www.w3.org/1999/xlink" x="0px" y="0px"
	 viewBox="0 0 1024 1024" style="enable-background:new 0 0 1024 1024;" xml:space="preserve">
<path d="M896,243.9V256H640V0h12.1c12.7,0,24.9,5.1,33.9,14.1l195.9,195.9C890.9,218.9,896,231.2,896,243.9z M576,272V0H176
	c-26.5,0-48,21.5-48,48v928c0,26.5,21.5,48,48,48h672c26.5,0,48-21.5,48-48V320H624C597.6,320,576,298.4,576,272z M768,560V784
	c0,42.9-51.9,64-81.9,33.9L576,707.9V784c0,26.5-21.5,48-48,48H304c-26.5,0-48-21.5-48-48V560c0-26.5,21.5-48,48-48h224
	c26.5,0,48,21.5,48,48v76.1l110.1-110C716.1,496.1,768,517.1,768,560z"/>
</svg>
