<?xml version="1.0" encoding="utf-8"?>
<!-- Generator: Adobe Illustrator 27.0.0, SVG Export Plug-In . SVG Version: 6.00 Build 0)  -->
<svg version="1.1" id="Layer_1" xmlns="http://www.w3.org/2000/svg" xmlns:xlink="http://www.w3.org/1999/xlink" x="0px" y="0px"
	 viewBox="0 0 1127 1024" style="enable-background:new 0 0 1127 1024;" xml:space="preserve">
<path d="M1074,89.5h-17.6v44.1c0,14.5-11.9,26.4-26.4,26.4h-88c-14.5,0-26.4-11.9-26.4-26.4V89.5H211.4v44.1
	c0,14.5-11.9,26.4-26.4,26.4H97c-14.5,0-26.4-11.9-26.4-26.4V89.5H53.1c-29.3,0-52.9,23.6-52.9,52.9v739.4
	c0,29.3,23.6,52.9,52.9,52.9h17.6v-44.1c0-14.5,11.9-26.4,26.4-26.4h88c14.5,0,26.4,11.9,26.4,26.4v44h704.1v-44.1
	c0-14.5,11.9-26.4,26.4-26.4h88c14.5,0,26.4,11.9,26.4,26.4v44.1h17.6c29.3,0,52.9-23.6,52.9-52.9V142.3
	C1126.9,113,1103.3,89.5,1074,89.5z M211.4,767.2c0,14.5-11.9,26.4-26.4,26.4H97c-14.5,0-26.4-11.9-26.4-26.4v-88
	c0-14.5,11.9-26.4,26.4-26.4h88c14.5,0,26.4,11.9,26.4,26.4V767.2z M211.4,556c0,14.5-11.9,26.4-26.4,26.4H97
	c-14.5,0-26.4-11.9-26.4-26.4v-88c0-14.5,11.9-26.4,26.4-26.4h88c14.5,0,26.4,11.9,26.4,26.4V556z M211.4,344.7
	c0,14.5-11.9,26.4-26.4,26.4H97c-14.5,0-26.4-11.9-26.4-26.4v-88c0-14.5,11.9-26.4,26.4-26.4h88c14.5,0,26.4,11.9,26.4,26.4V344.7z
	 M810,802.4c0,14.5-11.9,26.4-26.4,26.4H343.4c-14.5,0-26.4-11.9-26.4-26.4V591.2c0-14.5,11.9-26.4,26.4-26.4h440.1
	c14.5,0,26.4,11.9,26.4,26.4v211.2H810z M810,432.7c0,14.5-11.9,26.4-26.4,26.4H343.4c-14.5,0-26.4-11.9-26.4-26.4V221.5
	c0-14.5,11.9-26.4,26.4-26.4h440.1c14.5,0,26.4,11.9,26.4,26.4v211.2H810z M1056.4,767.2c0,14.5-11.9,26.4-26.4,26.4h-88
	c-14.5,0-26.4-11.9-26.4-26.4v-88c0-14.5,11.9-26.4,26.4-26.4h88c14.5,0,26.4,11.9,26.4,26.4V767.2z M1056.4,556
	c0,14.5-11.9,26.4-26.4,26.4h-88c-14.5,0-26.4-11.9-26.4-26.4v-88c0-14.5,11.9-26.4,26.4-26.4h88c14.5,0,26.4,11.9,26.4,26.4V556z
	 M1056.4,344.7c0,14.5-11.9,26.4-26.4,26.4h-88c-14.5,0-26.4-11.9-26.4-26.4v-88c0-14.5,11.9-26.4,26.4-26.4h88
	c14.5,0,26.4,11.9,26.4,26.4V344.7z"/>
</svg>
