<svg version="1.1" id="Layer_1" xmlns="http://www.w3.org/2000/svg" xmlns:xlink="http://www.w3.org/1999/xlink" x="0px" y="0px"
	 viewBox="0 0 1127 1024" style="enable-background:new 0 0 1127 1024;" xml:space="preserve">
<path d="M1060.1,41.2h-19.6v49.1c0,16.2-13.3,29.4-29.4,29.4h-98c-16.2,0-29.4-13.3-29.4-29.4V41.2H243.3v49.1
	c0,16.2-13.3,29.4-29.4,29.4h-98c-16.2,0-29.4-13.3-29.4-29.4V41.2H66.9C34.3,41.2,8,67.5,8,100.1v823.8c0,32.6,26.3,58.9,58.9,58.9
	h19.6v-49.1c0-16.2,13.3-29.4,29.4-29.4h98c16.2,0,29.4,13.3,29.4,29.4v49h640.2v-49.1c0-16.2,13.3-29.4,29.4-29.4h98
	c16.2,0,29.4,13.3,29.4,29.4v49.1h19.6c32.6,0,58.9-26.3,58.9-58.9V100C1119,67.4,1092.7,41.2,1060.1,41.2z M243.3,796.2
	c0,16.2-13.3,29.4-29.4,29.4h-98c-16.2,0-29.4-13.3-29.4-29.4v-98c0-16.2,13.3-29.4,29.4-29.4h98c16.2,0,29.4,13.3,29.4,29.4V796.2z
	 M243.3,560.9c0,16.2-13.3,29.4-29.4,29.4h-98c-16.2,0-29.4-13.3-29.4-29.4v-98c0-16.2,13.3-29.4,29.4-29.4h98
	c16.2,0,29.4,13.3,29.4,29.4V560.9z M243.3,325.5c0,16.2-13.3,29.4-29.4,29.4h-98c-16.2,0-29.4-13.3-29.4-29.4v-98
	c0-16.2,13.3-29.4,29.4-29.4h98c16.2,0,29.4,13.3,29.4,29.4V325.5z M780.9,835.4c0,16.2-13.3,29.4-29.4,29.4H375.4
	c-16.2,0-29.4-13.3-29.4-29.4V600.1c0-16.2,13.3-29.4,29.4-29.4h376c16.2,0,29.4,13.3,29.4,29.4v235.3H780.9z M780.9,423.5
	c0,16.2-13.3,29.4-29.4,29.4H375.4c-16.2,0-29.4-13.3-29.4-29.4V188.2c0-16.2,13.3-29.4,29.4-29.4h376c16.2,0,29.4,13.3,29.4,29.4
	v235.3H780.9z M1040.5,796.2c0,16.2-13.3,29.4-29.4,29.4h-98c-16.2,0-29.4-13.3-29.4-29.4v-98c0-16.2,13.3-29.4,29.4-29.4h98
	c16.2,0,29.4,13.3,29.4,29.4V796.2z M1040.5,560.9c0,16.2-13.3,29.4-29.4,29.4h-98c-16.2,0-29.4-13.3-29.4-29.4v-98
	c0-16.2,13.3-29.4,29.4-29.4h98c16.2,0,29.4,13.3,29.4,29.4V560.9z M1040.5,325.5c0,16.2-13.3,29.4-29.4,29.4h-98
	c-16.2,0-29.4-13.3-29.4-29.4v-98c0-16.2,13.3-29.4,29.4-29.4h98c16.2,0,29.4,13.3,29.4,29.4V325.5z"/>
</svg>
