<?xml version="1.0" encoding="utf-8"?>
<!-- Generator: Adobe Illustrator 23.1.1, SVG Export Plug-In . SVG Version: 6.00 Build 0)  -->
<svg version="1.1" id="Layer_1" focusable="false" xmlns="http://www.w3.org/2000/svg" xmlns:xlink="http://www.w3.org/1999/xlink"
	 x="0px" y="0px" viewBox="0 0 1024 1024" style="enable-background:new 0 0 1024 1024;" xml:space="preserve">
<path d="M1010.1,885.4L810.7,686c-9-9-21.2-14-34-14H744c55.2-70.6,88-159.4,88-256c0-229.8-186.2-416-416-416S0,186.1,0,416
	s186.2,416,416,416c96.6,0,185.4-32.8,256-88v32.6c0,12.8,5,25,14,34L885.5,1010c18.8,18.8,49.2,18.8,67.8,0l56.6-56.6
	C1028.7,934.6,1028.7,904.2,1010.1,885.4z M416,672c-141.4,0-256-114.4-256-256c0-141.4,114.4-256,256-256
	c141.4,0,256,114.4,256,256C672,557.4,557.6,672,416,672z"/>
</svg>
