<?xml version="1.0" encoding="utf-8"?>
<!-- Generator: Adobe Illustrator 23.1.1, SVG Export Plug-In . SVG Version: 6.00 Build 0)  -->
<svg version="1.1" id="Layer_1" xmlns="http://www.w3.org/2000/svg" xmlns:xlink="http://www.w3.org/1999/xlink" x="0px" y="0px"
	 viewBox="0 0 1024 1024" style="enable-background:new 0 0 1024 1024;" xml:space="preserve">
<path d="M42.9,998.7c-8.2,8.2-15,11-20.6,8.4c-5.6-2.6-8.4-9.5-8.4-20.6V37.6c0-11.2,2.8-18,8.4-20.6s12.5,0.2,20.6,8.4L500.6,483
	c3.9,3.9,6.7,8,8.4,12.2V37.6c0-11.2,2.8-18,8.4-20.6c5.6-2.6,12.5,0.2,20.6,8.4L995.6,483c8.2,8.2,12.2,17.8,12.2,29
	c0,11.2-4.1,20.8-12.2,29L538,998.7c-8.2,8.2-15,11-20.6,8.4c-5.6-2.6-8.4-9.5-8.4-20.6V528.8c-1.7,4.3-4.5,8.4-8.4,12.2L42.9,998.7
	z"/>
</svg>
