<?xml version="1.0" encoding="utf-8"?>
<!-- Generator: Adobe Illustrator 23.1.1, SVG Export Plug-In . SVG Version: 6.00 Build 0)  -->
<svg version="1.1" id="Layer_1" xmlns="http://www.w3.org/2000/svg" xmlns:xlink="http://www.w3.org/1999/xlink" x="0px" y="0px"
	 viewBox="0 0 1024 1024" style="enable-background:new 0 0 1024 1024;" xml:space="preserve">
<path d="M677,512c0-45.5-16.1-84.4-48.3-116.7S557.5,347,512,347s-84.4,16.1-116.7,48.3S347,466.5,347,512s16.1,84.4,48.3,116.7
	S466.5,677,512,677s84.4-16.1,116.7-48.3S677,557.5,677,512z M1007,441.7v143.1c0,5.2-1.7,10.1-5.2,14.8s-7.7,7.5-12.9,8.4
	l-119.2,18c-8.2,23.2-16.5,42.8-25.1,58.7c15,21.5,38,51.1,69,88.9c4.3,5.2,6.4,10.5,6.4,16.1s-1.9,10.5-5.8,14.8
	c-11.6,15.9-32.9,39.1-63.8,69.6S799.2,920,789.8,920c-5.2,0-10.7-1.9-16.8-5.8l-88.9-69.6c-18.9,9.9-38.5,18-58.7,24.5
	c-6.9,58.4-13.1,98.4-18.7,119.9c-3,12-10.7,18-23.2,18H440.5c-6,0-11.3-1.8-15.8-5.5s-7-8.3-7.4-13.9l-18-118.6
	c-21.1-6.9-40.4-14.8-58-23.8l-90.9,69c-4.3,3.9-9.7,5.8-16.1,5.8c-6,0-11.4-2.4-16.1-7.1c-54.1-49-89.6-85.1-106.3-108.3
	c-3-4.3-4.5-9.2-4.5-14.8c0-5.2,1.7-10.1,5.2-14.8c6.4-9,17.4-23.3,32.9-42.9s27.1-34.7,34.8-45.4c-11.6-21.5-20.4-42.8-26.4-63.8
	L35.7,605.5c-5.6-0.9-10.1-3.5-13.5-8.1s-5.2-9.6-5.2-15.1V439.2c0-5.2,1.7-10.1,5.2-14.8s7.5-7.5,12.2-8.4l119.9-18
	c6-19.8,14.4-39.5,25.1-59.3c-17.2-24.5-40.2-54.1-69-88.9c-4.3-5.2-6.4-10.3-6.4-15.5c0-4.3,1.9-9.2,5.8-14.8
	c11.2-15.5,32.3-38.6,63.5-69.3s51.5-46.1,60.9-46.1c5.6,0,11.2,2.1,16.8,6.4l88.9,69c18.9-9.9,38.5-18,58.7-24.5
	c6.9-58.4,13.1-98.4,18.7-119.9c3-12,10.7-18,23.2-18h143.1c6,0,11.3,1.8,15.8,5.5s7,8.3,7.4,13.9l18,118.6
	c21.1,6.9,40.4,14.8,58,23.8l91.5-69c3.9-3.9,9-5.8,15.5-5.8c5.6,0,11,2.1,16.1,6.4c55.4,51.1,90.9,87.7,106.3,109.6
	c3,3.4,4.5,8.2,4.5,14.2c0,5.2-1.7,10.1-5.2,14.8c-6.4,9-17.4,23.3-32.9,42.9s-27.1,34.7-34.8,45.4c11.2,21.5,20,42.5,26.4,63.2
	l117.9,18c5.6,0.9,10.1,3.5,13.5,8.1S1007,436.2,1007,441.7z"/>
</svg>
