<svg enable-background="new 0 0 1257.8 1024" version="1.1" viewBox="0 0 1257.8 1024" xml:space="preserve" xmlns="http://www.w3.org/2000/svg">

<path d="m238.4 345.4c0-43.8 37.3-79.3 79.3-79.3 45.6 0 79.3 35.5 79.3 79.3s-33.7 79.3-79.3 79.3c-42.1 0-79.3-35.5-79.3-79.3zm174.9-302.8 13.1 55.1c18.8 8.2 36.7 18.5 53 30.6l53.8-16c10.9-3.3 23-0.4 30.9 8.1 32.1 35.3 56.7 77.7 71.4 124.5 3.6 10.9 0 22.8-8.3 30.7l-41.7 37.9c3.2 10.9 2 22 2 33.3 0 8.5 1.2 20.4 0.2 30.3l39.5 37.7c8.3 7.9 11.9 19.8 8.3 30.7-14.7 46.8-39.3 89.3-71.4 124.6-7.9 8.5-20 11.5-30.9 8.1l-50.8-15.3c-17.5 13.3-36.5 24.4-56.7 33.3l-12.4 51.8c-4.4 11.3-11.1 20.2-22.4 22.8-23 5-46.8 7.7-73.2 7.7-22.8 0-46.6-2.8-71.4-7.7-9.5-2.6-18-11.5-20.6-22.8l-12.3-51.6c-20.3-8.9-39.3-20-56.7-33.3l-50.7 15.3c-11.1 3.4-23.2 0.4-31-8.1-32.2-35.3-56.9-77.8-71.6-124.6-3.4-10.9 0.1-22.8 8.4-30.7l39.6-37.7c-1.1-9.9-1.7-21.8-1.7-30.3 0-11.3 0.7-22.4 2-33.3l-39.9-37.9c-8.3-8-11.8-19.9-8.4-30.8 14.7-46.8 39.4-89.2 71.6-124.5 7.8-8.6 19.9-11.4 31-8.1l53.6 16c16.3-12.1 34.1-22.4 53-30.6l13.1-55.2c2.6-11.2 11.1-20.2 20.6-22.7 24.8-5.1 48.6-7.8 71.4-7.8 26.4 0 50.2 2.7 73.2 7.8 11.3 2.5 18 11.5 22.4 22.7zm-286 304.3c0 7.3 2.2 14.5 3 21.6l4.3 39.1-44.7 42.6c6.8 15.1 15.1 29.4 24.6 42.6l58.2-17.3 32.2 24.4c12.3 9.3 25.6 17.3 39.9 23.4l36.7 15.9 13.9 58.7c7.9 0.8 16.1 1.2 22.4 1.2 9.9 0 18-0.4 26-1.2l13.9-58.7 36.7-15.9c14.3-6.1 27.6-14.1 39.9-23.4l32.1-24.4 58.3 17.3c9.5-13.3 17.7-27.6 24.4-42.6l-44.6-42.6 4.4-39.1c0.8-7.1-0.6-14.3-0.6-21.6 0-8.1 1.4-16.1 0.4-23.8l-4.8-39.5 45.2-43.2c-6.7-15.1-14.9-29.4-24.4-42.6l-60.5 18-31.9-23.7c-13.3-8.6-24-15.8-39.1-21.6l-34.7-15.8-14.7-62.1c-7.9-0.8-16.1-1.2-26-1.2-6.3 0-14.5 0.4-22.4 1.2l-14.7 62.1-36.5 15.8c-13.3 5.8-25.8 13-37.3 21.6l-31.9 23.7-60.4-18c-9.5 13.3-17.8 27.6-24.6 42.6l45.4 43.2-4.8 39.5c-1 7.8-3.3 15.7-3.3 23.8zm795.2 268.2c43.8 0 79.3 35.5 79.3 79.3s-35.5 79.3-79.3 79.3-79.3-35.5-79.3-79.3c-0.1-43.8 35.4-79.3 79.3-79.3zm233-134.3-16.1 53.8c12.1 16.3 22.4 34.1 30.5 53l55.1 13.1c11.3 2.6 20.2 11.1 22.8 20.6 5 24.8 7.7 48.6 7.7 73.2s-2.8 48.4-7.7 71.4c-2.6 11.3-11.5 18-22.8 22.4l-55.1 13.1c-8.1 18.8-18.4 36.7-30.5 53l16.1 53.8c3.4 11.1 0.4 23.2-8.1 30.9-35.3 32.1-77.8 56.7-124.6 71.6-10.9 3.4-22.8-0.2-30.7-8.5l-39.7-41.7c-9.1 3.2-20.2 3.8-31.5 3.8-10.3 0-20.4-0.6-30.3-1.6l-37.7 39.5c-7.9 8.3-19.8 11.9-30.7 8.5-46.8-14.9-89.3-39.5-124.6-71.6-8.5-7.7-11.5-19.8-8.1-30.9l15.3-50.8c-13.3-17.5-24.4-36.5-33.3-56.7l-51.6-12.3c-11.3-4.4-20.2-11.1-22.8-22.4-5.2-23-9.5-46.8-9.5-71.4s4.6-48.4 9.5-73.2c2.6-9.5 11.5-18 22.8-20.6l51.6-12.3c8.9-20.2 20-39.3 33.3-56.7l-15.3-50.8c-3.4-10.9-0.4-23 8.1-30.9 35.3-32.1 77.8-56.7 124.6-71.4 10.9-3.6 22.8 0 30.7 8.3l37.7 39.7c9.9-1.2 20-1.8 30.3-1.8 11.3 0 22.4 0.8 31.5 2l39.7-39.9c7.9-8.3 19.8-11.9 30.7-8.3 46.8 14.7 89.3 39.3 124.6 71.4 8.5 7.7 11.5 19.8 8.1 30.7zm-234.6 23.2c-7.3 0-14.5 0.4-21.6 1.2l-39.1 4.4-42.7-44.6c-15.1 6.7-29.4 14.9-42.6 24.4l17.3 56.5-26.2 33.9c-7.5 12.3-15.5 25.6-21.6 39.9l-15.9 36.7-58.7 13.9c-0.8 7.9-1.2 16.1-1.2 24.2s0.4 16.3 1.2 24.2l58.7 13.9 15.9 36.7c6.1 14.3 14.1 27.6 21.6 39.9l26.2 32.1-17.3 58.3c13.3 9.5 27.6 17.7 42.6 24.6l42.6-44.8 39.1 4.4c7.1 0.8 14.3 1.2 21.6 1.2 8.1 0 16.1-0.4 23.8-1.4l39.5-4.8 43.2 45.4c15.1-6.9 29.4-15.1 42.6-24.6l-18-60.5 23.8-31.9c8.5-13.3 15.7-24 21.6-39.1l15.7-34.7 62.1-14.7c0.8-7.9 1.2-16.1 1.2-24.2s-0.4-16.3-1.2-24.2l-62.1-14.7-15.7-36.5c-6-13.1-13.1-25.8-21.6-37.3l-23.8-31.9 18-60.5c-13.3-9.5-27.6-17.7-42.6-24.4l-43.2 45.2-39.5-4.8c-7.7-0.8-15.6-1.4-23.7-1.4z"/>
</svg>
