<svg version="1.1" id="Layer_1" xmlns="http://www.w3.org/2000/svg" xmlns:xlink="http://www.w3.org/1999/xlink" x="0px" y="0px"
	 viewBox="0 0 1024 1024" style="enable-background:new 0 0 1024 1024;" xml:space="preserve">
<path d="M670.3,512c0-43.7-15.4-81-46.3-112s-68.3-46.3-112-46.3s-81,15.4-112,46.3s-46.3,68.3-46.3,112s15.4,81,46.3,112
	s68.3,46.3,112,46.3s81-15.4,112-46.3S670.3,555.6,670.3,512z M987,444.5v137.3c0,5-1.6,9.7-5,14.2c-3.4,4.5-7.4,7.2-12.4,8.1
	l-114.4,17.3c-7.9,22.3-15.8,41.1-24.1,56.3c14.4,20.6,36.5,49,66.2,85.3c4.1,5,6.1,10.1,6.1,15.4s-1.8,10.1-5.6,14.2
	c-11.1,15.3-31.6,37.5-61.2,66.8c-29.7,29.3-49.1,44-58.2,44c-5,0-10.3-1.8-16.1-5.6l-85.3-66.8c-18.1,9.5-36.9,17.3-56.3,23.5
	c-6.6,56-12.6,94.4-17.9,115.1c-2.9,11.5-10.3,17.3-22.3,17.3H443.4c-5.8,0-10.8-1.7-15.2-5.3c-4.3-3.6-6.7-8-7.1-13.3l-17.3-113.8
	c-20.2-6.6-38.8-14.2-55.7-22.8L261,897.9c-4.1,3.7-9.3,5.6-15.4,5.6c-5.8,0-10.9-2.3-15.4-6.8c-51.9-47-86-81.7-102-103.9
	c-2.9-4.1-4.3-8.8-4.3-14.2c0-5,1.6-9.7,5-14.2c6.1-8.6,16.7-22.4,31.6-41.2c14.9-18.8,26-33.3,33.4-43.6
	c-11.1-20.6-19.6-41.1-25.3-61.2L54.9,601.7c-5.4-0.9-9.7-3.4-13-7.8s-5-9.2-5-14.5V442.1c0-5,1.6-9.7,5-14.2s7.2-7.2,11.7-8.1
	l115.1-17.3c5.8-19,13.8-37.9,24.1-56.9c-16.5-23.5-38.6-51.9-66.2-85.3c-4.1-5-6.1-9.9-6.1-14.9c0-4.1,1.8-8.8,5.6-14.2
	c10.7-14.9,31-37,60.9-66.5s49.4-44.2,58.4-44.2c5.4,0,10.7,2,16.1,6.1l85.3,66.2c18.1-9.5,36.9-17.3,56.3-23.5
	c6.6-56,12.6-94.4,17.9-115.1C424,42.8,431.4,37,443.4,37h137.3c5.8,0,10.8,1.7,15.2,5.3s6.7,8,7.1,13.3l17.3,113.8
	c20.2,6.6,38.8,14.2,55.7,22.8l87.8-66.2c3.7-3.7,8.6-5.6,14.9-5.6c5.4,0,10.6,2,15.4,6.1c53.2,49,87.2,84.2,102,105.2
	c2.9,3.3,4.3,7.9,4.3,13.6c0,5-1.6,9.7-5,14.2c-6.1,8.6-16.7,22.4-31.6,41.2c-14.9,18.8-26,33.3-33.4,43.6
	c10.7,20.6,19.2,40.8,25.3,60.6l113.1,17.3c5.4,0.9,9.7,3.4,13,7.8C985.1,434.5,987,439.2,987,444.5z"/>
</svg>
