<?xml version="1.0" encoding="utf-8"?>
<svg version="1.1" id="Layer_1" xmlns="http://www.w3.org/2000/svg" xmlns:xlink="http://www.w3.org/1999/xlink" x="0px" y="0px"
	 viewBox="0 0 1024 1024" style="enable-background:new 0 0 1024 1024;" xml:space="preserve">
<path d="M333.6,512c0-100.2,78.2-178.4,178.4-178.4c98.5,0,178.4,78.2,178.4,178.4c0,98.5-79.9,178.4-178.4,178.4
	C411.8,690.4,333.6,610.5,333.6,512z M512,422.8c-49.3,0-89.2,40-89.2,89.2s40,89.2,89.2,89.2c49.3,0,89.2-40,89.2-89.2
	S561.3,422.8,512,422.8z M581,36.2c41.3,0,77.1,28.2,86.8,68.3l14.5,60.4c15.8,7.7,30.9,16.5,45.2,26.2l59.7-17.6
	c39.6-11.7,82,5.3,102.6,41l69,119.4c20.4,35.7,13.9,80.9-15.8,109.3l-45.2,41.3c0.6,10.2,0.9,19,0.9,27.7s-0.4,17.5-0.9,26
	l45.2,42.9c29.7,28.4,36.2,73.6,15.8,109.3l-69,119.3c-20.6,35.7-63,52.6-102.6,41.1L727.4,833c-14.3,9.7-29.4,18.4-45.2,26.2
	l-14.5,60.4c-9.7,40-45.5,68.2-86.8,68.2H443.1c-41.3,0-77.1-28.3-86.8-68.2l-14.5-60.4c-15.8-7.8-30.9-16.5-45.2-26.2l-61.3,17.7
	c-37.9,11.5-80.2-5.4-100.8-41.1l-69-119.3C44.9,654.6,51.4,609.4,81.2,581l45.1-42.9c-0.6-8.5-0.9-17.3-0.9-27.7
	c0-7.1,0.3-15.8,0.9-26L81.2,443c-29.9-28.4-36.4-73.6-15.8-109.3l69-119.4c20.6-35.7,63-52.6,100.8-41l61.3,17.6
	c14.3-9.7,29.4-18.4,45.2-26.2l14.5-60.4c9.7-40.1,45.5-68.3,86.8-68.3L581,36.2z M418.2,228.7l-20.8,8.7
	c-23.6,9.9-45.5,22.7-65.4,37.9l-18,13.8L211.7,259l-69,119.3l77.1,73.4l-2.8,22.3c-1.6,12.5-2.4,25.1-2.4,37.9s0.8,25.5,2.4,37.9
	l2.8,22.3l-77.1,73.4l69,119.3l102.2-30.1l18,13.8c19.9,15.2,41.8,28.1,65.4,37.9l20.8,8.7l24.9,103.3H581l24.9-103.3l20.8-8.7
	c23.6-9.9,45.5-22.7,65.4-37.9l18-13.8L812.4,765l69-119.3l-77.1-73.4l2.8-22.3c1.7-12.5,2.4-25.1,2.4-37.9s-0.7-25.5-2.4-37.9
	l-2.8-22.3l77.1-73.4l-69-119.3l-102.2,30.1l-18-13.8c-19.9-15.2-41.8-28.1-65.4-37.9l-20.8-8.7L581,125.4H443.1L418.2,228.7z"/>
</svg>
