<?xml version="1.0" encoding="utf-8"?>
<!-- Generator: Adobe Illustrator 18.0.0, SVG Export Plug-In . SVG Version: 6.00 Build 0)  -->
<!DOCTYPE svg PUBLIC "-//W3C//DTD SVG 1.1//EN" "http://www.w3.org/Graphics/SVG/1.1/DTD/svg11.dtd">
<svg version="1.1" id="Layer_1" xmlns="http://www.w3.org/2000/svg" xmlns:xlink="http://www.w3.org/1999/xlink" x="0px" y="0px"
	 viewBox="0 0 128 128" enable-background="new 0 0 128 128" xml:space="preserve">
<path d="M64.5,14.4c-7.5,0-14.4,1.9-20.7,5.8s-11.3,9-15,15.4s-5.6,13.4-5.6,20.9c0,7.4,2.2,15.7,6.7,24.8
	c4.4,6.9,9.5,14.2,15.1,21.6c5.7,7.5,10.3,13.2,13.8,17.2l5.1,6c0.5-0.5,1.4-1.3,2.4-2.3s3-3.3,6.1-6.5c3-3.3,5.9-6.5,8.7-9.9
	c2.8-3.4,6-7.5,9.5-12.3s6.5-9.6,9.1-14.2c3.9-8.4,5.8-16.4,5.8-23.8c0-5.7-1.1-11-3.3-16.3s-5.1-9.8-8.8-13.7
	c-3.7-3.9-8.1-6.9-13.1-9.2C75.4,15.5,70,14.4,64.5,14.4z M64,37.8c4.6,0,8.4,1.6,11.7,4.8c3.3,3.2,4.8,7.1,4.8,11.7
	s-1.6,8.5-4.8,11.7c-3.3,3.2-7.1,4.8-11.7,4.8s-8.4-1.6-11.7-4.8c-3.3-3.2-4.8-7.1-4.8-11.7s1.6-8.5,4.8-11.7S59.6,37.8,64,37.8z"/>
</svg>
