<?xml version="1.0" encoding="utf-8"?>
<!-- Generator: Adobe Illustrator 23.1.1, SVG Export Plug-In . SVG Version: 6.00 Build 0)  -->
<svg version="1.1" id="Layer_1" xmlns="http://www.w3.org/2000/svg" xmlns:xlink="http://www.w3.org/1999/xlink" x="0px" y="0px"
	 viewBox="0 0 1024 1024" style="enable-background:new 0 0 1024 1024;" xml:space="preserve">
<path d="M799.69,234.4v-20.96c0-84.45-78.46-148.5-160.8-126.92C589.27-9.34,456.7-5.37,410.43,87.96
	c-79.93-20.45-159.57,40.52-159.57,125.83v244.24c-38.64-14.38-83.86-9.81-120.22,17.18c-56.84,42.21-69.31,122.64-28.17,180.38
	l232.31,326.12c11.63,16.32,30.43,26.01,50.47,26.01h431.62c28.86,0,53.9-19.92,60.38-48.05l58.45-253.59
	c6.68-29,10.05-58.67,10.06-88.43V362.9C945.75,284.24,876.97,223.49,799.69,234.4z M852.8,617.66c0,22.72-2.58,45.45-7.68,67.55
	l-52.91,229.56h-391L178.15,601.66c-27.96-39.25,29.09-82.83,56.92-43.77l52.53,73.74c17.42,24.45,56.22,12.17,56.22-17.98V213.79
	c0-49.66,70.82-48.04,70.82,1.34V512c0,17.11,13.87,30.98,30.98,30.98h13.28c17.11,0,30.98-13.87,30.98-30.98V146.02
	c0-49.69,70.82-48.04,70.82,1.34V512c0,17.11,13.87,30.98,30.98,30.98h13.28c17.11,0,30.98-13.87,30.98-30.98V212.1
	c0-49.71,70.81-48.04,70.81,1.34V512c0,17.11,13.87,30.98,30.98,30.98H751c17.11,0,30.98-13.87,30.98-30.98V364.23
	c0-50.81,70.81-49.65,70.81-1.34L852.8,617.66L852.8,617.66z"/>
</svg>
