<?xml version="1.0" encoding="utf-8"?>
<!-- Generator: Adobe Illustrator 23.1.1, SVG Export Plug-In . SVG Version: 6.00 Build 0)  -->
<svg version="1.1" id="Layer_1" xmlns="http://www.w3.org/2000/svg" xmlns:xlink="http://www.w3.org/1999/xlink" x="0px" y="0px"
	 viewBox="0 0 1024 1024" style="enable-background:new 0 0 1024 1024;" xml:space="preserve">
<path d="M808.04,226.34v-21.57c0-86.9-80.74-152.81-165.46-130.61c-51.07-98.63-187.48-94.55-235.09,1.49
	c-82.25-21.04-164.2,41.7-164.2,129.49v251.33c-39.76-14.8-86.3-10.1-123.71,17.68c-58.49,43.43-71.32,126.2-28.99,185.62
	l239.05,335.58c11.96,16.79,31.31,26.76,51.93,26.76h444.15c29.7,0,55.46-20.5,62.13-49.44l60.14-260.95
	c6.87-29.84,10.35-60.37,10.35-90.99V358.57C958.34,277.63,887.56,215.12,808.04,226.34z M862.69,620.72
	c0,23.38-2.66,46.76-7.9,69.51l-54.45,236.23H398l-229.54-322.2c-28.77-40.39,29.93-85.24,58.57-45.04l54.06,75.88
	c17.92,25.16,57.85,12.53,57.85-18.5V205.14c0-51.1,72.87-49.44,72.87,1.38V512c0,17.61,14.27,31.88,31.88,31.88h13.66
	c17.61,0,31.88-14.27,31.88-31.88V135.4c0-51.14,72.87-49.44,72.87,1.38V512c0,17.61,14.27,31.88,31.88,31.88h13.66
	c17.61,0,31.88-14.27,31.88-31.88v-308.6c0-51.15,72.87-49.44,72.87,1.38V512c0,17.61,14.27,31.88,31.88,31.88h13.66
	c17.61,0,31.88-14.27,31.88-31.88V359.95c0-52.29,72.87-51.09,72.87-1.38L862.69,620.72L862.69,620.72z"/>
</svg>
