<svg version="1.1" id="Layer_1" xmlns="http://www.w3.org/2000/svg" xmlns:xlink="http://www.w3.org/1999/xlink" x="0px" y="0px"
	 width="1024px" height="1024px" viewBox="0 0 1024 1024" style="enable-background:new 0 0 1024 1024;" xml:space="preserve">
<path d="M512,38.5c261.5,0,473.5,212,473.5,473.5S773.5,985.5,512,985.5c-100.4,0-193.8-31.4-270.6-84.9
	c-26.8-20.3-33.4-55.7-14.6-82.5c18.7-26.8,55.5-33.3,82.3-14.6c57.5,40.1,127.4,63.6,202.9,63.6c196.1,0,355.1-159.1,355.1-355.1
	c0-197.7-159.1-355.1-355.1-355.1c-99.7,0-186.8,39.7-251.2,103.9l57,57c27.9,27.9,8.1,75.8-31.3,75.8H82.9
	c-24.5,0-44.4-19.8-44.4-44.4V145.7c0-39.5,47.8-59.4,75.8-31.4l62.9,62.9c85.7-85.6,204-138.7,333.2-138.7H512z M512,275.2
	c24.6,0,44.4,19.8,44.4,44.4v174l118.6,120c18.9,17.4,18.9,45.5,0,61.2c-15.7,18.9-43.8,18.9-61.2,0L480.6,541.8
	c-8.3-6.7-12.9-17.9-12.9-29.8V319.6C467.6,295,487.4,275.2,512,275.2L512,275.2z"/>
</svg>
