<?xml version="1.0" encoding="utf-8"?>
<!-- Generator: Adobe Illustrator 27.0.0, SVG Export Plug-In . SVG Version: 6.00 Build 0)  -->
<svg version="1.1" id="icon_edit" xmlns="http://www.w3.org/2000/svg" xmlns:xlink="http://www.w3.org/1999/xlink" x="0px" y="0px"
	 viewBox="0 0 1024 1024" style="enable-background:new 0 0 1024 1024;" xml:space="preserve">
<style type="text/css">
	.st0{fill:#1A1A1A;}
</style>
<g id="_x38_lVeWt.tif">
	<g>
		<path class="st0" d="M707,381.6c9-9,22.3-15.8,28.3-21.8c12-12,26.7-20.8,32.7-35.7c6-14.8,3-32.7,3-50.5c0-3,0-9,0-12
			c0-20.8-6-38.8-20.8-53.5C693.9,148.5,640.4,86.3,583.8,26.7C566.1,9.1,545.1,0,518.4,0c-142.8,0-285.3,0-428,0
			C39.7,0,4,38.8,4,86.3c0,279.5,0,558.9,0,838.4c0,56.5,35.7,99.3,92.3,99.3c92.3,0,187.3,0,279.5,0c101,0,202,0,306.2,0
			c50.5,0,86.2-42.8,89.3-90.3c0-80.2,0-160.6,0-240.8c0-3,0-3-3-9c-17.8,17.8-40.8,32.7-55.5,47.5c-3,3-6,12-6,17.8
			c0,59.5,0,116,0,175.3c0,26.7-9,35.7-35.7,35.7c-190.3,0-371.5,0-558.8,0c-38.8,0-44.5-6-44.5-47.5c0-273.5,0-540,0-813.3
			c0-26.7,9-35.7,35.7-35.7c136.8,0,272.5,0,409.3,0c3,0,9,0,12,0c0,6,0,9,0,14.8c0,50.5,0,88,0,138.5c0,23.8,12,38.8,38.8,38.8
			c47.5,0,80.9,0,128.7,0c14.8,0,14.8,0,14.8,14.8C705.4,308.4,707,343.1,707,381.6z M518.4,651.1c35.7,35.7,71.3,71.3,107,107
			c113-113,225.9-226,336-336.1c-35.7-35.7-71.3-71.3-107-107C744.1,425.3,631.3,538.3,518.4,651.1z M485.5,677.9
			c-6,9-12,14.8-14.8,23.8c-6,12-9,26.7-14.8,38.8c-12,35.7-26.7,68.3-38.8,104c0,3,0,9,0,12c3,3,9,0,12,0h3
			c47.5-17.8,95-35.7,142.8-53.5c6-3,14.8-9,20.8-12C559.8,752.4,524.3,716.6,485.5,677.9z M886.9,282.6
			c35.7,35.7,71.3,71.3,107,110c32.7-32.7,35.7-83.2,3-113.1C967.1,246.8,916.6,249.8,886.9,282.6z M707,270.4
			c-0.1,48.1,0,72.7,0,111.2c9-9,22.3-15.8,28.3-21.8 M707,270.4c-0.1,48.1-1.5,55.5,0,111.2c9-9,22.3-15.8,28.3-21.8"/>
	</g>
</g>
</svg>
