<?xml version="1.0" encoding="utf-8"?>
<!-- Generator: Adobe Illustrator 23.1.1, SVG Export Plug-In . SVG Version: 6.00 Build 0)  -->
<svg version="1.1" id="icon_edit" xmlns="http://www.w3.org/2000/svg" xmlns:xlink="http://www.w3.org/1999/xlink" x="0px" y="0px"
	 viewBox="0 0 1024 1024" style="enable-background:new 0 0 1024 1024;" xml:space="preserve">
<style type="text/css">
	.st0{fill:#1A1A1A;}
</style>
<g id="_x38_lVeWt.tif">
	<g>
		<path class="st0" d="M716.9,383.1c9-9,14.7-14.7,20.7-20.7c12-12,26.6-20.7,32.6-35.6c6-14.7,3-32.6,3-50.3c0-3,0-9,0-12
			c0-20.7-6-38.6-20.7-53.3C696.3,152,643,90,586.7,30.7C569,13.1,548.1,4.1,521.5,4.1c-142.2,0-284.1,0-426.3,0
			C44.8,4.1,9.2,42.7,9.2,90c0,278.4,0,556.6,0,835c0,56.3,35.6,91.9,91.9,91.9c91.9,0,186.5,0,278.4,0c100.6,0,201.2,0,305,0
			c50.3,0,85.9-35.6,88.9-82.9c0-79.9,0-159.9,0-239.8c0-3,0-3-3-9c-17.7,17.7-32.6,32.6-47.3,47.3c-3,3-6,12-6,17.7
			c0,59.3,0,115.5,0,174.6c0,26.6-9,35.6-35.6,35.6c-189.5,0-379,0-565.5,0c-38.6,0-44.3-6-44.3-47.3c0-272.4,0-547.8,0-820
			c0-26.6,9-35.6,35.6-35.6c136.2,0,272.4,0,408.6,0c3,0,9,0,12,0c0,6,0,9,0,14.7c0,50.3,0,97.6,0,147.9c0,23.7,12,38.6,38.6,38.6
			c47.3,0,94.6,0,142.2,0c14.7,0,14.7,0,14.7,14.7C716.9,312.1,716.9,344.8,716.9,383.1z M521.5,652.5c35.6,35.6,71,71,106.6,106.6
			C740.6,646.6,853.1,534,962.7,424.4c-35.6-35.6-71-71-106.6-106.6C746.3,427.7,634,540.2,521.5,652.5z M488.8,679.2
			c-6,9-12,14.7-14.7,23.7c-6,12-9,26.6-14.7,38.6c-12,35.6-26.6,68-38.6,103.6c0,3,0,9,0,12c3,3,9,0,12,0h3
			c47.3-17.7,94.6-35.6,142.2-53.3c6-3,14.7-9,20.7-12C562.8,753.4,527.4,717.8,488.8,679.2z M888.5,285.5
			c35.6,35.6,71,71,106.6,109.6c32.6-32.6,35.6-82.9,3-112.6C968.4,249.9,918.1,252.9,888.5,285.5z"/>
		<path class="st0" d="M716.9,383.1c0-38.6,0-74,0-106.6c0-14.7,0-14.7-14.7-14.7c-47.3,0-94.6,0-142.2,0c-23.7,0-38.6-12-38.6-38.6
			c0-50.3,0-97.6,0-147.9c0-3,0-9,0-14.7c-3,0-9,0-12,0c-136.2,0-272.4,0-408.6,0c-26.6,0-35.6,9-35.6,35.6c0,272.4,0,547.8,0,820
			c0,38.6,6,47.3,44.3,47.3c189.5,0,379,0,565.5,0c26.6,0,35.6-9,35.6-35.6c0-59.3,0-115.5,0-174.6c0-6,3-12,6-17.7
			c14.7-14.7,29.6-32.6,47.3-47.3c0,3,3,6,3,9c0,79.9,0,159.9,0,239.8c0,50.3-35.6,82.9-88.9,82.9c-100.6,0-201.2,0-305,0
			c-91.9,0-186.5,0-278.4,0c-56.3,0-91.9-35.6-91.9-91.9c0-278.4,0-556.6,0-835c0-50.3,35.6-85.9,85.9-85.9c142.2,0,284.1,0,426.3,0
			c23.7,0,47.3,9,65.2,26.6c56.3,59.3,109.6,121.3,165.8,180.5c14.7,14.7,20.7,32.6,20.7,53.3c0,3,0,9,0,12c0,17.7,3,35.6-3,50.3
			c-6,14.7-20.7,23.7-32.6,35.6C731.6,368.4,725.6,374.4,716.9,383.1z"/>
		<path class="st0" d="M521.5,652.5C634,540,746.6,430.4,856.1,317.9c35.6,35.6,71,71,106.6,106.6C853.1,534,740.6,646.6,628,759.1
			C592.4,723.8,557.1,688.2,521.5,652.5z"/>
		<path class="st0" d="M488.8,679.2c38.6,38.6,74,74,112.6,109.6c-6,6-12,9-20.7,12c-47.3,17.7-94.6,35.6-142.2,53.3h-3
			c-3,0-12,0-12,0c-3-3-3-9,0-12c12-35.6,26.6-68,38.6-103.6c6-12,9-26.6,14.7-38.6C479.9,694.1,485.8,688.2,488.8,679.2z"/>
		<path class="st0" d="M888.5,285.5c29.6-32.6,79.9-32.6,109.6-6c32.6,32.6,29.6,79.9-3,112.6C959.5,356.5,924.1,321.1,888.5,285.5z
			"/>
	</g>
</g>
</svg>
