<?xml version="1.0" encoding="utf-8"?>
<!-- Generator: Adobe Illustrator 27.0.0, SVG Export Plug-In . SVG Version: 6.00 Build 0)  -->
<svg version="1.1" id="icon_edit" xmlns="http://www.w3.org/2000/svg" xmlns:xlink="http://www.w3.org/1999/xlink" x="0px" y="0px"
	 viewBox="0 0 1024 1024" style="enable-background:new 0 0 1024 1024;" xml:space="preserve">
<style type="text/css">
	.st0{fill:#1A1A1A;}
</style>
<g id="_x38_lVeWt.tif">
	<g>
		<path class="st0" d="M706.2,382.1c9-9,22.2-15.7,28.2-21.7c12-12,26.6-20.7,32.6-35.6c6-14.7,3-32.6,3-50.3c0-3,0-9,0-12
			c0-20.7-6-38.6-20.7-53.3C693.1,150,639.8,88,583.5,28.7c-17.7-17.6-38.6-26.6-65.2-26.6c-142.2,0-284.1,0-426.3,0
			C41.6,2.1,6,40.7,6,88c0,278.4,0,556.6,0,835c0,56.3,35.6,98.9,91.9,98.9c91.9,0,186.5,0,278.4,0c100.6,0,201.2,0,305,0
			c50.3,0,85.9-42.6,88.9-89.9c0-79.9,0-159.9,0-239.8c0-3,0-3-3-9c-17.7,17.7-40.6,32.6-55.3,47.3c-3,3-6,12-6,17.7
			c0,59.3,0,115.5,0,174.6c0,26.6-9,35.6-35.6,35.6c-189.5,0-370,0-556.5,0c-38.6,0-44.3-6-44.3-47.3c0-272.4,0-537.8,0-810
			c0-26.6,9-35.6,35.6-35.6c136.2,0,271.4,0,407.6,0c3,0,9,0,12,0c0,6,0,9,0,14.7c0,50.3,0,87.6,0,137.9c0,23.7,12,38.6,38.6,38.6
			c47.3,0,80.6,0,128.2,0c14.7,0,14.7,0,14.7,14.7C704.6,309.2,706.2,343.8,706.2,382.1z M518.3,650.5c35.6,35.6,71,71,106.6,106.6
			c112.5-112.5,225-225.1,334.6-334.7c-35.6-35.6-71-71-106.6-106.6C743.1,425.7,630.8,538.2,518.3,650.5z M485.6,677.2
			c-6,9-12,14.7-14.7,23.7c-6,12-9,26.6-14.7,38.6c-12,35.6-26.6,68-38.6,103.6c0,3,0,9,0,12c3,3,9,0,12,0h3
			c47.3-17.7,94.6-35.6,142.2-53.3c6-3,14.7-9,20.7-12C559.6,751.4,524.2,715.8,485.6,677.2z M885.3,283.5
			c35.6,35.6,71,71,106.6,109.6c32.6-32.6,35.6-82.9,3-112.6C965.2,247.9,914.9,250.9,885.3,283.5z M706.2,271.4
			c-0.1,47.9,0,72.4,0,110.7c9-9,22.2-15.7,28.2-21.7 M706.2,271.4c-0.1,47.9-1.5,55.3,0,110.7c9-9,22.2-15.7,28.2-21.7"/>
	</g>
</g>
</svg>
