<?xml version="1.0" encoding="utf-8"?>
<!-- Generator: Adobe Illustrator 23.1.1, SVG Export Plug-In . SVG Version: 6.00 Build 0)  -->
<svg version="1.1" id="Layer_1" xmlns="http://www.w3.org/2000/svg" xmlns:xlink="http://www.w3.org/1999/xlink" x="0px" y="0px"
	 viewBox="0 0 1024 1024" style="enable-background:new 0 0 1024 1024;" xml:space="preserve">
<style type="text/css">
	.st0{fill-rule:evenodd;clip-rule:evenodd;fill:#333333;stroke:#333333;stroke-width:40;stroke-miterlimit:10;}
</style>
<path class="st0" d="M512.5,47C769.4,47,978,255.6,978,512.5S769.4,978,512.5,978S47,769.4,47,512.5S255.6,47,512.5,47z M512.5,85.8
	C748,85.8,939.2,277,939.2,512.5S748,939.2,512.5,939.2S85.8,748,85.8,512.5S277,85.8,512.5,85.8z M531.9,745.2h-38.8V396.1h38.8
	V745.2z M512.5,279.8c18.1,0,32.8,14.7,32.8,32.8c0,18.1-14.7,32.7-32.8,32.7c-18.1,0-32.8-14.7-32.8-32.7
	C479.7,294.4,494.4,279.8,512.5,279.8z"/>
</svg>
