<?xml version="1.0" encoding="utf-8"?>
<!-- Generator: Adobe Illustrator 23.1.1, SVG Export Plug-In . SVG Version: 6.00 Build 0)  -->
<svg version="1.1" id="Layer_1" xmlns="http://www.w3.org/2000/svg" xmlns:xlink="http://www.w3.org/1999/xlink" x="0px" y="0px"
	 viewBox="0 0 1024 1024" style="enable-background:new 0 0 1024 1024;" xml:space="preserve">
<path d="M176.6,1013.7l11.1-55.7c9.6-3.1,23-6.7,40.3-10.8s33-8.3,47.2-12.4c14.2-4.1,27.2-9.3,39-15.4
	c12.2-15.3,21.2-37.3,26.9-66.2c0.4-3.1,14-66.2,40.6-189.3s51.5-241.8,74.7-356c23.1-114.2,34.5-178.9,34.1-194.2V97.4
	c-10.5-5.7-22.4-9.7-35.7-12.1c-13.3-2.4-28.5-4.1-45.5-5.2s-29.7-2.3-38-3.6L383.6,9c14.4,0.9,40.6,2.3,78.6,4.3s70.6,3.5,97.9,4.6
	c27.3,1.1,53.6,1.6,78.9,1.6c21,0,42.5-0.5,64.5-1.6c22.1-1.1,48.5-2.6,79.3-4.6c30.8-2,52.3-3.4,64.5-4.3
	c-2.2,17-6.3,36.5-12.4,58.3c-13.1,4.4-35.3,10.6-66.5,18.7c-31.2,8.1-54.9,15.4-71.1,21.9c-3.5,8.3-6.5,17.6-9.2,27.8
	c-2.6,10.3-4.6,19-5.9,26.2c-1.3,7.2-2.9,17.1-4.9,29.8c-2,12.7-3.4,21.8-4.3,27.5c-11.8,64.6-30.9,156.2-57.3,274.8
	c-26.4,118.6-43.3,196.2-50.8,232.8c-0.9,3.9-3.7,16.6-8.5,38c-4.8,21.4-9.2,41-13.1,58.9s-7.4,36.1-10.5,54.7
	c-3.1,18.6-4.4,31.1-3.9,37.7l0.7,11.8c7.4,1.7,47.8,8.5,121.2,20.3c-1.3,19.2-4.8,40.8-10.5,64.8c-4.8,0-11.9,0.3-21.3,1
	c-9.4,0.7-16.5,1-21.3,1c-12.7,0-31.7-2.2-57-6.5c-25.3-4.4-44.1-6.5-56.3-6.5c-60.3-0.9-105.2-1.3-134.9-1.3
	c-22.3,0-53.5,2-93.7,5.9C215.7,1010.4,189.3,1012.8,176.6,1013.7z"/>
</svg>
