<?xml version="1.0" encoding="utf-8"?>
<!-- Generator: Adobe Illustrator 23.1.1, SVG Export Plug-In . SVG Version: 6.00 Build 0)  -->
<svg version="1.1" id="Layer_1" xmlns="http://www.w3.org/2000/svg" xmlns:xlink="http://www.w3.org/1999/xlink" x="0px" y="0px"
	 viewBox="0 0 1024 1024" style="enable-background:new 0 0 1024 1024;" xml:space="preserve">
<path d="M977.2,869.9H46.8c-19.8,0-35.8,16-35.8,35.8v71.6c0,19.8,16,35.8,35.8,35.8h930.4c19.8,0,35.8-16,35.8-35.8v-71.6
	C1013,885.9,997,869.9,977.2,869.9z M977.2,583.6H46.8c-19.8,0-35.8,16-35.8,35.8v71.6c0,19.8,16,35.8,35.8,35.8h930.4
	c19.8,0,35.8-16,35.8-35.8v-71.6C1013,599.6,997,583.6,977.2,583.6z M977.2,297.3H46.8c-19.8,0-35.8,16-35.8,35.8v71.6
	c0,19.8,16,35.8,35.8,35.8h930.4c19.8,0,35.8-16,35.8-35.8v-71.6C1013,313.3,997,297.3,977.2,297.3z M977.2,11H46.8
	C27,11,11,27,11,46.8v71.6c0,19.8,16,35.8,35.8,35.8h930.4c19.8,0,35.8-16,35.8-35.8V46.8C1013,27,997,11,977.2,11z"/>
</svg>
