<?xml version="1.0" encoding="utf-8"?>
<!-- Generator: Adobe Illustrator 23.1.1, SVG Export Plug-In . SVG Version: 6.00 Build 0)  -->
<svg version="1.1" id="Layer_1" xmlns="http://www.w3.org/2000/svg" xmlns:xlink="http://www.w3.org/1999/xlink" x="0px" y="0px"
	 viewBox="0 0 1024 1024" style="enable-background:new 0 0 1024 1024;" xml:space="preserve">
<path d="M14.2,504.5V107.5c0-51.6,41.8-93.3,93.3-93.3h396.9c24.8,0,48.5,9.8,66,27.3l412,412c36.5,36.5,36.5,95.6,0,132
	L585.6,982.5c-36.5,36.5-95.6,36.5-132,0l-412-412C24,553,14.2,529.2,14.2,504.5z M232,138.6c-51.6,0-93.3,41.8-93.3,93.3
	s41.8,93.3,93.3,93.3s93.3-41.8,93.3-93.3S283.5,138.6,232,138.6z"/>
</svg>
