<?xml version="1.0" encoding="utf-8"?>
<!-- Generator: Adobe Illustrator 23.1.1, SVG Export Plug-In . SVG Version: 6.00 Build 0)  -->
<svg version="1.1" id="Layer_1" xmlns="http://www.w3.org/2000/svg" xmlns:xlink="http://www.w3.org/1999/xlink" x="0px" y="0px"
	 viewBox="0 0 1024 1024" style="enable-background:new 0 0 1024 1024;" xml:space="preserve">
<g>
	<path d="M287.4,97.7v77H72.1v77h369.2c-10.3,87.2-61.6,159-128.3,215.5c-97.5-87.2-148.8-174.4-148.8-174.4l-66.7,35.9
		c0,0,51.3,92.4,153.9,189.8c-5.1,0-5.1,5.1-5.1,5.1C138.6,595.3,36,631.2,36,631.2l25.7,77c0,0,112.9-35.9,225.7-118
		c10.3-5.1,15.4-10.3,25.7-20.5c46.2,30.8,97.5,61.6,153.9,87.2l30.8-71.8c-46.2-15.4-87.2-41-123.1-66.7
		c71.8-66.7,133.4-153.9,143.7-266.8h118v-77H364.3v-77C364.3,97.7,287.4,97.7,287.4,97.7z"/>
</g>
<path d="M714.4,337.3h-84.3l-224.8,590h106.8l45-134.9h224.8l50.6,134.9h106.8L714.4,337.3z M585.2,708.2l89.9-241.6l84.3,241.6
	H585.2z"/>
</svg>
