<svg xmlns="http://www.w3.org/2000/svg" viewBox="0 0 1024 1024"><path d="M750.68 8.51c5.67.81 11.55 1.42 17.63 2.23 27.76 3.44 54.3 10.94 79.22 23.3 79.83 38.29 134.33 99.68 163.91 183.36 6.69 19.05 10.94 38.7 12.36 58.55.81 17.63-.81 34.85-4.46 52.07-10.13 53.29-34.44 99.68-69.7 139.6-22.08 25.12-45.79 48.42-69.7 71.72-40.93 41.33-82.87 82.46-123.8 124.2-14.99 15.4-30.39 30.39-48.42 42.35-31.81 21.07-66.46 34.44-103.94 40.52-45.38 7.5-89.96 4.46-133.52-10.94-29.58-10.54-55.92-26.95-79.22-47.21-34.85-30.39-60.78-67.06-82.46-107.59l-.81-.41 85.5-85.5c.81 1.82 1.82 3.44 2.63 5.67 12.36 25.53 25.93 50.25 45.38 71.72 24.31 27.35 54.3 44.57 89.96 50.65 27.35 4.86 54.71 3.04 81.04-5.27 20.26-6.08 40.12-14.59 56.93-27.76 10.54-8.31 20.26-18.44 30.39-28.16 50.65-50.25 100.9-100.9 151.55-151.55 25.12-25.12 41.94-54.71 47.61-89.35 9.73-56.93-6.08-106.17-45.79-147.7-11.55-7.5-22.08-15.4-33.84-22.08-19.05-10.94-39.31-18.03-60.78-22.08-31.81-5.67-61.59-.41-90.77 12.76-25.93 12.36-48.42 29.99-69.09 49.44-15.4 14.59-30.39 29.99-45.38 44.98-1.82 1.82-3.04 2.23-5.67 1.42-31.81-12.36-64.84-19.45-98.67-18.03-12.36.41-24.31 3.04-36.67 4.86-4.05.41-7.5.81-12.36 1.42 1.42-1.42 1.42-1.82 1.82-2.23 29.99-29.18 59.57-58.55 89.96-87.33 32.22-30.8 65.65-60.38 103.94-84.08 28.16-17.63 57.74-31.2 89.96-37.89 10.13-2.23 20.26-3.04 30.8-4.86 1.42 0 2.63-.41 4.05-.81 9.74.01 19.87.01 30.41.01z"/><path d="M.2 730.42c.41-5.27.81-10.54 1.42-15.4 4.86-53.29 23.71-100.9 55.92-143.65 12.36-16.21 26.95-30.8 40.93-44.98 51.06-51.46 102.72-102.72 153.78-154.19 14.99-15.4 29.99-30.39 48.02-42.35 32.22-21.68 67.06-35.25 105.36-41.33 25.93-4.46 52.48-5.27 78.41-2.23 47.61 5.67 89.96 23.71 126.83 53.69 38.7 31.81 67.47 71.32 90.36 114.48l-85.5 85.5c-4.05-7.09-7.5-14.59-11.55-21.68C590 493.16 574.2 469.86 552.72 450c-25.53-23.3-55.11-37.08-89.35-40.12-50.25-4.05-95.23 10.13-133.93 43.16-17.63 15.4-33.43 33.03-50.25 49.84-42.35 42.35-85.1 84.69-127.44 127.44-23.3 23.3-37.48 51.46-42.35 83.68-7.5 46.2 2.63 88.54 29.18 127.44 11.55 16.82 26.95 29.18 43.97 38.7 19.45 10.94 39.71 19.45 61.19 24.31 25.12 5.67 50.25 4.05 74.97-3.04 25.93-7.5 50.65-18.03 70.51-36.67 13.17-11.95 25.12-24.72 37.48-37.08l22.49-22.49c1.82-1.82 2.63-2.23 4.86-.81 15.4 7.5 31.81 10.54 48.42 10.94 20.26.41 40.52.41 61.19 0 10.54-.41 21.07-2.63 31.2-4.46l-2.23 2.23c-38.9 39.31-78.61 78.61-117.92 118.12-12.36 12.76-24.72 25.53-39.31 36.06-29.99 22.08-63.42 36.06-99.68 43.16-31.2 6.08-62.61 6.69-93.81 1.82-43.56-6.08-83.68-21.68-119.34-46.8-55.1-38.28-94.2-88.53-112.44-154.17-5.27-19.05-8.31-37.89-9.32-57.34 0-1.82-.41-3.44-.81-5.27.2-5.47.2-11.75.2-18.23z"/></svg>