<svg version="1.1" id="Layer_1" xmlns="http://www.w3.org/2000/svg" xmlns:xlink="http://www.w3.org/1999/xlink" x="0px" y="0px"
	 viewBox="0 0 1024 1024" style="enable-background:new 0 0 1024 1024;" xml:space="preserve">
<path d="M109,109c-51.4,0-93,41.6-93,93s41.6,93,93,93s93-41.6,93-93S160.4,109,109,109z M109,419c-51.4,0-93,41.6-93,93
	s41.6,93,93,93s93-41.6,93-93S160.4,419,109,419z M109,729c-51.4,0-93,41.6-93,93s41.6,93,93,93s93-41.6,93-93S160.4,729,109,729z
	 M977,760H357c-17.1,0-31,13.9-31,31v62c0,17.1,13.9,31,31,31h620c17.1,0,31-13.9,31-31v-62C1008,773.9,994.1,760,977,760z M977,140
	H357c-17.1,0-31,13.9-31,31v62c0,17.1,13.9,31,31,31h620c17.1,0,31-13.9,31-31v-62C1008,153.9,994.1,140,977,140z M977,450H357
	c-17.1,0-31,13.9-31,31v62c0,17.1,13.9,31,31,31h620c17.1,0,31-13.9,31-31v-62C1008,463.9,994.1,450,977,450z"/>
</svg>
