<?xml version="1.0" encoding="utf-8"?>
<!-- Generator: Adobe Illustrator 23.1.1, SVG Export Plug-In . SVG Version: 6.00 Build 0)  -->
<svg version="1.1" id="Layer_1" focusable="false" xmlns="http://www.w3.org/2000/svg" xmlns:xlink="http://www.w3.org/1999/xlink"
	 x="0px" y="0px" viewBox="0 0 512 512" style="enable-background:new 0 0 512 512;" xml:space="preserve">
<path d="M162.6,233.8H347v-69.2c0-25.5-9-47.2-27-65.2c-18-18-39.7-27-65.2-27s-47.2,9-65.2,27s-27,39.7-27,65.2V233.8z
	 M462.3,268.3v207.5c0,9.6-3.4,17.8-10.1,24.5s-14.9,10.1-24.5,10.1H81.9c-9.6,0-17.8-3.4-24.5-10.1s-10.1-14.9-10.1-24.5V268.3
	c0-9.6,3.4-17.8,10.1-24.5c6.7-6.7,14.9-10.1,24.5-10.1h11.5v-69.2c0-44.2,15.9-82.1,47.6-113.8S210.6,3.2,254.8,3.2
	S337,19,368.7,50.8s47.6,69.6,47.6,113.8v69.2h11.5c9.6,0,17.8,3.4,24.5,10.1C459,250.6,462.3,258.7,462.3,268.3z"/>
</svg>
