<?xml version="1.0" encoding="utf-8"?>
<!-- Generator: Adobe Illustrator 23.1.1, SVG Export Plug-In . SVG Version: 6.00 Build 0)  -->
<svg version="1.1" id="Layer_1" xmlns="http://www.w3.org/2000/svg" xmlns:xlink="http://www.w3.org/1999/xlink" x="0px" y="0px"
	 viewBox="0 0 1127 1024" style="enable-background:new 0 0 1127 1024;" xml:space="preserve">
<path d="M620.4,820.9c0,15.5-12.6,28.1-28.1,28.1H311.5c-15.5,0-28.1-12.6-28.1-28.1V287.2H86.8c-46.5,0-84.3,37.8-84.3,84.3v505.6
	c0,46.5,37.8,84.3,84.3,84.3H817c46.5,0,84.3-37.8,84.3-84.3V736.6H620.4V820.9z M185.1,833.2c0,8.8-7.1,15.8-15.8,15.8h-52.7
	c-8.8,0-15.8-7.1-15.8-15.8v-52.7c0-8.8,7.1-15.8,15.8-15.8h52.7c8.8,0,15.8,7.1,15.8,15.8V833.2z M185.1,650.7
	c0,8.8-7.1,15.8-15.8,15.8h-52.7c-8.8,0-15.8-7.1-15.8-15.8V598c0-8.8,7.1-15.8,15.8-15.8h52.7c8.8,0,15.8,7.1,15.8,15.8V650.7z
	 M185.1,468.1c0,8.8-7.1,15.8-15.8,15.8h-52.7c-8.8,0-15.8-7.1-15.8-15.8v-52.7c0-8.8,7.1-15.8,15.8-15.8h52.7
	c8.8,0,15.8,7.1,15.8,15.8V468.1z M718.7,780.5c0-8.8,7.1-15.8,15.8-15.8h52.7c8.8,0,15.8,7.1,15.8,15.8v52.7
	c0,8.8-7.1,15.8-15.8,15.8h-52.7c-8.8,0-15.8-7.1-15.8-15.8V780.5z M1040.2,62.6h-618c-45,0-84.3,37.8-84.3,84.3v449.4
	c0,46.5,37.8,84.3,84.3,84.3h617.9c46.5,0,84.3-37.8,84.3-84.3V146.9C1126.1,100.4,1088.3,62.6,1040.2,62.6z M534.6,174.9
	c31.1,0,56.2,25.2,56.2,56.2s-25.2,56.2-56.2,56.2c-29.4,0-56.2-25.1-56.2-56.2S505.1,174.9,534.6,174.9z M1010.4,553.4
	c-4.9,9.1-14.3,14.8-24.7,14.8H478.4c-10.5,0-18.6-6-23.5-15.3c-4.7-9.5-3.8-20.9,2.4-29.3L580.1,355c5.3-7.3,13.7-11.6,21-11.6
	c9,0,17.4,4.3,22.7,11.5l39.2,53.9l110.1-165.2c5.3-7.8,14-12.5,24.9-12.5c9.4,0,18.2,4.7,23.3,12.5l187.3,280.9
	C1014.7,533,1015.3,544.1,1010.4,553.4z"/>
</svg>
