<svg version="1.1" id="Layer_1" xmlns="http://www.w3.org/2000/svg" xmlns:xlink="http://www.w3.org/1999/xlink" x="0px" y="0px"
	 viewBox="0 0 1127 1024" style="enable-background:new 0 0 1127 1024;" xml:space="preserve">
<path d="M397.1,977H198c-55,0-99.5-44.6-99.5-99.5V147.5c0-55,44.6-99.5,99.5-99.5h199.1c55,0,99.5,44.6,99.5,99.5v729.9
	C496.6,932.4,452.1,977,397.1,977z M1027.5,877.5V147.5c0-55-44.6-99.5-99.5-99.5H728.9c-55,0-99.5,44.6-99.5,99.5v729.9
	c0,55,44.6,99.5,99.5,99.5H928C982.9,977,1027.5,932.4,1027.5,877.5z"/>
</svg>
