<svg version="1.1" id="Layer_1" xmlns="http://www.w3.org/2000/svg" xmlns:xlink="http://www.w3.org/1999/xlink" x="0px" y="0px"
	 viewBox="0 0 1024 1024" style="enable-background:new 0 0 1024 1024;" xml:space="preserve">
<path d="M512.1,452c-148.8,0-358.4,230.1-358.4,375.4c-1.7,65.4,48.5,104.6,133,104.6c91.5,0,152.1-47.1,225.4-47.1
	c74.1,0,134.8,47.1,225.4,47.1c82.7,0,134.5-39.2,134.5-104.5C870.4,682.3,661,452,512.1,452z M236,428.4
	c-19.4-64.9-79.7-107.1-134.3-94c-54.6,13.1-83,76.4-63.6,141.2c19.4,65.1,79.7,107.3,134.3,94.1C227,556.6,255.3,493.3,236,428.4z
	 M394.9,389.4c57.9-15.2,87-92.1,64.7-175.1S372.4,80.9,314.2,94.5c-57.9,15.2-87,92.1-64.7,175.1
	C271.8,350.9,336.7,404.8,394.9,389.4z M922.6,334.4c-54.6-11.4-114.9,29.1-134.3,94c-19.4,64.9,8.9,128.2,63.5,141.3
	c54.6,11.4,114.6-29.1,134.3-94C1005.5,410.8,975.5,347.6,922.6,334.4z M629.3,389.4c56.4,15.2,123.1-38.4,145.3-119.8
	c22.3-81.3-6.8-159.9-64.7-175.1c-56.4-15.2-123.1,38.4-145.3,119.8C542.3,295.6,571.3,374.2,629.3,389.4z"/>
</svg>
