<?xml version="1.0" encoding="utf-8"?>
<!-- Generator: Adobe Illustrator 28.4.1, SVG Export Plug-In . SVG Version: 6.00 Build 0)  -->
<svg version="1.1" id="Layer_1" xmlns="http://www.w3.org/2000/svg" xmlns:xlink="http://www.w3.org/1999/xlink" x="0px" y="0px"
	 viewBox="0 0 1024 1024" style="enable-background:new 0 0 1024 1024;" xml:space="preserve">
<ellipse transform="matrix(0.9435 -0.3314 0.3314 0.9435 -142.7992 70.0045)" cx="133.9" cy="453.7" rx="118.5" ry="168.2"/>
<ellipse transform="matrix(0.9886 -0.1503 0.1503 0.9886 -30.3989 56.7125)" cx="359.9" cy="229.4" rx="130.7" ry="192.5"/>
<ellipse transform="matrix(0.2457 -0.9694 0.9694 0.2457 282.7733 810.3965)" cx="662.1" cy="223.5" rx="192.5" ry="130.7"/>
<ellipse transform="matrix(0.3758 -0.9267 0.9267 0.3758 137.3724 1106.4703)" cx="890" cy="451.3" rx="171.5" ry="115.6"/>
<path d="M514.3,436.9c143.5,0,157.7,82.2,219.5,138.4S930.1,700,884.1,857.7C861.4,935.4,779,982.3,700.7,980.2
	c-83-2.2-78.3-30.9-191.9-33.1s-183.1,49.6-274.2,8.7C160.9,922.7,116.6,827.3,126,760.7C140.4,659.2,235.2,625,286,573.2
	C348.4,509.4,370.8,436.9,514.3,436.9z"/>
</svg>
