<?xml version="1.0" encoding="utf-8"?>
<!-- Generator: Adobe Illustrator 23.1.1, SVG Export Plug-In . SVG Version: 6.00 Build 0)  -->
<svg version="1.1" id="Layer_1" xmlns="http://www.w3.org/2000/svg" xmlns:xlink="http://www.w3.org/1999/xlink" x="0px" y="0px"
	 viewBox="0 0 1024 1024" style="enable-background:new 0 0 1024 1024;" xml:space="preserve">
<path d="M513.4,17.2c-69.3,0-126.1,25.2-176.5,69.3C286.5,137,267.6,193.7,267.6,263v208c0,25.2,6.3,50.4,25.2,81.9
	s37.8,44.1,56.7,44.1v63c0,6.3,0,12.6-6.3,18.9s-6.3,12.6-12.6,12.6L34.4,880.7c-6.3,0-6.3,6.3-12.6,12.6s-6.3,12.6-6.3,18.9v75.6
	c0,6.3,0,12.6,6.3,12.6c6.3,6.3,6.3,6.3,12.6,6.3h951.7c6.3,0,12.6,0,12.6-6.3c6.3-6.3,6.3-6.3,6.3-12.6v-75.6
	c0-6.3,0-12.6-6.3-18.9s-6.3-12.6-12.6-12.6L689.9,691.6c-6.3-6.3-6.3-6.3-12.6-12.6s-6.3-12.6-6.3-18.9v-63
	c18.9,0,37.8-12.6,56.7-44.1c18.9-31.5,25.2-56.7,25.2-81.9V263c0-69.3-25.2-126.1-69.3-176.5C639.5,42.5,582.7,17.2,513.4,17.2z"/>
</svg>
