<?xml version="1.0" encoding="utf-8"?>
<!-- Generator: Adobe Illustrator 23.1.1, SVG Export Plug-In . SVG Version: 6.00 Build 0)  -->
<svg version="1.1" id="Layer_1" xmlns="http://www.w3.org/2000/svg" xmlns:xlink="http://www.w3.org/1999/xlink" x="0px" y="0px"
	 viewBox="0 0 1024 1024" style="enable-background:new 0 0 1024 1024;" xml:space="preserve">
<path d="M974.4,550.5c0,62.6-12.2,122.4-36.7,179.4c-24.5,57-57.4,106.2-98.7,147.5c-41.3,41.3-90.5,74.3-147.5,98.7
	c-57,24.5-116.8,36.7-179.4,36.7s-122.4-12.2-179.4-36.7c-57-24.5-106.2-57.4-147.5-98.7c-41.3-41.3-74.3-90.5-98.7-147.5
	c-24.5-57-36.7-116.8-36.7-179.4c0-73.1,16.2-141.9,48.5-206.5s77.8-118.8,136.4-162.6c17.3-12.8,36.4-17.9,57.5-15.1
	s37.8,12.8,50.3,30.1c12.8,16.9,17.8,35.8,14.8,56.9s-12.9,38-29.8,50.9c-39.3,29.7-69.7,66-91.2,109s-32.2,88.7-32.2,137.3
	c0,41.7,8.1,81.6,24.4,119.5c16.3,37.9,38.2,70.7,65.9,98.4c27.7,27.7,60.5,49.7,98.4,65.9c37.9,16.3,77.8,24.4,119.5,24.4
	s81.6-8.1,119.5-24.4c37.9-16.3,70.7-38.2,98.4-65.9c27.7-27.7,49.7-60.5,65.9-98.4c16.3-37.9,24.4-77.8,24.4-119.5
	c0-48.6-10.7-94.3-32.2-137.3c-21.5-42.9-51.9-79.3-91.2-109C680,291.4,670,274.5,667,253.4s1.9-40,14.8-56.9
	c12.4-17.3,29.3-27.3,50.6-30.1s40.3,2.2,57.2,15.1c58.6,43.7,104.1,97.9,136.4,162.6C958.2,408.6,974.4,477.5,974.4,550.5z
	 M589.1,88.1v385.3c0,20.9-7.6,38.9-22.9,54.2s-33.3,22.9-54.2,22.9s-38.9-7.6-54.2-22.9s-22.9-33.3-22.9-54.2V88.1
	c0-20.9,7.6-38.9,22.9-54.2s33.3-22.9,54.2-22.9s38.9,7.6,54.2,22.9S589.1,67.3,589.1,88.1z"/>
</svg>
