<svg version="1.1" id="Layer_1" xmlns="http://www.w3.org/2000/svg" xmlns:xlink="http://www.w3.org/1999/xlink" x="0px" y="0px"
	 viewBox="0 0 1024 1024" style="enable-background:new 0 0 1024 1024;" xml:space="preserve">
<path d="M870.6,392.6H154.4C88.4,392.6,35,446.2,35,512v179.1c0,33,26.7,59.7,59.7,59.7h59.7v179.1c0,33,26.7,59.7,59.7,59.7h596.9
	c33,0,59.7-26.7,59.7-59.7V750.8h59.7c33,0,59.7-26.7,59.7-59.7V512C990,446.2,936.5,392.6,870.6,392.6z M751.2,870.1H273.8V691.1
	h477.5V870.1z M840.8,586.6c-24.7,0-44.8-20.1-44.8-44.8c0-24.8,20.1-44.8,44.8-44.8s44.8,20,44.8,44.8
	C885.5,566.7,865.6,586.6,840.8,586.6z M273.8,153.9h428.1l49.4,49.4v129.6h119.4V178.6c0-15.8-6.3-31-17.5-42.2L768.7,52
	c-11.1-11.2-26.4-17.5-42.1-17.5H214.1c-32.9,0-59.7,26.7-59.7,59.7v238.8h119.4V153.9z"/>
</svg>
