<svg version="1.1" id="Layer_1" xmlns="http://www.w3.org/2000/svg" xmlns:xlink="http://www.w3.org/1999/xlink" x="0px" y="0px"
	 viewBox="0 0 1024 1024" style="enable-background:new 0 0 1024 1024;" xml:space="preserve">
<style type="text/css">
	.st0{fill:none;stroke:#000000;stroke-width:85.0394;stroke-miterlimit:10;}
	.st1{fill:none;stroke:#000000;stroke-width:85.0394;stroke-linecap:round;stroke-linejoin:bevel;stroke-miterlimit:10;}
</style>
<path class="st0" d="M159.4,433.6"/>
<path class="st1" d="M77.3,187.8"/>
<path class="st0" d="M103.6,875"/>
<path d="M8.3,660c0,60.6,18.9,118.4,54.6,167.2c34.9,47.7,82.9,82.8,138.8,101.5c6,2,12,2.9,18,2.9c23.8,0,45.9-15,53.8-38.7
	c9.9-29.7-6.1-61.8-35.8-71.7c-69.4-23.2-116-87.9-116-161.1c0-93.6,76.2-169.8,169.8-169.8h535L631,685.7
	c-22.1,22.2-22.1,58.1,0,80.2c11.1,11.1,25.6,16.6,40.1,16.6s29-5.5,40.1-16.6L999.1,478c10.6-10.6,16.6-25.1,16.6-40.1
	s-6-29.5-16.6-40.1L702.6,101.3c-22.2-22.1-58.1-22.1-80.2,0c-22.1,22.2-22.1,58.1,0,80.2l195.4,195.4H291.5
	c-75.7,0-146.8,29.4-200.3,82.9S8.2,584.5,8.3,660z"/>
</svg>
