<svg version="1.1" id="Layer_1" xmlns="http://www.w3.org/2000/svg" xmlns:xlink="http://www.w3.org/1999/xlink" x="0px" y="0px"
	 viewBox="0 0 1024 1024" style="enable-background:new 0 0 1024 1024;" xml:space="preserve">
<path d="M812.1,875.5"/>
<path d="M660.5,827.9c80.3-57.5,132.6-151.5,132.6-257.8c0-175.1-141.8-316.9-316.8-316.9c-105.3,0-198.5,51.3-256.2,130.2h177
	c11.9,0,21.6,9.7,21.6,21.6v86.5c0,11.8-9.6,21.6-21.6,21.6l0,0H36.5c-11.9,0-21.6-9.7-21.6-21.6V130.8c0-11.9,9.7-21.6,21.6-21.6
	H123c11.9,0,21.6,9.7,21.6,21.6v140.6c82.3-91.5,202-148.7,335.1-147.8c246.4,1.8,443.6,201,443,447.4
	c-0.3,138.5-63.6,262.1-162.8,343.8"/>
</svg>
