<?xml version="1.0" encoding="utf-8"?>
<!-- Generator: Adobe Illustrator 23.1.1, SVG Export Plug-In . SVG Version: 6.00 Build 0)  -->
<svg version="1.1" id="Layer_1" xmlns="http://www.w3.org/2000/svg" xmlns:xlink="http://www.w3.org/1999/xlink" x="0px" y="0px"
	 viewBox="0 0 1024 1024" style="enable-background:new 0 0 1024 1024;" xml:space="preserve">
<path d="M990.46,223.87L798.73,32.13C778.16,11.56,750.25,0,721.16,0H108.31C47.72,0-1.4,49.12-1.4,109.71v804.57
	c0,60.59,49.12,109.71,109.71,109.71h804.57c60.59,0,109.71-49.12,109.71-109.71V301.44C1022.6,272.35,1011.04,244.44,990.46,223.87
	L990.46,223.87z M620.31,109.71v182.86H327.74V109.71H620.31z M899.17,914.29H122.03c-7.57,0-13.71-6.14-13.71-13.71V123.43
	c0-7.57,6.14-13.71,13.71-13.71h96v237.71c0,30.3,24.56,54.86,54.86,54.86h402.29c30.3,0,54.86-24.56,54.86-54.86V118.59
	l178.84,178.84c2.57,2.57,4.02,6.06,4.02,9.7v593.44C912.89,908.15,906.75,914.29,899.17,914.29L899.17,914.29z M510.6,457.14
	c-110.91,0-201.14,90.23-201.14,201.14s90.23,201.14,201.14,201.14s201.14-90.23,201.14-201.14S621.51,457.14,510.6,457.14z
	 M510.6,749.71c-50.41,0-91.43-41.01-91.43-91.43s41.01-91.43,91.43-91.43s91.43,41.01,91.43,91.43S561.01,749.71,510.6,749.71z"/>
</svg>
