<?xml version="1.0" encoding="utf-8"?>
<!-- Generator: Adobe Illustrator 23.1.1, SVG Export Plug-In . SVG Version: 6.00 Build 0)  -->
<svg version="1.1" id="Layer_1" xmlns="http://www.w3.org/2000/svg" xmlns:xlink="http://www.w3.org/1999/xlink" x="0px" y="0px"
	 viewBox="0 0 1024 1024" style="enable-background:new 0 0 1024 1024;" xml:space="preserve">
<g>
	<path d="M987.65,894.58L622.73,529.66c35.32-52.97,55.92-117.72,55.92-185.4c0-182.46-150.09-332.55-332.55-332.55
		S16.48,158.85,16.48,341.31s150.09,332.55,332.55,332.55c64.74,0,123.6-17.66,176.58-50.03l0,0L893.48,991.7
		c14.71,14.71,32.37,20.6,47.09,20.6c17.66,0,35.32-5.89,47.09-20.6C1014.14,965.21,1014.14,921.07,987.65,894.58z M57.69,341.31
		c0-158.92,129.49-288.41,288.41-288.41S634.5,182.39,634.5,341.31S505.01,629.72,346.09,629.72S57.69,500.23,57.69,341.31z"/>
</g>
</svg>
