<?xml version="1.0" encoding="utf-8"?>
<!-- Generator: Adobe Illustrator 18.0.0, SVG Export Plug-In . SVG Version: 6.00 Build 0)  -->
<!DOCTYPE svg PUBLIC "-//W3C//DTD SVG 1.1//EN" "http://www.w3.org/Graphics/SVG/1.1/DTD/svg11.dtd" [
	<!ENTITY ns_flows "http://ns.adobe.com/Flows/1.0/">
	<!ENTITY ns_extend "http://ns.adobe.com/Extensibility/1.0/">
	<!ENTITY ns_ai "http://ns.adobe.com/AdobeIllustrator/10.0/">
	<!ENTITY ns_graphs "http://ns.adobe.com/Graphs/1.0/">
]>
<svg version="1.1" id="Layer_1" xmlns:x="&ns_extend;" xmlns:i="&ns_ai;" xmlns:graph="&ns_graphs;"
	 xmlns="http://www.w3.org/2000/svg" xmlns:xlink="http://www.w3.org/1999/xlink" xmlns:a="http://ns.adobe.com/AdobeSVGViewerExtensions/3.0/"
	 x="0px" y="0px" viewBox="0 0 35.5 47.1" enable-background="new 0 0 35.5 47.1" xml:space="preserve">
<g>
	<path fill="#333333" d="M33.9,35.3L21.5,22.9c1.2-1.8,1.9-4,1.9-6.3c0-6.2-5.1-11.3-11.3-11.3S0.9,10.3,0.9,16.5
		s5.1,11.3,11.3,11.3c2.2,0,4.2-0.6,6-1.7c0,0,0,0,0,0l12.5,12.5c0.5,0.5,1.1,0.7,1.6,0.7c0.6,0,1.2-0.2,1.6-0.7
		C34.8,37.7,34.8,36.2,33.9,35.3z M2.3,16.5c0-5.4,4.4-9.8,9.8-9.8c5.4,0,9.8,4.4,9.8,9.8s-4.4,9.8-9.8,9.8
		C6.7,26.3,2.3,21.9,2.3,16.5z"/>
</g>
</svg>
