<?xml version="1.0" encoding="utf-8"?>
<!-- Generator: Adobe Illustrator 23.1.1, SVG Export Plug-In . SVG Version: 6.00 Build 0)  -->
<svg version="1.1" id="Layer_1" xmlns="http://www.w3.org/2000/svg" xmlns:xlink="http://www.w3.org/1999/xlink" x="0px" y="0px"
	 viewBox="0 0 1024 1024" style="enable-background:new 0 0 1024 1024;" xml:space="preserve">
<rect x="543.17" y="705.7" transform="matrix(0.7071 -0.7071 0.7071 0.7071 -324.9673 784.5718)" width="482.82" height="157.71"/>
<path d="M652.66,163.16C341.39,196.18,44.55,7.32,44.55,7.32l330.8,330.8c9.03,0.21,18,3.75,24.89,10.64
	c14.22,14.22,14.22,37.28,0,51.5c-14.22,14.22-37.28,14.22-51.5,0c-6.89-6.89-10.43-15.86-10.64-24.89L7.3,44.57
	c0,0,188.86,296.84,155.84,608.11c215.71,56.3,349.75,200.08,349.75,200.08l339.85-339.85
	C852.74,512.91,708.96,378.87,652.66,163.16z"/>
</svg>
