<?xml version="1.0" encoding="utf-8"?>
<svg version="1.1" id="Layer_1" xmlns="http://www.w3.org/2000/svg" xmlns:xlink="http://www.w3.org/1999/xlink" x="0px" y="0px"
	 viewBox="0 0 1024 1024" style="enable-background:new 0 0 1024 1024;" xml:space="preserve">
<g>
	<path d="M512,123.8l91.9,282.9l6.7,20.7h21.8h297.5L689.3,602.3l-17.6,12.8l6.7,20.7l91.9,282.9L529.6,743.9L512,731.1l-17.6,12.8
		L253.7,918.7l91.9-282.9l6.7-20.7l-17.6-12.8L94.1,427.4h297.5h21.8l6.7-20.7L512,123.8 M512,26.7L391.5,397.4H1.8l315.3,229.1
		L196.7,997.3L512,768.2l315.3,229.1L706.9,626.6l315.3-229.1H632.5L512,26.7L512,26.7z"/>
</g>
</svg>
