<?xml version="1.0" encoding="utf-8"?>
<svg version="1.1" id="Layer_1" xmlns="http://www.w3.org/2000/svg" xmlns:xlink="http://www.w3.org/1999/xlink" x="0px" y="0px"
	 viewBox="0 0 122.9 122.9" style="enable-background:new 0 0 122.9 122.9;" xml:space="preserve">
<path d="M61.5,30.7c-15.4,0-27.9,12.5-27.9,27.9S46,86.6,61.5,86.6s27.9-12.5,27.9-27.9S76.9,30.7,61.5,30.7z M61.5,2.8
	c3.1,0,5.6,2.5,5.6,5.6v5.6c0,3.1-2.5,5.6-5.6,5.6s-5.6-2.5-5.6-5.6V8.4C55.9,5.3,58.4,2.8,61.5,2.8z M61.5,103.4
	c3.1,0,5.6,2.5,5.6,5.6v5.6c0,3.1-2.5,5.6-5.6,5.6s-5.6-2.5-5.6-5.6V109C55.9,105.9,58.4,103.4,61.5,103.4z M111.8,53.1
	c3.1,0,5.6,2.5,5.6,5.6s-2.5,5.6-5.6,5.6h-5.6c-3.1,0-5.6-2.5-5.6-5.6s2.5-5.6,5.6-5.6H111.8z M16.7,53.1c3.1,0,5.6,2.5,5.6,5.6
	s-2.5,5.6-5.6,5.6h-5.6c-3.1,0-5.6-2.5-5.6-5.6s2.5-5.6,5.6-5.6H16.7z M101,19.1c2.2,2.2,2.2,5.7,0,7.9l-4,4c-2,2.3-5.5,2.6-7.9,0.6
	c-2.3-2-2.6-5.5-0.6-7.9c0.2-0.2,0.4-0.4,0.6-0.6l4-4C95.3,17,98.8,17,101,19.1z M33.8,90.3c2.2,2.2,2.2,5.7,0,7.9l-4,4
	c-2,2.3-5.5,2.6-7.9,0.6c-2.3-2-2.6-5.5-0.6-7.9c0.2-0.2,0.4-0.4,0.6-0.6l4-4C28.1,88.1,31.6,88.1,33.8,90.3z M101,94.3
	c-2.2,2.2-5.7,2.2-7.9,0l-4-4c-2.3-2-2.6-5.5-0.6-7.9c2-2.3,5.5-2.6,7.9-0.6c0.2,0.2,0.4,0.4,0.6,0.6l4,4
	C103.1,88.6,103.1,92.1,101,94.3z M33.8,27c-2.2,2.2-5.7,2.2-7.9,0l-4-4c-2-2.3-1.7-5.9,0.6-7.9c2.1-1.8,5.2-1.8,7.3,0l4,4
	C36,21.3,36,24.8,33.8,27z"/>
</svg>
