<?xml version="1.0" encoding="utf-8"?>
<!-- Generator: Adobe Illustrator 23.1.1, SVG Export Plug-In . SVG Version: 6.00 Build 0)  -->
<svg version="1.1" id="Layer_1" xmlns="http://www.w3.org/2000/svg" xmlns:xlink="http://www.w3.org/1999/xlink" x="0px" y="0px"
	 viewBox="0 0 1024 1024" style="enable-background:new 0 0 1024 1024;" xml:space="preserve">
<path d="M867,45.1l7.7,158.9C784.4,97.5,651.8,36.2,512.2,36.4c-232.5,0-426.1,166.9-467.6,387.5c-2.3,12.5,6,24.5,18.5,26.8
	c1.4,0.3,2.8,0.4,4.2,0.4h94.2c10.7,0,20-7.4,22.4-17.8c43.7-181.3,226.1-292.9,407.4-249.2c82.2,19.8,154,69.7,201.2,139.9
	l-194.8-9.3c-12.7-0.6-23.5,9.2-24.1,21.9c0,0.4,0,0.7,0,1.1v91c0,12.7,10.3,23,23,23H981c12.7,0,23-10.3,23-23V44
	c0-12.7-10.3-23-23-23H890c-12.7,0-23,10.3-23,23.1C867,44.4,867,44.8,867,45.1z M512.2,850.4c-112.5,0.1-217.6-55.9-280.3-149.4
	l195.4,9.3c12.7,0.6,23.5-9.2,24.1-21.9c0-0.4,0-0.7,0-1.1v-91c0-12.7-10.3-23-23-23H44c-12.7,0-23,10.3-23,23V981
	c0,12.7,10.3,23,23,23H135c12.7,0,23.1-10.3,23.1-23c0-0.4,0-0.8,0-1.2l-8-158.5c90.3,106.3,222.7,167.5,362.2,167.4
	c232.5,0,426.1-166.9,467.6-387.5c2.3-12.5-6-24.5-18.5-26.8c-1.4-0.3-2.8-0.4-4.2-0.4h-94.2c-10.7,0-20,7.4-22.4,17.8
	C804,743.5,668.3,850.4,512.2,850.4z"/>
</svg>
