<svg version="1.1" id="Layer_1" xmlns="http://www.w3.org/2000/svg" xmlns:xlink="http://www.w3.org/1999/xlink" x="0px" y="0px"
	 viewBox="0 0 1127 1024" style="enable-background:new 0 0 1127 1024;" xml:space="preserve">
<path d="M243.4,265.8c0-40.8,33.1-73.8,73.8-73.8c40.8,0,73.8,33,73.8,73.8s-33,73.8-73.8,73.8C276.5,339.6,243.4,306.6,243.4,265.8
	z M514.5,7.4c39.2,0,76.6,15.5,104.3,43.3l406.1,405.9c57.7,57.7,57.7,151.3,0,209L717.1,973.4c-57.7,57.7-151.3,57.7-209,0
	L102.1,567.3C74.4,539.6,58.9,502.3,58.9,463V118.1C58.9,57,108.5,7.4,169.6,7.4H514.5z M180.4,489.1l406.1,406.1
	c14.3,14.5,37.8,14.5,52.1,0l308-308c14.5-14.3,14.5-37.8,0-52.1L540.6,128.9c-6.9-6.9-16.4-10.8-26.1-10.8H169.6V463
	C169.6,472.7,173.5,482.2,180.4,489.1L180.4,489.1z"/>
</svg>
