<?xml version="1.0" encoding="utf-8"?>
<!-- Generator: Adobe Illustrator 23.1.1, SVG Export Plug-In . SVG Version: 6.00 Build 0)  -->
<svg version="1.1" id="Layer_1" xmlns="http://www.w3.org/2000/svg" xmlns:xlink="http://www.w3.org/1999/xlink" x="0px" y="0px"
	 viewBox="0 0 1024 1024" style="enable-background:new 0 0 1024 1024;" xml:space="preserve">
<path d="M128,928c0,53,43,96,96,96l0,0h576c53,0,96-43,96-96l0,0V256H128V928z M672,416c0-17.7,14.3-32,32-32s32,14.3,32,32v448
	c0,17.7-14.3,32-32,32s-32-14.3-32-32V416z M480,416c0-17.7,14.3-32,32-32c17.7,0,32,14.3,32,32v448c0,17.7-14.3,32-32,32
	c-17.7,0-32-14.3-32-32V416z M288,416c0-17.7,14.3-32,32-32s32,14.3,32,32v448c0,17.7-14.3,32-32,32s-32-14.3-32-32V416z M928,64
	H688l-18.8-37.4C661.1,10.3,644.4,0,626.2,0H397.6c-18.2-0.1-34.8,10.3-42.8,26.6L336,64H96c-17.7,0-32,14.3-32,32v64
	c0,17.7,14.3,32,32,32h832c17.7,0,32-14.3,32-32V96C960,78.4,945.7,64,928,64z"/>
</svg>
