<?xml version="1.0" encoding="utf-8"?>
<!-- Generator: Adobe Illustrator 23.1.1, SVG Export Plug-In . SVG Version: 6.00 Build 0)  -->
<svg version="1.1" id="Layer_1" xmlns="http://www.w3.org/2000/svg" xmlns:xlink="http://www.w3.org/1999/xlink" x="0px" y="0px"
	 viewBox="0 0 1024 1024" style="enable-background:new 0 0 1024 1024;" xml:space="preserve">
<path d="M342.7,288c-11.9,0-21.9,10-21.9,21.9v531.7c0,11.9,10,19.9,21.9,19.9c11.9,0,19.9-8,19.9-19.9V309.9
	C362.6,297.9,354.7,288,342.7,288z M512,288c-11.9,0-21.9,10-21.9,21.9v531.7c0,11.9,10,19.9,21.9,19.9s21.9-8,21.9-19.9V309.9
	C533.9,297.9,523.9,288,512,288z M681.3,288c-11.9,0-19.9,10-19.9,21.9v531.7c0,11.9,8,19.9,19.9,19.9s21.9-8,21.9-19.9V309.9
	C703.2,297.9,693.2,288,681.3,288z M1021.8,140.6H745V13.1H279v127.5H2.2v41.8h149.4v828.5h720.9V182.4h149.4V140.6z M320.8,55
	h382.4v85.6H320.8V55z M830.6,969H193.4V182.4h637.3V969z"/>
</svg>
