<?xml version="1.0" encoding="utf-8"?>
<!-- Generator: Adobe Illustrator 27.0.0, SVG Export Plug-In . SVG Version: 6.00 Build 0)  -->
<svg version="1.1" id="Layer_1" xmlns="http://www.w3.org/2000/svg" xmlns:xlink="http://www.w3.org/1999/xlink" x="0px" y="0px"
	 viewBox="0 0 1024 1024" style="enable-background:new 0 0 1024 1024;" xml:space="preserve">
<path d="M361.4,783.1c0,16.6-13.6,30.1-30.1,30.1s-30.1-13.6-30.1-30.1V361.4c0-16.6,13.6-30.1,30.1-30.1s30.1,13.6,30.1,30.1V783.1
	z M542.1,783.1c0,16.6-13.6,30.1-30.1,30.1c-16.6,0-30.1-13.6-30.1-30.1V361.4c0-16.6,13.6-30.1,30.1-30.1
	c16.6,0,30.1,13.6,30.1,30.1V783.1z M722.9,783.1c0,16.6-13.6,30.1-30.1,30.1s-30.1-13.6-30.1-30.1V361.4
	c0-16.6,13.6-30.1,30.1-30.1s30.1,13.6,30.1,30.1V783.1z M674.1,72.5l50.5,78h179.1c16.6,0,30.1,13.5,30.1,30.1
	s-13.6,30.1-30.1,30.1h-30.1v632.6c0,83.2-67.4,150.6-150.6,150.6H301.1c-83.2,0-150.6-67.4-150.6-150.6V210.8h-30.1
	c-16.6,0-30.1-13.5-30.1-30.1s13.5-30.1,30.1-30.1h179.1l48.8-78C364.8,46.1,393.8,30,424.8,30h174.3
	C630.2,30,659.2,46.1,674.1,72.5L674.1,72.5z M370.6,150.5h282.8l-28.8-46.1c-5.5-8.8-15.1-14.2-25.4-14.2H424.8
	c-10.4,0-20,5.3-25.4,14.2L370.6,150.5z M210.8,843.4c0,49.9,40.5,90.4,90.4,90.4h421.8c49.9,0,90.4-40.5,90.4-90.4V210.8H210.8
	V843.4z"/>
</svg>
