<svg version="1.1" id="Layer_1" xmlns="http://www.w3.org/2000/svg" xmlns:xlink="http://www.w3.org/1999/xlink" x="0px" y="0px"
	 viewBox="0 0 1024 1024" style="enable-background:new 0 0 1024 1024;" xml:space="preserve">
<path d="M164.9,888.1c0,47.9,38.9,86.8,86.8,86.8l0,0h520.7c47.9,0,86.8-38.9,86.8-86.8l0,0V280.6H164.9V888.1z M656.6,425.2
	c0-16,12.9-28.9,28.9-28.9c16,0,28.9,12.9,28.9,28.9v405c0,16-12.9,28.9-28.9,28.9c-16,0-28.9-12.9-28.9-28.9V425.2z M483.1,425.2
	c0-16,12.9-28.9,28.9-28.9c16,0,28.9,12.9,28.9,28.9v405c0,16-12.9,28.9-28.9,28.9c-16,0-28.9-12.9-28.9-28.9V425.2z M309.5,425.2
	c0-16,12.9-28.9,28.9-28.9s28.9,12.9,28.9,28.9v405c0,16-12.9,28.9-28.9,28.9s-28.9-12.9-28.9-28.9V425.2z M888.1,107h-217l-17-33.8
	c-7.3-14.7-22.4-24-38.9-24H408.6c-16.5-0.1-31.5,9.3-38.7,24l-17,33.8h-217c-16,0-28.9,12.9-28.9,28.9v57.9
	c0,16,12.9,28.9,28.9,28.9h752.1c16,0,28.9-12.9,28.9-28.9v-57.9C917,120,904.1,107,888.1,107z"/>
</svg>
