<?xml version="1.0" encoding="utf-8"?>
<!-- Generator: Adobe Illustrator 27.0.0, SVG Export Plug-In . SVG Version: 6.00 Build 0)  -->
<svg version="1.1" id="Layer_1" xmlns="http://www.w3.org/2000/svg" xmlns:xlink="http://www.w3.org/1999/xlink" x="0px" y="0px"
	 viewBox="0 0 1024 1024" style="enable-background:new 0 0 1024 1024;" xml:space="preserve">
<path d="M353.7,796.9c0,17.4-14.3,31.6-31.6,31.6s-31.6-14.3-31.6-31.6V353.8c0-17.4,14.3-31.6,31.6-31.6s31.6,14.3,31.6,31.6V796.9
	z M543.6,796.9c0,17.4-14.3,31.6-31.6,31.6c-17.4,0-31.6-14.3-31.6-31.6V353.8c0-17.4,14.3-31.6,31.6-31.6
	c17.4,0,31.6,14.3,31.6,31.6V796.9z M733.5,796.9c0,17.4-14.3,31.6-31.6,31.6c-17.3,0-31.6-14.3-31.6-31.6V353.8
	c0-17.4,14.3-31.6,31.6-31.6c17.3,0,31.6,14.3,31.6,31.6V796.9z M682.3,50.3l53.1,82h188.2c17.4,0,31.6,14.2,31.6,31.6
	s-14.3,31.6-31.6,31.6h-31.6v664.7c0,87.4-70.8,158.2-158.2,158.2H290.3c-87.4,0-158.2-70.8-158.2-158.2V195.6h-31.6
	c-17.4,0-31.6-14.2-31.6-31.6s14.2-31.6,31.6-31.6h188.2l51.3-82c17.3-27.8,47.8-44.8,80.4-44.8h183.1
	C636.1,5.6,666.6,22.5,682.3,50.3L682.3,50.3z M363.4,132.2h297.1l-30.3-48.4c-5.8-9.2-15.9-14.9-26.7-14.9H420.3
	c-10.9,0-21,5.6-26.7,14.9L363.4,132.2z M195.5,860.3c0,52.4,42.6,95,95,95h443.2c52.4,0,95-42.6,95-95V195.6H195.5V860.3z"/>
</svg>
