<?xml version="1.0" encoding="utf-8"?>
<!-- Generator: Adobe Illustrator 27.0.0, SVG Export Plug-In . SVG Version: 6.00 Build 0)  -->
<svg version="1.1" id="Layer_1" xmlns="http://www.w3.org/2000/svg" xmlns:xlink="http://www.w3.org/1999/xlink" x="0px" y="0px"
	 viewBox="0 0 1024 1024" style="enable-background:new 0 0 1024 1024;" xml:space="preserve">
<path d="M359.1,787.1c0,16.8-13.8,30.5-30.5,30.5c-16.7,0-30.5-13.8-30.5-30.5V359.2c0-16.8,13.8-30.5,30.5-30.5
	c16.7,0,30.5,13.8,30.5,30.5V787.1z M542.5,787.1c0,16.8-13.8,30.5-30.5,30.5c-16.8,0-30.5-13.8-30.5-30.5V359.2
	c0-16.8,13.8-30.5,30.5-30.5c16.8,0,30.5,13.8,30.5,30.5V787.1z M725.9,787.1c0,16.8-13.8,30.5-30.5,30.5s-30.5-13.8-30.5-30.5
	V359.2c0-16.8,13.8-30.5,30.5-30.5s30.5,13.8,30.5,30.5V787.1z M676.5,66.1l51.3,79.2h181.7c16.8,0,30.5,13.7,30.5,30.5
	s-13.8,30.5-30.5,30.5H879v641.9c0,84.4-68.4,152.8-152.8,152.8H297.9c-84.4,0-152.8-68.4-152.8-152.8V206.5h-30.5
	c-16.8,0-30.5-13.7-30.5-30.5s13.7-30.5,30.5-30.5h181.7l49.5-79.2C362.6,39.4,392.1,23,423.5,23h176.8
	C631.8,23,661.3,39.3,676.5,66.1L676.5,66.1z M368.5,145.2h286.9l-29.3-46.7c-5.6-8.9-15.4-14.4-25.8-14.4H423.4
	c-10.5,0-20.3,5.4-25.8,14.4L368.5,145.2z M206.4,848.4c0,50.6,41.1,91.7,91.7,91.7h428c50.6,0,91.7-41.1,91.7-91.7V206.5H206.4
	V848.4z"/>
</svg>
