<?xml version="1.0" encoding="utf-8"?>
<!-- Generator: Adobe Illustrator 23.1.1, SVG Export Plug-In . SVG Version: 6.00 Build 0)  -->
<svg version="1.1" id="Layer_1" xmlns="http://www.w3.org/2000/svg" xmlns:xlink="http://www.w3.org/1999/xlink" x="0px" y="0px"
	 viewBox="0 0 1024 1024" style="enable-background:new 0 0 1024 1024;" xml:space="preserve">
<path d="M400.8,419.3l0.1,333.8c0,5.4-1.7,9.9-5.2,13.4c-3.5,3.5-8,5.2-13.4,5.2h-37.1c-5.4,0-9.9-1.7-13.4-5.2
	c-3.5-3.5-5.2-8-5.2-13.4l-0.1-333.8c0-5.4,1.7-9.9,5.2-13.4c3.5-3.5,8-5.2,13.4-5.2h37.1c5.4,0,9.9,1.7,13.4,5.2
	C399,409.4,400.8,413.8,400.8,419.3z M549.1,419.2l0.1,333.8c0,5.4-1.7,9.9-5.2,13.4c-3.5,3.5-8,5.2-13.4,5.2h-37.1
	c-5.4,0-9.9-1.7-13.4-5.2c-3.5-3.5-5.2-8-5.2-13.4l-0.1-333.8c0-5.4,1.7-9.9,5.2-13.4s8-5.2,13.4-5.2h37.1c5.4,0,9.9,1.7,13.4,5.2
	C547.4,409.4,549.1,413.8,549.1,419.2z M697.5,419.2l0.1,333.8c0,5.4-1.7,9.9-5.2,13.4c-3.5,3.5-8,5.2-13.4,5.2h-37.1
	c-5.4,0-9.9-1.7-13.4-5.2c-3.5-3.5-5.2-8-5.2-13.4l-0.1-333.8c0-5.4,1.7-9.9,5.2-13.4c3.5-3.5,8-5.2,13.4-5.2h37.1
	c5.4,0,9.9,1.7,13.4,5.2C695.8,409.3,697.5,413.8,697.5,419.2z M771.8,838.8l-0.2-549.4l-519.3,0.2l0.2,549.4c0,8.5,1.4,16.3,4,23.5
	c2.7,7.2,5.5,12.3,8.4,15.6c2.9,3.3,4.9,4.9,6.1,4.9l482.2-0.1c1.1,0,3.1-1.7,6.1-4.9c2.9-3.3,5.7-8.5,8.4-15.6
	C770.5,855.1,771.8,847.3,771.8,838.8z M382.1,215.2l259.6-0.1l-27.9-67.8c-2.7-3.5-6-5.6-9.9-6.4L420.3,141
	c-3.8,0.8-7.2,2.9-9.9,6.4L382.1,215.2z M920,233.6v37.1c0,5.4-1.7,9.9-5.2,13.4c-3.5,3.5-8,5.2-13.4,5.2h-55.7l0.2,549.4
	c0,32.1-9.1,59.8-27.2,83.2c-18.2,23.4-40,35-65.5,35L271.1,957c-25.5,0-47.4-11.3-65.5-33.9s-27.3-49.9-27.3-82l-0.1-551.7h-55.7
	c-5.4,0-9.9-1.7-13.4-5.2c-3.5-3.5-5.2-8-5.2-13.4v-37.1c0-5.4,1.7-9.9,5.2-13.4c3.5-3.5,8-5.2,13.4-5.2l179.1-0.1l40.5-96.8
	c5.8-14.3,16.3-26.5,31.3-36.5s30.3-15.1,45.8-15.1l185.4-0.1c15.5,0,30.8,5,45.8,15c15,10,25.5,22.2,31.3,36.5l40.6,96.7l179.1-0.1
	c5.4,0,9.9,1.7,13.4,5.2C918.3,223.8,920,228.2,920,233.6z"/>
</svg>
