<?xml version="1.0" encoding="utf-8"?>
<!-- Generator: Adobe Illustrator 27.0.0, SVG Export Plug-In . SVG Version: 6.00 Build 0)  -->
<svg version="1.1" id="icon_edit" xmlns="http://www.w3.org/2000/svg" xmlns:xlink="http://www.w3.org/1999/xlink" x="0px" y="0px"
	 viewBox="0 0 1024 1024" style="enable-background:new 0 0 1024 1024;" xml:space="preserve">
<path d="M858.5,386c-70.5,0-130.1-46.3-150.2-110.2H638c-43.5,0-78.8,35.2-78.8,78.8v315c0,43.5,35.2,78.8,78.8,78.8h70.3
	C728.3,684.3,788,638,858.5,638c87,0,157.5,70.5,157.5,157.5S945.5,953,858.5,953c-70.5,0-130.1-46.3-150.2-110.2H638
	c-95.7,0-173.2-77.6-173.2-173.2V559.2h-149c-20.1,64-79.7,110.2-150.2,110.2C78.5,669.4,8,598.9,8,511.9s70.5-157.5,157.5-157.5
	c70.5,0,130.1,46.3,150.2,110.2h149V354.5c0-95.7,77.6-173.2,173.2-173.2h70.3C728.3,117.3,788,71,858.5,71
	c87,0,157.5,70.5,157.5,157.5S945.5,386,858.5,386L858.5,386z M795.5,228.5c0,34.8,28.2,63,63,63s63-28.2,63-63s-28.2-63-63-63
	S795.5,193.7,795.5,228.5z M795.5,795.5c0,34.8,28.2,63,63,63s63-28.2,63-63s-28.2-63-63-63S795.5,760.7,795.5,795.5z M228.5,512
	c0-34.8-28.2-63-63-63s-63,28.2-63,63s28.2,63,63,63S228.5,546.8,228.5,512z"/>
</svg>
