<svg version="1.1" id="Layer_1" xmlns="http://www.w3.org/2000/svg" xmlns:xlink="http://www.w3.org/1999/xlink" x="0px" y="0px"
	 viewBox="0 0 1024 1024" style="enable-background:new 0 0 1024 1024;" xml:space="preserve">
<path d="M906.2,512.5c0-217.4-176.2-393.7-393.7-393.7S118.8,295.1,118.8,512.5s176.2,393.7,393.7,393.7S906.2,729.9,906.2,512.5z
	 M28,512.5C28,244.9,244.9,28,512.5,28S997,244.9,997,512.5S780.1,997,512.5,997S28,780.1,28,512.5z M349.4,340.8
	c15-42.2,55.1-70.6,99.9-70.6h110.3c66.1,0,119.4,53.6,119.4,119.4c0,42.8-22.9,82.3-60,103.7l-61.1,35
	c-0.4,24.6-20.6,44.7-45.4,44.7c-25.2,0-45.4-20.3-45.4-45.4v-25.5c0-16.3,8.7-31.2,22.9-39.4l83.8-48.1
	c8.9-5.1,14.4-14.6,14.4-24.8c0-15.9-12.9-28.6-28.6-28.6H449.3c-6.4,0-12.1,4-14.2,10l-0.8,2.3c-8.3,23.7-34.4,36-57.9,27.6
	s-36-34.4-27.6-57.9l0.8-2.3L349.4,340.8z M451.9,694.2c0-33.4,27.1-60.6,60.6-60.6s60.6,27.1,60.6,60.6s-27.1,60.6-60.6,60.6
	S451.9,727.6,451.9,694.2z"/>
</svg>
