<?xml version="1.0" encoding="utf-8"?>
<!-- Generator: Adobe Illustrator 23.1.1, SVG Export Plug-In . SVG Version: 6.00 Build 0)  -->
<svg version="1.1" id="Layer_1" xmlns="http://www.w3.org/2000/svg" xmlns:xlink="http://www.w3.org/1999/xlink" x="0px" y="0px"
	 viewBox="0 0 1792 1792" style="enable-background:new 0 0 1792 1792;" xml:space="preserve">
<style type="text/css">
	.st0{stroke:#000000;stroke-miterlimit:10;}
</style>
<path class="st0" d="M75.3,128.9c-28.1-1.5-45.2-3-51.3-4.6L20.6,24c9.9-0.8,25.1-1.1,45.6-1.1c45.6,0,88.1,1.5,127.7,4.6
	c100.3,5.3,163.4,8,189.2,8c65.4,0,129.2-1.1,191.5-3.4c88.1-3,143.6-4.9,166.4-5.7c42.6,0,75.2-0.8,98-2.3l-1.1,16l2.3,72.9v10.3
	c-45.6,6.8-92.7,10.3-141.3,10.3c-45.6,0-75.6,9.5-90,28.5c-9.9,10.6-14.8,60.8-14.8,150.5c0,9.9,0.2,22.2,0.6,37
	c0.4,14.8,0.6,24.5,0.6,29.1l1.1,261l16,319.2c4.6,94.2,23.9,171,58.1,230.2c26.6,44.8,63.1,79.8,109.4,104.9
	c66.9,35.7,134.1,53.6,201.8,53.6c79,0,151.6-10.6,217.7-31.9c42.6-13.7,80.2-33.1,112.8-58.1c36.5-27.4,61.2-51.7,74.1-72.9
	c27.4-42.6,47.5-85.9,60.4-129.9c16-55.5,23.9-142.5,23.9-261c0-60-1.3-108.7-4-145.9s-6.8-83.8-12.5-139.6s-10.8-116.5-15.4-181.8
	l-4.6-67.3c-3.8-50.9-12.9-84.3-27.4-100.3c-25.8-26.6-55.1-39.5-87.8-38.8l-114,2.3l-16-3.4l2.3-98h95.7L1520.6,32
	c57.8,2.3,132.2-1.5,223.4-11.4l20.5,2.3c4.6,28.9,6.8,48.3,6.8,58.1c0,5.3-1.5,17.1-4.6,35.3c-34.2,9.1-66.1,14.1-95.7,14.8
	c-55.5,8.4-85.5,14.8-90,19.4c-11.4,11.4-17.1,27-17.1,46.7c0,5.3,0.6,15.6,1.7,30.8c1.1,15.2,1.7,27,1.7,35.3
	c6.1,14.4,14.4,164.9,25.1,451.4c4.6,148.2-1.1,263.7-17.1,346.5c-11.4,57.8-27,104.1-46.7,139.1c-28.9,49.4-71.4,96.1-127.7,140.2
	c-57,43.3-126.1,77.1-207.5,101.4c-82.8,25.1-179.7,37.6-290.7,37.6c-126.9,0-234.8-17.5-323.7-52.4
	c-90.4-35.7-158.4-82.1-204-139.1c-46.4-57.8-77.9-131.8-94.6-222.3c-12.2-60.8-18.2-150.8-18.2-270.1V416.1
	c0-142.9-6.5-223.8-19.4-242.8C223.9,146,168,131.2,75.3,128.9z M1771.4,1734.9V1662c0-10.6-3.4-19.4-10.3-26.2
	c-6.8-6.8-15.6-10.3-26.2-10.3H57.1c-10.6,0-19.4,3.4-26.2,10.3c-6.8,6.8-10.3,15.6-10.3,26.2v72.9c0,10.6,3.4,19.4,10.3,26.2
	c6.8,6.8,15.6,10.3,26.2,10.3h1677.8c10.6,0,19.4-3.4,26.2-10.3C1768,1754.3,1771.4,1745.6,1771.4,1734.9z"/>
</svg>
