<svg version="1.1" id="Layer_1" xmlns="http://www.w3.org/2000/svg" xmlns:xlink="http://www.w3.org/1999/xlink" x="0px" y="0px"
	 viewBox="0 0 1792 1792" style="enable-background:new 0 0 1792 1792;" xml:space="preserve">
<g>
	<path d="M366.9,74.2h225.5v750.2c0,43.3,2.1,87.2,6.3,131.7s16.3,84.4,36.1,119.9s50,64.6,90.3,87.5s97.2,34.3,170.7,34.3
		c73.4,0,130.4-11.4,170.7-34.3s70.4-52,90.3-87.5c19.8-35.5,31.9-75.4,36.1-119.9s6.3-88.4,6.3-131.7V74.2h225.5v824.2
		c0,83-12.7,155.1-38,216.4s-61.1,112.8-107.4,154.2c-46.3,41.4-102,72.4-167.1,92.9c-65,20.4-137.2,30.7-216.7,30.7
		c-79.4,0-151.7-10.2-216.7-30.7s-120.7-51.4-167.1-92.9s-82.2-92.9-107.4-154.2c-25.3-61.3-38-133.4-38-216.4V74.2H366.9z"/>
</g>
<rect x="220.5" y="1577.4" width="1350.4" height="140.9"/>
</svg>
