<?xml version="1.0" encoding="utf-8"?>
<!-- Generator: Adobe Illustrator 23.1.1, SVG Export Plug-In . SVG Version: 6.00 Build 0)  -->
<svg version="1.1" id="Layer_1" xmlns="http://www.w3.org/2000/svg" xmlns:xlink="http://www.w3.org/1999/xlink" x="0px" y="0px"
	 viewBox="0 0 1792 1792" style="enable-background:new 0 0 1792 1792;" xml:space="preserve">
<g>
	<path d="M320.2,2h245.4v816.4c0,47.1,2.3,94.9,6.9,143.3c4.6,48.4,17.7,91.9,39.3,130.5c21.6,38.6,54.4,70.3,98.3,95.2
		c43.9,24.9,105.8,37.3,185.8,37.3c79.9,0,141.9-12.4,185.8-37.3c43.9-24.9,76.6-56.6,98.3-95.2c21.6-38.6,34.7-82.1,39.3-130.5
		c4.6-48.4,6.9-96.2,6.9-143.3V2h245.4v896.9c0,90.3-13.8,168.8-41.3,235.5c-27.5,66.7-66.5,122.7-116.9,167.8
		c-50.4,45.1-111,78.8-181.8,101.1c-70.7,22.2-149.3,33.4-235.8,33.4c-86.4,0-165.1-11.1-235.8-33.4
		c-70.7-22.3-131.3-55.9-181.8-101.1s-89.4-101.1-116.9-167.8c-27.5-66.7-41.3-145.2-41.3-235.5V2z"/>
</g>
<rect x="160.9" y="1629.2" width="1469.6" height="153.3"/>
</svg>
