<svg version="1.1" id="Layer_1" xmlns="http://www.w3.org/2000/svg" xmlns:xlink="http://www.w3.org/1999/xlink" x="0px" y="0px"
	 viewBox="0 0 1024 1024" style="enable-background:new 0 0 1024 1024;" xml:space="preserve">
<style type="text/css">
	.st0{fill:none;stroke:#000000;stroke-width:85.0394;stroke-miterlimit:10;}
	.st1{fill:none;stroke:#000000;stroke-width:85.0394;stroke-linecap:round;stroke-linejoin:bevel;stroke-miterlimit:10;}
</style>
<path class="st0" d="M767,443.1"/>
<path class="st1" d="M849.1,197.3"/>
<path class="st0" d="M822.8,884.5"/>
<path d="M935.2,469.3c-53.5-53.5-124.6-82.9-200.3-82.9H208.6L404,191c22.1-22.1,22.1-58,0-80.2c-22.1-22.1-58-22.1-80.2,0
	L27.3,407.3c-10.6,10.6-16.6,25.1-16.6,40.1s6,29.5,16.6,40.1l287.9,287.9c11.1,11.1,25.6,16.6,40.1,16.6c14.5,0,29-5.5,40.1-16.6
	c22.1-22.1,22.1-58,0-80.2L200,499.8H735c93.6,0,169.8,76.2,169.8,169.8c0,73.2-46.6,137.9-116,161.1c-29.7,9.9-45.7,42-35.8,71.7
	c7.9,23.7,30,38.7,53.8,38.7c6,0,12-0.9,18-2.9c55.9-18.7,103.9-53.8,138.8-101.5c35.7-48.8,54.6-106.6,54.6-167.2
	C1018.2,594,988.7,522.8,935.2,469.3z"/>
</svg>
