<svg version="1.1" id="Layer_1" xmlns="http://www.w3.org/2000/svg" xmlns:xlink="http://www.w3.org/1999/xlink" x="0px" y="0px"
	 viewBox="0 0 1065 1024" style="enable-background:new 0 0 1065 1024;" xml:space="preserve">
<path d="M819.2,901.2c0-11.1-4.1-20.7-12.2-28.8c-8-8-17.7-12.2-28.8-12.2s-20.7,4.1-28.8,12.2c-8,8-12.2,17.7-12.2,28.8
	c0,11.1,4.1,20.7,12.2,28.8c8,8,17.7,12.2,28.8,12.2s20.7-4.1,28.8-12.2C815.3,921.9,819.2,912.2,819.2,901.2z M983,901.2
	c0-11.1-4.1-20.7-12.2-28.8c-8-8-17.7-12.2-28.8-12.2c-11.1,0-20.7,4.1-28.8,12.2c-8,8-12.2,17.7-12.2,28.8
	c0,11.1,4.1,20.7,12.2,28.8c8.1,8.1,17.7,12.2,28.8,12.2c11.1,0,20.7-4.1,28.8-12.2C979,921.9,983,912.2,983,901.2z M1065,757.8
	v204.8c0,17.1-5.9,31.6-17.9,43.6c-12,12-26.5,17.9-43.6,17.9h-942c-17.1,0-31.6-5.9-43.6-17.9C5.9,994.2,0,979.6,0,962.5V757.8
	c0-17.1,5.9-31.6,17.9-43.6s26.5-17.9,43.6-17.9h273.3c9,23.8,23.9,43.6,45.1,58.9c21.1,15.4,44.7,23,70.7,23h163.9
	c26.1,0,49.6-7.6,70.7-23c21.1-15.4,36.2-34.9,45.1-58.9h273.3c17.1,0,31.6,5.9,43.6,17.9C1059,726.1,1065,740.7,1065,757.8z
	 M857,343c-7.2,17.1-19.9,25.6-37.8,25.6H655.3v286.7c0,11.1-4.1,20.7-12.2,28.8c-8,8-17.7,12.2-28.8,12.2H450.5
	c-11.1,0-20.7-4.1-28.8-12.2c-8.1-8.1-12.2-17.7-12.2-28.8V368.7H245.8c-17.9,0-30.6-8.5-37.8-25.6c-7.2-16.6-4.3-31.4,9-44.2
	L503.7,12.2c7.7-8,17.3-12.2,28.8-12.2c11.5,0,21.1,4.1,28.8,12.2l286.6,286.7C861.2,311.7,864.1,326.4,857,343z"/>
</svg>
