<?xml version="1.0" encoding="utf-8"?>
<!-- Generator: Adobe Illustrator 23.1.1, SVG Export Plug-In . SVG Version: 6.00 Build 0)  -->
<svg version="1.1" id="Layer_1" xmlns="http://www.w3.org/2000/svg" xmlns:xlink="http://www.w3.org/1999/xlink" x="0px" y="0px"
	 viewBox="0 0 1024 1024" style="enable-background:new 0 0 1024 1024;" xml:space="preserve">
<path d="M782.5,879.1c0-10.5-3.8-19.5-11.5-27.2c-7.6-7.6-16.7-11.5-27.2-11.5s-19.5,3.8-27.2,11.5c-7.6,7.6-11.5,16.7-11.5,27.2
	s3.8,19.5,11.5,27.2c7.6,7.6,16.7,11.5,27.2,11.5s19.5-3.8,27.2-11.5S782.5,889.5,782.5,879.1z M937,879.1
	c0-10.5-3.8-19.5-11.5-27.2c-7.6-7.6-16.7-11.5-27.2-11.5s-19.5,3.8-27.2,11.5c-7.6,7.6-11.5,16.7-11.5,27.2s3.8,19.5,11.5,27.2
	s16.7,11.5,27.2,11.5s19.5-3.8,27.2-11.5C933.2,898.6,937,889.5,937,879.1z M1014.3,743.8V937c0,16.1-5.6,29.8-16.9,41.1
	c-11.3,11.3-25,16.9-41.1,16.9H67.7c-16.1,0-29.8-5.6-41.1-16.9c-11.3-11.3-16.9-25-16.9-41.1V743.8c0-16.1,5.6-29.8,16.9-41.1
	c11.3-11.3,25-16.9,41.1-16.9h257.8c8.5,22.5,22.6,41.1,42.6,55.5c19.9,14.5,42.2,21.7,66.7,21.7h154.6c24.6,0,46.8-7.2,66.7-21.7
	c19.9-14.5,34.1-33,42.6-55.5h257.8c16.1,0,29.8,5.6,41.1,16.9C1008.7,714,1014.3,727.7,1014.3,743.8z M818.1,352.6
	c-6.8,16.1-18.7,24.1-35.6,24.1H627.9v270.5c0,10.5-3.8,19.5-11.5,27.2c-7.6,7.6-16.7,11.5-27.2,11.5H434.7
	c-10.5,0-19.5-3.8-27.2-11.5s-11.5-16.7-11.5-27.2V376.8H241.5c-16.9,0-28.8-8-35.6-24.1c-6.8-15.7-4-29.6,8.5-41.7L484.8,40.5
	C492.1,32.9,501.1,29,512,29c10.9,0,19.9,3.8,27.2,11.5L809.6,311C822.1,323,824.9,336.9,818.1,352.6z"/>
</svg>
