<?xml version="1.0" encoding="utf-8"?>
<!-- Generator: Adobe Illustrator 23.1.1, SVG Export Plug-In . SVG Version: 6.00 Build 0)  -->
<svg version="1.1" id="Layer_1" xmlns="http://www.w3.org/2000/svg" xmlns:xlink="http://www.w3.org/1999/xlink" x="0px" y="0px"
	 viewBox="0 0 1024 1024" style="enable-background:new 0 0 1024 1024;" xml:space="preserve">
<path d="M787.7,886.2c0-10.7-3.9-19.9-11.7-27.7c-7.7-7.7-17-11.7-27.7-11.7s-19.9,3.9-27.7,11.7c-7.7,7.7-11.7,17-11.7,27.7
	c0,10.7,3.9,19.9,11.7,27.7c7.7,7.7,17,11.7,27.7,11.7s19.9-3.9,27.7-11.7C783.9,906.1,787.7,896.8,787.7,886.2z M945.2,886.2
	c0-10.7-3.9-19.9-11.7-27.7c-7.7-7.7-17-11.7-27.7-11.7s-19.9,3.9-27.7,11.7c-7.7,7.7-11.7,17-11.7,27.7c0,10.7,3.9,19.9,11.7,27.7
	c7.8,7.8,17,11.7,27.7,11.7s19.9-3.9,27.7-11.7C941.3,906.1,945.2,896.8,945.2,886.2z M1024,748.3v196.9c0,16.4-5.7,30.4-17.2,41.9
	c-11.5,11.5-25.5,17.2-41.9,17.2H59.1c-16.4,0-30.4-5.7-41.9-17.2S0,961.6,0,945.2V748.3c0-16.4,5.7-30.4,17.2-41.9
	c11.5-11.5,25.5-17.2,41.9-17.2h262.8c8.7,22.9,23,41.9,43.4,56.6c20.3,14.8,43,22.1,68,22.1h157.6c25.1,0,47.7-7.3,68-22.1
	c20.3-14.8,34.8-33.6,43.4-56.6h262.8c16.4,0,30.4,5.7,41.9,17.2C1018.3,717.9,1024,731.9,1024,748.3z M824,349.5
	c-6.9,16.4-19.1,24.6-36.3,24.6H630.1v275.7c0,10.7-3.9,19.9-11.7,27.7c-7.7,7.7-17,11.7-27.7,11.7H433.2
	c-10.7,0-19.9-3.9-27.7-11.7c-7.8-7.8-11.7-17-11.7-27.7V374.2H236.3c-17.2,0-29.4-8.2-36.3-24.6c-6.9-16-4.1-30.2,8.7-42.5
	L484.3,31.4c7.4-7.7,16.6-11.7,27.7-11.7c11.1,0,20.3,3.9,27.7,11.7l275.6,275.7C828.1,319.4,830.9,333.5,824,349.5z"/>
</svg>
