<?xml version="1.0" encoding="utf-8"?>
<!-- Generator: Adobe Illustrator 23.1.1, SVG Export Plug-In . SVG Version: 6.00 Build 0)  -->
<svg version="1.1" id="Layer_1" xmlns="http://www.w3.org/2000/svg" xmlns:xlink="http://www.w3.org/1999/xlink" x="0px" y="0px"
	 viewBox="0 0 1024 1024" style="enable-background:new 0 0 1024 1024;" xml:space="preserve">
<path d="M907.6,688.4c-49.4,40.1-103.8,73.3-162.8,96.8L852,970.9l106.4,45.4c19.4,8.3,41.2-4.4,43.7-25.2l13.8-114.9L907.6,688.4z
	 M991.4,501.8c9.6-15.1,3.7-35.5-11.9-44.2L924.1,427c-14.8-8.2-32.8-2.9-41.9,11.3c-81.1,125.3-220.7,201.9-371.1,201.9
	c-47.2,0-93.2-8.4-136.9-22.7l132.9-230.1c1.4,0,2.6,0.4,4,0.4c1.4,0,2.7-0.4,4-0.4l100.8,174.6c61.6-17.7,117.5-50.8,162.9-96.5
	l-102.2-177c14.7-26.9,23.8-57.3,23.8-90.1C700.5,93.8,615.7,9,511.1,9S321.7,93.8,321.7,198.4c0,32.8,9.1,63.2,23.8,90.1
	L210.8,521.8c-24.8-22.9-47.3-48.5-66.4-76.9c-9.4-14-27.6-19-42.2-10.5L47.4,466c-15.5,9-21,29.4-11.1,44.3
	C67,557,104.7,597.6,146.7,632.7L6.1,876.2L20,991.1c2.5,20.9,24.4,33.5,43.7,25.2l106.4-45.4L309.8,729
	c63.5,24.1,131.5,37.4,201.3,37.4C706.5,766.4,887.6,665.8,991.4,501.8L991.4,501.8z M511.1,135.2c34.9,0,63.1,28.3,63.1,63.1
	s-28.3,63.1-63.1,63.1S448,233.2,448,198.4S476.2,135.2,511.1,135.2z"/>
</svg>
