<svg version="1.1" id="Layer_1" xmlns="http://www.w3.org/2000/svg" xmlns:xlink="http://www.w3.org/1999/xlink" x="0px" y="0px"
	 viewBox="0 0 1024 1024" style="enable-background:new 0 0 1024 1024;" xml:space="preserve">
<path d="M1006.4,829.8l-421-718.5c-16.2-27.6-44.6-41.5-73-41.5s-56.8,13.8-74.8,41.5L16.7,829.8c-30.6,55.1,9.8,124.4,74.7,124.4
	h842C998.1,954.1,1038.6,885.1,1006.4,829.8z M110.8,859.4l399.7-685.3l403.3,685.3H110.8z M512.4,672.1
	c-34.3,0-62.1,27.8-62.1,62.1c0,34.3,27.9,62.1,62.1,62.1s62-27.8,62-62.1C574.3,699.9,546.7,672.1,512.4,672.1z M465,369.9v189.5
	c0,26.3,21.3,47.4,47.4,47.4s47.4-21.2,47.4-47.4V369.9c0-26.1-21.1-47.4-47.4-47.4C486.1,322.5,465,343.8,465,369.9z"/>
</svg>
