<?xml version="1.0" encoding="utf-8"?>
<!-- Generator: Adobe Illustrator 18.0.0, SVG Export Plug-In . SVG Version: 6.00 Build 0)  -->
<!DOCTYPE svg PUBLIC "-//W3C//DTD SVG 1.1//EN" "http://www.w3.org/Graphics/SVG/1.1/DTD/svg11.dtd">
<svg version="1.1" id="Layer_1" xmlns="http://www.w3.org/2000/svg" xmlns:xlink="http://www.w3.org/1999/xlink" x="0px" y="0px"
	 viewBox="0 490 960 630" enable-background="new 0 490 960 630" xml:space="preserve">
<path d="M480,570.5c-38.5,0-70,14-98,38.5c-28,28-38.5,59.5-38.5,98v115.5c0,14,3.5,28,14,45.5s21,24.5,31.5,24.5v35
	c0,3.5,0,7-3.5,10.5s-3.5,7-7,7L214,1050c-3.5,0-3.5,3.5-7,7c-3.5,3.5-3.5,7-3.5,10.5v42c0,3.5,0,7,3.5,7c3.5,3.5,3.5,3.5,7,3.5
	h528.5c3.5,0,7,0,7-3.5c3.5-3.5,3.5-3.5,3.5-7v-42c0-3.5,0-7-3.5-10.5c-3.5-3.5-3.5-7-7-7L578,945c-3.5-3.5-3.5-3.5-7-7
	c-3.5-3.5-3.5-7-3.5-10.5v-35c10.5,0,21-7,31.5-24.5c10.5-17.5,14-31.5,14-45.5V707c0-38.5-14-70-38.5-98
	C550,584.5,518.5,570.5,480,570.5z"/>
</svg>
