<?xml version="1.0" encoding="utf-8"?>
<!-- Generator: Adobe Illustrator 18.0.0, SVG Export Plug-In . SVG Version: 6.00 Build 0)  -->
<!DOCTYPE svg PUBLIC "-//W3C//DTD SVG 1.1//EN" "http://www.w3.org/Graphics/SVG/1.1/DTD/svg11.dtd" [
	<!ENTITY ns_flows "http://ns.adobe.com/Flows/1.0/">
	<!ENTITY ns_extend "http://ns.adobe.com/Extensibility/1.0/">
	<!ENTITY ns_ai "http://ns.adobe.com/AdobeIllustrator/10.0/">
	<!ENTITY ns_graphs "http://ns.adobe.com/Graphs/1.0/">
]>
<svg version="1.1" id="Layer_1" xmlns:x="&ns_extend;" xmlns:i="&ns_ai;" xmlns:graph="&ns_graphs;"
	 xmlns="http://www.w3.org/2000/svg" xmlns:xlink="http://www.w3.org/1999/xlink" xmlns:a="http://ns.adobe.com/AdobeSVGViewerExtensions/3.0/"
	 x="0px" y="0px" viewBox="0 0 35.5 47.1" enable-background="new 0 0 35.5 47.1" xml:space="preserve">
<g id="_x38_lVeWt.tif">
	<g>
		<path fill="#1A1A1A" d="M24.5,19.6c0.3-0.3,0.5-0.5,0.7-0.7c0.4-0.4,0.9-0.7,1.1-1.2c0.2-0.5,0.1-1.1,0.1-1.7c0-0.1,0-0.3,0-0.4
			c0-0.7-0.2-1.3-0.7-1.8c-1.9-2-3.7-4.1-5.6-6.1c-0.6-0.6-1.3-0.9-2.2-0.9c-4.8,0-9.6,0-14.4,0c-1.7,0-2.9,1.3-2.9,2.9
			c0,9.4,0,18.8,0,28.2c0,1.9,1.2,3.1,3.1,3.1c3.1,0,6.3,0,9.4,0c3.4,0,6.8,0,10.3,0c1.7,0,2.9-1.2,3-2.8c0-2.7,0-5.4,0-8.1
			c0-0.1,0-0.1-0.1-0.3c-0.6,0.6-1.1,1.1-1.6,1.6c-0.1,0.1-0.2,0.4-0.2,0.6c0,2,0,3.9,0,5.9c0,0.9-0.3,1.2-1.2,1.2
			c-6.4,0-12.8,0-19.1,0c-1.3,0-1.5-0.2-1.5-1.6c0-9.2,0-18.5,0-27.7c0-0.9,0.3-1.2,1.2-1.2c4.6,0,9.2,0,13.8,0c0.1,0,0.3,0,0.4,0
			c0,0.2,0,0.3,0,0.5c0,1.7,0,3.3,0,5c0,0.8,0.4,1.3,1.3,1.3c1.6,0,3.2,0,4.8,0c0.5,0,0.5,0,0.5,0.5C24.5,17.2,24.5,18.3,24.5,19.6z
			 M17.9,28.7c1.2,1.2,2.4,2.4,3.6,3.6c3.8-3.8,7.6-7.6,11.3-11.3c-1.2-1.2-2.4-2.4-3.6-3.6C25.5,21.1,21.7,24.9,17.9,28.7z
			 M16.8,29.6c-0.2,0.3-0.4,0.5-0.5,0.8c-0.2,0.4-0.3,0.9-0.5,1.3c-0.4,1.2-0.9,2.3-1.3,3.5c0,0.1,0,0.3,0,0.4c0.1,0.1,0.3,0,0.4,0
			c0,0,0.1,0,0.1,0c1.6-0.6,3.2-1.2,4.8-1.8c0.2-0.1,0.5-0.3,0.7-0.4C19.3,32.1,18.1,30.9,16.8,29.6z M30.3,16.3
			c1.2,1.2,2.4,2.4,3.6,3.7c1.1-1.1,1.2-2.8,0.1-3.8C33,15.1,31.3,15.2,30.3,16.3z"/>
		<path fill-rule="evenodd" clip-rule="evenodd" fill="#1A1A1A" d="M24.5,19.6c0-1.3,0-2.5,0-3.6c0-0.5,0-0.5-0.5-0.5
			c-1.6,0-3.2,0-4.8,0c-0.8,0-1.3-0.4-1.3-1.3c0-1.7,0-3.3,0-5c0-0.1,0-0.3,0-0.5c-0.1,0-0.3,0-0.4,0c-4.6,0-9.2,0-13.8,0
			c-0.9,0-1.2,0.3-1.2,1.2c0,9.2,0,18.5,0,27.7c0,1.3,0.2,1.6,1.5,1.6c6.4,0,12.8,0,19.1,0c0.9,0,1.2-0.3,1.2-1.2c0-2,0-3.9,0-5.9
			c0-0.2,0.1-0.4,0.2-0.6c0.5-0.5,1-1.1,1.6-1.6c0,0.1,0.1,0.2,0.1,0.3c0,2.7,0,5.4,0,8.1c0,1.7-1.2,2.8-3,2.8c-3.4,0-6.8,0-10.3,0
			c-3.1,0-6.3,0-9.4,0c-1.9,0-3.1-1.2-3.1-3.1c0-9.4,0-18.8,0-28.2c0-1.7,1.2-2.9,2.9-2.9c4.8,0,9.6,0,14.4,0c0.8,0,1.6,0.3,2.2,0.9
			c1.9,2,3.7,4.1,5.6,6.1c0.5,0.5,0.7,1.1,0.7,1.8c0,0.1,0,0.3,0,0.4c0,0.6,0.1,1.2-0.1,1.7c-0.2,0.5-0.7,0.8-1.1,1.2
			C25,19.1,24.8,19.3,24.5,19.6z"/>
		<path fill-rule="evenodd" clip-rule="evenodd" fill="#1A1A1A" d="M17.9,28.7c3.8-3.8,7.6-7.5,11.3-11.3c1.2,1.2,2.4,2.4,3.6,3.6
			c-3.7,3.7-7.5,7.5-11.3,11.3C20.3,31.1,19.1,29.9,17.9,28.7z"/>
		<path fill-rule="evenodd" clip-rule="evenodd" fill="#1A1A1A" d="M16.8,29.6c1.3,1.3,2.5,2.5,3.8,3.7c-0.2,0.2-0.4,0.3-0.7,0.4
			c-1.6,0.6-3.2,1.2-4.8,1.8c0,0-0.1,0-0.1,0c-0.1,0-0.4,0-0.4,0c-0.1-0.1-0.1-0.3,0-0.4c0.4-1.2,0.9-2.3,1.3-3.5
			c0.2-0.4,0.3-0.9,0.5-1.3C16.5,30.1,16.7,29.9,16.8,29.6z"/>
		<path fill-rule="evenodd" clip-rule="evenodd" fill="#1A1A1A" d="M30.3,16.3c1-1.1,2.7-1.1,3.7-0.2c1.1,1.1,1,2.7-0.1,3.8
			C32.7,18.7,31.5,17.5,30.3,16.3z"/>
	</g>
</g>
</svg>
