<?xml version="1.0" encoding="utf-8"?>
<!-- Generator: Adobe Illustrator 23.1.1, SVG Export Plug-In . SVG Version: 6.00 Build 0)  -->
<svg version="1.1" id="Layer_1" xmlns="http://www.w3.org/2000/svg" xmlns:xlink="http://www.w3.org/1999/xlink" x="0px" y="0px"
	 viewBox="0 0 1024 1024" style="enable-background:new 0 0 1024 1024;" xml:space="preserve">
<style type="text/css">
	.st0{fill:#CECECE;}
</style>
<path class="st0" d="M932.8,61.2H91.2c-24.9,0-45.8,8.9-63.7,26.8C9.7,105.9,0.7,126.8,0.7,151.7v448.2c0,24.9,8.9,45.8,26.8,63.7
	c17.9,17.9,38.8,26.8,63.7,26.8h474.7l276.4,272.4V690.4h90.5c24.9,0,45.8-8.9,63.7-26.8c17.9-17.9,26.8-38.8,26.8-63.7V151.5
	c0-24.9-8.9-45.8-26.8-63.7C979.5,70.1,957.7,61.2,932.8,61.2z"/>
</svg>
