<?xml version="1.0" encoding="utf-8"?>
<!-- Generator: Adobe Illustrator 23.1.1, SVG Export Plug-In . SVG Version: 6.00 Build 0)  -->
<svg version="1.1" id="Layer_1" xmlns="http://www.w3.org/2000/svg" xmlns:xlink="http://www.w3.org/1999/xlink" x="0px" y="0px"
	 viewBox="0 0 1024 1024" style="enable-background:new 0 0 1024 1024;" xml:space="preserve">
<style type="text/css">
	.st0{fill:#565656;}
</style>
<path class="st0" d="M851.4,437.4H586.6V172.6c0-31.2-25.3-56.6-56.6-56.6h-36.1c-31.2,0-56.6,25.3-56.6,56.6v264.8H172.6
	c-31.2,0-56.6,25.3-56.6,56.6v36.1c0,31.2,25.3,56.6,56.6,56.6h264.8v264.8c0,31.2,25.3,56.6,56.6,56.6h36.1
	c31.2,0,56.6-25.3,56.6-56.6V586.6h264.8c31.2,0,56.6-25.3,56.6-56.6v-36.1C908,462.7,882.7,437.4,851.4,437.4z"/>
</svg>
