<?xml version="1.0" encoding="utf-8"?>
<!-- Generator: Adobe Illustrator 23.1.1, SVG Export Plug-In . SVG Version: 6.00 Build 0)  -->
<svg version="1.1" id="Layer_1" xmlns="http://www.w3.org/2000/svg" xmlns:xlink="http://www.w3.org/1999/xlink" x="0px" y="0px"
	 viewBox="0 0 1024 1024" style="enable-background:new 0 0 1024 1024;" xml:space="preserve">
<style type="text/css">
	.st0{fill:#CECECE;}
	.st1{fill:none;stroke:#FFFFFF;stroke-width:78;stroke-miterlimit:10;}
</style>
<path class="st0" d="M697.8,647.1H985V89.7c0-28.1-22.6-50.7-50.7-50.7H89.7C61.6,39,39,61.6,39,89.7v844.6
	c0,28.1,22.6,50.7,50.7,50.7h557.4V697.8C647.1,669.9,669.9,647.1,697.8,647.1z M970.2,763.3L763.3,970.2
	c-9.5,9.5-22.4,14.8-35.9,14.8h-12.7V714.7H985v12.9C985,740.9,979.7,753.8,970.2,763.3z"/>
<line class="st1" x1="476" y1="165.9" x2="476" y2="751.7"/>
<line class="st1" x1="183.1" y1="458.8" x2="768.9" y2="458.8"/>
</svg>
