<?xml version="1.0" encoding="utf-8"?>
<!-- Generator: Adobe Illustrator 18.0.0, SVG Export Plug-In . SVG Version: 6.00 Build 0)  -->
<!DOCTYPE svg PUBLIC "-//W3C//DTD SVG 1.1//EN" "http://www.w3.org/Graphics/SVG/1.1/DTD/svg11.dtd" [
	<!ENTITY ns_flows "http://ns.adobe.com/Flows/1.0/">
	<!ENTITY ns_extend "http://ns.adobe.com/Extensibility/1.0/">
	<!ENTITY ns_ai "http://ns.adobe.com/AdobeIllustrator/10.0/">
	<!ENTITY ns_graphs "http://ns.adobe.com/Graphs/1.0/">
]>
<svg version="1.1" id="Layer_1" xmlns:x="&ns_extend;" xmlns:i="&ns_ai;" xmlns:graph="&ns_graphs;"
	 xmlns="http://www.w3.org/2000/svg" xmlns:xlink="http://www.w3.org/1999/xlink" xmlns:a="http://ns.adobe.com/AdobeSVGViewerExtensions/3.0/"
	 x="0px" y="0px" viewBox="0 0 35.5 47.1" enable-background="new 0 0 35.5 47.1" xml:space="preserve">
<path fill="#FCFCFC" d="M15.6,10.5l-1.1,0.8l-13.2,10L0.5,22l0.7,0.6l13.2,10l1.1,0.8V32v-5.8c8.6,0.2,13.1,3.2,15.5,6.3
	c2.4,3.2,2.7,6.2,2.7,6.2l1.4,0c0,0,0-0.1,0-0.1c0,0,0,0,0,0c0-0.1,0.2-5.2-2.2-10.3c-2.4-5.1-7.4-10.2-17.3-10.5v-5.9V10.5z
	 M14.2,13.3v5.1v0.7h0.7c9.9,0,14.4,4.8,16.7,9.7c0.7,1.4,1.1,2.8,1.4,4.1c-0.3-0.4-0.5-0.9-0.8-1.3c-2.7-3.5-7.8-6.9-17.3-6.9h-0.7
	v0.7v5.1L2.8,22L14.2,13.3z"/>
</svg>
