<?xml version="1.0" encoding="utf-8"?>
<!-- Generator: Adobe Illustrator 23.1.1, SVG Export Plug-In . SVG Version: 6.00 Build 0)  -->
<svg version="1.1" id="Layer_1" xmlns="http://www.w3.org/2000/svg" xmlns:xlink="http://www.w3.org/1999/xlink" x="0px" y="0px"
	 viewBox="0 0 1024 1024" style="enable-background:new 0 0 1024 1024;" xml:space="preserve">
<style type="text/css">
	.st0{fill:#848484;}
</style>
<path class="st0" d="M984.5,706.3V140.8c0-55.9-45.3-101.2-101.2-101.2H140.8c-55.9,0-101.2,45.3-101.2,101.2v742.5
	c0,55.9,45.3,101.2,101.2,101.2h565.6c26.9,0,52.6-10.7,71.6-29.7l176.9-176.9C973.8,758.9,984.5,733.2,984.5,706.3z M714.5,875
	V714.5h160.6L714.5,875z M883.2,140.8v472.5H663.9c-28,0-50.6,22.7-50.6,50.6v219.4H140.8V140.8H883.2z"/>
</svg>
