<?xml version="1.0" encoding="utf-8"?>
<!-- Generator: Adobe Illustrator 18.0.0, SVG Export Plug-In . SVG Version: 6.00 Build 0)  -->
<!DOCTYPE svg PUBLIC "-//W3C//DTD SVG 1.1//EN" "http://www.w3.org/Graphics/SVG/1.1/DTD/svg11.dtd">
<svg version="1.1" id="Layer_1" xmlns="http://www.w3.org/2000/svg" xmlns:xlink="http://www.w3.org/1999/xlink" x="0px" y="0px"
	 viewBox="194 0 578 560" enable-background="new 194 0 578 560" xml:space="preserve">
<path fill="#7F7F7F" d="M479.2,36.8c-33.6,0-61.8,11.9-85.7,35.3c-23.8,23.8-35.3,52.1-35.3,85.7v100.7c0,12.4,4,25.6,12.4,39.7
	s17.7,20.8,27.8,20.8v30.5c0,2.6-0.9,5.7-2.2,8.8c-1.8,3.1-3.5,5.3-6.2,7.1l-144.4,92.7c-2.2,1.3-4.4,3.5-6.2,6.6
	c-1.8,3.1-2.2,6.2-2.2,8.8V511c0,2.6,0.9,4.9,3.1,7.1c2.2,2.2,4.4,3.1,7.1,3.1H711c2.6,0,4.9-0.9,7.1-3.1s3.1-4.4,3.1-7.1v-37.5
	c0-2.6-0.9-5.7-2.2-8.8c-1.8-3.1-3.5-5.3-6.2-6.6l-144.4-92.7c-2.2-1.8-4.4-4-6.2-7.1c-1.8-3.1-2.2-6.2-2.2-8.8V319
	c10.2,0,19.4-7.1,27.8-20.8c8.4-14.1,12.4-27.4,12.4-39.7V157.8c0-33.6-11.9-61.8-35.3-85.7C541,48.8,512.7,36.8,479.2,36.8z"/>
</svg>
