<?xml version="1.0" encoding="utf-8"?>
<!-- Generator: Adobe Illustrator 23.1.1, SVG Export Plug-In . SVG Version: 6.00 Build 0)  -->
<svg version="1.1" id="Layer_1" xmlns="http://www.w3.org/2000/svg" xmlns:xlink="http://www.w3.org/1999/xlink" x="0px" y="0px"
	 viewBox="0 0 1024 1024" style="enable-background:new 0 0 1024 1024;" xml:space="preserve">
<path d="M784.9,882.4c0-10.6-3.9-19.7-11.6-27.4c-7.7-7.7-16.9-11.6-27.4-11.6s-19.7,3.9-27.4,11.6c-7.7,7.7-11.6,16.9-11.6,27.4
	s3.9,19.7,11.6,27.4c7.7,7.7,16.9,11.6,27.4,11.6s19.7-3.9,27.4-11.6S784.9,893,784.9,882.4z M940.9,882.4
	c0-10.6-3.9-19.7-11.6-27.4c-7.7-7.7-16.9-11.6-27.4-11.6s-19.7,3.9-27.4,11.6c-7.7,7.7-11.6,16.9-11.6,27.4s3.9,19.7,11.6,27.4
	s16.9,11.6,27.4,11.6s19.7-3.9,27.4-11.6C937.1,902.1,940.9,893,940.9,882.4z M1018.9,746v195c0,16.2-5.7,30.1-17.1,41.4
	c-11.4,11.4-25.2,17.1-41.4,17.1H63.6c-16.2,0-30.1-5.7-41.4-17.1S5.1,957.2,5.1,940.9V746c0-16.2,5.7-30.1,17.1-41.4
	s25.2-17.1,41.4-17.1h260.1c8.5,22.7,22.8,41.4,43,56.1c20.1,14.6,42.5,21.9,67.3,21.9h156c24.8,0,47.2-7.3,67.3-21.9
	c20.1-14.6,34.4-33.3,43-56.1h260.1c16.2,0,30.1,5.7,41.4,17.1C1013.2,715.9,1018.9,729.7,1018.9,746z M820.9,351.2
	c-6.9,16.2-18.9,24.4-35.9,24.4H629v272.9c0,10.6-3.9,19.7-11.6,27.4c-7.7,7.7-16.9,11.6-27.4,11.6H434c-10.6,0-19.7-3.9-27.4-11.6
	S395,659,395,648.5V375.5h-156c-17.1,0-29-8.1-35.9-24.4c-6.9-15.8-4.1-29.9,8.5-42L484.6,36.2c7.3-7.7,16.4-11.6,27.4-11.6
	s20.1,3.9,27.4,11.6l272.9,272.9C824.9,321.3,827.8,335.3,820.9,351.2z"/>
</svg>
