<?xml version="1.0" encoding="UTF-8" standalone="no"?>
<svg
   xmlns:dc="http://purl.org/dc/elements/1.1/"
   xmlns:cc="http://creativecommons.org/ns#"
   xmlns:rdf="http://www.w3.org/1999/02/22-rdf-syntax-ns#"
   xmlns:svg="http://www.w3.org/2000/svg"
   xmlns="http://www.w3.org/2000/svg"
   xmlns:sodipodi="http://sodipodi.sourceforge.net/DTD/sodipodi-0.dtd"
   xmlns:inkscape="http://www.inkscape.org/namespaces/inkscape"
   sodipodi:docname="drawing.svg"
   inkscape:version="1.0beta1 (32d4812, 2019-09-19)"
   id="svg361"
   version="1.1"
   viewBox="0 0 3.1749999 3.175"
   height="12"
   width="12">
  <defs
     id="defs355" />
  <sodipodi:namedview
     inkscape:window-maximized="0"
     inkscape:window-y="23"
     inkscape:window-x="1258"
     inkscape:window-height="1209"
     inkscape:window-width="1600"
     units="px"
     showgrid="false"
     inkscape:document-rotation="0"
     inkscape:current-layer="layer1"
     inkscape:document-units="mm"
     inkscape:cy="16"
     inkscape:cx="16"
     inkscape:zoom="32.59375"
     inkscape:pageshadow="2"
     inkscape:pageopacity="0.0"
     borderopacity="1.0"
     bordercolor="#666666"
     pagecolor="#ffffff"
     id="base" />
  <metadata
     id="metadata358">
    <rdf:RDF>
      <cc:Work
         rdf:about="">
        <dc:format>image/svg+xml</dc:format>
        <dc:type
           rdf:resource="http://purl.org/dc/dcmitype/StillImage" />
        <dc:title></dc:title>
      </cc:Work>
    </rdf:RDF>
  </metadata>
  <g
     id="layer1"
     inkscape:groupmode="layer"
     inkscape:label="Layer 1">
    <path
       style="stroke-width:0.249402"
       inkscape:connector-curvature="0"
       fill="#7F7F7F"
       d="M 0.99729298,0.19920559 C 0.79777119,0.27402629 0.64812979,0.39872748 0.5234286,0.52342858 0.3987274,0.64812978 0.27402631,0.82271137 0.19920561,0.99729306 0.12438495,1.1968149 0.07450442,1.3713964 0.07450442,1.5958585 c 0,0.1995219 0.04988078,0.3990437 0.12470119,0.5985656 0.0748207,0.1995219 0.19952179,0.3491633 0.32422299,0.4738644 0.12470119,0.1247011 0.29928279,0.2494024 0.47386438,0.324223 0.19952202,0.074821 0.37410352,0.1247012 0.59856562,0.1247012 0.1995219,0 0.3990437,-0.049881 0.5985656,-0.1247012 C 2.3939461,2.9176909 2.5435875,2.7929896 2.6682886,2.6682885 2.7929897,2.5435874 2.917691,2.3690057 2.9925116,2.1944241 3.0673327,1.9949022 3.1172128,1.8203206 3.1172128,1.5958585 3.1172128,1.3963367 3.0673321,1.1968149 2.9925116,0.99729306 2.917691,0.79777117 2.7929897,0.64812978 2.6682886,0.52342858 2.5435875,0.39872748 2.3690058,0.27402629 2.1944242,0.19920559 2.0198426,0.12438489 1.8203207,0.07450443 1.5958586,0.07450443 c -0.2244621,0 -0.4239839,0.02494019 -0.59856562,0.12470116 z M 1.7455,0.27402625 c 0.024939,0.02494 0.049881,0.02494 0.099761,0.0498808 0.049881,0.02494 0.099761,0.02494 0.1247011,0.0498808 0.049881,0 0.074821,0.0249399 0.099761,0.0748207 0.024939,0.02494 0.024939,0.0748207 0.024939,0.12470119 l -0.024939,0.02494 c -0.02494,0 -0.049881,0 -0.099761,0 -0.049881,0 -0.099761,-0.02494 -0.1496414,-0.0498808 0,0 0,0 0,0 0,0 0,0.02494 0,0.02494 0,0 0,0.0249399 0,0.0249399 0,0 0,0.02494 0,0.02494 0,0 0,0.02494 0,0.02494 0.02494,0 0.049881,0.0249399 0.1247012,0.0498808 0.049881,0.02494 0.099761,0.0498808 0.1247012,0.0748207 0.024939,0.02494 0.049881,0.0498808 0.099761,0.0748207 0.049881,0.02494 0.074821,0.0748207 0.074821,0.099761 -0.02494,0.02494 -0.02494,0.02494 -0.049881,0.0498808 -0.024939,0 -0.049881,0 -0.049881,0 -0.024939,0 -0.024939,0 -0.074821,0 -0.024939,0 -0.049881,0 -0.074821,0 -0.02494,0.0249404 -0.02494,0.0748211 -0.02494,0.099761 -0.049881,0.02494 -0.074821,0.02494 -0.099761,0.049881 -0.02494,0.024939 -0.02494,0.049881 -0.049881,0.049881 0,0.024939 -0.024939,0.049881 -0.024939,0.074821 0,0.02494 -0.02494,0.074821 -0.02494,0.099761 0,0.02494 -0.024939,0.049881 -0.049881,0.074821 -0.024939,0.02494 -0.024939,0.049881 -0.049881,0.049881 -0.02494,0 -0.02494,0.049881 0,0.074821 0,0.02494 0,0.049881 0,0.074821 0,0.02494 0,0.049881 -0.02494,0.099761 0,0.02494 -0.02494,0.049881 -0.02494,0.074821 h -0.024939 c 0,0 -0.02494,-0.024939 -0.049881,-0.024939 -0.02494,0 -0.02494,-0.02494 -0.049881,-0.049881 -0.024939,-0.024941 -0.024939,-0.024941 -0.049881,-0.049881 -0.024939,-0.02494 -0.024939,-0.049881 -0.049881,-0.074821 0,-0.024939 -0.02494,-0.024939 -0.049881,-0.024939 -0.02494,0 -0.049881,0 -0.099761,0 -0.02494,0 -0.049881,0 -0.074821,0 -0.024939,0 -0.049881,0.024939 -0.049881,0.049881 -0.02494,0.049881 0,0.099761 0.02494,0.1496414 0.02494,0.049881 0.074821,0.049881 0.099761,0 0.02494,-0.02494 0.049881,-0.049881 0.074821,-0.049881 0.02494,0 0.049881,0 0.049881,0.02494 0,0.02494 0.02494,0.049881 0.02494,0.074821 0,0.024939 0,0.049881 0,0.074821 0,0 0.024939,0 0.074821,0.02494 0.02494,0 0.049881,0.02494 0.074821,0.049881 0,0 0,0.02494 0,0.074821 0,0.049881 0,0.074821 0,0.074821 0.024941,0.049881 0.074822,0.02494 0.1745824,-0.02494 0.024939,-0.02494 0.049881,-0.02494 0.099761,-0.049881 0.049881,-0.02494 0.074821,-0.02494 0.099761,-0.02494 0.02494,0 0.074821,0 0.1247011,0 0.049881,0 0.074821,0 0.099761,0 0.02494,0.02494 0.074821,0.02494 0.1247011,0.049881 0.049881,0.02494 0.099761,0.02494 0.1247012,0.049881 0.02494,0 0.049881,0.02494 0.099761,0.02494 0.049881,0 0.074821,0 0.099761,0.024939 0,0.049881 -0.02494,0.099761 -0.049881,0.1745817 -0.024939,0.049881 -0.04988,0.099761 -0.099761,0.1247012 -0.024939,0.024939 -0.074821,0.074821 -0.1247012,0.1247011 C 2.1196018,2.8179351 1.92008,2.9176961 1.7454983,2.9176961 c 0,-0.02494 -0.024939,-0.02494 -0.024939,-0.049881 0,-0.02494 0,-0.02494 0,-0.02494 0,-0.02494 0,-0.02494 0,-0.049881 -0.02494,0 -0.074821,-0.02494 -0.099761,-0.049881 -0.024941,-0.02494 -0.049881,-0.04988 -0.074821,-0.07482 -0.024939,-0.02494 -0.049881,-0.049881 -0.049881,-0.099761 0,-0.02494 0,-0.074821 0.02494,-0.099761 0.02494,-0.02494 0.049881,-0.074821 0.049881,-0.099761 0,-0.02494 0.02494,-0.074821 0,-0.099761 -0.049881,0 -0.099761,0 -0.1496414,-0.024939 -0.049881,-0.024941 -0.099761,-0.049881 -0.1496414,-0.099761 -0.049881,-0.049881 -0.099761,-0.074821 -0.1496414,-0.074821 -0.024939,0 -0.049881,-0.02494 -0.099761,-0.02494 -0.0498808,0 -0.0748208,-0.02494 -0.099761,-0.049881 -0.0249399,-0.024939 -0.0498808,-0.024939 -0.0748207,-0.049881 0,0 -0.0249399,-0.024939 -0.0498808,-0.024939 -0.02494,0 -0.0498808,-0.02494 -0.0498808,-0.049881 -0.02494,0 -0.0498808,-0.02494 -0.0498808,-0.02494 0,-0.049881 0,-0.099761 -0.0498808,-0.1496413 -0.02494,-0.074821 -0.0498798,-0.099761 -0.0498798,-0.1247013 0,-0.049881 0,-0.1247011 -0.02494,-0.224462 -0.0249419,-0.099764 -0.0249419,-0.1745848 -0.0249419,-0.2494056 0,-0.049881 0.02494,-0.0997607 0.0748207,-0.19952179 0.0498808,-0.0997609 0.0748207,-0.17458159 0.0748207,-0.24940228 0,0 0,-0.02494 -0.02494,-0.0498808 -0.02494,-0.02494 -0.02494,-0.0498808 -0.02494,-0.0498808 0,-0.02494 0.02494,-0.0498808 0.0997609,-0.099761 0.0498808,-0.02494 0.0997609,-0.0498808 0.12470119,-0.0748207 0.02494,0 0.0748207,0 0.1247011,0 0.0498806,0 0.0997609,0 0.12470115,0 0.02494,0 0.049881,0 0.099761,-0.02494 0.049881,0 0.099761,-0.02494 0.1247012,-0.02494 0.02494,0 0.049881,-0.0249399 0.099761,-0.0249399 0.049881,-0.02494 0.074821,-0.02494 0.099761,-0.0498808 0.1496414,0.02494 0.1745816,0.02494 0.1995224,0.0249396 z M 1.5709184,0.57330908 c -0.02494,0.02494 -0.02494,0.02494 -0.02494,0.0498808 0,0 -0.02494,0.02494 -0.02494,0.02494 -0.024939,0 -0.024939,0 -0.049881,-0.02494 0,0 -0.02494,0.02494 -0.049881,0.0748207 -0.02494,0.02494 -0.02494,0.0498808 -0.049881,0.0748207 0.024939,0.02494 0.049881,0.02494 0.099761,0.0498808 0.049881,0.02494 0.074821,0.02494 0.1496414,0.02494 0.049881,0 0.099761,0.02494 0.099761,0.02494 0,0 0,-0.02494 -0.024939,-0.0498808 -0.02494,-0.0249399 -0.02494,-0.0748207 -0.049881,-0.12470109 -0.02494,-0.0498808 -0.02494,-0.0748207 -0.02494,-0.099761 -0.024939,-0.0498808 -0.024939,-0.02494 -0.04988,-0.0249401 z"
       id="path126" />
  </g>
</svg>
