<?xml version="1.0" encoding="utf-8"?>
<!-- Generator: Adobe Illustrator 23.1.1, SVG Export Plug-In . SVG Version: 6.00 Build 0)  -->
<svg version="1.1" id="Layer_1" xmlns="http://www.w3.org/2000/svg" xmlns:xlink="http://www.w3.org/1999/xlink" x="0px" y="0px"
	 viewBox="0 0 1024 1024" style="enable-background:new 0 0 1024 1024;" xml:space="preserve">
<path d="M512,1c12,0,22.1,4.1,30.3,12.3L692.7,164c8.4,8.4,12.6,18.5,12.6,30.3s-4.2,21.8-12.5,30.1c-8.3,8.3-18.4,12.5-30.1,12.5
	c-11.8,0-21.8-4.2-30.3-12.6l-77.8-77.8v323.1h323.1l-77.8-77.8c-8.4-8.4-12.6-18.5-12.6-30.3c0-11.8,4.2-21.8,12.5-30.1
	c8.3-8.3,18.4-12.5,30.1-12.5c11.8,0,21.8,4.2,30.3,12.6l150.7,150.4c8.2,8.2,12.3,18.3,12.3,30.3s-4.1,22-12.3,29.9L860,692.7
	c-8.4,8.4-18.5,12.6-30.3,12.6c-11.8,0-21.8-4.2-30.1-12.5c-8.3-8.3-12.5-18.4-12.5-30.1c0-11.8,4.2-21.8,12.6-30.3l77.8-77.8H554.6
	v323.1l77.8-77.8c8.4-8.4,18.5-12.6,30.3-12.6s21.8,4.2,30.1,12.5c8.3,8.3,12.5,18.4,12.5,30.1c0,11.8-4.2,21.8-12.6,30.3
	l-150.4,150.7c-8.2,8.2-18.3,12.3-30.3,12.3c-11.8,0-21.7-4.1-29.9-12.3L331.3,860c-8.4-8.4-12.6-18.5-12.6-30.3s4.2-21.8,12.5-30.1
	s18.4-12.5,30.1-12.5c11.8,0,21.8,4.2,30.3,12.6l77.8,77.8V554.6H146.3l77.8,77.8c8.4,8.4,12.6,18.5,12.6,30.3s-4.2,21.8-12.5,30.1
	c-8.3,8.3-18.4,12.5-30.1,12.5c-11.8,0-21.8-4.2-30.3-12.6L13.3,542.3C5,534.1,0.9,524,0.9,512s4.1-22.1,12.3-30.3L164,331.3
	c8.4-8.4,18.5-12.6,30.3-12.6c11.8,0,21.8,4.2,30.1,12.5c8.3,8.3,12.5,18.4,12.5,30.1c0,11.8-4.2,21.8-12.6,30.3l-77.8,77.8h323.1
	V146.3l-77.8,77.8c-8.4,8.4-18.5,12.6-30.3,12.6c-11.8,0-21.8-4.2-30.1-12.5c-8.3-8.3-12.5-18.4-12.5-30.1
	c0-11.8,4.2-21.8,12.6-30.3L481.7,13.2C489.9,5,500,0.9,512,1L512,1z"/>
</svg>
