<svg version="1.1" id="Layer_1" xmlns="http://www.w3.org/2000/svg" xmlns:xlink="http://www.w3.org/1999/xlink" x="0px" y="0px"
	 viewBox="0 0 1024 1024" style="enable-background:new 0 0 1024 1024;" xml:space="preserve">
<path d="M576,272V0H176c-26.6,0-48,21.4-48,48v928c0,26.6,21.4,48,48,48h672c26.6,0,48-21.4,48-48V320H624
	C597.6,320,576,298.4,576,272z M384,560c0,8.8-7.2,16-16,16h-16c-17.7,0-32,14.3-32,32v64c0,17.7,14.3,32,32,32h16
	c8.8,0,16,7.2,16,16v32c0,8.8-7.2,16-16,16h-16c-53,0-96-43-96-96v-64c0-53,43-96,96-96h16c8.8,0,16,7.2,16,16V560z M472.5,768H448
	c-8.8,0-16-7.2-16-16v-32c0-8.8,7.2-16,16-16h24.5c11.9,0,20.8-7,20.8-13.2c0-2.6-1.5-5.3-4.2-7.7l-43.8-37.5
	c-16.9-14.4-26.7-35-26.7-56.3c0-42.6,38-77.2,84.8-77.2H528c8.8,0,16,7.2,16,16v32c0,8.8-7.2,16-16,16h-24.5
	c-11.9,0-20.8,7-20.8,13.2c0,2.6,1.5,5.3,4.2,7.7l43.8,37.5c16.9,14.4,26.7,35,26.7,56.3C557.3,733.3,519.3,768,472.5,768L472.5,768
	z M640,528v41.6c0,40.5,11.4,80.3,32,113.8c20.6-33.4,32-73.2,32-113.8V528c0-8.8,7.2-16,16-16h32c8.8,0,16,7.2,16,16v41.6
	c0,71-25.8,137.8-72.6,188.2c-6,6.5-14.5,10.2-23.4,10.2s-17.4-3.7-23.4-10.2C601.8,707.4,576,640.6,576,569.6V528
	c0-8.8,7.2-16,16-16h32C632.8,512,640,519.2,640,528z M882,210L686.2,14c-9-9-21.2-14-34-14H640v256h256v-12.2
	C896,231.2,891,219,882,210z"/>
</svg>
