<?xml version="1.0" encoding="utf-8"?>
<!-- Generator: Adobe Illustrator 23.1.1, SVG Export Plug-In . SVG Version: 6.00 Build 0)  -->
<svg version="1.1" id="Layer_1" xmlns="http://www.w3.org/2000/svg" xmlns:xlink="http://www.w3.org/1999/xlink" x="0px" y="0px"
	 viewBox="0 0 1024 1024" style="enable-background:new 0 0 1024 1024;" xml:space="preserve">
<path d="M405.2,385.7c-14.5-46.4-14.2-135.9-5.8-135.9C423.8,249.8,421.5,356.7,405.2,385.7z M400.3,522.5
	C378,581,350.2,648,318,704.2c53-20.3,113-49.8,182.3-63.5C463.5,612.9,428.1,572.9,400.3,522.5L400.3,522.5z M127.6,884.1
	c0,2.3,38.3-15.6,101.1-116.5C209.3,785.9,144.4,838.6,127.6,884.1z M624,318.7h269.9v650.8c0,26.4-21.2,47.6-47.6,47.6H50.8
	c-26.4,0-47.6-21.2-47.6-47.6V48.8c0-26.4,21.2-47.6,47.6-47.6h525.5v269.9C576.4,297.3,597.8,318.7,624,318.7z M573.6,605.1
	c-58-35.4-96.5-84-123.7-155.9c13-53.6,33.6-135,18-186c-13.6-85.2-122.9-76.8-138.5-19.7c-14.5,53-1.2,127.8,23.5,223.1
	c-33.6,80-83.2,187.2-118.2,248.6c-0.3,0-0.3,0.3-0.6,0.3C155.4,755.8,20.7,844.4,76,912.5c16.2,20,46.4,29,62.3,29
	c51.9,0,103.5-52.2,177.1-179.1c74.8-24.6,156.8-55.3,228.9-67.2c62.9,34.2,136.5,56.5,185.5,56.5c84.6,0,90.4-92.7,57.1-125.8
	C746.6,586.5,629.5,597.8,573.6,605.1z M880,209.6L685.5,15.1c-8.9-8.9-21-13.9-33.7-13.9h-11.9v254h254v-12.1
	C893.8,230.6,888.9,218.5,880,209.6z M755.9,687.7c11.9-7.8-7.2-34.5-124-26.1C739.3,707.4,755.9,687.7,755.9,687.7z"/>
</svg>
