<?xml version="1.0" encoding="UTF-8" standalone="no"?>
<svg
   version="1.1"
   id="Layer_1"
   x="0px"
   y="0px"
   viewBox="0 0 1024 1024"
   style="enable-background:new 0 0 1024 1024;"
   xml:space="preserve"
   sodipodi:docname="icon.svg"
   inkscape:version="1.3.2 (091e20e, 2023-11-25)"
   xmlns:inkscape="http://www.inkscape.org/namespaces/inkscape"
   xmlns:sodipodi="http://sodipodi.sourceforge.net/DTD/sodipodi-0.dtd"
   xmlns="http://www.w3.org/2000/svg"
   xmlns:svg="http://www.w3.org/2000/svg"><defs
   id="defs1" /><sodipodi:namedview
   id="namedview1"
   pagecolor="#ffffff"
   bordercolor="#000000"
   borderopacity="0.25"
   inkscape:showpageshadow="2"
   inkscape:pageopacity="0.0"
   inkscape:pagecheckerboard="0"
   inkscape:deskcolor="#d1d1d1"
   inkscape:zoom="0.88940775"
   inkscape:cx="321.00013"
   inkscape:cy="511.01421"
   inkscape:current-layer="Layer_1" />

<path
   id="path1"
   style="stroke-width:1.04148"
   d="m 608.66067,2.1110691 c -3.58009,-0.6248862 -6.15901,-0.079452 -6.99219,3.3574219 -1.66637,6.769608 1.45913,8.955228 5.9375,16.97461 4.47834,7.915233 24.89136,28.746375 32.49414,30.308594 7.60278,1.562216 21.45257,1.458737 18.32812,7.291016 -3.12442,5.728129 -19.05792,14.164446 -26.24414,19.892578 -7.18619,5.728133 -51.55314,30.409141 -64.67578,35.720701 -13.12261,5.41566 -52.38584,9.27143 -58.32226,5.41797 -5.93643,-3.74933 -26.24716,1.87363 -35.72461,1.45703 -9.3733,-0.52074 -54.36551,1.14483 -77.48633,-7.91602 -23.22498,-9.06086 -34.88815,-21.454778 -39.1582,-23.433588 -4.27008,-1.978811 -19.16282,-13.017625 -15.83008,-16.871093 3.33274,-3.853472 3.54047,-7.186321 18.43359,-18.642578 14.89316,-11.560408 14.89164,-10.831371 24.05664,-21.558594 8.95671,-10.623078 15.3104,-22.182962 7.29102,-22.287111 -8.01937,-0.104148 -14.16463,-1.251859 -20.83008,6.455079 -6.76959,7.70694 -25.82748,27.079605 -33.01367,31.66211 -7.39448,4.374209 -19.37294,17.496431 -22.28906,19.371094 -2.91615,1.770512 -27.28576,3.438584 -34.26368,5.833984 -6.87375,2.395401 -16.24693,8.747865 -24.4746,11.351562 -8.2277,2.603699 -23.22645,1.353444 -29.6836,8.123047 -6.24885,6.873748 -7.1854,5.000051 -2.70703,12.394528 4.47838,7.39449 6.8729,10.83191 16.87109,6.66602 9.99819,-4.16592 19.37175,-4.16602 30.20313,-11.24805 10.83137,-6.873757 19.16317,-13.540788 28.64062,-12.291013 9.47745,1.249776 21.87265,-0.519662 26.76758,5.9375 4.89497,6.561303 28.95316,26.764793 57.90625,33.013673 28.84893,6.24886 22.39129,2.5005 26.14063,5.3125 3.7493,2.81197 5.52027,5.83188 2.5,12.28906 -2.91615,6.45715 -10.41533,54.67786 -10.20703,73.32031 0.10415,18.5383 8.85175,53.94908 6.24804,67.48828 -2.60367,13.74752 -14.89048,19.58017 -24.88867,23.7461 -9.99819,4.16589 -26.03766,7.91579 -36.24414,6.66601 -10.20649,-1.14563 -21.97474,-4.58362 -33.53516,-6.25 -11.56038,-1.66637 -50.82572,1.56369 -62.80273,4.58399 -12.1853,3.12442 -45.19978,21.03569 -73.42383,38.32421 -29.05723,17.70515 -62.69828,56.34441 -68.32226,67.17579 -5.62399,10.83134 -17.914108,39.99443 -21.767578,45.09765 -3.85348,5.31156 -6.03959,14.7898 -5.31055,22.39258 0.41659,3.95763 -4.99764,7.28915 -6.35156,11.45508 -1.45807,4.1659 -7.60328,8.02054 -13.43555,13.64453 -6.24887,6.04056 -17.3943,17.08052 -19.68555,19.58008 -2.29125,2.29126 -12.39396,6.66404 -9.26953,10.20508 3.22858,3.54101 5.31167,8.95699 15.10156,1.5625 9.99819,-7.49866 14.47729,-13.74742 22.08008,-17.39258 9.26915,-4.58251 12.49746,-8.22915 16.45508,-8.125 4.06177,0.10415 8.12392,6.45775 2.1875,10.51953 -6.04058,4.16589 -16.66463,17.60132 -19.78906,23.43359 -3.12444,5.72814 -16.55981,21.9767 -12.49805,22.60156 4.06176,0.62489 9.06282,3.85275 18.01953,-4.0625 8.12353,-7.29034 13.955,-24.16256 20.72461,-30.20312 6.040568,-5.41566 8.226898,-12.39379 13.642578,-11.87305 5.41569,0.52074 6.87549,1.66617 6.14649,9.68555 -0.72904,8.01937 -4.47811,11.6656 -5.83204,16.56055 -0.52074,1.97879 -5.2072,8.95541 -6.14453,14.37109 -1.97881,10.20648 -6.250588,12.49757 1.24805,13.53906 7.49863,0.93733 7.60315,1.5635 12.81055,-7.28906 5.41568,-8.74841 5.20568,-10.1037 8.64258,-21.97656 3.43686,-11.87286 -0.10367,-23.12132 9.89453,-24.3711 3.64516,-0.41659 2.18789,2.81242 4.375,13.12305 2.18708,10.20649 0.52066,16.35136 3.22851,26.03711 1.56222,5.41569 -1.14553,12.18467 4.16602,14.58008 12.49775,5.93641 14.89367,4.16717 13.74804,-3.74805 -1.24975,-7.91523 -1.35351,-10.10199 -1.35351,-16.14258 0,-6.04055 -1.77039,-7.7066 -2.91602,-16.14257 -1.35393,-8.436 -3.33346,-10.10295 -4.0625,-14.06055 -0.62489,-4.06178 0.83516,-3.12436 -3.53906,-10.31055 -4.37422,-7.39448 -0.41843,-19.99784 0.62305,-26.14258 1.14563,-6.1447 11.87324,-35.72325 20.20508,-46.24218 8.33182,-10.51893 16.76825,-23.9523 24.05859,-30.20118 7.49863,-6.45716 17.8091,-15.10178 35.09766,-23.43359 14.05994,-6.5613 24.47369,-8.33177 30.09765,-3.22851 6.35303,5.72811 4.6872,22.49606 13.74805,47.5957 9.06086,25.20375 17.80923,47.80416 17.70508,73.63281 -0.10415,25.93279 -4.37533,159.97065 -6.25,174.13477 -1.77052,14.26823 -6.56077,48.11767 -7.81055,83.11132 -0.62489,18.22589 -1.24746,51.86561 -8.74609,68.2168 -7.60281,16.35119 -11.3528,52.80478 -21.76758,67.59375 -10.31063,14.89316 -35.62044,59.1549 -39.26563,69.67383 -3.74931,10.51893 -3.64421,33.01527 1.77149,38.22267 5.41568,5.2074 36.34837,9.3743 51.0332,-5.9355 14.58071,-15.10161 57.17758,-106.75241 95.81641,-123.41608 38.63883,-16.76779 210.89979,-33.11985 250.89258,-22.70507 39.99275,10.41475 101.33725,92.5875 123,108.41796 21.66272,16.03877 25.82851,25.82856 53.11523,24.47466 27.18256,-1.35407 22.08,-17.07857 10.83203,-37.28325 -11.35212,-20.20467 -37.28683,-85.4025 -46.66016,-111.43945 -9.3733,-26.03696 -27.70303,-111.02389 -23.5371,-174.65821 4.1659,-63.63429 19.05962,-145.18102 -0.41602,-245.99609 -4.99912,-26.24523 15.51768,-56.86484 37.70117,-54.67773 22.1835,2.08293 38.11779,13.32969 48.63672,25.61914 14.99731,17.49682 30.20337,39.47389 38.84766,49.88867 7.81108,9.26915 5.41671,18.32991 -1.45703,38.95117 -2.70785,8.22767 -5.41701,16.24585 -7.1875,18.53711 -1.66637,2.18711 -2.70736,12.91428 2.8125,14.16406 5.51981,1.24978 17.81003,-11.66337 18.53906,-14.99609 0.72904,-3.33274 5.83082,-6.56161 6.35156,-16.03906 0.52074,-9.37333 8.95724,-26.87035 13.74805,-26.34961 4.68663,0.52074 2.50144,21.87124 3.23047,26.34961 0.72901,4.47834 5.62236,19.78867 8.95507,28.53711 3.33275,8.85256 6.4565,16.24639 10.72657,14.26757 4.27004,-1.97878 10.62397,-17.49653 8.54101,-27.07812 -2.08297,-9.68575 -10.41579,-31.66189 -5.625,-30.41211 4.79081,1.24977 25.20369,27.49559 31.86914,31.76562 6.56132,4.27008 9.47824,12.49805 18.85157,8.95704 9.47745,-3.4369 9.58163,-18.22662 3.85351,-22.08008 -7.18619,-4.89496 -14.99641,-5.51928 -20.41211,-14.89258 -3.4369,-6.14474 -4.4786,-9.47798 -8.64453,-13.74805 -5.93641,-6.14471 -8.53995,-10.51947 0.9375,-10.20703 5.31153,0.2083 6.56161,3.12355 12.49805,5.93555 6.04055,2.91612 6.03943,2.70835 11.76758,6.35351 5.20737,3.33274 8.95724,7.49989 17.28906,13.95703 10.72723,8.74845 16.97697,3.85371 15.62304,-5.83203 -1.56219,-9.78989 -8.95902,-20.20392 -16.35351,-21.03711 -7.49863,-0.83318 -9.68361,-5.83292 -20.61914,-10.83203 -11.56041,-5.41567 -16.24692,-15.31046 -28.01563,-22.08008 -11.66456,-6.7696 -31.87118,-55.19718 -46.66015,-65.50781 -14.89316,-10.31063 -76.65176,-58.42828 -98.62696,-65.09375 -19.89223,-6.14471 -82.59051,-13.74697 -111.43945,-11.35156 -28.84894,2.29126 -52.074,2.5 -65.30078,2.5 -13.22679,0 -16.66406,-19.79035 -16.66406,-37.59961 -0.10415,-18.9549 -19.06041,-64.15558 -14.58203,-81.96484 4.58248,-18.0176 5.52079,-34.05462 19.78906,-40.82422 14.26824,-6.76962 52.80475,-24.475788 71.13476,-34.578125 18.43419,-10.102336 16.76694,-14.477423 23.95313,-15.623046 7.18619,-1.145626 22.39212,-1.45772 41.45117,-1.666016 19.16319,-0.208297 31.76512,-4.791467 43.42969,-7.291016 11.56041,-2.395398 26.35009,-9.998488 18.22656,-16.039062 -8.22767,-6.040573 -23.43299,-5.728231 -34.47266,-4.166016 -11.03964,1.666368 -34.99491,5.93837 -49.99218,3.542969 C 691.23626,43.795747 669.15629,43.065029 655.72121,33.275132 642.18201,23.276943 631.35227,8.3846852 621.66653,5.780991 616.82364,4.5312176 612.24074,2.7359573 608.66067,2.1110691 Z M 512.1509,566.34154 c 10.81347,-0.36614 20.67575,2.85635 31.29883,7.77734 4.27006,1.87467 8.22648,5.7267 11.45508,10.20508 6.1447,4.27003 11.35223,9.89452 15.10156,16.97656 7.08204,13.01849 6.77197,30.10037 2.18945,45.09766 0.52074,5.41568 -0.93795,10.30957 -3.4375,15.62109 -3.74931,8.33182 -10.51957,14.58169 -17.91406,19.78906 -0.31244,0.2083 -0.62505,0.41538 -0.9375,0.51953 -1.77052,2.812 -3.852,5.52127 -6.35156,7.8125 -12.70604,11.76871 -33.84904,15.41289 -48.74219,5.31055 -1.24978,-0.72904 -2.29187,-1.76969 -3.4375,-2.70703 h -0.3125 c -5.93641,-0.52074 -9.68518,-0.83391 -14.89258,-4.0625 -4.06175,-2.29126 -8.33241,-6.24816 -10.51953,-10.41406 -2.812,-5.41569 -4.06313,-10.52056 -3.95898,-16.14453 -1.24978,-2.91615 -1.97731,-6.24929 -2.49805,-9.58204 -0.93734,-1.24974 -1.87453,-2.49958 -2.91602,-3.85351 -1.1456,-1.56222 -1.97862,-3.12272 -2.60351,-4.78906 -3.12445,-7.39451 -6.04022,-13.85436 -5.20703,-22.08203 0.72903,-6.87377 3.22789,-12.91303 6.87304,-17.91211 2.29126,-6.14474 6.35384,-10.72717 11.76954,-14.16407 1.97878,-2.81197 4.37486,-5.20675 7.29101,-7.18554 3.95763,-5.4157 9.78766,-9.37454 16.45313,-10.41602 3.22857,-1.77052 6.5625,-3.22869 10.10351,-4.16602 3.87952,-0.98938 7.58885,-1.5088 11.19336,-1.63085 z" /></svg>
