<svg version="1.1" id="Layer_1" xmlns="http://www.w3.org/2000/svg" xmlns:xlink="http://www.w3.org/1999/xlink" x="0px" y="0px"
	 viewBox="0 0 1024 1024" style="enable-background:new 0 0 1024 1024;" xml:space="preserve">
<g>
	<path d="M125,43.4h455.5C810.2,43.4,869,187,869,283.6c0,134.4-75.7,172.3-114.8,191.8C869,518.5,899,609.9,899,702.6
		c0,74.4-31.3,144.9-80.9,193.1c-53.5,52.2-104.4,84.9-296.3,84.9H125V43.4z M313,410.2h229.7c77,0,138.4-30,138.4-104.4
		c0-77-54.8-100.5-143.6-100.5H313V410.2z M313,818.7h240.2c95.3,0,150.1-41.8,150.1-137c0-82.2-70.4-113.5-141-113.5H313V818.7z"/>
</g>
</svg>
