<svg version="1.1" id="Layer_1" xmlns="http://www.w3.org/2000/svg" xmlns:xlink="http://www.w3.org/1999/xlink" x="0px" y="0px"
	 viewBox="0 0 1024 1024" style="enable-background:new 0 0 1024 1024;" xml:space="preserve">
<path d="M112.8,512l274.8,262.2c16.7,16,17.2,40.9,1.4,59.2c-16,16.7-42.5,17.2-59.2,1.4L23.4,542.3c-8.3-8-12.9-18.8-12.9-30.3
	s4.7-22.3,12.9-30.3l306.4-292.5c16.7-15.9,43.2-15.3,59.2,1.4c15.8,16.7,15.3,43.1-1.4,59.2L112.8,512z M636.3,249.7
	c-16.7-16-17.2-42.5-1.4-59.2c16-16.7,40.9-17.3,59.2-1.4l306.5,292.5c8.2,8,12.9,18.8,12.9,30.3s-4.7,22.3-12.9,30.3L694.1,834.8
	c-18.3,15.8-43.2,15.3-59.2-1.4c-15.8-18.3-15.3-43.2,1.4-59.2L911.1,512L636.3,249.7z"/>
</svg>
