<svg version="1.1" id="Layer_1" xmlns="http://www.w3.org/2000/svg" xmlns:xlink="http://www.w3.org/1999/xlink" x="0px" y="0px"
	 viewBox="0 0 1024 1024" style="enable-background:new 0 0 1024 1024;" xml:space="preserve">
<path d="M821.2,666.4H450.8c-17,0-30.9-13.9-30.9-30.9v-494c0-17,13.9-30.9,30.9-30.9h270.3l131,131v393.8
	C852.1,652.5,838.2,666.4,821.2,666.4z M450.8,759h370.5c68.1,0,123.5-55.4,123.5-123.5V241.7c0-24.5-9.8-48-27.2-65.4l-130.8-131
	C769.3,27.8,745.8,18,721.3,18H450.8c-68.1,0-123.5,55.4-123.5,123.5v494C327.2,703.6,382.6,759,450.8,759z M203.8,265
	c-68.1,0-123.5,55.4-123.5,123.5v494c0,68.1,55.4,123.5,123.5,123.5h370.5c68.1,0,123.5-55.4,123.5-123.5v-61.8h-92.6v61.8
	c0,17-13.9,30.9-30.9,30.9H203.8c-17,0-30.9-13.9-30.9-30.9v-494c0-17,13.9-30.9,30.9-30.9h61.8V265H203.8z"/>
</svg>
