<svg version="1.1" id="Layer_1" xmlns="http://www.w3.org/2000/svg" xmlns:xlink="http://www.w3.org/1999/xlink" x="0px" y="0px"
	 viewBox="0 0 1285.2 1024" style="enable-background:new 0 0 1285.2 1024;" xml:space="preserve">
<path d="M639.7,763.5l82.9-82.9L613.9,571.9l-82.8,82.9v40.1h68.6v68.6H639.7L639.7,763.5z M954.1,249c-7.6-7.6-15.5-7.3-23.6,0.7
	L680.4,499.8c-8.1,8.1-8.3,16-0.7,23.6c7.6,7.6,15.5,7.3,23.6-0.7l250.1-250.1C961.5,264.6,961.7,256.6,954.1,249z M1011.3,673.5
	v135.7c0,56.7-20.1,105.2-60.4,145.4c-40.2,40.3-88.7,60.4-145.4,60.4H211c-56.7,0-105.2-20.1-145.4-60.4
	C25.3,914.4,5.2,865.9,5.2,809.2V214.8c0-56.7,20.1-105.2,60.4-145.4S154.3,9,211,9h594.5c30,0,57.9,5.9,83.6,17.8
	c7.1,3.4,11.4,8.8,12.9,16.5c1.4,8.1-0.7,15-6.4,20.7l-35,35c-6.6,6.6-14.3,8.5-22.9,5.7c-11-2.9-21.7-4.3-32.1-4.3H211
	c-31.4,0-58.4,11.2-80.8,33.6c-22.4,22.4-33.6,49.5-33.6,80.9v594.5c0,31.4,11.2,58.4,33.6,80.8c22.4,22.4,49.3,33.6,80.8,33.6
	h594.5c31.4,0,58.4-11.2,80.8-33.6c22.4-22.4,33.6-49.3,33.6-80.8v-90c0-6.1,2.2-11.4,6.4-15.8l45.7-45.7c7.1-7.1,15.5-8.8,25-5.1
	C1006.5,656.5,1011.3,663.5,1011.3,673.5z M942.7,146.2l205.8,205.8L668.3,832.1H462.5V626.3L942.7,146.2z M1259.9,240.5l-65.7,65.7
	L988.4,100.4l65.7-65.7c13.4-13.4,29.5-20,48.6-20s35.3,6.6,48.6,20L1260,143.4c13.4,13.4,20,29.5,20,48.6
	S1273.3,227.1,1259.9,240.5z"/>
</svg>
