<svg version="1.1" id="Layer_1" xmlns="http://www.w3.org/2000/svg" xmlns:xlink="http://www.w3.org/1999/xlink" x="0px" y="0px"
	 viewBox="0 0 1024 1024" style="enable-background:new 0 0 1024 1024;" xml:space="preserve">
<g>
	<path d="M286.8,44.7v86.8H44v86.8h416.4c-11.6,98.3-69.5,179.3-144.7,243c-110-98.3-167.8-196.7-167.8-196.7l-75.2,40.5
		c0,0,57.9,104.2,173.6,214c-5.8,0-5.8,5.8-5.8,5.8C119,605.9,3.3,646.4,3.3,646.4l29,86.8c0,0,127.3-40.5,254.5-133.1
		c11.6-5.8,17.4-11.6,29-23.1c52.1,34.7,110,69.5,173.6,98.3l34.7-81c-52.1-17.4-98.3-46.2-138.8-75.2
		c81-75.2,150.4-173.6,162.1-300.9h133.1v-86.8H373.5V44.6C373.5,44.7,286.8,44.7,286.8,44.7z"/>
</g>
<path d="M768.4,314.9h-95.1L419.8,980.3h120.4L591,828.2h253.5l57.1,152.1H1022L768.4,314.9z M622.7,733.2L724,460.7l95.1,272.5
	H622.7z"/>
</svg>
