<?xml version="1.0" encoding="utf-8"?>
<!-- Generator: Adobe Illustrator 28.4.1, SVG Export Plug-In . SVG Version: 6.00 Build 0)  -->
<svg version="1.1" id="Layer_1" xmlns="http://www.w3.org/2000/svg" xmlns:xlink="http://www.w3.org/1999/xlink" x="0px" y="0px"
	 viewBox="0 0 1024 1024" style="enable-background:new 0 0 1024 1024;" xml:space="preserve">
<g>
	<path d="M1001.9,232.3H307c-9.4,0-16.9-7.6-16.9-16.9v-36.1c0-9.4,7.6-16.9,16.9-16.9h694.9c9.4,0,16.9,7.6,16.9,16.9v36.1
		C1018.8,224.7,1011.3,232.3,1001.9,232.3z"/>
</g>
<circle cx="81.9" cy="197.3" r="79.4"/>
<circle cx="81.9" cy="490.9" r="79.4"/>
<circle cx="81.9" cy="764.2" r="79.4"/>
<g>
	<g>
		<path d="M1001.9,523.9H307c-9.4,0-16.9-7.6-16.9-16.9v-36.2c0-9.4,7.6-16.9,16.9-16.9h694.9c9.4,0,16.9,7.6,16.9,16.9v36.1
			C1018.8,516.3,1011.3,523.9,1001.9,523.9z"/>
	</g>
</g>
<g>
	<g>
		<path d="M1001.9,803.5H307c-9.4,0-16.9-7.6-16.9-16.9v-36.1c0-9.4,7.6-16.9,16.9-16.9h694.9c9.4,0,16.9,7.6,16.9,16.9v36.1
			C1018.8,795.9,1011.3,803.5,1001.9,803.5z"/>
	</g>
</g>
</svg>
