<svg version="1.1" id="Layer_1" xmlns="http://www.w3.org/2000/svg" xmlns:xlink="http://www.w3.org/1999/xlink" x="0px" y="0px"
	 viewBox="0 0 1024 1024" style="enable-background:new 0 0 1024 1024;" xml:space="preserve">
<path d="M972.8,266.9c-5.3-22.2-33.5-29.6-49.6-13.5L782.8,393.8l-152.4,0V241.4L770.8,101c16.1-16.1,8.7-44.3-13.5-49.6
	c-43.4-10.4-90.5-11.2-139.2,0.5C505.4,78.9,417.5,174.6,399.5,289c-9.5,47.6-5,95,9.3,138L82.2,753.6
	c-51.6,51.6-51.6,135.1,0,186.7c24.1,25.9,57.9,40.3,90,40.3s67.6-12.9,93.4-38.7l326.6-326.6c43,14.2,90.4,18.8,139.7,11
	c114.5-18,210.2-106,237.1-218.6C983.9,357.3,983.2,310.3,972.8,266.9z M188.6,877.9c-24.3,0-44-19.7-44-44c0-24.3,19.7-44,44-44
	s44,19.7,44,44C232.6,858.3,212.9,877.9,188.6,877.9z"/>
</svg>
