<svg enable-background="new 0 0 1024 1024" version="1.1" viewBox="0 0 1024 1024" xml:space="preserve" xmlns="http://www.w3.org/2000/svg">
<style type="text/css">
	.st0{fill:#000001;}
</style>
<g transform="matrix(1.0118 0 0 1.0074 -6.0475 -3.8441)">
	<path class="st0" d="m494.3 34.2c11.1 10.1 22.2 20.1 33.3 30.1 24.7 22.3 49.4 44.6 73.7 67.2 157.9 146.7 291.6 311.7 392.2 501.7 5.1 9.7 9.8 19.7 14.5 29.7 2.3 5 4.7 10 7.1 14.9l-7.8 4.2-5.8-8.5c-5.1-7.3-10.1-14.6-15-22l-10.6-15.7c-73.2-108.8-146.6-217.7-247.3-304.7-30.1-26-64.3-49-100.1-66.5-73-35.6-137.9-21.4-193.5 37.2-52.9 55.6-80.3 124.7-105.1 195-3.2 9.1-6.6 18-10 27-2 5.2-4 10.5-5.9 15.8l-12.4-4c7.1-25.6 13.8-51.4 20.4-77.1 15.1-58.4 30.1-116.9 51.1-173.2 22.4-60 50.5-117.9 78.6-175.8 12.1-25 24.3-50.1 36-75.3z"/>
	<path class="st0" d="m544.2 756.3c-116.8 56.5-399.6 115-533.7 100-21.9-118.1 193.2-671.5 298.8-755.3-2.7 6.1-4.9 11.4-6.8 16.1-3.8 9-6.6 15.8-9.9 22.3l-4.8 9.4c-54.5 107.5-109.1 215.2-137.1 333.1-9.6 40.5-16.1 82.7-16.4 124.1-0.7 98.6 59.2 165.6 159.3 169.8 48.2 2 96.8-3.2 145.4-8.4 21.1-2.3 42.2-4.5 63.3-6.2 7.7-0.6 15.3-1.6 25.2-2.9 5-0.6 10.4-1.3 16.7-2z"/>
	<path class="st0" d="m212 973.8c-32 2.5-63.9 5-95.8 8h-0.1c294.4 28.6 577-20.4 855.9-120.9-90.9-163.9-213.3-293.5-355.8-406 1.8 7.1 6 12.4 10.1 17.5 1.2 1.5 2.3 2.9 3.4 4.4 12.2 16.6 25 32.9 37.8 49.2 29.4 37.4 58.8 74.8 80.9 116 56 104.4 25.6 194.6-83.9 242.3-72 31.4-150.7 52.8-228.5 65.5-73.9 12.3-149 18.1-224 24z"/>
</g>
</svg>
