<svg version="1.1" id="Layer_1" xmlns="http://www.w3.org/2000/svg" xmlns:xlink="http://www.w3.org/1999/xlink" x="0px" y="0px"
	 viewBox="0 0 1024 1024" style="enable-background:new 0 0 1024 1024;" xml:space="preserve">
<path d="M998.1,954.4L724.4,680.7c60.4-70.4,95.4-161.5,95.4-261.6c0-222.3-180.2-402.4-402.4-402.4S16.7,196.9,16.7,419.1
	s180.1,402.4,400.6,402.4c100,0,191.2-36.7,261.6-97l273.7,273.7c7.7,5.9,15.7,9,23.6,9c7.9,0,15.8-3,21.9-9.1
	C1010.3,986.2,1010.3,966.4,998.1,954.4z M419.1,759.6c-189.4,0-340.5-152.8-340.5-340.5S229.7,78.7,419.1,78.7
	s340.5,151.1,340.5,340.5S606.8,759.6,419.1,759.6z"/>
</svg>
