<svg version="1.1" id="Layer_1" xmlns="http://www.w3.org/2000/svg" xmlns:xlink="http://www.w3.org/1999/xlink" x="0px" y="0px"
	 viewBox="0 0 1024 1024" style="enable-background:new 0 0 1024 1024;" xml:space="preserve">
<g>
	<path d="M987.7,894.6L622.7,529.7c35.3-53,55.9-117.7,55.9-185.4c0-182.5-150.1-332.5-332.5-332.5S16.5,158.9,16.5,341.3
		S166.6,673.9,349,673.9c64.7,0,123.6-17.7,176.6-50l0,0l367.9,367.9c14.7,14.7,32.4,20.6,47.1,20.6c17.7,0,35.3-5.9,47.1-20.6
		C1014.1,965.2,1014.1,921.1,987.7,894.6z M93.7,341.3C93.7,202.2,207,88.9,346.1,88.9s252.4,113.3,252.4,252.4
		S485.2,593.7,346.1,593.7S93.7,480.4,93.7,341.3z"/>
</g>
</svg>
