<svg version="1.1" id="Layer_1" xmlns="http://www.w3.org/2000/svg" xmlns:xlink="http://www.w3.org/1999/xlink" x="0px" y="0px"
	 viewBox="0 0 1024 1024" style="enable-background:new 0 0 1024 1024;" xml:space="preserve">
<style type="text/css">
	.st0{fill:#E1E1E1;}
	.st1{fill:#7D7D7D;}
</style>
<g>
	<path class="st0" d="M186.3,477.5h651.4c60.5,0,90.8-73.3,48.1-115.9L560.2,24.8C547,11.5,529.6,4.9,512.2,4.9
		c-17.4,0-34.7,6.6-47.8,19.9L138.2,361.5C95.5,404.1,125.7,477.5,186.3,477.5z"/>
	<path class="st1" d="M837.7,546.5H186.3c-60.5,0-90.8,73.3-48.1,115.9l325.5,336.7c13.3,13.3,30.7,19.9,48.1,19.9
		c17.4,0,34.7-6.6,47.8-19.9l326.1-336.7C928.5,619.9,898.3,546.5,837.7,546.5z"/>
</g>
</svg>
