<svg version="1.1" id="Layer_1" xmlns="http://www.w3.org/2000/svg" xmlns:xlink="http://www.w3.org/1999/xlink" x="0px" y="0px"
	 viewBox="0 0 122.9 122.9" style="enable-background:new 0 0 122.9 122.9;" xml:space="preserve">
<style type="text/css">
	.st0{fill:#ACACAB;}
</style>
<g>
	<path class="st0" d="M61.5,15.3l10.9,33.6l0.8,2.5h2.6h35.4L82.5,72.2l-2.1,1.5l0.8,2.5l10.9,33.6L63.5,89l-2.1-1.5L59.4,89
		l-28.6,20.8l10.9-33.6l0.8-2.5l-2.1-1.5L11.8,51.4h35.4h2.6l0.8-2.5L61.5,15.3 M61.5,3.7L47.1,47.8H0.8l37.5,27.2L24,119.2
		l37.5-27.2l37.5,27.2L84.6,75.1l37.5-27.2H75.8L61.5,3.7L61.5,3.7z"/>
</g>
</svg>
