<svg version="1.1" id="Layer_1" xmlns="http://www.w3.org/2000/svg" xmlns:xlink="http://www.w3.org/1999/xlink" x="0px" y="0px"
	 viewBox="0 0 1024 1024" style="enable-background:new 0 0 1024 1024;" xml:space="preserve">
<path d="M394.9,414.6l0.1,351.8c0,5.7-1.8,10.4-5.5,14.1s-8.4,5.5-14.1,5.5h-39.1c-5.7,0-10.4-1.8-14.1-5.5s-5.5-8.4-5.5-14.1
	l-0.1-351.8c0-5.7,1.8-10.4,5.5-14.1s8.4-5.5,14.1-5.5h39.1c5.7,0,10.4,1.8,14.1,5.5C393,404.1,394.9,408.8,394.9,414.6z
	 M551.2,414.5l0.1,351.8c0,5.7-1.8,10.4-5.5,14.1s-8.4,5.5-14.1,5.5h-39.1c-5.7,0-10.4-1.8-14.1-5.5c-3.7-3.7-5.5-8.4-5.5-14.1
	l-0.1-351.8c0-5.7,1.8-10.4,5.5-14.1c3.7-3.7,8.4-5.5,14.1-5.5h39.1c5.7,0,10.4,1.8,14.1,5.5C549.4,404.1,551.2,408.8,551.2,414.5z
	 M707.6,414.5l0.1,351.8c0,5.7-1.8,10.4-5.5,14.1s-8.4,5.5-14.1,5.5H649c-5.7,0-10.4-1.8-14.1-5.5s-5.5-8.4-5.5-14.1l-0.1-351.8
	c0-5.7,1.8-10.4,5.5-14.1c3.7-3.7,8.4-5.5,14.1-5.5h39.1c5.7,0,10.4,1.8,14.1,5.5S707.6,408.8,707.6,414.5z M785.9,856.7l-0.2-579
	l-547.3,0.2l0.2,579c0,9,1.5,17.2,4.2,24.8c2.8,7.6,5.8,13,8.9,16.4c3.1,3.5,5.2,5.2,6.4,5.2l508.2-0.1c1.2,0,3.3-1.8,6.4-5.2
	c3.1-3.5,6-9,8.9-16.4C784.5,873.9,785.9,865.6,785.9,856.7z M375.2,199.5l273.6-0.1l-29.4-71.5c-2.8-3.7-6.3-5.9-10.4-6.7
	l-193.5,0.1c-4,0.8-7.6,3.1-10.4,6.7L375.2,199.5z M942,218.9V258c0,5.7-1.8,10.4-5.5,14.1s-8.4,5.5-14.1,5.5h-58.7l0.2,579
	c0,33.8-9.6,63-28.7,87.7c-19.2,24.7-42.2,36.9-69,36.9l-508.1,0.1c-26.9,0-50-11.9-69-35.7s-28.8-52.6-28.8-86.4l-0.1-581.4h-58.7
	c-5.7,0-10.4-1.8-14.1-5.5s-5.5-8.4-5.5-14.1V219c0-5.7,1.8-10.4,5.5-14.1s8.4-5.5,14.1-5.5l188.8-0.1l42.7-102
	c6.1-15.1,17.2-27.9,33-38.5s31.9-15.9,48.3-15.9l195.4-0.1c16.3,0,32.5,5.3,48.3,15.8s26.9,23.4,33,38.5l42.8,101.9l188.8-0.1
	c5.7,0,10.4,1.8,14.1,5.5C940.3,208.5,942,213.2,942,218.9z"/>
</svg>
