<svg version="1.1" id="Layer_1" xmlns="http://www.w3.org/2000/svg" xmlns:xlink="http://www.w3.org/1999/xlink" x="0px" y="0px"
	 viewBox="0 0 1024 1024" style="enable-background:new 0 0 1024 1024;" xml:space="preserve">
<path d="M364.5,777.5c0,16.2-13.3,29.4-29.4,29.4c-16.1,0-29.4-13.3-29.4-29.4V364.6c0-16.2,13.3-29.4,29.4-29.4
	c16.1,0,29.4,13.3,29.4,29.4V777.5z M541.4,777.5c0,16.2-13.3,29.4-29.4,29.4c-16.2,0-29.4-13.3-29.4-29.4V364.6
	c0-16.2,13.3-29.4,29.4-29.4c16.2,0,29.4,13.3,29.4,29.4V777.5z M718.4,777.5c0,16.2-13.3,29.4-29.4,29.4s-29.4-13.3-29.4-29.4
	V364.6c0-16.2,13.3-29.4,29.4-29.4s29.4,13.3,29.4,29.4V777.5z M670.7,81.7l49.5,76.4h175.3c16.2,0,29.4,13.2,29.4,29.4
	S911.7,217,895.6,217h-29.4v619.4c0,81.4-66,147.4-147.4,147.4H305.4c-81.4,0-147.4-66-147.4-147.4V217.2h-29.4
	c-16.2,0-29.4-13.2-29.4-29.4s13.2-29.4,29.4-29.4h175.3l47.8-76.4c16.2-26,44.7-41.8,75-41.8h170.6
	C627.6,40.1,656.1,55.9,670.7,81.7L670.7,81.7z M373.5,158.1h276.8L622.1,113c-5.4-8.6-14.9-13.9-24.9-13.9H426.5
	c-10.1,0-19.6,5.2-24.9,13.9L373.5,158.1z M217.1,836.6c0,48.8,39.7,88.5,88.5,88.5h413c48.8,0,88.5-39.7,88.5-88.5V217.2h-590
	V836.6z"/>
</svg>
