<svg version="1.1" id="Layer_1" xmlns="http://www.w3.org/2000/svg" xmlns:xlink="http://www.w3.org/1999/xlink" x="0px" y="0px"
	 viewBox="0 0 144.8 154.2" style="enable-background:new 0 0 144.8 154.2;" xml:space="preserve">
<style type="text/css">
	.st0{fill:#C4C4C4;}
</style>
<path class="st0" d="M137.4,72.2c-0.2-1.3-1.2-2.8-2.2-2.9c-1-0.1-1.3-0.8-2.8-1.4c-1.6-0.7-2.2-2.1-3.8-3c-1.6-0.9-4.3-7.5-6.4-8.9
	c-2-1.4-10.4-7.9-13.4-8.8c-2.7-0.8-11.2-1.9-15.1-1.5c-4,0.4-7.1,0.4-8.9,0.4s-2.2-2.7-2.2-5.1c0-2.6-2.6-8.7-2-11.1
	c0.6-2.4,0.7-4.6,2.7-5.6c2-0.9,7.2-3.3,9.6-4.7c2.5-1.3,2.2-2,3.2-2.2c1-0.2,3.1-0.2,5.7-0.2s4.3-0.6,5.9-1
	c1.6-0.4,3.6-1.3,2.4-2.2c-1.1-0.8-3.1-0.8-4.7-0.5s-4.8,0.8-6.7,0.4c-2.1-0.4-5-0.4-6.8-1.8c-1.8-1.3-3.3-3.4-4.6-3.7
	c-1.3-0.4-2.5-1-2.7,0c-0.2,0.9,0.2,1.3,0.8,2.3c0.6,1.1,3.4,3.9,4.4,4.1c1,0.2,2.9,0.2,2.5,1c-0.4,0.8-2.6,1.9-3.6,2.7
	c-1,0.8-7,4.1-8.8,4.9c-1.8,0.7-7.1,1.3-7.9,0.7c-0.8-0.5-3.6,0.3-4.9,0.2s-7.4,0.2-10.5-1.1c-3.1-1.3-4.8-2.9-5.3-3.1
	s-2.6-1.8-2.2-2.3s0.4-1,2.5-2.5c2-1.5,2.1-1.4,3.2-3c1.3-1.4,2.1-3.1,1-3.1s-1.9-0.2-2.9,0.9c-0.9,1.1-3.5,3.7-4.5,4.3
	c-1,0.6-2.6,2.3-3.1,2.6c-0.4,0.3-3.7,0.4-4.7,0.8c-0.9,0.4-2.2,1.2-3.3,1.5c-1.1,0.4-3.1,0.2-4,1.1c-0.8,0.9-1,0.7-0.4,1.7
	c0.6,1,0.9,1.4,2.3,0.9c1.3-0.5,2.6-0.5,4.1-1.5c1.4-0.9,2.6-1.8,3.9-1.7c1.3,0.2,3-0.1,3.6,0.8c0.7,0.9,4,3.6,7.8,4.5
	c4,0.8,3.1,0.4,3.6,0.7c0.5,0.4,0.7,0.8,0.4,1.7c-0.4,0.9-1.4,7.5-1.4,10c0,2.5,1.2,7.3,0.8,9.2c-0.4,1.9-2.1,2.6-3.4,3.2
	c-1.3,0.5-3.5,1.1-4.9,0.9c-1.3-0.2-3-0.6-4.6-0.8c-1.5-0.2-6.9,0.2-8.5,0.6s-6.1,2.9-10,5.2c-4,2.4-8.5,7.6-9.3,9.1
	c-0.8,1.4-2.4,5.4-3,6.1c-0.5,0.7-0.8,2-0.7,3.1c0.1,0.5-0.7,1-0.9,1.5c-0.2,0.5-1,1.1-1.8,1.9s-2.3,2.3-2.7,2.6
	c-0.3,0.4-1.7,0.9-1.3,1.3C7.7,82,8,82.8,9.3,81.7c1.3-1,2-1.9,3-2.3c1.3-0.6,1.7-1.1,2.2-1.1s1.1,0.9,0.3,1.4
	c-0.8,0.5-2.2,2.4-2.7,3.1c-0.4,0.8-2.2,3-1.7,3.1c0.5,0.1,1.3,0.5,2.4-0.5c1.1-1,1.9-3.2,2.8-4.1c0.8-0.7,1.1-1.7,1.9-1.6
	c0.7,0.1,0.9,0.2,0.8,1.3c-0.1,1.1-0.6,1.6-0.8,2.2c-0.1,0.3-0.7,1.3-0.8,2c-0.3,1.3-0.8,1.7,0.2,1.8s1,0.2,1.7-1
	c0.7-1.2,0.7-1.3,1.2-3s0-3.1,1.3-3.3c0.5-0.1,0.3,0.4,0.6,1.8c0.3,1.4,0.1,2.2,0.4,3.5c0.2,0.7-0.2,1.6,0.5,2
	c1.7,0.8,2.1,0.5,1.9-0.5c-0.2-1.1-0.2-1.3-0.2-2.2s-0.3-1.1-0.4-2.2c-0.2-1.2-0.4-1.3-0.5-1.9c-0.1-0.5,0.1-0.4-0.4-1.4
	c-0.6-1-0.1-2.7,0.1-3.5s1.6-4.9,2.8-6.3c1.2-1.4,2.2-3.2,3.2-4.1c1-0.9,2.4-2.1,4.8-3.1c1.9-0.9,3.3-1.2,4-0.4
	c0.9,0.8,0.6,3.1,1.9,6.5c1.3,3.4,2.4,6.5,2.4,10c0,3.5-0.6,21.7-0.8,23.6c-0.3,1.9-0.9,6.6-1.1,11.3c-0.1,2.5-0.2,7-1.2,9.3
	c-1,2.2-1.5,7.2-3,9.2s-4.9,8-5.3,9.4c-0.5,1.4-0.5,4.5,0.3,5.2c0.7,0.7,4.9,1.3,6.9-0.8c2-2.1,7.8-14.5,13-16.8
	c5.2-2.2,28.7-4.5,34-3.1s13.7,12.6,16.7,14.7c3,2.2,3.5,3.5,7.2,3.3s3-2.3,1.4-5c-1.5-2.8-5-11.6-6.4-15.1
	c-1.3-3.5-3.8-15.1-3.2-23.7s2.6-19.7-0.1-33.4c-0.7-3.6,2.1-7.7,5.1-7.5c3.1,0.3,5.2,1.8,6.6,3.5c2.1,2.4,4.1,5.4,5.3,6.7
	c1.1,1.3,0.7,2.5-0.2,5.3c-0.4,1.1-0.7,2.2-1,2.5c-0.2,0.3-0.4,1.8,0.4,1.9c0.7,0.2,2.4-1.6,2.5-2.1c0.1-0.4,0.8-0.9,0.9-2.2
	s1.3-3.7,1.9-3.6c0.6,0.1,0.4,3,0.4,3.6c0.1,0.6,0.8,2.7,1.3,3.9c0.4,1.2,0.9,2.2,1.4,2c0.6-0.3,1.4-2.4,1.2-3.7
	c-0.3-1.3-1.4-4.3-0.8-4.1c0.6,0.2,3.4,3.8,4.3,4.3c0.9,0.6,1.3,1.7,2.5,1.3s1.3-2.4,0.5-3c-1-0.6-2.1-0.7-2.8-2.1
	c-0.4-0.8-0.6-1.3-1.2-1.9c-0.8-0.8-1.2-1.4,0.2-1.3c0.7,0,0.9,0.4,1.7,0.8c0.8,0.4,0.8,0.4,1.6,0.9c0.7,0.4,1.3,1,2.3,1.9
	C136.7,74.1,137.6,73.5,137.4,72.2z M80.6,95.3c0.1,0.7-0.2,1.4-0.4,2.2c-0.5,1.2-1.4,2-2.4,2.7c-0.1,0-0.1,0.1-0.2,0.1
	c-0.3,0.4-0.5,0.7-0.9,1.1c-1.7,1.6-4.6,2.1-6.6,0.7c-0.2-0.1-0.3-0.3-0.4-0.4l0,0c-0.8-0.1-1.3-0.1-2-0.5c-0.5-0.4-1.2-0.9-1.4-1.4
	c-0.4-0.7-0.5-1.4-0.5-2.2c-0.2-0.4-0.3-0.8-0.4-1.3c-0.1-0.2-0.3-0.4-0.4-0.5c-0.2-0.2-0.3-0.4-0.4-0.6c-0.4-1-0.8-1.9-0.7-3
	c0.1-0.9,0.4-1.8,0.9-2.4c0.3-0.8,0.9-1.4,1.6-1.9c0.3-0.4,0.6-0.7,1-1c0.5-0.7,1.3-1.3,2.2-1.4c0.4-0.3,0.9-0.4,1.3-0.5
	c2.1-0.5,3.9-0.1,5.7,0.8c0.5,0.3,1.1,0.8,1.5,1.3c0.8,0.6,1.5,1.3,2.1,2.3C81.2,90.9,81.2,93.3,80.6,95.3z"/>
</svg>
