<svg version="1.1" id="Layer_1" xmlns="http://www.w3.org/2000/svg" xmlns:xlink="http://www.w3.org/1999/xlink" x="0px" y="0px"
	 viewBox="0 0 100 100" style="enable-background:new 0 0 100 100;" xml:space="preserve">
<g>
	<g transform="translate(0.000000,512.000000) scale(0.100000,-0.100000)">
		<path d="M710.9,5076.3c-17-6.1-29.6-19.2-35.7-37c-2.3-7-2.9-16.9-2.9-56V4936l-124.2-0.5l-124.3-0.5l-9.5-4.1
			c-20.3-8.6-38-24.8-55.1-50.6c-15.1-22.8-26-43.6-46.6-89.7c-21.9-48.6-38.4-83.4-47.9-99.9l-7.4-12.9l-87.2-0.5l-87.2-0.5l-9-4.5
			c-11.5-5.7-22.2-16.5-27.8-27.8c-6.3-13.1-6.3-35.7,0-48.4c5.6-11.5,16.3-22.3,27.8-27.8l9-4.5l87.2-0.5l87-0.5l6.5-11.1
			c10-17.2,23.7-45.2,40.4-82.7c47.9-107.6,72.7-143.3,110.3-159.3l9.5-4.1l124.2-0.5l124.2-0.5l0.5-50.6c0.5-49.7,0.5-50.8,5-59.6
			c9.3-18.8,27.1-31,47.4-32.7c14.2-1.3,25.8,2.3,41.3,12.7c16.5,10.9,166.1,135.8,175.1,145.9c13.3,15.1,17,24.2,17,41.8
			c0,13.1-0.7,16.5-5,24.6c-7.9,15.1-21,27.3-103.2,95.3c-77.2,63.9-90.2,73.7-104.8,78.8c-10,3.6-28.3,2.3-39.5-2.7
			c-10.6-4.7-22.6-16.5-28.3-28.2c-4.5-8.8-4.5-9.9-5-59.6l-0.5-50.8H564.7H457.1l-4.3,6.8c-7.2,11.5-27.5,52.7-43.6,89
			c-17.6,39.5-37.1,79.3-46.5,94.6l-6.3,10.6l6.3,10.4c9.3,15.4,27.3,51.8,45.9,93.7c18.3,40.5,36.4,77.7,43.8,89.3l4.7,7.5h107.6
			h107.5l0.5-50.6c0.5-49.9,0.5-51,5-59.7c12.6-25.5,40.5-38.4,66.9-30.7c5.4,1.6,15.1,6.3,21.4,10.6
			c16.5,11,166.7,136.2,175.5,146.2c13.3,14.9,17,24,17,41.6c0,17.2-3.8,26.4-16.5,41.3c-6.3,7.4-141.7,121.1-167,140.3
			c-17.8,13.6-28,18.1-42.5,18.8C723.5,5079.2,717.4,5078.5,710.9,5076.3z"/>
	</g>
</g>
</svg>
