<svg version="1.1" id="Layer_1" xmlns="http://www.w3.org/2000/svg" xmlns:xlink="http://www.w3.org/1999/xlink" x="0px" y="0px"
	 viewBox="0 0 1024 1024" style="enable-background:new 0 0 1024 1024;" xml:space="preserve">
<path d="M802,33c51-52.1,138.7-17.2,138.7,54.6v777.2c0,71.7-87.7,106.6-138.7,54.6l-45.7-50c-85.9-90.7-200.5-148.5-323.7-164.1
	v199.7c0,61.3-49.8,111.2-111.2,111.2h-31.8c-61.4,0-111.2-49.8-111.2-111.2V698.4c-70.2,0-127-57-127-128.8V379.1
	c0-68.3,56.9-127,127-127h158l58-1.4c137.5-7.7,267.2-67.7,361.8-167.8L802,33z M877.2,87.6c0-16.1-17.5-21.3-27.4-10.9l-47.2,49.9
	c-83.2,87.6-189.9,147.9-306.5,173.9v351.3c116.5,26,223.3,84.6,306.5,173.9l47.2,50c9.9,10.3,27.4,3.4,27.4-10.9V87.6z
	 M432.6,641.1V311.2c-11.5,1.2-23,2.2-34.7,2.8l-59.7,1.6H178.5c-35.1,0-63.5,30.2-63.5,63.5v190.5c0,36.9,28.4,63.5,63.5,63.5
	h159.6l59.7,5.2C409.6,637.1,421.1,639.9,432.6,641.1L432.6,641.1z M242.1,698.4v206.4c0,26.4,21.2,47.6,47.6,47.6h31.8
	c26.4,0,47.6-21.2,47.6-47.6V700.2l-32.6-1.8H242.1z M940.7,379.1c17.5,0,31.8,16.1,31.8,31.8v127c0,19.3-14.3,31.8-31.8,31.8
	c-17.5,0-31.8-12.5-31.8-31.8v-127C909,395.1,923.3,379.1,940.7,379.1L940.7,379.1z"/>
</svg>
