<svg version="1.1" id="Layer_1" xmlns="http://www.w3.org/2000/svg" xmlns:xlink="http://www.w3.org/1999/xlink" x="0px" y="0px"
	 viewBox="0 0 1119 1024" style="enable-background:new 0 0 1119 1024;" xml:space="preserve">
<path d="M1014.7,116c-8,8-12,17.7-12,29.3v701.3c0,11.6,4,21.3,12,29.3c8,8,17.7,12,29.3,12c11.6,0,21.3-4,29.3-12
	c8-8,12-17.7,12-29.3V145.2c0-11.6-4-21.3-12-29.3s-17.7-12-29.3-12C1032.5,104,1022.7,108,1014.7,116z M920.3,145.2L363.4,351.5
	h-165c-6.6,0-11.4,1.8-14.4,5.4s-4.8,7.4-5.4,11.5s-0.8,10.6-0.8,19.4v5V599c0,7.7,15.1,104.2,45.4,289.6
	c2.2,11.6,7.3,21.2,15.3,28.9c8,7.7,17.5,11.6,28.5,11.6h69.3h5.8c11.5,0,19.7-1.1,24.3-3.3c4.7-2.2,6.2-7.7,4.5-16.5L332,681.5
	h31.4l556.9,165V145.2z M87,393.6c-6.1,0.6-13.1,2.5-21,5.8c-8,3.3-16,7.7-23.9,13.2c-8,5.5-14.9,13.8-20.6,24.8
	c-5.8,11-8.7,23.7-8.7,38v41.2c0,15.4,3,28.7,9.1,40s12.7,19.5,19.8,24.8c7.2,5.2,15.4,9.4,24.8,12.4c9.3,3,16,4.7,19.8,5
	c3.8,0.3,6.9,0.4,9.1,0.4V392.8L87,393.6z"/>
</svg>
