<svg version="1.1" id="Layer_1" xmlns="http://www.w3.org/2000/svg" xmlns:xlink="http://www.w3.org/1999/xlink" x="0px" y="0px"
	 viewBox="0 0 1024 1024" style="enable-background:new 0 0 1024 1024;" xml:space="preserve">
<path d="M512,8.9c277.9,0,503.1,225.2,503.1,503.1S789.9,1015.1,512,1015.1c-106.7,0-206-33.4-287.5-90.2
	C196,903.3,189,865.7,209,837.3c19.8-28.5,59-35.4,87.5-15.5c61.1,42.6,135.4,67.6,215.6,67.6c208.3,0,377.3-169,377.3-377.3
	c0-210.1-169-377.3-377.3-377.3c-105.9,0-198.5,42.2-266.9,110.4l60.5,60.5c29.7,29.7,8.6,80.6-33.2,80.6H56.1
	c-26,0-47.2-21-47.2-47.2V122.8c0-42,50.8-63.1,80.5-33.4l66.8,66.8c91-91,216.8-147.4,354-147.4H512z"/>
</svg>
