<?xml version="1.0" encoding="utf-8"?>
<!-- Generator: Adobe Illustrator 23.1.1, SVG Export Plug-In . SVG Version: 6.00 Build 0)  -->
<svg version="1.1" id="Layer_1" xmlns="http://www.w3.org/2000/svg" xmlns:xlink="http://www.w3.org/1999/xlink" x="0px" y="0px"
	 viewBox="0 0 1024 1024" style="enable-background:new 0 0 1024 1024;" xml:space="preserve">
<path d="M952,145.3V402c0,9.9-3.6,18.6-10.9,25.8c-7.3,7.3-15.8,10.9-25.8,10.9H658.7c-16,0-27.4-7.7-33.8-23
	c-6.5-14.9-3.8-28.1,8-39.5l79.1-79.1c-56.6-52.3-123.2-78.4-199.9-78.4c-39.8,0-77.7,7.7-113.7,23.2s-67.3,36.4-93.7,62.7
	c-26.4,26.4-47.2,57.6-62.7,93.7c-15.5,36.1-23.2,74-23.2,113.7s7.7,77.7,23.2,113.7s36.4,67.3,62.7,93.7
	c26.4,26.4,57.6,47.2,93.7,62.7s74,23.2,113.7,23.2c45.5,0,88.4-9.9,128.9-29.8c40.5-19.9,74.7-47.9,102.5-84.3
	c2.6-3.8,7-6.1,13.2-6.9c5.7,0,10.5,1.8,14.3,5.2l78.4,79.1c3.4,3.1,5.3,6.9,5.5,11.8s-1.2,9.1-4.3,12.9
	c-41.6,50.4-92.1,89.4-151.3,117.1S577.8,952,512.1,952c-59.5,0-116.5-11.6-170.7-34.9c-54.2-23.3-101.1-54.6-140.5-94
	c-39.4-39.3-70.7-86.1-94-140.4S72,571.5,72,512s11.7-116.5,34.9-170.7s54.6-101.1,94-140.4S287,130.3,341.3,107S452.5,72,512,72
	c56.1,0,110.5,10.6,163,31.8c52.5,21.2,99.2,51.1,140.1,89.6l74.5-73.9c11.1-11.9,24.4-14.5,40.1-8C944.5,118,952,129.3,952,145.3z"
	/>
</svg>
