<?xml version="1.0" encoding="utf-8"?>
<!-- Generator: Adobe Illustrator 23.1.1, SVG Export Plug-In . SVG Version: 6.00 Build 0)  -->
<svg version="1.1" id="Layer_1" xmlns="http://www.w3.org/2000/svg" xmlns:xlink="http://www.w3.org/1999/xlink" x="0px" y="0px"
	 viewBox="0 0 144.8 154.2" style="enable-background:new 0 0 144.8 154.2;" xml:space="preserve">
<style type="text/css">
	.st0{fill:#FFFFFF;}
</style>
<path class="st0" d="M144.8,71.6c-0.2-1.5-1.3-3.1-2.5-3.2c-1.1-0.1-1.5-0.9-3.1-1.6c-1.8-0.8-2.5-2.3-4.2-3.3
	c-1.8-1-4.8-8.3-7.1-9.9c-2.2-1.6-11.6-8.8-14.9-9.8c-3-0.9-12.5-2.1-16.8-1.7c-4.4,0.4-7.9,0.4-9.9,0.4s-2.5-3-2.5-5.7
	c0-2.9-2.9-9.7-2.2-12.4c0.7-2.7,0.8-5.1,3-6.2c2.2-1,8-3.7,10.7-5.2c2.8-1.5,2.5-2.2,3.6-2.4c1.1-0.2,3.4-0.2,6.3-0.2
	s4.8-0.7,6.6-1.1c1.8-0.4,4-1.5,2.7-2.4C113.3,6,111,6,109.3,6.3s-5.3,0.9-7.5,0.5c-2.3-0.4-5.6-0.5-7.6-2S90.5,1,89.1,0.7
	c-1.5-0.4-2.8-1.1-3,0c-0.2,1,0.2,1.4,0.9,2.6c0.7,1.2,3.8,4.3,4.9,4.6C93,8.1,95.1,8.1,94.7,9c-0.5,0.9-2.9,2.1-4,3
	s-7.8,4.6-9.8,5.4s-7.9,1.4-8.8,0.8s-4,0.3-5.4,0.2s-8.2,0.2-11.7-1.2c-3.5-1.4-5.3-3.2-5.9-3.5c-0.6-0.3-2.9-2-2.4-2.6
	s0.5-1.1,2.8-2.8c2.2-1.7,2.3-1.6,3.6-3.3c1.4-1.6,2.3-3.4,1.1-3.4s-2.1-0.2-3.2,1c-1,1.2-3.9,4.1-5,4.8s-2.9,2.6-3.4,2.9
	s-4.1,0.5-5.2,0.9c-1,0.4-2.5,1.3-3.7,1.7s-3.5,0.2-4.5,1.2c-0.9,1-1.1,0.8-0.4,1.9s1,1.6,2.6,1c1.5-0.6,2.9-0.6,4.6-1.7
	c1.6-1,2.9-2,4.3-1.9c1.4,0.2,3.3-0.1,4,0.9c0.8,1,4.4,4,8.7,5c4.4,0.9,3.4,0.4,4,0.8s0.8,0.9,0.4,1.9c-0.5,1-1.6,8.3-1.6,11.1
	s1.3,8.1,0.9,10.2c-0.4,2.1-2.3,2.9-3.8,3.6c-1.5,0.6-3.9,1.2-5.5,1c-1.5-0.2-3.3-0.7-5.1-0.9c-1.7-0.2-7.7,0.2-9.5,0.7
	s-6.8,3.2-11.1,5.8c-4.4,2.7-9.5,8.5-10.3,10.1c-0.9,1.6-2.7,6-3.3,6.8s-0.9,2.2-0.8,3.4c0.1,0.6-0.8,1.1-1,1.7s-1.1,1.2-2,2.1
	s-2.6,2.6-3,2.9c-0.3,0.4-1.9,1-1.4,1.5s0.8,1.4,2.3,0.2c1.5-1.1,2.2-2.1,3.3-2.6c1.4-0.7,1.9-1.2,2.5-1.2s1.2,1,0.3,1.6
	s-2.5,2.7-3,3.5c-0.5,0.9-2.5,3.3-1.9,3.4s1.4,0.6,2.7-0.6c1.2-1.1,2.1-3.6,3.1-4.6c0.9-0.8,1.2-1.9,2.1-1.8c0.8,0.1,1,0.2,0.9,1.5
	c-0.1,1.2-0.7,1.8-0.9,2.5c-0.1,0.3-0.8,1.4-0.9,2.2c-0.3,1.5-0.9,1.9,0.2,2s1.1,0.2,1.9-1.1c0.8-1.3,0.8-1.5,1.3-3.3s0-3.5,1.5-3.7
	c0.6-0.1,0.3,0.4,0.7,2c0.3,1.6,0.1,2.5,0.5,3.9c0.2,0.8-0.2,1.8,0.6,2.2c1.9,0.9,2.3,0.6,2.1-0.6C19,86.3,19,86,19,85.1
	s-0.3-1.2-0.5-2.4c-0.2-1.3-0.5-1.5-0.6-2.1s0.1-0.5-0.5-1.6c-0.7-1.1-0.1-3,0.1-3.9s1.8-5.4,3.1-7c1.3-1.6,2.5-3.6,3.6-4.6
	s2.7-2.3,5.3-3.5c2.1-1,3.7-1.3,4.5-0.5c1,0.9,0.7,3.4,2.1,7.2c1.4,3.8,2.7,7.2,2.7,11.1s-0.7,24.2-0.9,26.3
	c-0.3,2.1-1,7.3-1.2,12.6c-0.1,2.8-0.2,7.8-1.3,10.3c-1.1,2.5-1.7,8-3.3,10.2c-1.6,2.2-5.4,8.9-5.9,10.5c-0.6,1.6-0.6,5,0.3,5.8
	c0.8,0.8,5.5,1.4,7.7-0.9c2.2-2.3,8.7-16.1,14.5-18.7c5.8-2.5,31.9-5,37.9-3.4s15.3,14,18.6,16.4c3.3,2.4,3.9,3.9,8,3.7
	s3.3-2.6,1.6-5.6c-1.7-3.1-5.6-12.9-7.1-16.8c-1.4-3.9-4.2-16.8-3.6-26.4s2.9-21.9-0.1-37.2c-0.8-4,2.3-8.6,5.7-8.3
	c3.4,0.3,5.8,2,7.4,3.9c2.3,2.7,4.6,6,5.9,7.5c1.2,1.4,0.8,2.8-0.2,5.9c-0.4,1.2-0.8,2.5-1.1,2.8c-0.2,0.3-0.4,2,0.4,2.1
	c0.8,0.2,2.7-1.8,2.8-2.3c0.1-0.5,0.9-1,1-2.4s1.4-4.1,2.1-4s0.4,3.3,0.5,4s0.9,3,1.4,4.3s1,2.5,1.6,2.2c0.7-0.3,1.6-2.7,1.3-4.1
	c-0.3-1.5-1.6-4.8-0.9-4.6c0.7,0.2,3.8,4.2,4.8,4.8c1,0.7,1.4,1.9,2.8,1.4c1.4-0.5,1.4-2.7,0.6-3.3c-1.1-0.7-2.3-0.8-3.1-2.3
	c-0.5-0.9-0.7-1.4-1.3-2.1c-0.9-0.9-1.3-1.6,0.2-1.5c0.8,0,1,0.5,1.9,0.9s0.9,0.4,1.8,1c0.8,0.5,1.4,1.1,2.6,2.1
	C144,73.8,145,73.1,144.8,71.6z M81.5,97.4c0.1,0.8-0.2,1.6-0.5,2.4c-0.6,1.3-1.6,2.2-2.7,3c-0.1,0-0.1,0.1-0.2,0.1
	c-0.3,0.4-0.6,0.8-1,1.2c-1.9,1.8-5.1,2.3-7.4,0.8c-0.2-0.1-0.3-0.3-0.5-0.4l0,0c-0.9-0.1-1.5-0.1-2.2-0.6c-0.6-0.4-1.3-1-1.6-1.6
	c-0.4-0.8-0.6-1.6-0.6-2.4c-0.2-0.5-0.3-0.9-0.4-1.4c-0.1-0.2-0.3-0.4-0.4-0.6c-0.2-0.2-0.3-0.5-0.4-0.7c-0.5-1.1-0.9-2.1-0.8-3.3
	c0.1-1,0.5-2,1-2.7c0.3-0.9,1-1.6,1.8-2.1c0.3-0.4,0.7-0.8,1.1-1.1c0.6-0.8,1.5-1.4,2.5-1.6c0.5-0.3,1-0.5,1.5-0.6
	c2.3-0.6,4.3-0.1,6.4,0.9c0.6,0.3,1.2,0.9,1.7,1.5c0.9,0.7,1.7,1.5,2.3,2.6C82.2,92.5,82.2,95.1,81.5,97.4z"/>
</svg>
