<svg version="1.1" id="Layer_1" xmlns="http://www.w3.org/2000/svg" xmlns:xlink="http://www.w3.org/1999/xlink" x="0px" y="0px"
	 viewBox="0 0 1024 1024" style="enable-background:new 0 0 1024 1024;" xml:space="preserve">
<style type="text/css">
	.st0{fill-rule:evenodd;clip-rule:evenodd;fill:#1A1A1A;}
</style>
<g id="OQd9CO.tif">
	<g>
		<path class="st0" d="M56.5,127.4C56.5,37,132.3,0,191.2,0c51.2,0,371.1,0,481.1,0c33.3,0,61.4,11.3,84.5,33.9
			c58.9,56.5,115.2,113,174,169.5c20.5,20.3,30.7,40.7,30.7,67.8c0,126.6,0,567.4,0,662.3c0,56.5-38.4,90.4-102.4,90.4
			c-220.1,0-442.8,0-662.9,0c-73,0-139.9-14.3-139.9-102.7 M155.4,158.9c0-24.9,0-57.3,58.3-57.3c156.1,0,294.9,0,451,0
			c2.6,0,5.1,0,10.2,0c0,54.3,0,65.6,0,119.9c0,24.9,15.4,36.2,43.5,36.2c53.7,0,81.1,0,134.9,0c12.8,0,15.4,2.3,15.4,13.6
			c0,65.6,0,566.8,0,625.6c0,20.3-12.8,31.6-35.8,31.6c-102.4,0-605.8,0-636.5,0s-40.9-9-40.9-36.2"/>
	</g>
</g>
<path class="st0" d="M736.6,512H287.4c-24,0-43.4-19.4-43.4-43.4V452c0-24,19.4-43.4,43.4-43.4h449.3c24,0,43.4,19.4,43.4,43.4v16.5
	C780.1,492.6,760.6,512,736.6,512z"/>
<path class="st0" d="M736.6,683.6H287.4c-24,0-43.4-19.4-43.4-43.4v-16.5c0-24,19.4-43.4,43.4-43.4h449.3c24,0,43.4,19.4,43.4,43.4
	v16.5C780.1,664.1,760.6,683.6,736.6,683.6z"/>
<path class="st0" d="M736.6,855.1H287.4c-24,0-43.4-19.4-43.4-43.4v-16.5c0-24,19.4-43.4,43.4-43.4h449.3c24,0,43.4,19.4,43.4,43.4
	v16.5C780.1,835.7,760.6,855.1,736.6,855.1z"/>
<path class="st0" d="M493.6,340.4H287.4c-24,0-43.4-19.4-43.4-43.4v-16.5c0-24,19.4-43.4,43.4-43.4h206.2c24,0,43.4,19.4,43.4,43.4
	V297C537,321,517.6,340.4,493.6,340.4z"/>
<path class="st0" d="M705.4,965.2"/>
</svg>
